/* XPM */
static char *__resized[] = {
/* columns rows colors chars-per-pixel */
"64 64 190 2 ",
"   c None",
".  c #303B54",
"X  c #394157",
"o  c #354158",
"O  c #3D455B",
"+  c #3C485F",
"@  c #3D4A60",
"#  c #434A5F",
"$  c #4A4B5D",
"%  c #5B4553",
"&  c #5E4956",
"*  c #524A5B",
"=  c #5B4D5A",
"-  c #79484D",
";  c #624955",
":  c #634F59",
">  c #684953",
",  c #764B50",
"<  c #645059",
"1  c #695058",
"2  c #7B5354",
"3  c #725256",
"4  c #414A60",
"5  c #4C5265",
"6  c #54596C",
"7  c #555A6C",
"8  c #595E71",
"9  c #755961",
"0  c #5D6273",
"q  c #5F6778",
"w  c #65697A",
"e  c #6C6E7C",
"r  c #636778",
"t  c #72717C",
"y  c #DD3F26",
"u  c #E03F25",
"i  c #99423D",
"p  c #B74538",
"a  c #AA493F",
"s  c #DD4027",
"d  c #DD432B",
"f  c #D7462F",
"g  c #C24534",
"h  c #CF4531",
"j  c #CC4B37",
"k  c #D24631",
"l  c #D44A35",
"z  c #DC4B34",
"x  c #DC4F39",
"c  c #DA4A33",
"v  c #DD523C",
"b  c #D55F3F",
"n  c #CE422D",
"m  c #E24127",
"M  c #E2442A",
"N  c #E64B2D",
"B  c #E54E31",
"V  c #E65636",
"C  c #F35C35",
"Z  c #DB613F",
"A  c #E8643F",
"S  c #FD6435",
"D  c #FF6837",
"F  c #F3663C",
"G  c #FC673A",
"H  c #FD683B",
"J  c #F5653A",
"K  c #864749",
"L  c #894748",
"P  c #874546",
"I  c #944643",
"U  c #9B4642",
"Y  c #9C4843",
"T  c #94564D",
"R  c #9B584E",
"E  c #855552",
"W  c #8A5651",
"Q  c #925750",
"!  c #A64E46",
"~  c #AB5B4B",
"^  c #AA574B",
"/  c #BB5D49",
"(  c #B65A47",
")  c #BD6154",
"_  c #84656A",
"`  c #A37D7A",
"'  c #C45E45",
"]  c #DD5945",
"[  c #E15B46",
"{  c #DB6241",
"}  c #DC604E",
"|  c #CB6959",
" . c #DD6453",
".. c #DD6E5E",
"X. c #D1705F",
"o. c #C96045",
"O. c #E36440",
"+. c #FC6D41",
"@. c #F76B41",
"#. c #FD744B",
"$. c #FB734A",
"%. c #E3705E",
"&. c #FC7850",
"*. c #FC7F58",
"=. c #E26A58",
"-. c #DC7463",
";. c #DC7A6D",
":. c #DC7F72",
">. c #E07364",
",. c #FD815B",
"<. c #FF8057",
"1. c #DC8479",
"2. c #FD8561",
"3. c #FE906F",
"4. c #FD9473",
"5. c #FE9A7B",
"6. c #6E7282",
"7. c #767987",
"8. c #777A89",
"9. c #727685",
"0. c #857F86",
"q. c #7E818E",
"w. c #82818B",
"e. c #888A95",
"r. c #92939E",
"t. c #9A9499",
"y. c #968F93",
"u. c #AF9390",
"i. c #9597A1",
"p. c #9799A3",
"a. c #9C9CA2",
"s. c #A49EA2",
"d. c #A4A4AC",
"f. c #A9A5AA",
"g. c #B7A9A8",
"h. c #ABABB2",
"j. c #BAB5B7",
"k. c #B0AEB4",
"l. c #DD8D83",
"z. c #C6988D",
"x. c #DC9A93",
"c. c #E1968C",
"v. c #DAA59A",
"b. c #FEA68B",
"n. c #FEB49D",
"m. c #DCAEAA",
"M. c #C6B8B3",
"N. c #DDB6B4",
"B. c #D1BCB3",
"V. c #DCB1AE",
"C. c #FEB6A0",
"Z. c #D7C2B8",
"A. c #DAC4BA",
"S. c #DDC9BF",
"D. c #D7C1B7",
"F. c #FEC3B0",
"G. c #FFC3AF",
"H. c #BEBDC2",
"J. c #C0BFC4",
"K. c #C4C2C5",
"L. c #C8C6CA",
"P. c #D3CCCB",
"I. c #DDC8C5",
"U. c #D6D3D4",
"Y. c #D8D5D6",
"T. c #DDD9DA",
"R. c #E2CDC3",
"E. c #E2D1C9",
"W. c #FED6CA",
"Q. c #E5D8D3",
"!. c #EBDCD3",
"~. c #E3DDDC",
"^. c #EBDFD9",
"/. c #EEE2DC",
"(. c #FCE4DD",
"). c #DCE4EB",
"_. c #DCEFF8",
"`. c #DCF7FF",
"'. c #E7E2E2",
"]. c #EAE4E3",
"[. c #EEE8E6",
"{. c #EEE9E8",
"}. c #F2EAE6",
"|. c #F3EDEA",
" X c #F2E7E2",
".X c #F6F0ED",
"XX c #FAF2EE",
"oX c #FBF5F1",
"OX c #FFF9F6",
"+X c #FFFEFC",
/* pixels */
"                                                                                                                                ",
"                                                                                                                                ",
"                                                                                                                                ",
"                                                                                                                                ",
"                                                                                                                                ",
"                                                                                                                                ",
"                                                                                                                                ",
"                                                                                                                                ",
"                                                                                                                                ",
"                                                                                                                                ",
"                                                                                                                                ",
"                                            # # # # # 4 # # # # # # # # # # # # # 4                                             ",
"                                          # # # # # 4 # 4 4 4 # 4 # # # # + # # # # #                                           ",
"                                  # 4 # # # 4 # 4 @ @ @ @ @ @ @ @ @ + + @ @ @ 4 4 # # # # # #                                   ",
"                                # # # # # # 4 # 4 $ # $ 4 $ $ # $ # $ $ $ $ # # # # # # # # # #                                 ",
"                              # # # # 4 4 4 4 * 1 2 2 2 2 2 2 2 2 2 2 2 2 2 2 1 * 4 @ 4 4 4 # # #                               ",
"                            # # # # 4 @ @ @ 4 < R ' ' ' ' ' ' ' b / ' ' ' o.' R 1 @ @ + # 4 # # # #                             ",
"                          $ # # # # $ * * $ = E ' F H G G @.H @.@.$.$.H F H F ' E = $ * * $ # # # # 4                           ",
"                        4 # # 4 @ 4 < E Q Q Q / O.G D H H G H <.5.b.3.#.H D S V ( T Q Q E < # + 4 # # #                         ",
"                      # 4 # # 4 @ * E / { { { O.@.H H H H S +.3.F.W.n.,.D S G F A Z { { / E * + 4 # 4 $ #                       ",
"                    # # # 4 4 $ * 3 ~ Z H D D D H H H H G S @.4.F.W.n.,.+.#.,.2.,.,.<.H Z ~ 3 * $ 4 4 # # #                     ",
"                  # # # + @ @ = W ~ Z J D D H H +.G G G H G H *.5.b.3.&.#.5.C.F.G.n.5.&.F ] ~ W = 4 @ # # # #                   ",
"                # # # # # 4 $ 2 / A H H +.H H H H G G G H H G +.$.#.H H ,.C.(.OXOX(.n.,.G S O./ 2 $ 4 # # # # #                 ",
"                # # 4 # $ = 2 ^ Z +.*.3.4.,.+.D G G H G H H H G S S S G 2.F.OX+X+X+XG.,.G S D { ^ 3 = $ # 4 # #                 ",
"                # # 4 # = W / Z J $.5.F.F.5.$.S G H H H H G G G J S S S 2.F.OX+X+XOXF.2.H S H F { / W = # # # #                 ",
"                # 4 @ 4 < ~ O.D S #.b.W.W.b.#.J S H H H H H H G G G S G ,.C.(.OXOX(.C.,.G S H H D O.~ < @ @ # #                 ",
"              # # # @ @ < ~ @.D S $.4.n.n.4.+.G G G H G H H G H G H G G &.5.C.F.F.C.5.&.G S H H H F ~ < @ @ # # #               ",
"            # # # # @ @ < ~ A H D H #.,.,.#.+.G H G H G H H @.G G H G G @.&.,.2.2.,.&.+.H G G H D @.~ < @ @ # # # #             ",
"          # # # # # $ % 2 ( V H D H D G G H H H H G H H H H H H H H H H H H G G G G G H H H G G G V ( 2 & $ # # 4 4 #           ",
"          # # 4 # $ > L a j B C J H G S S G G G H H H H H H H H H H +.H H D S S S G G D H H H J C V j a L > $ # 4 $ #           ",
"          # # 4 @ * - p n d B B C G H G H G G S G G @.G H G G G H G H F H H G G H G H H H H S C V M f n p - * 4 4 # #           ",
"          # # 4 @ * L g m m d B V C C C C C C C C C C C C C C C C C C C C C C C C C C C C C C V N M m m g K * @ 4 # 4           ",
"          4 # 4 4 * L g M M c M B V N N N M N B B B B N N B N B B B B V N B V N B B B V B B B N s s m M g K * @ @ # #           ",
"          # # 4 @ * K p M M d d u y B V V ] V B z d z x V z M d d d d d M d d M d d d d d M d z x v B M g K * @ @ # #           ",
"          # # 4 4 * K g M M d y y ]  .;.l.l.1.%.] z  .:.:. .z d d d d d d d d d d d d d d s d ] ;.1...v p - * @ 4 # #           ",
"          # 4 4 @ * K g d M c y y B ;.m.J.I.J.x. .v ;.m.V.:.x y d d d f d d d d d d d d d s c ..v.N.c.} y P * @ @ # #           ",
"          4 4 4 @ * K g M M d d y ] :.J.)._.).N...] ;.m.m.:.x y d d d d f d d d d d d z d s z ..v.N.c.[ g P * @ 4 # #           ",
"          4 $ 4 @ * L g M M M y y ] l.E._.`.).N.-.v ] :.1. .z d d d c d d d d d d d d d d s d ] ;.1.>.V g P * @ 4 # #           ",
"          4 4 4 4 * K p d M M u u x 1.I.).).T.m.-.z d v v z d d d d d d d d d d d d d d d d d z B v z d g K $ @ 4 # #           ",
"          4 4 4 4 4 , Y p h c u u [ >.c.N.N.m.l. .M u u u y d d d M M M M d d d d s d d M M M M m y n p U , $ # 4 # #           ",
"          # # 4 4 $ * > P p f u u u [ =.>..... .V d M u M y u m M M M M d d s s s s s M d M M M M y p P > * $ 4 4 # #           ",
"          # # # # # # # ; I g k k c h k l ] ] x l l h h k c z z k k h h k l x x x x l k h h h k k g I ; $ 4 # # # # #           ",
"            # # # 4 4 4 $ - I U Y U U i a ] | | ~ Y i i ! ) -.| ^ U I U ! ) X.-.-.X.) ! i U Y i U I , $ @ @ # # # #             ",
"                # 4 4 4 $ * % & ; ; % % 9 0.l.0.9 : % % 9 ` u.u._ ; % % 9 ` z.v.v.z.` 9 & % : & & % * $ 4 4 # #                 ",
"                5 4 4 4 4 # 4 # 4 4 O O 0 t.M.g.t # o + 0 t.M.f.t 4 o @ 8 y.B.I.S.D.y.0 + + # # 4 4 4 4 # # 4 #                 ",
"                    4 4 # 4 @ 4 @ 4 + O r s.J.k.9.+ . o 0 t.P.j.9.@ . . 8 a.P././.P.a.q + + # + @ @ 4 4 # #                     ",
"                      4 # # # # 4 4 O # 6.k.^.J.q.5 O # e k.T.K.0.6 @ 4 e h.~.oXoX~.d.q + O # # # # # # #                       ",
"                      # # 4 4 # 4 # O O r k.'.Q.d.q.9.8.r.L.{.U.d.8.6.8.r.J.{.OX+X/.h.w # O # # # # # # #                       ",
"                              # # # # # w h.'.[.U.K.H.J.P.'.|.].U.K.H.J.L.'..XOXOX].h.r # X # # #                               ",
"                                # # . $ r h.].oX.X|.|.}.}.}.|.|.[.[.}.|.|..X.XoXOX].h.r # # # #                                 ",
"                                # # . # w f.].OX+XXX|./.!.Q.Q.Q.!.^.|.oXOXoX.XoXoX].h.r # X # #                                 ",
"                                # # # # w h.].OXoX.X^.I.A.D.A.Z.D.S.Q.{..XoXoXoXoX'.f.r # # # #                                 ",
"                                # # X # w h.].OXOX|.!.I.Z.Z.Z.Z.Z.S.Q.}.oXoX.XoXOX].h.r # X # #                                 ",
"                                # # # # w h.{.OX+X.X}.^.Q.!.!.!.!.^. X.XoXoXoXOX+X[.k.r # O # #                                 ",
"                                # # O # w h.'.oXXX.X.X}.}.}.}.[.}.}.}.|..X.X.X.X.X'.f.w # X # #                                 ",
"                                # # + 4 8 e.j.P.Q.!././.~.P.L.J.J.K.U.Q.^././.T.P.j.e.0 # # # #                                 ",
"                                # # # # 5 r 8.t.M.A.R.S.M.s.w.8.8.w.s.M.I.S.A.M.t.7.r 5 # # # #                                 ",
"                                # 4 # # # # 5 t s.N.S.D.g.0.6 # 4 6 0.g.D.S.B.s.t 5 # # # # # #                                 ",
"                                  # # # # . # t g.R.!.E.M.w.5 . . 5 0.M.E.!.R.g.t # . # # # #                                   ",
"                                    # # # X 4 8.j./.XX|.P.e.6 X X 6 e.P.}.XX[.j.7.$ X # # #                                     ",
"                                      # # O 4 6.h.U.{..XU.r.6 X X 7 r.Y.XX}.U.h.6.4 # # #                                       ",
"                                        # # 4 0 7.p.L.].Y.p.6 X X 7 p.Y.].K.p.7.8 # # #                                         ",
"                                          # 4 4 5 q d.Y.Y.p.6 X X 6 r.Y.T.d.r 4 # # #                                           ",
"                                          # # O o 5 r.U.Y.a.7 X X 6 p.Y.Y.r.5 X # # 4                                           "
};
