/* XPM */
static char *__resized[] = {
/* columns rows colors chars-per-pixel */
"64 64 206 2 ",
"   c None",
".  c #2E3A53",
"X  c #303E57",
"o  c #37435A",
"O  c #3D455B",
"+  c #3E495F",
"@  c #3E4A60",
"#  c #40475D",
"$  c #4E4758",
"%  c #434A5F",
"&  c #4C4A5D",
"*  c #484355",
"=  c #524B5B",
"-  c #5C4C59",
";  c #7F484B",
":  c #77484D",
">  c #674953",
",  c #634F59",
"<  c #694F57",
"1  c #704850",
"2  c #6D5157",
"3  c #645059",
"4  c #6A5058",
"5  c #795354",
"6  c #414A60",
"7  c #484F63",
"8  c #4D5266",
"9  c #4E5468",
"0  c #50566A",
"q  c #53596C",
"w  c #585A6A",
"e  c #595E70",
"r  c #6A5D68",
"t  c #5C6273",
"y  c #65697A",
"u  c #696A77",
"i  c #776C74",
"p  c #6E727F",
"a  c #DD3F26",
"s  c #E23F24",
"d  c #A9463D",
"f  c #B94538",
"g  c #DD4027",
"h  c #DD432B",
"j  c #D3442F",
"k  c #C24535",
"l  c #C74A39",
"z  c #DD4730",
"x  c #DD4A33",
"c  c #D64C36",
"v  c #CC533E",
"b  c #DD523C",
"n  c #D2523E",
"m  c #E2442A",
"M  c #E34A2E",
"N  c #E44126",
"B  c #EF532F",
"V  c #E34E32",
"C  c #EE5532",
"Z  c #EE5935",
"A  c #E75C39",
"S  c #F15B36",
"D  c #EB653E",
"F  c #E3613D",
"G  c #FD6435",
"H  c #FF6837",
"J  c #F4663C",
"K  c #FB6639",
"L  c #FD683B",
"P  c #F5653A",
"I  c #844345",
"U  c #854749",
"Y  c #894748",
"T  c #884949",
"R  c #984945",
"E  c #93564E",
"W  c #97584F",
"Q  c #99584E",
"!  c #8F5650",
"~  c #865552",
"^  c #935550",
"/  c #9F5A56",
"(  c #AD5B4A",
")  c #AD5745",
"_  c #B95945",
"`  c #B5675C",
"'  c #B36A61",
"]  c #BF7265",
"[  c #C65F45",
"{  c #DC5641",
"}  c #DD5D4A",
"|  c #D85942",
" . c #E15A45",
".. c #CD6044",
"X. c #DB6241",
"o. c #D86149",
"O. c #DC6B5B",
"+. c #DD6250",
"@. c #E66546",
"#. c #FD6E42",
"$. c #F26A42",
"%. c #FD7145",
"&. c #FC744B",
"*. c #FC784F",
"=. c #FE7C54",
"-. c #FC7F58",
";. c #E26A58",
":. c #CC7C6D",
">. c #DD7263",
",. c #DD796B",
"<. c #DC7F73",
"1. c #DC6F60",
"2. c #E17D6F",
"3. c #FD835D",
"4. c #DB8375",
"5. c #DC867B",
"6. c #FD8561",
"7. c #FD8965",
"8. c #FD8C6A",
"9. c #FD9271",
"0. c #FF9879",
"q. c #E3897C",
"w. c #6C7080",
"e. c #767886",
"r. c #9A8788",
"t. c #878995",
"y. c #888A96",
"u. c #8B8D99",
"i. c #998F91",
"p. c #8F919C",
"a. c #92939D",
"s. c #9A969C",
"d. c #9D9497",
"f. c #AF938F",
"g. c #A69B9D",
"h. c #9596A1",
"j. c #9F9FA5",
"k. c #A19FA6",
"l. c #A5A5AC",
"z. c #A5A4AA",
"x. c #B0A9A9",
"c. c #ABAAB2",
"v. c #A7A7B0",
"b. c #B6B4BA",
"n. c #BBB8BA",
"m. c #B0AFB5",
"M. c #DC8B81",
"N. c #DC948C",
"B. c #DC9A93",
"V. c #E1968C",
"C. c #C5A49B",
"Z. c #DDA29C",
"A. c #FEA286",
"S. c #FEA58A",
"D. c #FEAD94",
"F. c #DDA8A4",
"G. c #C7B9B5",
"H. c #D4BEB4",
"J. c #DCB8B6",
"K. c #CFB4A9",
"L. c #FEBAA5",
"P. c #FEBFAD",
"I. c #CDC1BC",
"U. c #DAC6BD",
"Y. c #DBC8BF",
"T. c #FEC7B6",
"R. c #FEC0AD",
"E. c #C8C5C9",
"W. c #CDC8C9",
"Q. c #DECBC3",
"!. c #DDCDCA",
"~. c #D5CCCB",
"^. c #D7D0CE",
"/. c #D9CFD2",
"(. c #D6D2D4",
"). c #DCD6D8",
"_. c #DDD9DA",
"`. c #DAD5D3",
"'. c #FECFC1",
"]. c #E3D2CA",
"[. c #E8D7CF",
"{. c #FFD7CB",
"}. c #EADAD2",
"|. c #E3DDDC",
" X c #EBDFD9",
".X c #E7DAD4",
"XX c #FFDDD3",
"oX c #ECE1DB",
"OX c #E7E0DE",
"+X c #F0E4DE",
"@X c #DCDCE1",
"#X c #DCEDF5",
"$X c #DCF4FE",
"%X c #DCE5EC",
"&X c #E7E2E1",
"*X c #EAE5E3",
"=X c #EEEAE9",
"-X c #F1E7E2",
";X c #F3EAE5",
":X c #F4EEEB",
">X c #FFECE6",
",X c #F7F1ED",
"<X c #F8F2EF",
"1X c #FBF5F2",
"2X c #FFF9F5",
"3X c #FFFEFC",
/* pixels */
"                                                                                                                                ",
"                                                                                                                                ",
"                                                                                                                                ",
"                                                                                                                                ",
"                                                                                                                                ",
"                                            % % % % % @ 6 % % @ % % % % % % & 6 % %                                             ",
"                                          % % % & 6 % & & 6 % & % 6 % % % % 6 6 % % 6                                           ",
"                                          % % % @ @ @ @ @ @ @ @ 6 6 % @ 6 + @ 6 6 % %                                           ",
"                                  % % % % % + % @ @ @ @ @ @ @ @ @ @ @ @ @ @ @ @ @ % 6 & % % %                                   ",
"                                % % % % % 7 & 7 8 = = = = = = = = = = = = = = = 7 6 6 + % % % %                                 ",
"                              % % % + @ + @ + = 5 E ^ W W W ^ W E E W E W W E 5 = @ @ + + % % % %                               ",
"                            % % % % 6 + + @ % 2 ( X.X.X.X.X.X.X.X.X.X.X.X.X.X.( 2 % @ + % % % % % %                             ",
"                          % % 6 + % = 3 3 3 4 ! ..L L L K K H %.=.3.=.%.H H H v W 4 , , - = % + 6 % %                           ",
"                        % % % 6 + & 4 W ( ( ( ..D L L L H H L 7.S.L.0.=.H G G F v ) ( ( W 2 7 @ 6 % % %                         ",
"                      % % % % % % = ! ..D D D J L L L L K G L 9.T.+XL.3.H G #.$.$.$.D J ..! = @ 6 % % % 6                       ",
"                    % % % 6 6 & 3 ~ _ D H H L L L L L L K P #.8.L.T.S.=.%.-.9.0.0.9.3.&.D _ ~ 3 = 6 6 % 7 %                     ",
"                  % % % 6 @ 6 3 Q [ F P G H H H L L L L L K L =.8.9.-.#.=.A.T.{.{.T.S.=.J A [ W 3 6 @ 6 % % %                   ",
"                % % 6 % % % = ~ ..J %.&.%.%.L H L L K L K L K #.L #.K G 6.P.>X3X3X>XL.3.K G J [ ~ = 7 % % % % %                 ",
"                % % 6 % = 2 ! _ F #.7.A.A.7.#.K K L L L L L J K G P G G 6.T.3X3X3X3XT.6.K G L @._ ! 2 = % 6 % %                 ",
"                % % @ @ , W ..D P &.A.'.'.A.&.K K K L L L L L L K K P K 3.P.1X3X3X1XR.3.H G L K D ..W , + @ % %                 ",
"                % % @ @ 3 ( D H H &.A.'.'.A.&.K K L L L L L L K K H K K -.D.{.>X>X{.D.-.K G L L L D ( 3 % + % %                 ",
"            6 % % 6 @ @ 3 ( J H K #.7.A.A.7.#.K K L L K K L L L L L K K &.8.S.D.D.A.8.&.K K L L L J ( 3 @ @ % % & 6             ",
"          % % % % % 6 % 4 ( D H H L #.&.&.#.L K K K L L #.K L L L L H L L %.&.&.*.%.%.#.L L L K L D ( 4 % + % % 6 6 %           ",
"          % % % % & = > T _ A G K L K G K K L L #.L L L L K L L L L L L K K H G P H K K L L L K L F f ! > = & + 6 % %           ",
"          % % 6 6 & 1 R f c x Z K K L K K K L L L L L L L L L L L L L L L K K K G K K L L #.L K Z x c f R 1 & + 6 % 6           ",
"          % % 6 6 = Y f h m h V Z K K K K K K K K K J K K K K K K K P K K J K G J J K K J G K S V h h h f U = + 6 % %           ",
"          % 6 6 6 $ Y k m m h M C C Z C C B C C C Z Z B C C Z Z Z Z Z Z Z Z Z Z Z Z Z Z Z S Z V m g N N k Y = + 6 % &           ",
"          % % 6 @ = Y k m m h h m M M M m M m m M M M M m V m V V V m V M V m V M M M M M M M m z g N m k Y = + @ % @           ",
"          6 % 6 @ = U k h m h h h z b } } +.+.} x z b } } b z h a h h h h h h h z z a z a z a b } X. .V k I = + 6 6 6           ",
"          % % 6 @ = U k h m h h h c O.M.B.Z.B.<.} b O.M.N.1.c a a j h h h h h h a a z a a a z +.5.B.2.b k I = % 6 @ &           ",
"          % % 6 @ = U k h m h h a b 4.J.@X@X/.B.O.{ <.J.J.5.b a h h h z h z h h z z a z z a z 1.F.U.V. .f I = @ @ % 6           ",
"          % % 6 @ = U k m m h h a b M.!.#X$X%XJ.1.b >.Z.B.,.b a a z h h h h h h a z z a z a M O.V.F.M. .k Y = @ 6 % &           ",
"          % % 6 @ $ U k m m h a a { M.!.#X$X%XJ.>.b { O.O.} z h h h h h z h h h h h h z h h h b O.>.@.V k I $ @ 6 6 %           ",
"          6 % 6 6 = ; f j h h h s V <.J.).@X/.F.O.z a h z z h h z h h h h h h h h h h h h h h z z z z c f ; = 6 6 6 %           ",
"          % 6 6 6 & > Y R j h s m V ;.M.B.Z.B.<. .V s s a a a h h m m m m m h a g g g m m m m m s a a R Y > & 6 6 % %           ",
"          % & 6 6 6 & - : d j m s z  . . .+.} { x h m h h h h a h m h h h h h h h h h h h m h m s j d 1 - & & 6 6 6 %           ",
"            % % 6 % 6 6 - Y f k l k f a l n | c l k k f l | | | l k k f l n | { } b v l k f k k k f Y - 6 6 % % % %             ",
"              % % 6 6 6 & > ; U U U ; : R ` :.] / T I U ^ ' :.] / U I U ^ ' :.4.4.:.' W Y U U U U ; > & @ @ % % &               ",
"                % % 6 6 % & = = & $ * $ r r.C.f.i = * & r r.C.f.i = * $ r r.C.K.K.C.r.r $ $ = = = & & 6 6 6 % %                 ",
"                  % % % % 6 @ 6 @ @ @ @ t g.G.x.w.6 X o t s.G.x.w.6 X o e a.H.[.].I.s.t @ o @ @ @ @ 6 6 % % %                   ",
"                    % % 6 % 6 6 6 6 6 6 y k./.G.e.+ . o t z.^.b.e.% . o t j.(.;X;X`.z.t % O + + 6 6 6 % 6 6                     ",
"                      % 6 & % % 6 6 X # y m.|.E.y.e 7 0 e.b.&XW.y.e 7 0 e.m.*X2X2X&Xc.y # O % % % % % % 6                       ",
"                        6 % 6 % 6 & X & y m.&X@Xb.a.y.a.v.(.=X_.b.h.u.a.l.W.;X3X2X*Xc.y # O % % % % % %                         ",
"                                6 6 # 6 y c.&X,X&X(.(.`._.*X,X=X@X(.^.(._.*X:X1X2X&Xc.y % O % %                                 ",
"                                6 6 O # y c.&X2X2X<X,X;X-X+X-X*X-X;X:X,X1X,X,X1X2X&Xc.y O O % %                                 ",
"                                6 6 O # y c.&X2X2X<X;X}.].].].].].}.+X,X1X1X1X1X2X&Xc.y % O % %                                 ",
"                                & 6 O # y c.*X2X1X:X.XY.H.H.H.H.H.U.].;X1X1X,X1X2X&Xc.y % O % %                                 ",
"                                % 6 O 6 y c.&X2X2X:XoX].Y.U.Y.U.U.Q..X;X1X,X1X1X2X&Xc.y # O % %                                 ",
"                                % % # # y c.&X2X2X,X;XoXoX XoX XoXoX-X:X<X<X,X2X2X*Xc.y # O % %                                 ",
"                                % % O # u l.|.,X1X,X1X,X,X,X,X,X,X,X,X,X<X<X,X<X1X|.l.u # # % %                                 ",
"                                % % o O e d.Q.+X:X<X2X2X2X2X2X2X2X2X2X2X2X2X<X,X+X~.s.e # O % %                                 ",
"                                % % O + e i.G.[.-X,X1X1X<X1X1X<X1X1X1X1X<X1X,X+X].K.i.w # O % %                                 ",
"                                % 7 8 t e.g.G.]. X*X|.).(.(.(.(.(.(.(.(.).OX*X X].G.g.e.t 9 6 #                                 ",
"                                O 8 w.h.b.W.].}.[.].G.z.a.a.a.a.a.a.p.p.k.G.].[.}.].W.n.h.p 0 O                                 ",
"                                O q y.E.-X:X;X XQ.K.i.u 0 0 q q q q 0 q u i.K.Q.oX;X:X-XE.y.0 O                                 ",
"                                O q a._.2X3X1X|.G.i.u 8 O o O O O O o O 8 u i.G.|.1X3X3X_.a.w o                                 ",
"                                O q a._.2X3X1X^.d.u w % # O # # # # O # & 0 u d.^.1X3X3X_.a.q O                                 ",
"                                o q y.E.*X:X@Xb.e.7 O % % % % % % % % % 6 + 8 e.b.|.:X*XE.y.0 O                                 ",
"                                O 8 w.a.c.c.l.y.y # O # % % % % % % % % # O % t y.l.c.c.h.w.9 O                                 ",
"                                % 7 0 t y y y t 8 % #                     # 6 8 e y y y t 0 7 +                                 ",
"                                % % % % % # # % % %                         % % % # # # % % & 6                                 ",
"                                                                                                                                ",
"                                                                                                                                ",
"                                                                                                                                "
};
