/* XPM */
static char *__resized[] = {
/* columns rows colors chars-per-pixel */
"56 64 205 2 ",
"   c None",
".  c #262E19",
"X  c #292E1D",
"o  c #2C311F",
"O  c #2E3520",
"+  c #2C3820",
"@  c #313620",
"#  c #3B3621",
"$  c #333921",
"%  c #3A3A22",
"&  c #433622",
"*  c #4A3723",
"=  c #443923",
"-  c #4B3924",
";  c #533924",
":  c #5A3925",
">  c #5A3624",
",  c #643A26",
"<  c #6C3A27",
"1  c #6D3827",
"2  c #743B28",
"3  c #7C3A29",
"4  c #713627",
"5  c #3C4325",
"6  c #3F4826",
"7  c #364023",
"8  c #414A27",
"9  c #444E28",
"0  c #494C2F",
"q  c #544728",
"w  c #455627",
"e  c #465129",
"r  c #4A562B",
"t  c #4D5A2C",
"y  c #4C5527",
"u  c #515E2D",
"i  c #5A5028",
"p  c #4C4D32",
"a  c #464B37",
"s  c #545E37",
"d  c #6C4C2A",
"f  c #54622F",
"g  c #59682E",
"h  c #57682F",
"j  c #5C722E",
"k  c #566430",
"l  c #596730",
"z  c #5D6C32",
"x  c #606F33",
"c  c #636937",
"v  c #627334",
"b  c #667935",
"n  c #6A7C37",
"m  c #6C7E38",
"M  c #65723E",
"N  c #677131",
"B  c #5B5F50",
"V  c #5E6153",
"C  c #6D6E43",
"Z  c #6A7A43",
"A  c #76704C",
"S  c #646858",
"D  c #6A7254",
"F  c #7D7252",
"G  c #7B7E71",
"H  c #823B2A",
"J  c #8C3C2B",
"K  c #9C3C2C",
"L  c #933C2C",
"P  c #A23D2D",
"I  c #AB3D2E",
"U  c #B43E2F",
"Y  c #BB3E30",
"T  c #87422B",
"R  c #6E8239",
"E  c #6F8337",
"W  c #71853A",
"Q  c #768B3B",
"!  c #798E3E",
"~  c #718537",
"^  c #7C923E",
"/  c #788845",
"(  c #7E9540",
")  c #7E9149",
"_  c #758250",
"`  c #7E8174",
"'  c #859E3E",
"]  c #88A23F",
"[  c #809740",
"{  c #859C42",
"}  c #879B48",
"|  c #889757",
" . c #979959",
".. c #87A042",
"X. c #8AA344",
"o. c #8EA845",
"O. c #8DA34B",
"+. c #91AB46",
"@. c #93A54D",
"#. c #93AE48",
"$. c #98AC4E",
"%. c #95B146",
"&. c #96B149",
"*. c #9AB54B",
"=. c #9EBB4C",
"-. c #98B647",
";. c #9BA655",
":. c #96AB59",
">. c #99AE5E",
",. c #94A654",
"<. c #9EB353",
"1. c #A1BE4E",
"2. c #A3AA5B",
"3. c #A3BC52",
"4. c #ADBE5C",
"5. c #A7B858",
"6. c #B0BE5F",
"7. c #999C69",
"8. c #B79F79",
"9. c #B89F7A",
"0. c #B39E75",
"q. c #AB9C6D",
"w. c #9CAF65",
"e. c #97A374",
"r. c #ACAB65",
"t. c #B2AC6B",
"y. c #A1B46C",
"u. c #A8B566",
"i. c #B4BC64",
"p. c #BEBC6F",
"a. c #B5B569",
"s. c #BBAF74",
"d. c #A9BC74",
"f. c #A6B776",
"g. c #BBB073",
"h. c #C1BB73",
"j. c #C6B27E",
"k. c #C9BB7D",
"l. c #A3C14F",
"z. c #A6C450",
"x. c #A9C056",
"c. c #B2C15F",
"v. c #B5C461",
"b. c #BCC16A",
"n. c #CBC977",
"m. c #C9C576",
"M. c #D0C97C",
"N. c #D3D07B",
"B. c #9B9D95",
"V. c #9A9C94",
"C. c #989E87",
"Z. c #9FA19A",
"A. c #9CA28B",
"S. c #AAB197",
"D. c #A9ABA4",
"F. c #B0B1AC",
"G. c #CAB382",
"H. c #CDB882",
"J. c #D0BA84",
"K. c #DABB8F",
"L. c #D6B98B",
"P. c #DCBA92",
"I. c #B7C68A",
"U. c #BDCC93",
"Y. c #BAC696",
"T. c #DAC688",
"R. c #C1CD9E",
"E. c #DFC390",
"W. c #E1CD8D",
"Q. c #E4C296",
"!. c #EAC49C",
"~. c #EDCD9A",
"^. c #E6C696",
"/. c #F0CB9E",
"(. c #E6D090",
"). c #EBD494",
"_. c #F5D49E",
"`. c #CAD5AA",
"'. c #CDD9AD",
"]. c #C4D1A0",
"[. c #CDD5B7",
"{. c #D5DEB9",
"}. c #C5CDAF",
"|. c #F3CBA2",
" X c #FAD4A4",
".X c #FFD7A8",
"XX c #FFD9AB",
"oX c #FAD7A3",
"OX c #FFDEB0",
"+X c #CBCBCA",
"@X c #D5D6D4",
"#X c #DADAD8",
"$X c #DEE6C7",
"%X c #DEE4CA",
"&X c #DFE8C7",
"*X c #DFE0DE",
"=X c #E2E9CC",
"-X c #E9EEDC",
";X c #EBF0DE",
":X c #EAEBEA",
">X c #EDF1E2",
",X c #EFF1EA",
"<X c #F1F3EC",
"1X c #F6F7F3",
"2X c #F8F8F9",
/* pixels */
"                                      O O o O o O X O X o o X o o o o o o o o o O o o O o o O o o o o o         ",
"                                      $ $ $ $ $ $ $ $ $ $ $ $ $ $ $ $ $ $ $ $ $ $ $ $ $ $ @ $ $ $ $ $ $         ",
"                                    6 6 8 8 8 8 8 9 9 9 9 9 9 9 9 9 9 9 9 9 9 9 9 e 9 9 9 e 9 9 9 9 9 9 8       ",
"                                  5 e y u k f f u k z x x x x x x x x x x x z v x x z z z z z v v z z k t 9     ",
"                $ $ $ o O @ o o o 6 u v b m R m W W Q ' ( ( ^ ^ ( ( ( ( ( ( ( ( ( ( ( ( ( ( ( ( ( ( / E h 9 $ o ",
"                O $ $ $ $ $ $ $ % 9 g E ^ { { ' { } o.#.$.#.*.&.&.&.&.&.&.&.%.$.&.&.&.&.&.&.&.*.*.*.o.^ z 9 $ o ",
"              O $ $ % 6 8 9 9 8 9 u x Q { o...o.X.+.#.-.*.=.1.1.1.l.l.1.1.=.=.-.*.=.=.*.*.*.*.=.z.l.*.( x 9 $ o ",
"            + O $ $ 6 r f g g h g v E ' X.o...X.] ] +.%.*.=.1.1.z.z.z.z.l.=.*.*.&.&.&.&.&.*.*.*.3.z.=.{ v e $ O ",
"        + o o o o 7 e h b W Q ~ W Q ^ { X.X.X...{ X.X.o.#.&.*.1.1.1.z.1.=.&.+.o.o.o.O.o.X.o.o.&.=.1.*.{ v 9 $ o ",
"        % % # # $ 7 r v Q { X.O.O.X.} { { { } O.@.O.X.X.X.#.%.1.=.=.*.&.$.+.o.X.X.X.X.X.X.X.X.o.#.&.O.! z 9 $ o ",
"      ; : : * & # 7 r b ( O.>.u.d.y.w.) / ) :.y.f.w.:.@.X.+.*.*.*.+.{ { [ { X.o.o.o.o.o.O.o.o.X.X.{ ! n u 6 $ O ",
"O $ * , 3 d 1 > & 5 y v ( ,.b.U.].S.e._ M Z e.S.].I.y.@.X.+.-.*.+.( R v n ! X.#.&.%.$.#.&.&.#.X.^ m z t 9 7 $ O ",
"+ $ - < J K J 4 = 7 6 E Q :.I.'.%X[.A.D s S C.[.%X[.I.:.o.] -.=.O.~ k t l W X.&.*.=.*.=.=.=.*...R l e 6 % $ $ $ ",
"+ $ - 2 K U P 3 q 7 w j ! :.U.$X>X@XZ.S a S V.@X>X&XY.:.+.+.-.*.O.R k r k W o.=.l.l.=.=.l.3.*.X.~ k 9 % $ $ $ $ ",
"O $ - 2 P Y I 3 ; 5 w j ^ >.U.=X<X#XB.V a V V.@X1X=XU.>.o.] %.=.o.^ v z b / +.=.l.l.=.1.l.l.*.o.( b k e 6 $ $ @ ",
"+ $ - 3 P Y I H ; 5 6 j ^ >.U.=X1X#XB.V a B V.@X<X=XU.w.+.] %.*.&.X.( ! ( X.*.=.=.l.=.1.=.l.=.*.X.( R z r 6 $ O ",
"+ $ - 2 K U P 3 ; = w j ^ :.U.=X>X#XZ.S B V Z.@X,X&XY.>.o.o.%.=.*.*.#.#.&.*.=.=.1.1.=.1.=.l.=.=.*.&.O.Q z 9 @ o ",
"+ $ = < J K L 4 - 5 w j ^ :.U.$X>X-XF.G V G F.#X,X&XY.>.o.] %.-.z.=.=.=.=.=.=.=.=.=.1.=.=.=.=.=.z.=.&.( z 9 $ O ",
"O $ = : 2 3 2 > # 7 y j ^ >.U.&X<X:X+XD.V.D.+X:X<X&XY.:.o.] -.=.=.z.=.z.z.=.=.1.=.=.1.=.=.1.=.l.z.z.*.{ v 9 $ o ",
"+ $ % = ; : ; & # 7 w j ^ >.U.$X1X2X:X@X+X@X:X2X1X$XY.w.X.o.%.=.=.=.z.=.z.=.1.1.=.1.=.3.=.=.=.l.l.l.*.( v 9 $ X ",
"$ $ @ % # # # # # % r j ! :.I.$X>X2X2X<X:X:X2X2X>X$XI.>.o.] #.=.=.=.=.=.3.=.=.=.=.=.1.=.1.=.=.=.l.1.*.( x 9 $ O ",
"@ @ $ $ + $ % # & q i c R ) e.R.%X-X;X;X=X>X-X-X%X`.f.:.o.o.%.=.=.z.z.=.=.=.1.=.1.=.=.1.=.=.l.l.z.l.*.( x e @ O ",
"  $ + + O @ # ; , 2 d i z Z | S.Y.'.'.'.'.'.'.`.R.I.y.@.X.o.&.=.=.=.=.=.=.=.=.=.l.=.=.l.3.l.=.z.z.z.*.( x e $ X ",
"      + + $ - < J K T d i k Z ) w.f.d.d.d.f.f.f.y.>.,.O.X.+.*.=.3.z.=.=.=.=.z.=.=.=.=.=.=.1.1.z.z.l.*.{ x e $ O ",
"        + $ ; 3 K I L 2 - 9 k R } O.,.O.O.O.O.@.O.X.X.X.X.+.&.*.=.=.=.1.=.=.=.=.=.=.=.=.=.*.*.*.=.-.+.! z 9 @ O ",
"        + % : H I Y K 2 - 5 t b ^ ' ] ] ' ' { ' ] ' { { X.o.#.&.*.*.=.=.z.=.=.z.l.l.l.*.&.X.} [ { { / n u 6 $ O ",
"        + % : H I Y P 4 = 5 t b ^ ] ] ] ' ' ' ' { { { ..X.X.o.+.*.*.*.=.=.z.z.z.l.z.3.*...Q b v v v z k e 5 $ O ",
"        + $ : H I U K 4 = 5 t n ^ ......' X.{ { X.{ ....{ X.X.O.o.&.*.=.=.=.=.=.l.l.3.+.( x t 9 9 9 9 9 5 $ $ @ ",
"        + % ; 2 K P L 1 & 5 t n ^ ..X.X.....{ X...X.} X.X.X.X.X.o.&.*.=.=.*.&.&.&.*.+.{ R k 6 $ @ $ $ $ $ $ $ @ ",
"        O $ - , 3 J 2 > & 8 f m ' ..X.X.X...X.{ ..X.o.o.o.o.o.o.#.*.=.*.&.O.( ( Q ( ( W v t $ X X X O O @ @ @ $ ",
"        $ $ # ; : , > * # 8 u m { X.o.X.{ X.{ X.X.X.+.#.&.&.&.&.*.*.=.*.o./ v l k l z l u 9                     ",
"        @ $ % # = = & $ $ 5 u b ^ X.X.X.X.{ X.{ X.o.#.*.*.=.=.*.=.=.=.*...n k 9 6 6 8 6 9                       ",
"        $ @ @ $ $ $ @ O @ 6 t v Q [ [ { { X.{ X.X.o.-.-.=.=.=.=.=.l.1.-...R u 6 7 $ $ $ $                       ",
"          $ $ + + + + O @ % 9 u x m Q ' { ' X.{ ..X.-.-.=.1.=.=.=.1.1.-.X.! b f e 5 $ O o                       ",
"                    O O @ % 5 9 t z n ! { X.] ] ..o.%.-.=.=.=.=.=.=.=.-.%.X.^ ~ z e % O X                       ",
"                      $ $ + $ $ % e x W { X.O.} O.+.-.=.1.l.3.=.1.l.1.1.1.=.*.X.W k 6 @ o                       ",
"                        $ @ O O $ 8 k W { O.@.@.,.2.5.4.v.v.c.c.c.c.c.c.c.v.v.<.[ c 0 @ X                       ",
"                          @ X X @ 5 f m { @.;.2.u.a.h.m.n.n.n.n.n.n.n.n.N.N.N.b. .M 0 O X                       ",
"                            X X @ 5 f m { $.r.t.j.J.T.W.(.(.^.^.(.(.(.(.).).).T.q.A p $ .                       ",
"                              $ 7 e g ~ } ;.r.j.L.Q.!._. XoX X XoXoXoXoXoXXXoXQ.0.A p $ .                       ",
"                            9 9 u l b Q { ;.t.G.P.!.|..X.X.XXXXX.XXXXXXXXXOXXX!.s.F q # .                       ",
"                  @ O X   5 t z b E ! ^ X.;.t.G.P.!.|. XXXXXXXXX.XXXXXXXXXOXXX~.A.F p # .                       ",
"                @ $ O o O 6 k R { X.X...O.;.t.G.P.Q.|. X.XXX.X.X.X.X.X.XXXOX.X!.9.F p $ .                       ",
"                $ @ $ $ 5 e x ^ +.&.+.o.O.;.t.G.P.!.|. X.X.XXX.X.X.X.X.XXXOXXX!.8.F p $ .                       ",
"              @ $ $ 5 9 u z W ' #.-.+.o.X.;.r.j.P.!.|. X.XXX.X.X.X.X.X.XXXOXXX!.9.F p @ .                       ",
"              O $ $ e h n Q { O.+.+.o.X.} 2.t.G.P.!.|..XXXXX.X.XXX.X.X.XXXOXOX~.9.F p @ .                       ",
"              o @ 5 r M ( o.+.o.o.X.] X.} ;.t.j.K.Q.|. X.X.X.X.X.X.X.XXXXXXXXX^.8.F p @ .                       ",
"              X @ % u b [ o.+.o.X.{ ] ' } ;.r.j.G.E.^.~._.oX X X X X X X.XoXoXE.0.A p O .                       ",
"              O O % e l m ( [ { { X.....o.@.2.t.s.j.M.T.T.(.~./.|.|././.~.).W.k.7.C 0 $ X                       ",
"              @ $ $ 6 e u z m ! } o.....O.} @.;.2.r.i.i.m.M.T.Q.!.!.!.!.Q.M.m.a.| c 9 @ o                       ",
"              @ $ $ $ $ 6 e z m ( { X.} X.} O.O.@.$.3.5.c.p.k.L.P.P.P.K.k.m.6.5.' s 8 $ X                       ",
"                $ $ O O @ 5 t v ~ ! ' { { X.] o.o.#.%.-.3.i.h.k.G.L.J.k.h.i.5.#.Q l 6 @ o                       ",
"                  @ O X o % e k z n Q ( ..X.X.o.+.%.-.=.l.x.i.h.h.h.h.h.i.6.1.#.Q g 8 @ X                       ",
"                            5 9 r k b Q { o.+.%.-.-.=.1.3.x.4.6.i.6.i.5.4.4.1.&.Q g 8 @ o                       ",
"                              $ 5 9 z ~ { o.&.*.=.*.=.*.=.*.*.<.3.3.3.3.1.3.1.#.! g 8 @ X                       ",
"                              o @ 6 k R { #.*.=.=.*.+.{ { { { { ' o.#.&.1.1.1.&.! g 8 @ o                       ",
"                              X @ 8 h R { $.=.l.=.+.( R b v v b m ^ X.+.=.l.l.%.^ g 8 $ o                       ",
"                              O $ 8 k W { +.-.=.*.{ m k r 9 e r l b ^ } %.1.1.#./ l 8 $ o                       ",
"                              O $ 8 f n ^ X.+.$.O.^ z 9 $ @ @ 5 9 g W ' ..$.%.o.Q l 8 @ X                       ",
"                              O $ 6 r z E Q ! ^ ! m f 6 o X X @ 5 r z n Q ! ! Q n f 6 $                         ",
"                              @ $ 5 6 r f l z z z h r     X X O $ 8 r u g z z z k t                             ",
"                              @ $ $ $ 6 6 8 9 9 8 9         @ @ $ $ 6 8 8 9 9 9 9                               ",
"                              $ @ $ $ $ $ $ $ $ $ $         $ $ $ $ $ $ $ $ $ $ $                               ",
"                              $ $ @ @ O o o o o o o         $ @ $ $ @ o o o o o o                               "
};
