/* XPM */
static char *_0_resized[] = {
/* columns rows colors chars-per-pixel */
"64 64 193 2 ",
"   c None",
".  c #252D19",
"X  c #2A2F1E",
"o  c #2D311F",
"O  c #30361F",
"+  c #2E3520",
"@  c #2C3820",
"#  c #273720",
"$  c #313620",
"%  c #3B3621",
"&  c #343A22",
"*  c #3A3A22",
"=  c #433622",
"-  c #433923",
";  c #4C3924",
":  c #473925",
">  c #5C3523",
",  c #533925",
"<  c #5C3A25",
"1  c #533624",
"2  c #633A26",
"3  c #693B27",
"4  c #693726",
"5  c #763A28",
"6  c #3C4425",
"7  c #3F4826",
"8  c #414A27",
"9  c #444D29",
"0  c #4D4629",
"q  c #465129",
"w  c #4A552A",
"e  c #4E5A2C",
"r  c #515E2D",
"t  c #5A5929",
"y  c #484930",
"u  c #444836",
"i  c #4A5239",
"p  c #575D38",
"a  c #664927",
"s  c #6D5128",
"d  c #4D612A",
"f  c #54622F",
"g  c #57692F",
"h  c #576530",
"j  c #586631",
"k  c #5E6D32",
"l  c #606F33",
"z  c #63683B",
"x  c #627334",
"c  c #677A35",
"v  c #697C36",
"b  c #6B7E38",
"n  c #68743D",
"m  c #67722F",
"M  c #555A48",
"N  c #5F6850",
"B  c #686A46",
"V  c #766D4D",
"C  c #717D5C",
"Z  c #68734E",
"A  c #6C6F63",
"S  c #727765",
"D  c #853B2A",
"F  c #8A3B2A",
"G  c #893826",
"H  c #933C2C",
"J  c #9C3B2C",
"K  c #A53D2D",
"L  c #AC3E2E",
"P  c #B33E2F",
"I  c #B93E30",
"U  c #8A402B",
"Y  c #6E8139",
"T  c #72853A",
"R  c #768A3C",
"E  c #798E3D",
"W  c #708637",
"Q  c #7C923F",
"!  c #7A8B43",
"~  c #7E9440",
"^  c #7B8857",
"/  c #849D3E",
"(  c #88A23F",
")  c #809740",
"_  c #849B42",
"`  c #899D49",
"'  c #8A9757",
"]  c #8B8F51",
"[  c #87A041",
"{  c #8AA344",
"}  c #8EA945",
"|  c #8EA34B",
" . c #91AC46",
".. c #92A44D",
"X. c #93AD49",
"o. c #95B247",
"O. c #96B149",
"+. c #99B54A",
"@. c #9EBB4C",
"#. c #98B847",
"$. c #94AA55",
"%. c #9CAC53",
"&. c #98A758",
"*. c #9DB25F",
"=. c #A1BE4E",
"-. c #A4AA5C",
";. c #A2A75C",
":. c #A4BB53",
">. c #ACBD5B",
",. c #A4B756",
"<. c #B0BE5F",
"1. c #9D9562",
"2. c #858B7B",
"3. c #8A946B",
"4. c #B09975",
"5. c #AB9870",
"6. c #9AAC66",
"7. c #9FB266",
"8. c #9DA87C",
"9. c #AAAB63",
"0. c #B5AD6D",
"q. c #A2B56D",
"w. c #A7BB6F",
"e. c #B4BB64",
"r. c #B8BA69",
"t. c #B9AE71",
"y. c #A9BB75",
"u. c #A8BA76",
"i. c #BBB072",
"p. c #BFB972",
"a. c #C5B37C",
"s. c #C6BB78",
"d. c #A3C14F",
"f. c #A6C350",
"g. c #ADC05A",
"h. c #A9C056",
"j. c #B1C45C",
"k. c #B6C065",
"l. c #AEC17A",
"z. c #C5C671",
"x. c #C6C871",
"c. c #CBCA76",
"v. c #C2C56F",
"b. c #8A8C83",
"n. c #92978B",
"m. c #9EAA84",
"M. c #A2A798",
"N. c #B0BB94",
"B. c #ACAEA8",
"V. c #AFB0AB",
"C. c #B9BDB1",
"Z. c #CEB586",
"A. c #CEBA81",
"S. c #D4B98A",
"D. c #D4BA88",
"F. c #DEBC93",
"G. c #E0BC96",
"H. c #B3C285",
"J. c #BECA98",
"K. c #BDC2AE",
"L. c #D9C688",
"P. c #C1CD9E",
"I. c #E1CF8B",
"U. c #E4D28D",
"Y. c #E4C395",
"T. c #EBC49D",
"R. c #E8C997",
"E. c #F5D39F",
"W. c #F0D19A",
"Q. c #CED9AB",
"!. c #CAD6A7",
"~. c #D6DFBC",
"^. c #C8D1B0",
"/. c #F5CDA3",
"(. c #F7D5A0",
"). c #FBD5A5",
"_. c #FDD9A5",
"`. c #FFD7A9",
"'. c #FFD9AB",
"]. c #FFDEB0",
"[. c #D7E0BD",
"{. c #C9CBC6",
"}. c #D1D4C9",
"|. c #D5D6D4",
" X c #DBE2C6",
".X c #DFE2D8",
"XX c #E7EBD9",
"oX c #ECF0DD",
"OX c #E4E4E3",
"+X c #ECEEE8",
"@X c #EEF1E7",
"#X c #F1F3EA",
"$X c #F6F6F5",
/* pixels */
"                              & & $ + + o o o o + o o o O O O o o o X o o o X o o o o o o o o o o o o o + + X + + X + X         ",
"                              $ & @ & & & & & & & & & & O O O * & & & & & & & & & & & & & & & & & & & & & & $ & & $ & &         ",
"                              $ & & 6 6 7 8 8 8 8 8 8 8 8 8 8 8 8 8 9 9 9 9 9 9 9 9 9 9 9 9 q 9 9 9 9 9 9 9 9 9 9 9 9 9 8       ",
"                            + + & * 6 w f f f f f f f f f f p r h j k k l l l l l k k k k k k l l l l k k k x k l l k j e 8     ",
"                        @ + + + & 6 w j c Y Y Y b b b b b b b b T T E Q Q / ~ Q ~ ~ Q ~ ~ ~ ~ ~ Q ~ ~ ~ ~ ~ ~ ~ ) ~ Q b j 8 & + ",
"                      * * & & + & 7 r c Q _ _ / ) _ / / _ _ / / _ {  .X.O.O.O.X.O.O.O.O.O.O.X.O.O.O.X.o.O.O.O.+.+.O.} ! k 9 & X ",
"                      ; 1 1 = % * 7 f Y _ [ { { [ { { { ` { { { {  .O.+.@.=.=.=.d.d.d.d.=.@.@.@.@.@.+.@.+.@.@.@.f.d.+.) l 9 & + ",
"                  * 1 3 3 4 2 ; * 7 f Y _ { } ( ( [ { { } ( ( / ( {  .O.O.@.=.d.d.f.f.f.=.@.+.O.o.O.O.O.O.O.O.+.d.f.+._ x 9 & X ",
"                @ * < 5 H H 5 < - 7 d W / / { { [ [ { { { [ [ _ [ [ {  .X.O.@.=.=.=.=.=.@.O. .} { } } } { } } O.@.@.+.) x 9 $ + ",
"                @ - < D K L H 4 - 7 d W ) { } ..| | { ~ _ _ | | ..| | { } X.+.=.+.=.+.O.X.} { { { [ | { { [ | } O.O.} E k 8 $ + ",
"              # @ = < F L I J 4 - 7 d Y _ $.*.q.u.6.' ! ! ^ &.q.u.7.$.{ {  .O.@.+.| / _ _ ` { } } } | } } } { { { _ E c r 7 $ + ",
"              # @ * < F P I K 4 - 6 d Y _ &.l.J.J.N.3.! n ^ 8.J.J.H.7.| }  .+.+.} ~ b m b ~ { X.O.O.O.X.O.O.X.{ E b j r 8 6 $ $ ",
"                @ % < F L P J 4 0 7 d c ( *.J.[.|.K.3.N M A M.}. X!.l.$.{ } +.+.` Y h e k T } +.@.@.@.O.@.@.O.[ Y h q 7 & & & $ ",
"                $ * < 5 J K G 2 O 7 d c _ q.!.XX+X{.b.M M A B.|.+X~.H.$.} ( #.+._ v r w j R } @.:.=.@.@.=.=.@.[ Y h 9 * & & $ & ",
"              @ $ * ; 3 D D 5 1 * 7 d c [ w.Q.oX+X{.b.M M A B.OX#X XH.$.} #.#.#.} R x k b ~ X.@.=.f.=.f.:.=.@.} ! c r q 7 & & $ ",
"              @ $ & - 1 < 2 1 % O 6 d Y ` w.Q.oX+X{.b.M * A B.OX#X[.H.%.( ( #.@.X.[ Q E ) { +.:.=.=.@.@.=.=.@.O.{ ~ T k e 7 $ $ ",
"                & & * * - - % % & 6 f c _ q.!.XX+X{.b.M M A B.OX@X[.H.$.{ ( o.@.@.O.O.X.O.O.@.@.=.=.@.=.=.@.@.@.#.O.{ R j 7 $ @ ",
"                $ & $ $ $ & * % : 0 t m E 6.P.XX+X|.M.S A b.C.OX@X[.H.$.} } #.@.@.=.@.@.=.=.@.@.@.@.=.@.@.=.=.=.f.=.O.~ k q $ + ",
"                  $ @ @ @ & : 1 2 a s s n ' N.XX#XOX{.M.n.V.|.$X#X[.H.%.( ( #.@.=.=.=.f.=.=.@.=.@.@.@.=.=.@.=.=.f.f.#.~ x 9 & + ",
"                    @ @ @ * 1 5 F F a a p C M.|.$X$XOX}.{.|.$X$X@X[.H.%.(  .o.@.=.=.=.=.=.=.=.=.=.=.@.@.@.@.=.=.f.=.O.~ k 9 & X ",
"                      # $ * 3 F K K G > 0 N n.{.#X$X$X#X+X#X$X$XoXQ.N.X.{ } o.@.=.=.@.@.=.@.@.@.@.=.@.@.@.=.=.=.f.=.O.~ k 9 & + ",
"                      # $ - 3 U P P G > - M ^ K..X@X@XoXoXoX+XXX XJ.q.$.} } o.@.=.=.@.=.=.=.=.=.=.=.=.=.=.=.=.=.f.:.+.~ l 9 $ + ",
"                      # $ - 3 H P P F > & M ^ M.J.Q.Q.Q.Q.^.Q.!.J.u.6.X.{  .O.@.=.@.=.@.=.=.=.f.f.d.d.f.=.d.d.d.f.d.+.) x 9 & + ",
"                      # $ - 3 H P P F < * i Y ^ 7.y.l.y.y.y.u.w.7.6.$.{ { X.#.@.=.=.=.=.=.=.=.=.=.=.=.=.=.d.=.f.f.d.+.) l 9 $ X ",
"                      # $ - 2 F L L D > - q g ! | X.| | | | | | | | { { { ..+.@.=.=.@.@.@.O.@.O.O.+.+.+.+.+.O.+.@.+.} ! j 9 & o ",
"                      @ $ % < 5 F F 5 1 * 9 g W Q ( [ [ ( / ( / [ _ [ [ { } X.+.+.@.@.@.O.} _ ~ ) ) _ _ ) ) _ _ _ _ ~ c f 7 & o ",
"                      @ $ * : < 3 4 1 = * 9 j W ~ ( { ( / / / / / _ [ _ { { } X.O.@.=.O.{ ! v l k x x x x x x x x x l h q 6 & + ",
"                      $ & & * : ; = = % & 9 k T ( { [ [ [ _ [ [ [ [ [ [ [ { { { X.O.@.O._ b h q 9 9 9 w 9 w q w q q q 7 6 & & + ",
"                      $ & & & & % $ $ $ & 8 h b Q ( [ [ [ [ { ` [ { { { { { { {  .O.@.o._ c e 7 & & & & & & & & & & & & & & & + ",
"                        $ $ $ @ @ + @ + $ 7 w k v W Q _ [ [ [ [ [ [ { } } { } } X.#.@.o.[ Y k e 9 6 & + o o $ o + o o + + + & & ",
"                                    + + & 6 7 w h x T ~ [ [ [ [ [ { } X. .o. .o.o.#.#.o.} [ R c f 9 & + X X                     ",
"                                      & $ & & 6 7 r c ! ` { { [ } } O.O.@.#.@.@.@.@.@.@.@.+.} _ b r 6 $ o                       ",
"                                      & & & o & O w m R / { ....$.%.,.>.g.g.g.g.g.g.g.>.g.j.g.%.! k 8 $ o                       ",
"                                        & o o o O 9 k R { ..;.-.9.e.k.z.c.x.x.x.x.x.x.x.c.c.c.r.] z y $ X                       ",
"                                            o o 6 w k R ` ;.-.t.a.s.L.L.I.I.I.I.I.I.L.I.U.U.U.s.1.B 8 $ .                       ",
"                                            o o O w k R { ;.0.a.D.Y.R.(.(.(.(.(.(.(.(.(.E._.E.I.5.V y $ .                       ",
"                                            o o * w k R ` -.a.Z.G.G./.).'.'.'.`.`.`.`.`.'.].'.Y.5.V y O .                       ",
"                                          o X o O w k R ..-.t.Z.G././.`.'.'.'.'.'.'.'.'.].'.'.T.4.V y O .                       ",
"                                & & $ + O o . O O q g R ` -.t.Z.G.T./.).`.'.'.'.`.'.'.'.'.].'.Y.4.V y $ .                       ",
"                              $ & & & & & 6 & & 6 e m E ..-.t.Z.F.T./.).`.`.`.`.`.`.'.'.'.'.'.Y.4.V y $ .                       ",
"                              $ $ & 6 9 w e e e r k b Q { ;.t.Z.F.T./.).'.'.`.`.'.`.`.`.].].`.Y.4.V y $ .                       ",
"                              + & 6 w k b b b b b T E / ..;.t.Z.G.T./.'.'.'.'.`.`.'.`.`.'.].'.Y.4.V y $ .                       ",
"                              + & 6 h Y _ { | { / { ` / ..;.t.Z.F.T./.`.`.'.`.`.'.`.`.`.'.'.'.G.4.V y $ .                       ",
"                              + & 8 h W { O.+.+.=.+.( { { ;.0.a.S.Y.T./.(.).).).`.(.`.).`.'.).L.5.V 9 O .                       ",
"                              + $ 7 r c ! [ X.O.=.O.} { | ..9.0.a.A.L.L.U.W.W.W./././.W.E.E.I.Z.1.B y o .                       ",
"                              $ $ * 8 r l Y ~ } X.X.} { ` ..&.;.9.r.r.z.c.L.Y.Y.T.T.T.Y.I.L.c.r.] z 8 O X                       ",
"                              $ & & & 6 9 r x ~ _ ` } ( { ` ......%.,.>.r.z.D.F.F.G.G.F.A.z.k.%.! j 8 $ o                       ",
"                              $ & $ $ $ & 7 h b / / _ ` / { [ {  .X.+.=.>.r.s.A.S.S.Z.Z.s.r.:.X.T f 6 $ X                       ",
"                                & $ o o $ 6 w h x W ! _ [ { { }  .o.#.@.f.e.r.s.s.s.s.p.r.>.:.} R f 7 O +                       ",
"                                    + + $ & 6 q r k T Q ` } X.o.o.#.@.@.f.g.g.e.e.e.e.e.g.h.@.} T f 8 O X                       ",
"                                      $ $ & & & 6 r x E [ X.o.+.@.@.@.@.+.@.@.:.:.:.:.:.:.h.=. .R f 6 O X                       ",
"                                      & $ $ + $ * w l R [ X.+.@.@.#.X.{ | { { { }  .+.+.@.d.=. .T f 8 $ +                       ",
"                                        $ $ o o & q k R [ X.@.=.+.} ~ R b v Y Y R / }  .@.=.=.X.E h 6 $ X                       ",
"                                            o o & q k R [ o.@.=.+.~ b h e w e f l Y Q } +.@.@. .E h 8 $ X                       ",
"                                            o + 6 q l E [ X.+.+.{ R j 9 6 @ & 6 e x Q [ X.+.O.} W h 6 $ X                       ",
"                                              + & w l E ` { { _ ~ v e 6 o X o & q l R [ } [ ` ~ b r 6 $                         ",
"                                              $ * w x ! _ ) ! b x h w & X X X $ 9 l E _ ) E b x j w 7                           ",
"                                              + 6 w x E _ E x r q 9       X + & q l E ) E x f w 9 7                             ",
"                                              + & q l W E b h 8 & $         + & q k T R b h 9 & &                               ",
"                                              $ & 9 r x c k e 6 @           $ & 8 r x b l r 6 o                                 ",
"                                              + & 6 q e r e 9               $ & 6 9 e r e q *                                   ",
"                                              & & & 6 7 8 7                 $ $ & 6 7 7 7 7                                     ",
"                                              & & & & & & &                 & $ $ & & $ $                                       ",
"                                              & o & o o $ @                 $ & $ $ + + +                                       "
};
