/* XPM */
static char *_1_resized[] = {
/* columns rows colors chars-per-pixel */
"60 64 195 2 ",
"   c None",
".  c #262E19",
"X  c #292E1D",
"o  c #2D321F",
"O  c #2F381E",
"+  c #30371F",
"@  c #2F3520",
"#  c #2C3820",
"$  c #313620",
"%  c #3B3521",
"&  c #333922",
"*  c #3B3B23",
"=  c #423A23",
"-  c #4B3924",
";  c #453622",
":  c #533624",
">  c #533A25",
",  c #5C3925",
"<  c #583624",
"1  c #643A26",
"2  c #693A27",
"3  c #693826",
"4  c #7C3B29",
"5  c #743B28",
"6  c #3B4324",
"7  c #3F4926",
"8  c #3B4127",
"9  c #414A27",
"0  c #444D29",
"q  c #48462C",
"w  c #465229",
"e  c #4A552A",
"r  c #4D5A2C",
"t  c #515D2E",
"y  c #5E502A",
"u  c #4D5534",
"i  c #545238",
"p  c #565737",
"a  c #484A32",
"s  c #6C4B29",
"d  c #54632E",
"f  c #59682C",
"g  c #566330",
"h  c #586630",
"j  c #5C6B32",
"k  c #5E7133",
"l  c #626D32",
"z  c #647535",
"x  c #667836",
"c  c #6A7C37",
"v  c #6C7D39",
"b  c #6A723D",
"n  c #687836",
"m  c #515643",
"M  c #635B43",
"N  c #5D6153",
"B  c #5B614A",
"V  c #686543",
"C  c #766D4E",
"Z  c #6A7943",
"A  c #727744",
"S  c #676B5C",
"D  c #737155",
"F  c #75796A",
"G  c #843A2A",
"H  c #883B2A",
"J  c #943C2C",
"K  c #9B3C2C",
"L  c #A33E2D",
"P  c #AC3D2E",
"I  c #B43E2F",
"U  c #BA3E30",
"Y  c #88412B",
"T  c #8D7E5E",
"R  c #847758",
"E  c #6F8436",
"W  c #6E8139",
"Q  c #708637",
"!  c #72853A",
"~  c #75893B",
"^  c #798E3D",
"/  c #718837",
"(  c #7D933E",
")  c #7F9540",
"_  c #7F914A",
"`  c #778357",
"'  c #6C8040",
"]  c #849D3E",
"[  c #87A13E",
"{  c #83894B",
"}  c #819642",
"|  c #859D42",
" . c #889C48",
".. c #8A9859",
"X. c #99985B",
"o. c #90845D",
"O. c #86A041",
"+. c #8BA344",
"@. c #8FA945",
"#. c #8DA44B",
"$. c #91AC47",
"%. c #93A44D",
"&. c #93AE49",
"*. c #95B247",
"=. c #96B149",
"-. c #9AB54B",
";. c #9EBB4C",
":. c #8FA451",
">. c #93A652",
",. c #9AA555",
"<. c #93AA53",
"1. c #9DAA55",
"2. c #9FA659",
"3. c #95A95B",
"4. c #9CB358",
"5. c #A0BE4E",
"6. c #A2AC59",
"7. c #A4BA54",
"8. c #ADBC5C",
"9. c #A5B656",
"0. c #9B8B65",
"q. c #B09974",
"w. c #99A47A",
"e. c #ABAA64",
"r. c #ABA467",
"t. c #B2AD6A",
"y. c #B0A36E",
"u. c #A5B769",
"i. c #BBBB6D",
"p. c #B3B766",
"a. c #BAA777",
"s. c #A9BB75",
"d. c #A8B979",
"f. c #BCB471",
"g. c #C2BB74",
"h. c #C2B17A",
"j. c #C7B97B",
"k. c #A3C14F",
"l. c #A6C450",
"z. c #AFC17B",
"x. c #C8C576",
"c. c #939788",
"v. c #8C8F85",
"b. c #9FA296",
"n. c #A7B483",
"m. c #A2A39E",
"M. c #BCBDBA",
"N. c #AEB0A8",
"B. c #CBAF86",
"V. c #C6A983",
"C. c #CBB582",
"Z. c #CDB584",
"A. c #D3B58B",
"S. c #D7BB8B",
"D. c #DABC8E",
"F. c #D0BD83",
"G. c #DEBC92",
"H. c #E0BD95",
"J. c #B4C484",
"K. c #BCCD8D",
"L. c #BCC998",
"P. c #AFC080",
"I. c #DBC889",
"U. c #E4C395",
"Y. c #E5CB92",
"T. c #EBC59B",
"R. c #EDC99C",
"E. c #E7C498",
"W. c #F1CE9E",
"Q. c #ECD196",
"!. c #F3D19E",
"~. c #C7D3A6",
"^. c #D5DEBA",
"/. c #D1DBB6",
"(. c #C9D3AD",
"). c #F4CDA1",
"_. c #FBD4A5",
"`. c #FFD7A9",
"'. c #FFD9AA",
"]. c #F8D3A3",
"[. c #FFDFB0",
"{. c #D9E2BF",
"}. c #FFE1B2",
"|. c #C5C5C4",
" X c #DCDCDB",
".X c #DDDFD6",
"XX c #D0D4C4",
"oX c #DCE5C1",
"OX c #E0E6CE",
"+X c #E3E7D8",
"@X c #E8E7E8",
"#X c #EEF1E5",
"$X c #F2F4EA",
"%X c #F0F3E7",
"&X c #F7F7F9",
/* pixels */
"                                                                                                                        ",
"                                                                                                                        ",
"                                                                                                                        ",
"                                                                                                                        ",
"                                    $ @ @ O @ o @ @ @ @ @ @ $ $ @ @ @ @ @ $ @ @ @ @ @ @ @ @ @ @ @                       ",
"                                    6 * * 6 6 6 6 7 6 6 6 6 6 6 6 6 6 6 6 6 6 6 6 6 6 6 6 6 7 6 6 6                     ",
"                                  0 e e r e r r r t d g d t g t t g g g t g g g g g g g t g g d t e                     ",
"                & $ $ @ o o X o 7 r j x x x x c v ! ! ~ ~ ~ ! ~ ~ ! ! ~ ~ ~ ~ ! ~ ~ ! ! ~ ! ~ ! c g 0 *                 ",
"              & & $ # & & $ $ & 9 f v ( ( ( } }  .+.@.=.&.&.@.&.$.$.$.&.$.$.$.&.&.&.&.@.&.*.&.@.) k w * o               ",
"              $ & & 8 7 7 7 7 9 e z ~ | +.+.+.+.@.-.-.;.;.;.;.;.7.;.;.;.;.-.-.-.-.-.;.-.-.5.k.-. .z w & o               ",
"            @ @ & * 0 r d d d d j E ) +.$.@.+.+.@.-.-.-.;.l.l.l.k.k.k.;.-.-.=.=.-.=.=.-.-.k.k.5.O.x w & X               ",
"        # # O o & 7 r z v Q E E / ( | +.+.+.+.+.@.#.@.=.-.-.;.l.k.k.;.-.&.@.@.@.@.@.@.@.$.-.k.;.+.x w & o               ",
"        * * % $ & 9 h ! ]  .#.#. . .| | } ]  .O.O.O.+.@.=.-.;.;.;.-.=.@.@.+.+.+.+.+.+.+.@.$.-.$.) j w & o               ",
"      > , > - % * 9 j /  .4.u.s.s..._ ' / ( ] [ O.| +.@.-.-.-.&.O.) (  .+.@.@.@.@.@.@.@.+.+. .) v d 9 & @               ",
"# * - 2 4 4 2 > * 7 f / $.u.K.~.L.w.` j k Q ( ] | | +.@.-.-.*.| W z x ^ +.=.-.=.&.=.=.&.@.) W j r 0 6 $ @               ",
"# & - 4 K K H , = 7 d / %.z.(.OX/.b.D r r z ( O.+.+.+.@.-.-.@.~ j r g ! +.-.;.;.-.;.;.;.%.) j w 7 * & & &               ",
"# $ > 4 L I K 3 = 7 f E @.z.oX%X.Xm.S 8 u Z :.3.<.#.+.@.-.-.@.~ j r j ' @.;.k.5.5.5.k.5.&.) k e 7 * & # &               ",
"# & > 4 P U K 3 = 7 f E <.J.oX$X Xb.S 8 u ` n.J.s.4.+.@.*.;.*.| v z W ) *.;.k.k.5.5.5.5.=. .! k r 7 8 & $               ",
"# & > 4 P U K 3 * 7 f E :.J.oX$X Xm.N 7 B c.M./.L.u.@.@.*.-.-.@. .( +.@.-.;.5.5.;.5.5.5.-.=.+.) c g 7 & o               ",
"# $ > 4 L P J 3 6 7 f E :.J.oX%X Xm.S m F N..X+X(.d.$.[ @.;.;.;.-.-.-.-.;.;.5.;.5.;.7.;.;.;.-.*.) k w & o               ",
"# & - 2 H J 4 < = 7 f E :.J.oX$X@XM.c.` c.|.$X$X/.d.%.+.*.-.;.5.k.k.5.;.;.5.;.;.;.;.;.5.;.l.l.;. .x w * X               ",
"@ % * > 1 2 < ; & 7 f E <.J.oX$X&X X|.N.|. X&X$X/.d.<.[ @.-.5.k.k.k.k.k.5.;.;.5.5.;.;.;.;.l.l.-.| x w & o               ",
"# & % * ; ; ; % & 9 d E :.J.^.$X&X&X@X X@X&X&X%X(.s.*.[ [ 5.;.5.;.k.;.;.;.5.5.;.;.;.5.;.;.l.l.-.| z w & o               ",
"& & & & & $ % % = q f E _ d.~.+X$X@X$X%X$X$X%XOX~.s.&.[ *.;.;.5.;.;.;.;.5.;.;.;.5.5.;.5.;.k.l.-. .z w & o               ",
"$ & @ # # & ; : 1 s y l Z ..n.~.XXoX{.{.^.oX/.~.J.u.=.*.*.;.;.5.5.;.;.;.;.;.5.;.;.5.5.5.k.k.l.;.| x w & o               ",
"      # # * - 5 H Y s y g Z ..n.J.J.J.P.J.J.n.s.u.7.-.-.;.;.;.;.k.;.;.k.5.;.5.;.5.7.5.k.k.l.l.;.| x w & o               ",
"      # & * , H P L H , 7 d W | <.<.<.<.<.>.<.<.4.-.-.;.;.;.;.;.;.;.k.;.;.;.;.5.;.;.;.-.;.-.;.-.| z w & o               ",
"        # = 1 J I P G : 6 e z ( O.O.O.] ] ] [ O.@.=.-.-.;.;.5.5.;.;.;.;.l.5.;.l.;.-.&.+.O.+.+.) ! g 9 & o               ",
"        # = 2 K U I G : % w z ( [ [ [ ] ] ] ] O.O.@.&.-.-.;.5.;.5.;.5.5.5.7.k.k.;.*.) W z z z z g w 6 & @               ",
"        # = 1 J I P G : 6 e z ( O.+.+.O.| ] O.O.+.+.@.&.-.-.5.5.5.;.5.5.;.l.k.k.-. .! g e 0 w w 0 7 & % $               ",
"        # % 1 H L K 4 : * w k ~ | | | O.O.O.+.O.O.O.+.@.*.-.;.;.;.;.-.-.=.*.-.*.@.) z 0 * # $ & & & & & &               ",
"        & * > 2 G 4 1 ; 6 9 d z W ( } O.O.+.| | | [ | O.@.@.*.-.;.-.&.O.( ~ / ^ ) v g 7 @ X X @ @ $ $ #                 ",
"        # % = > , , - % & 6 9 r j v ^ | O.+.O.| O.| O.O.O.@.@.-.-.*.+./ k d t f g g e                                   ",
"        & & % * * = * & & & & 6 w l ~ | +.+.+.| +.+.+.+.+.+.@.=.;.;. .v t 9 6 6 6 7 6                                   ",
"        & @ & $ $ $ & $ & @ o $ 9 h ! | %.%.%.1.,.3.6.2.1.2.6.8.l.9.3.{ V i q * @ @                                     ",
"          # # # # #   # $ @ o $ 9 d ! +.1.6.e.f.f.g.g.g.g.g.g.x.x.I.f.y.0.D M a @ X                                     ",
"                            o & 9 f ! | 6.t.a.C.S.I.Y.Y.E.U.Y.Y.Q.Y.Y.H.S.a.T i * X                                     ",
"                            o & 9 t v } 2.t.h.S.U.R.].]._._._._._._.`.`._.H.q.C a q &                                   ",
"                              & 9 r l v { X.t.C.D.T.)._.`.'.'.'.'.'.[.[.'.).B.0.C V p                                   ",
"                                  9 e g b { 2.t.j.D.E.)._.`.`.'.'.'.'.'.[.`.H.B.q.0.C i &                               ",
"                                  * 7 9 t v } 6.t.j.H.T.)._.`.`.`.`.`.`.`._._.!.G.a.R i & .                             ",
"                                  7 9 e g v } >.e.h.S.H.)._.`.`.'.`.`.`.`.'.[.[.!.Z.T i + o                             ",
"                                6 e g z v / ] %.r.h.H.H.)._.`.`.'.'.`.`.`.'.[.}._.A.T i $ . o                           ",
"                      & & o o @ 9 j ! } | | | %.r.h.H.H.)._.`.`.`.`.`.`.`.`.[.[._.A.T i # . o & &                       ",
"                      & & @ & 6 e c } &.&.@.+.%.6.h.B.H.Q.!.`.!._.`.'.`.`._.'.'.).V.T p * & O # $                       ",
"                      & & 7 9 r l ~ +.-.*.$.+.%.6.y.h.j.I.I.Q.!.!.!.).).).).!.!.I.h.X.b r 9 6 & $                       ",
"                      # * w h W (  .$.&.=.+.+.+.%.6.6.p.i.x.x.x.Y.R.R.R.T.E.I.x.x.p.1.} v g 0 * $                       ",
"                      o 8 r v } @.@.$.+.+.+.+.+. .%.,.%.7.7.z.i.F.D.H.H.H.S.j.x.l.8.7.&.| c r 6 @                       ",
"                      @ 6 r v } +.+.) ) ) ) O.+.+.+.+.@.*.;.7.p.a.h.V.B.Z.j.i.p.;.;.;.;.@.! g 6 @                       ",
"                      $ * w h W W W c x v ) } +.+.@.@.*.-.;.-.,.o.0.0.y.f.i.p.9.-.*.;.-.@.! r 6 @                       ",
"                      $ & 7 w r d r e r j W ) +.@.*.-.-.;.5.=.} b V A ..6.8.9.-.$.@.*.$. .v r 6 @                       ",
"                      & & & & 8 6 & * 7 r x ) +.*.-.;.5.5.-.#.! t e p v #.-.=.@.O.O.| | ( x r * $                       ",
"                      & # & O @ @ X @ & w z ) +.*.-.;.-.=.O.' k 0 * 0 f / ) ( ~ / ! ! ! c j w 6 @                       ",
"                                X X X * w z ) @.-.5.;.@.) v j w 6 & 6 e f k j j g g g g d r 0                           ",
"                                  o @ 6 e z ^ +.-.;.-.| v t 7 * & & & 7 9 0 0 9 9 9 9 9 9 7                             ",
"                                    @ * e z ( +.@.*.+.) k 0 & # + & + + & & & & & & & & & &                             ",
"                                    @ 6 e x ] | } ) ! z t 7 o X O @ $ $ o o o o @ @ @ o o                               ",
"                                    @ 6 r x ( } ~ z g r 0                                                               ",
"                                    o 8 e x ~ ^ x d 7 *                                                                 ",
"                                    # * w j c v j w & o                                                                 ",
"                                    $ & 7 e d g r 7                                                                     ",
"                                    & & * 6 9 9 7                                                                       ",
"                                    @ & & & & & &                                                                       ",
"                                    & & @ @ @ @ @                                                                       "
};
