/* XPM */
static char *_2_resized[] = {
/* columns rows colors chars-per-pixel */
"53 64 193 2 ",
"   c None",
".  c #292E1E",
"X  c #262E19",
"o  c #2D321F",
"O  c #2E3520",
"+  c #2D3820",
"@  c #313620",
"#  c #3B3621",
"$  c #343A22",
"%  c #3A3B23",
"&  c #4B3623",
"*  c #433A23",
"=  c #4A3924",
"-  c #433622",
";  c #553624",
":  c #533A25",
">  c #5B3925",
",  c #593624",
"<  c #6B3726",
"1  c #643A26",
"2  c #6C3A27",
"3  c #633725",
"4  c #723B28",
"5  c #7C3B29",
"6  c #3C4425",
"7  c #3F4926",
"8  c #3E422B",
"9  c #414A27",
"0  c #42442B",
"q  c #444E28",
"w  c #5B4628",
"e  c #475129",
"r  c #49542A",
"t  c #4C592C",
"y  c #515D2D",
"u  c #4C5534",
"i  c #7B422A",
"p  c #625A2B",
"a  c #6E4D2A",
"s  c #54632D",
"d  c #58662D",
"f  c #576530",
"g  c #596631",
"h  c #5D6C32",
"j  c #5A6A39",
"k  c #5F7232",
"l  c #616B38",
"z  c #647535",
"x  c #667935",
"c  c #697B36",
"v  c #6B7D38",
"b  c #6A7132",
"n  c #535A40",
"m  c #5D6153",
"M  c #6D6747",
"N  c #716A4A",
"B  c #70674A",
"V  c #646858",
"C  c #707B52",
"Z  c #7B7E71",
"A  c #833A29",
"S  c #8B3B2A",
"D  c #943C2C",
"F  c #9B3D2C",
"G  c #A33D2D",
"H  c #AB3E2E",
"J  c #B13D2F",
"K  c #B93E30",
"L  c #6F8536",
"P  c #6F8238",
"I  c #71853A",
"U  c #75893B",
"Y  c #798E3D",
"T  c #728837",
"R  c #7C923E",
"E  c #7A8A49",
"W  c #7E9440",
"Q  c #768750",
"!  c #849D3E",
"~  c #80973F",
"^  c #87A03E",
"/  c #809741",
"(  c #859D42",
")  c #899D46",
"_  c #899B4B",
"`  c #888A51",
"'  c #87A041",
"]  c #8AA344",
"[  c #8EA945",
"{  c #8EA44B",
"}  c #91AC46",
"|  c #91A54D",
" . c #93AD49",
".. c #94B146",
"X. c #96B249",
"o. c #9AB64B",
"O. c #9EBB4D",
"+. c #8EA351",
"@. c #93A551",
"#. c #99A857",
"$. c #9EB451",
"%. c #9CB359",
"&. c #A0BE4E",
"*. c #A1A95A",
"=. c #A4A75E",
"-. c #A4BB53",
";. c #A4B35B",
":. c #ACBD5B",
">. c #A9BB59",
",. c #B0BD5F",
"<. c #838974",
"1. c #A5956A",
"2. c #AD9773",
"3. c #AF9A72",
"4. c #96A66C",
"5. c #9EB264",
"6. c #ABAA65",
"7. c #B5AD6D",
"8. c #A2B666",
"9. c #B4BD63",
"0. c #BDBC6E",
"q. c #B5B569",
"w. c #B8AE71",
"e. c #B7AD70",
"r. c #ABBC7A",
"t. c #A8BB73",
"y. c #BBB072",
"u. c #BEB971",
"i. c #C3BC75",
"p. c #C8B97C",
"a. c #A3C14F",
"s. c #A6C450",
"d. c #B2C15F",
"f. c #B4C360",
"g. c #BBC268",
"h. c #B2C47D",
"j. c #CECA79",
"k. c #C7C475",
"l. c #D1CB7C",
"z. c #D5D17D",
"x. c #999B92",
"c. c #9EA48E",
"v. c #B1BE89",
"b. c #A1A39C",
"n. c #B5BE9A",
"m. c #A8A9A5",
"M. c #B4B5B0",
"N. c #CDB484",
"B. c #CEB883",
"V. c #D2BD85",
"C. c #D4B98A",
"Z. c #DDBC92",
"A. c #E1BC96",
"S. c #B4C584",
"D. c #B8C88C",
"F. c #BCC997",
"G. c #D8C588",
"H. c #C4D19E",
"J. c #C2CE9D",
"K. c #E2CB8E",
"L. c #E4C395",
"P. c #E7C399",
"I. c #ECC59D",
"U. c #EFCF9A",
"Y. c #F1CE9E",
"T. c #EAD194",
"R. c #F1D39B",
"E. c #C8D4A5",
"W. c #D4DDBB",
"Q. c #D1DBB6",
"!. c #C8D2AC",
"~. c #F5CEA2",
"^. c #F8CFA5",
"/. c #FCD5A6",
"(. c #FFD7A9",
"). c #FFD9AB",
"_. c #FBD6A4",
"`. c #FFDEB0",
"'. c #D9E3BD",
"]. c #CECECD",
"[. c #DCDCDC",
"{. c #D7D7D6",
"}. c #D2D6C7",
"|. c #DDE5C4",
" X c #E5EBD5",
".X c #E9EEDD",
"XX c #E1E7CF",
"oX c #EDEDEC",
"OX c #E4E4E2",
"+X c #EFF2E5",
"@X c #F2F4EC",
"#X c #F8F8F7",
"$X c #EFEEF2",
/* pixels */
"                                    o O o O @ o o o o o O o o o o o O o o O o o O . O . O . O . o         ",
"                                    $ $ $ $ $ $ $ $ $ $ $ $ $ $ $ $ $ % $ $ $ $ $ $ $ $ $ $ $ $ $         ",
"                                  9 q q q q q q q q r r e e e e e e r r r r e e r r r r r r r r q q       ",
"                                6 r y g g g g h l z x x z z x x z z z z z x x z c z z z z c z z j f q     ",
"                @ @ @ @ @ o o @ 9 y x I U U U U R ~ ( ( ( ( ( ( ( ( ( ( _ ( ( ( ( ( ( ( ) ' ' ( U z e $ O ",
"              @ $ $ $ % 6 $ $ 6 e d T ~ ( ( ( ] [ } o.o.O.o.o.O.o.o.O.o.o.o.o.o.O.X.X.O.X.O.O.X./ x e $ O ",
"            + + $ $ 9 e r t r t d x R ] } ] ] [ } X.o.O.&.&.a.a.s.s.&.&.O.o.o.o.o.o.o.o.O.a.s.O.' c r $ o ",
"          + O + @ 7 r d z x z k c U ~ ] } ] ] ] [ }  .o.o.&.a.s.s.s.&.O. . . . . . . . ...O.s.-.{ c r $ o ",
"        $ $ @ o $ 9 s P Y W W W W / ' ) ' ' ^ ] ' ' {  .X.o.O.a.O.O.o. .[ ] ] ] ] ] ] ] [ ..o.o.) z e $ O ",
"      * & * - # $ 9 h T ' @.%.5.4.+./ W R / ! ^ ' ' ' [ X.O.O.X. .] ] ] [ ] ] [ ] [ [ ] ] [ [ ' Y h q $ . ",
"    = 1 2 2 , & % 9 d T { %.h.D.v.4.Q c c T ~ ! ' ) ' [ X.O.X.] Y I U W ]  . .}  .}  . .] ) W v h r 7 $ @ ",
"+ $ = 4 S D 5 , * 7 d T { t.E.'.!.c.C u s x R ^ ( ] ' [ X.o...R z f g U ] X.o.O.X.o.O.o.[ W z y q 7 $ @ @ ",
"+ $ : 5 G H D < 6 7 s L +.S.'..X{.m.V u r z E +.[ { ' [ o.O.[ T f e s P ] O.O.O.O.O.&.O. .R h e 6 @ @ @ @ ",
"+ $ : 5 H K F < % 7 s L +.S.|.+X[.b.m 8 u Q 4.t.8.@.{ [ ..&...R x f z Y  .O.a.a.&.&.s.&.X./ v f q 7 % $ @ ",
"o $ : 5 H K F 2 * 7 s L +.S.|.@X[.b.m 8 n <.F.J.S.5.{ [ ..&.O.^ W I R ( X.O.a.a.&.&.a.&.O.[ / I h t 7 $ O ",
"+ $ : 5 G J F 2 * 7 s T +.S.'.+X[.b.V u V c.}.|.E.t.{ ^ ^ o.&... .{  .X.o.-.O.O.O.&.O.O.O.o.X.] W h e $ O ",
"+ $ = 4 D G A 3 * 7 s L [ S.|.+XOXM.Q V <.M.$XOXQ.r.{ [ } o.&.O.O.O.O.O.&.O.O.&.&.O.O.&.O.&.s.o.( z r $ o ",
"+ $ * > 4 A 2 & % 7 s T +.S.'.@XoX].m.x.M.{.#X$X'.r.+.^ ^ o.&.&.&.s.s.&.&.O.&.O.O.&.O.O.&.-.s.O.' c r $ o ",
"@ $ % = : : & # $ 9 s T | S.W.@X#XoX{.].[.$X#X$XW.r.{ ] ^ O.&.&.&.&.s.O.O.&.&.O.&.O.&.O.&.a.s.O.) x e $ O ",
"@ @ $ $ # % # # # 9 d L { h.!.+X#X#XoX+X@X#X#X.XE.t.| [ O.&.O.&.O.O.O.&.O.O.O.O.&.O.O.O.&.&.&.O.( x u $ . ",
"$ @ @ + + @ % & : w p x Q 4.D.}.XX X X X X XXXW.F.8.X.[ X.O.O.&.&.O.O.a.&.O.O.&.O.O.&.&.O.s.s.O.' c r $ + ",
"    + + + @ = 3 5 i a p j Q 4.S.F.E.J.E.F.E.F.D.h.;.X.X.X.O.O.&.O.&.O.O.O.&.&.O.&.&.&.a.a.s.s.O.) c r $ O ",
"      + @ % > 5 F F 4 w e j E +.5.5.5.5.5.5.5.5.%.$.o.O.O.O.&.O.O.O.O.O.O.O.&.O.O.O.&.&.O.s.a.O.( x e $ . ",
"        + % 3 D H H A : 6 t P R ] +.] ] ] ' ' ] } ..o.O.O.O.O.O.O.O.O.a.&.O.&.O.O.O.X... . ...{ W h e @ O ",
"        + * 1 D K J A ; $ e k Y ^ ^ ^ R ! ! ! ^ ] } X.o.o.O.O.&.s.O.a.O.s.s.a.a.&.X.' W I U U I z t 9 $ + ",
"        @ % 2 D K J A ; 6 e k R ^ ' ^ ^ ! ! ! ^ ^ } }  .o.O.&.&.O.O.O.O.O.s.s.s.&.[ Y z f y y f t q % $ @ ",
"        + * 1 D H G A ; % t x R ' ] ] ' ] ( ( ] ] ] ] } X.O.O.O.O.O.O.O.o.O.O.O.o.( c t 7 % 6 $ 6 $ $ $ @ ",
"        @ % : 5 D D < & 6 t x W ] [ ] ' ( ] ] ( ( ( ] ] } X.o.O.O.O.o. .' ( ( ( ~ E h 9 O . O O @ @ @ @ @ ",
"        @ % = > 2 2 , - 6 t x W ] [ { ] ' ] ( ] ( ( ^ ] ] }  .o.O.O.[ W P z k z z h y 7                   ",
"        @ $ % * = & # # % t x W ] ] ' ' ] ( ] ( ( ] ] ] ] ] } X.O.X.{ P f r q q r r q                     ",
"        @ @ $ $ $ @ @ @ 6 r z U / ( ( ' ( ] ( ] ] ] ] ^ ] ] [ X.O.X.' v y 7 $ $ $ $                       ",
"        @ $ @ + + O o + $ 7 y z L R / ' ] ' ' ' ] ] [ [ [ [ [ ..o.X.] Y k t 7 8 @ O                       ",
"                    + @ $ 6 9 t g c Y ( ] ] ! ( ] [ } ........o.O.o...' R P s 7 $ +                       ",
"                    @ @ @ $ $ 6 r l U ! ] ] ] ]  .o.O.O.O.O.O.O.&.O.&.&.o.' P y % O                       ",
"                      @ @ @ O @ 9 d L ) ] @.| #.;.:.d.f.f.f.d.d.d.d.d.f.f.;.E g 7 O                       ",
"                        @ O . @ 6 d L ) @.*.6.7.u.k.j.j.j.j.j.j.j.j.l.z.l.i.` l 7 o                       ",
"                            O @ 9 s L ) #.6.i.p.C.K.T.T.T.T.T.T.T.T.T.R.T.V.1.M 0 o                       ",
"                            O @ 9 s v ) *.w.N.Z.P.~._._./.(././._._.).).).L.1.M 0 o                       ",
"                            . @ 9 s L ) =.y.N.A.I.^.(.).).).).(.).).`.`.).P.3.B 0 o                       ",
"                            . O 6 y L ) =.w.N.Z.~.^.(.).).).(.).).).).).).P.3.B 9 o                       ",
"                            O $ 9 s L ) *.w.N.A.I.~.(.(.(.(.(.(.)._.).).).P.2.N 0 o                       ",
"                            9 q y k U ( *.w.B.A.I.~./.(.).(.(.(._.).).`._.P.2.M 0 o X                     ",
"                          e f h c U R { *.w.N.A.I./.(.).).).).)._.).).`.).P.2.N 6 o X o                   ",
"                @ @ O O $ y x W ! ( ! { *.e.N.A.I.^.(.).).(.(.(.).).).`.).P.2.N 8 o o o $                 ",
"              @ @ @ $ $ 9 g Y ] X...^ ) #.7.p.C.P.U.~._././././._.).).)._.L.3.N q $ @ @ @ @               ",
"              @ @ % 7 r g v ~  .&.o.} | @.6.e.p.G.G.K.T.U.~.~.~.~.~.R.R.K.G.3.` g e 7 $ $ @               ",
"              + $ 7 y b U ~ ] X.} } ] ) ) *.1.6.q.0.k.G.G.P.I.I.I.P.K.G.j.g.;._ E z r 6 $ o               ",
"              O $ q g Y ) } ] [ [ ! ] ^ ] { | @.o.-.d.g.p.C.Z.A.A.Z.V.i.f.>.-.o.] Y h 9 $ o               ",
"              O @ q h Y ' { ( W R / ( ( ' ] ] [ ..o.O.:.0.p.B.C.C.B.i.9.-.O.O.O.X./ z e $ o               ",
"              @ @ 7 t z I I c x c I R ] ] [ [ } ..O.&.s.9.0.i.i.i.i.q.;.o.o.o.O.X.W z q $ O               ",
"              @ $ % q r y t r t f b Y ( } } X.o.o.O.&.-.:.d.9.f.9.,.>.;. .[ } X.} Y h q $ O               ",
"              @ @ $ $ 6 6 6 @ 6 q g U ( } X.o.O.O.o.O.o.o.$.$.o.-.o. . .' ' ( ' ( I g q @ o               ",
"                @ @ @ + O O . @ 9 y I (  .o.&.O.X.] / / / ( R ! R R R Y I I I I P z y 9 @                 ",
"                          . . + 9 y I (  .o.&.X.' I x h k k k z z k k h g f f f f y r 9                   ",
"                            . # 9 s I (  .O.O.} W h r q 9 q q q q q 9 9 9 9 9 9 9 9 7                     ",
"                            O @ 9 f I ( }  .} ( v t 6 @ + @ $ $ $ $ $ @ $ $ @ $ @ @                       ",
"                            O $ 9 g U ( ( / Y v g e @ . . . o o o o o o o o o O O                         ",
"                            O @ 9 g U / ~ v g y r 7                                                       ",
"                            O @ 9 f I W I g r 6 %                                                         ",
"                            O $ 7 t z v z y 6 O                                                           ",
"                            @ @ 6 q y f s e 6                                                             ",
"                            @ @ $ 6 7 9 9 7                                                               ",
"                            @ $ @ @ $ $ @                                                                 ",
"                            @ @ @ @ O O O                                                                 "
};
