/* XPM */
static char *_3_resized[] = {
/* columns rows colors chars-per-pixel */
"53 64 199 2 ",
"   c None",
".  c #292E1E",
"X  c #272B1D",
"o  c #2D321F",
"O  c #2F3520",
"+  c #2D3820",
"@  c #313620",
"#  c #3B3621",
"$  c #333921",
"%  c #3A3B22",
"&  c #4C3623",
"*  c #433A23",
"=  c #4A3924",
"-  c #433622",
";  c #543622",
":  c #523A25",
">  c #5B3925",
",  c #593624",
"<  c #643A26",
"1  c #6C3A27",
"2  c #683726",
"3  c #7C3B29",
"4  c #763B26",
"5  c #3B4325",
"6  c #3F4926",
"7  c #3F4428",
"8  c #414B27",
"9  c #42442B",
"0  c #444E28",
"q  c #594526",
"w  c #475129",
"e  c #49542A",
"r  c #4D592B",
"t  c #515D2D",
"y  c #454934",
"u  c #535939",
"i  c #4B5A30",
"p  c #605929",
"a  c #734728",
"s  c #54622E",
"d  c #56652C",
"f  c #576430",
"g  c #596631",
"h  c #5C6B32",
"j  c #576536",
"k  c #5F7132",
"l  c #616A38",
"z  c #647535",
"x  c #677836",
"c  c #697B37",
"v  c #6C7E39",
"b  c #667037",
"n  c #525743",
"m  c #5D6152",
"M  c #5C674E",
"N  c #6B6745",
"B  c #70684A",
"V  c #676B5A",
"C  c #6C745D",
"Z  c #6D7847",
"A  c #75796B",
"S  c #823B2A",
"D  c #893A29",
"F  c #943C2C",
"G  c #9C3C2C",
"H  c #A33D2D",
"J  c #AB3E2E",
"K  c #B13D2E",
"L  c #B93E30",
"P  c #6F8436",
"I  c #6E8239",
"U  c #72853A",
"Y  c #75893C",
"T  c #798E3D",
"R  c #718737",
"E  c #7D933E",
"W  c #7B8A44",
"Q  c #7F9540",
"!  c #7E914A",
"~  c #778656",
"^  c #79836B",
"/  c #859E3E",
"(  c #88A23F",
")  c #87A13E",
"_  c #809740",
"`  c #859C42",
"'  c #899D46",
"]  c #889C4D",
"[  c #8D8F53",
"{  c #87A041",
"}  c #8AA344",
"|  c #8EA945",
" . c #8DA34B",
".. c #91AC46",
"X. c #91A64E",
"o. c #93AE48",
"O. c #94B146",
"+. c #96B149",
"@. c #9AB64B",
"#. c #9EBB4C",
"$. c #8FA256",
"%. c #92A651",
"&. c #94A953",
"*. c #9BA757",
"=. c #9EB451",
"-. c #A0BE4E",
";. c #A1A95A",
":. c #A4A75E",
">. c #A3BB51",
",. c #ADBD5C",
"<. c #A6B757",
"1. c #8E9A78",
"2. c #9B9261",
"3. c #A6956C",
"4. c #AD9772",
"5. c #9CB064",
"6. c #9AA777",
"7. c #9BAF62",
"8. c #ABAB64",
"9. c #B5AD6D",
"0. c #A1B46D",
"q. c #A1B667",
"w. c #B2BD61",
"e. c #BBBD6C",
"r. c #B4B469",
"t. c #B8AE71",
"y. c #B7AD70",
"u. c #ACBD7B",
"i. c #A6B774",
"p. c #BBB072",
"a. c #BEB971",
"s. c #C5BA78",
"d. c #A3C04E",
"f. c #A6C450",
"g. c #A9C056",
"h. c #B2C15F",
"j. c #B4C361",
"k. c #B9C466",
"l. c #AEC07A",
"z. c #CECA79",
"x. c #C7C375",
"c. c #D1CB7C",
"v. c #D5D17D",
"b. c #909389",
"n. c #9EA09A",
"m. c #9DA28E",
"M. c #A2A899",
"N. c #A9AAA4",
"B. c #B3B7AD",
"V. c #BDBEBA",
"C. c #CDB484",
"Z. c #CDBA81",
"A. c #D2BD85",
"S. c #D4B98A",
"D. c #DDBC92",
"F. c #E1BC96",
"G. c #B2C283",
"H. c #B8C988",
"J. c #BAC59C",
"K. c #BEC3B0",
"L. c #DBC689",
"P. c #DFC192",
"I. c #E2CB8E",
"U. c #E4C496",
"Y. c #E7C399",
"T. c #ECC59D",
"R. c #EFCF9A",
"E. c #F1CE9E",
"W. c #EAD194",
"Q. c #F2D49B",
"!. c #C3CFA0",
"~. c #C8D4A6",
"^. c #D2DCB6",
"/. c #D3DCBA",
"(. c #C8D1B3",
"). c #F5CEA2",
"_. c #F8CFA5",
"`. c #FCD5A6",
"'. c #FFD7A9",
"]. c #FFD9AB",
"[. c #FCD7A5",
"{. c #FFDEB0",
"}. c #D9E2BF",
"|. c #D7E0BF",
" X c #C2C3C0",
".X c #D6DACB",
"XX c #DDDDDB",
"oX c #CFD3C3",
"OX c #DDE5C5",
"+X c #E1E1DE",
"@X c #E0E6CE",
"#X c #DFDFE1",
"$X c #E4E4E2",
"%X c #E9EAE8",
"&X c #EEF1E5",
"*X c #F1F4EA",
"=X c #F3F6EA",
"-X c #F5F5F6",
";X c #FBFBFB",
/* pixels */
"                                                                                                          ",
"                                                                                                          ",
"                                                                                                          ",
"                                                                                                          ",
"                @ @ @ + @ o @ + O O + + @ + @ + @ @ + @ O O o o O O O O @ o o @ O O O O O O O + +         ",
"              @ $ $ % % 5 5 5 % 5 5 % 5 % 5 % 5 5 5 5 7 5 7 5 7 5 5 5 5 7 5 5 7 5 5 5 5 5 5 5 5 5 7       ",
"            + + $ 5 7 w r r r r e r r e r r e r r t f t t t s t t f s s s s s s f f f f t s s s t e       ",
"          + + o + 5 e g z x x x x x x z x x x x v U U Y Y Y Y Y Y U Y U U Y Y Y Y U U U Y Y W I c g 0 % o ",
"        $ @ @ o @ 8 d v T Q Q E Q Q E Q Q Q E / ` | ..X.O...............o.....| o.| ........+.| Q z w $ o ",
"      = = = - # % 8 g Y ` } } } { { { { { ` } } ..O.@.#.#.#.#.-.-.-.>.#.=.@.@.#.@.#.#.=.#.d.d.#.` x e % o ",
"    = > 1 1 , & % 8 h Y ) | } ( { } | } } } { ( | O.@.@.#.d.d.f.f.f.-.#.@.@.@.+.+.@.+.+.@.#.f.d.} x e $ o ",
"+ $ = 4 D F 3 , % 8 h Y ` } } ) { { } } } { { { } } | +.@.#.-.d.f.d.#.@...| | | | | | | O.+.d.=. .c e $ o ",
"+ $ : 3 H J F 2 5 6 j U ` X.X.X.$.} ` Q }  . .&. . .} | O.#.#.#.@.+.+.| | } } } } } } } } o.+.o.Q k w $ o ",
"+ $ : 3 J L G 2 * 6 d R { &.5.i.5.$.! W ! $.0.i.5.%.{ | O.#.@.O.} _ Q ` } | | | | | | | } } ' Q I f 6 $ o ",
"+ % : 3 J L G 1 * 6 d R  .q.H.~.J.6.Z Z ~ m.J.J.G.7. .| O.@.@.Q I z x W } +.+.+.o.o.+.+.| Q I k r 0 5 $ @ ",
"+ $ : 3 J K F 2 9 6 s R  .l.^.OXoXm.V j C m..XOX~.i. .| O.@...T g r f U } @.#.#.#.#.#.=.o.Q k e 6 5 $ @ @ ",
"+ @ = 4 F H S < * 6 d P | l.}.&XXXn.m n V N.#X%X^.l.X.| O.@.O.T h r g U | #.f.#.#.d.f.#.+.Q k i 7 $ $ $ O ",
"+ @ * > 4 3 1 & % 6 d R X.H.OX=X+Xn.m y V N.$X*X^.G.X.} O.@.O.Q I z c Q o.#.d.f.#.#.d.d.+.' Y k r w 5 $ O ",
"@ $ % = : : & # % 6 d R &.G.OX*XXXn.M 7 V N.$X&X^.l...| O.@.@.| ` Q } X.@.#.d.#.d.#.d.#.#.o. .Q v f 6 $ O ",
"@ $ $ $ % # # # # 8 d P  .G.}.&XXXM.C n A N.$X&X^.l. .( | @.#.#.@.@.@.@.#.#.#.d.#.#.#.#.#.#.@.+.Q z e $ O ",
"$ $ + + + + % - : q p z Q m./.*X%XV.b.A b. X%X&X^.l. .} O.@.-.-.d.d.#.d.#.d.#.#.d.#.d.#.#.f.f.#.{ x w $ O ",
"    + + + # & 2 3 a a p Z 1.K.%X-X#XK.B. X#X-X*X^.i.X.} O.@.#.d.d.d.d.#.#.d.#.#.#.#.#.#.#.f.f.#.} x i $ O ",
"      + + # > 3 G F 4 q i ^ B.%X;X-X%X#X%X-X;X&X^.l.X.( | @.#.-.#.d.#.d.#.#.#.#.#.#.#.d.#.d.f.#.' x e $ . ",
"        @ % < F K J 4 ; y C N..X*X-X=X%X*X=X*XOX!.0.X.( O.@.#.-.d.#.#.#.#.d.#.d.#.d.#.#.#.d.f.@.{ z w $ O ",
"        + * < G L K S ; 7 M b.J./.OX}.|.OXOX(.~.G.7. .} O.@.#.-.#.#.#.d.d.-.d.d.#.f.d.#.f.f.f.d. .x e $ o ",
"        + * < F L K S ; 7 u ~ 0.G.G.G.G.G.G.l.i.5.%. .| O.#.-.-.d.#.d.d.d.d.d.d.f.f.d.d.d.f.f.#.' x e % o ",
"        + * < D K J 3 ; 5 i c ` X.&.&.X.X.%.%.X. . .} | o.@.-.-.#.#.#.#.#.@.@.@.@.@.@.#.@.@.#.@._ x w $ o ",
"        + % > 3 F D 1 & 5 i z E } } { ) / { ` / Q { { } o.+.@.#.#.#.@.X.} ` ` ` { ` ` ` ` } } Q U g 8 $ o ",
"        @ % = < 2 2 , - % r z E ) ( { ` / / / ` { { {  .} ..O.+.#.#.| E I z k z x x z z z x x z g e 7 $ + ",
"        @ $ # * & & # # 5 r x E } } { { { ` { ' { { { } } } ..+.#.@.{ I s w 6 w e w w e e w e e 0 5 5 @ @ ",
"        @ $ $ $ # @ + @ % e k Y E { { { { { { } } } } } } } ..+.@.@.{ v i 6 5 $ @ % $ $ $ $ $ $ % $ + @ @ ",
"        $ @ + + + + + + $ 0 s z P T Q { { { { { } } } | | } | O.#.+.| Y z i 6 5 + O O o o o o o o @ @ @ + ",
"                    + @ $ 5 9 r g c T ` { { ' { | | O.O.O.O.O.@.@.@.O.} T I d 6 % O .                     ",
"                    @ @ + $ % 5 e l Y ` } } } } o.+.#.#.#.#.#.#.#.d.#.d.@.{ v s % + o                     ",
"                      $ + + O @ 8 d U ` X.X.X.*.<.<.h.j.j.j.h.h.h.h.j.j.j.;.! j 6 +                       ",
"                        $ @ o @ 9 d P ' X.;.8.r.a.x.z.z.z.z.z.z.z.z.z.v.v.s.[ j 6 o                       ",
"                            o @ 8 s P / *.8.p.Z.S.L.W.W.W.W.W.W.W.W.W.Q.W.L.2.N 9 o                       ",
"                            o $ 8 s P ' ;.t.C.D.T.).`.].`.'.`.`.[.[.].].[.U.3.N 9 o                       ",
"                          . . @ 8 s P ' :.p.C.F.T._.'.].].].'.].].].{.{.].Y.4.B 9 o                       ",
"                @ @ @ o o . . + 5 s v ' :.t.C.D.)._.'.].].].'.].'.].].{.].Y.4.B 9 o                       ",
"              $ @ @ % $ $ + + $ 8 d P ' ;.p.C.D.T.).'.'.'.'.'.'.'.'.].].].Y.4.B 9 o                       ",
"              @ @ % 5 6 w w 6 w t k Y ' ;.t.C.F.T.).`.'.].'.'.].'.].].].'.Y.4.B 9 o                       ",
"              @ @ 5 e g z x z z c U E  .;.t.C.F.)._.].].].'.].[.].].].{.].Y.4.B 9 o                       ",
"              o $ 8 g U Q { ' ` / / ` } ;.t.C.F.T.).].].].].'.'.].].].{.].F.4.B 9 o                       ",
"              o $ 0 h T | @.@.o.+.| (  .*.8.C.S.U.E.).[.`.`.`.`.[.[.'.[.[.U.3.B 9 o                       ",
"              o $ 8 s P /  .o.-.-.+.| ' *.8.y.s.A.L.I.W.E.).).).).E.Q.Q.W.s.2.N 8 o                       ",
"              @ $ 5 0 d b Y ' ......| }  .*.3.8.r.e.x.L.L.U.T.T.T.Y.U.L.z.r.[ j 7 o                       ",
"              @ $ $ % 9 e g v / | ( } ( '  .X.&.=.>.h.k.s.S.D.D.F.D.L.x.j.*.T f 5 o                       ",
"              @ @ @ @ @ % e k U / _ ` ' { } } | ..@.#.g.e.s.S.A.S.Z.s.w.<.o.P s 7 O                       ",
"                $ @ o + @ 7 r h c Y _ ` { | | ..O.#.-.g.w.e.s.s.a.a.e.h.>.| P t % +                       ",
"                    @ @ + 5 7 w s x T ` ..o.+.@.#.#.d.f.,.,.w.j.w.w.,.g.f.| U t 5 o                       ",
"                      @ @ @ o 5 w g Y ` ..+.@.#.#.@.@.@.#.=.@.=.=.=.>.f.#...U f 7 o                       ",
"                      @ @ @ o @ 7 d U ` ..#.#.#.o.} ` _ _ _ / } +.@.#.d.-.o.U t 5 o                       ",
"                          o o @ 7 f I ` o.#.#.+.} U x h h z x Y Q | @.-.-.o.Y f 5 o                       ",
"                            o @ 8 s U ` o.#.#.o.W h e 8 6 0 r z Y } O.#.#...Y s 5 @                       ",
"                            o % 8 s U ` | o.o._ I r 5 + o @ 8 d P E | O...` I t 5 +                       ",
"                            o % 8 g Y ` { Q T I h e @ X X o 5 s P Q ' Q T I h r 5                         ",
"                            o $ 6 h Y ` E I g t e       X + 5 f I ` Q I h f e 0                           ",
"                            o $ 9 g P E P h w 5 $       o @ 6 s P Q U h e 7 5                             ",
"                            + + 6 r z I z r 7 +         O @ 5 r k I x f 7 +                               ",
"                            @ @ 5 0 r f t e 5           @ @ 5 6 r d s e 5                                 ",
"                            @ @ $ 5 6 8 9 6             @ @ % 5 8 8 9 8                                   ",
"                            $ @ @ % $ % %               @ $ $ @ $ % $                                     ",
"                            @ $ @ + + o o               $ @ @ + + o o                                     "
};
