/* XPM */
static char *_4_resized[] = {
/* columns rows colors chars-per-pixel */
"60 64 196 2 ",
"   c None",
".  c #292E1E",
"X  c #232C16",
"o  c #263119",
"O  c #2C321E",
"+  c #33381E",
"@  c #2E3520",
"#  c #2C3820",
"$  c #313620",
"%  c #343A22",
"&  c #3A3A22",
"*  c #393A25",
"=  c #43341E",
"-  c #433722",
";  c #433923",
":  c #4B3924",
">  c #4A3723",
",  c #533924",
"<  c #5B3A25",
"1  c #5E3723",
"2  c #633A26",
"3  c #6B3B27",
"4  c #6F3B28",
"5  c #743B28",
"6  c #7C3B29",
"7  c #773A27",
"8  c #38411E",
"9  c #3C4425",
"0  c #3F4826",
"q  c #3F442A",
"w  c #354120",
"e  c #3E4430",
"r  c #414A27",
"t  c #42442C",
"y  c #444E28",
"u  c #484C2E",
"i  c #465226",
"p  c #495526",
"a  c #4D5B26",
"s  c #475129",
"d  c #49532A",
"f  c #4E5A2B",
"g  c #515E2D",
"h  c #505F25",
"j  c #404630",
"k  c #434A30",
"l  c #4A4F3C",
"z  c #4A503A",
"x  c #525D33",
"c  c #55622E",
"v  c #5A6A2E",
"b  c #58672C",
"n  c #576530",
"m  c #596632",
"M  c #5D6C32",
"N  c #5F7132",
"B  c #616B38",
"V  c #647535",
"C  c #677835",
"Z  c #6A7C35",
"A  c #6C7E39",
"S  c #66753A",
"D  c #4E5341",
"F  c #545946",
"G  c #535846",
"H  c #5C6445",
"J  c #5D634B",
"K  c #5D6351",
"L  c #666A47",
"P  c #726A4B",
"I  c #70674B",
"U  c #697643",
"Y  c #686C5E",
"T  c #636958",
"R  c #6C7455",
"E  c #727B59",
"W  c #727F4D",
"Q  c #6F7363",
"!  c #737864",
"~  c #8C3C2B",
"^  c #853C2A",
"/  c #943D2C",
"(  c #9C3D2D",
")  c #A23D2D",
"_  c #AB3E2E",
"`  c #B33E2F",
"'  c #BA3F30",
"]  c #B73E30",
"[  c #6E8236",
"{  c #6E8239",
"}  c #72853A",
"|  c #758A3C",
" . c #798E3D",
".. c #708536",
"X. c #7C923E",
"o. c #748644",
"O. c #7E9440",
"+. c #7A845D",
"@. c #7D8763",
"#. c #819A3F",
"$. c #80973E",
"%. c #808849",
"&. c #809740",
"*. c #859C42",
"=. c #899D45",
"-. c #8F9E4D",
";. c #929257",
":. c #8BA444",
">. c #8EA945",
",. c #8EA248",
"<. c #91AC47",
"1. c #93AD48",
"2. c #92A34C",
"3. c #94B246",
"4. c #96B149",
"5. c #9AB54B",
"6. c #9EBB4D",
"7. c #9AA654",
"8. c #9EB451",
"9. c #A0BE4E",
"0. c #A1A959",
"q. c #A2A75B",
"w. c #A4BB53",
"e. c #ACBC5B",
"r. c #A6B559",
"t. c #868B77",
"y. c #AD9772",
"u. c #AE9973",
"i. c #A8976D",
"p. c #ABAA65",
"a. c #B5AD6E",
"s. c #B8AF6F",
"d. c #B3BD62",
"f. c #BDBC6E",
"g. c #B5B569",
"h. c #B8AE71",
"j. c #BBB272",
"k. c #C3BC75",
"l. c #C8B97C",
"z. c #A3C14F",
"x. c #A6C450",
"c. c #B2C15F",
"v. c #B4C360",
"b. c #BBC268",
"n. c #CECA79",
"m. c #C6C374",
"M. c #D1CB7C",
"N. c #D5D17D",
"B. c #8B8E84",
"V. c #878981",
"C. c #8E9185",
"Z. c #929787",
"A. c #9FA297",
"S. c #A1A49A",
"D. c #A6A99F",
"F. c #A9ABA3",
"G. c #A6A8A1",
"H. c #AEB1A6",
"J. c #AFB1A9",
"K. c #B4B6AC",
"L. c #B8BAB1",
"P. c #CDB484",
"I. c #CEB883",
"U. c #D2BD85",
"Y. c #D5BA8A",
"T. c #DDBC92",
"R. c #E0BC95",
"E. c #D8C588",
"W. c #E1CB8E",
"Q. c #E4C495",
"!. c #EBC59C",
"~. c #EBCC98",
"^. c #F2CE9F",
"/. c #EAD294",
"(. c #F2D39B",
"). c #C1C3BC",
"_. c #F6CEA3",
"`. c #F8CFA5",
"'. c #FCD6A6",
"]. c #FFD7A9",
"[. c #FFD9AB",
"{. c #FBD6A4",
"}. c #FFDEB0",
"|. c #CACBC6",
" X c #CCCDC9",
".X c #C6C7C1",
"XX c #CFD0CB",
"oX c #D1D3CE",
"OX c #D8D9D4",
"+X c #E1E2DF",
"@X c #E5E5E3",
"#X c #E9E9E7",
"$X c #EDEDEB",
"%X c #F5F5F4",
"&X c #FFFFFE",
"*X c #F8F8F7",
/* pixels */
"                                                  @ @ O O O $ O @ . O O O O O O O O O @ O O # @ . O O @ # @ . @         ",
"                                                  % % % % + % % % & % * % * * $ % * % % * $ * % $ * % $ % % % %         ",
"                                                r r y y y y y i d s d d d i i i s s d s i i d i d i i d i d s s y       ",
"                                              0 f n M M M M M B V V V V S V V S C V S C S V S C S S C S S V V N c y     ",
"                              $ O $ $ $ $ # $ 0 g S } | | | | $.O.*.*.*.*.*.*.*.*.*.*.*.*.*.*.*.*.:.*.*.*.:.O. .B y % @ ",
"                            $ $ % * 9 w % $ % 0 c Z X.$.$.$.#.:.1.4.6.6.6.6.6.5.6.5.5.5.5.5.5.5.5.5.5.5.6.6.5.*.V d % . ",
"                          # $ $ & r d d y 9 + w i v C Z Z Z ..$.>.6.6.6.6.x.x.z.z.z.6.6.6.5.5.6.5.5.5.6.6.x.6.:.Z d % @ ",
"                        # # # % 9 d M V b y w O 8 y a a a a v [ O.1.6.6.z.6.x.x.z.z.5.4.1.<.1.1.>.1.3.3.6.x.w.:.Z d % @ ",
"                      % % $ $ $ 0 n Z } Z n 0 % * 9 q q 9 q i M } *.1.5.6.6.6.6.6.5.1.>.>.:.:.:.:.:.:.>.4.5.5.*.V d % O ",
"                    ; : > - & % 0 c Z } o.U H F F F F G G G H L o. .*.>.4.6.5.1.>.:.:.:.:.:.:.:.:.>.:.:.>.>.:.o.M y % @ ",
"                  > < 3 3 2 > & 9 i n S W @.C.C.C.C.B.B.C.B.t.@.U S { *.4.5.:.X.{ } O.:.>.1.1.<.<.1.1.>.*. .A M d 0 $ # ",
"                % : 5 ~ / 6 1 - # w 0 n R Z.L. XXX X|. X X|.K.C.R n v  .>.1.O.V n M } :.4.6.5.5.5.5.5.>.O.V g y 9 * % $ ",
"              # % , 6 ( _ / 3 ; + o + k Q F.OX*X&X*X*X*X&X%XOXS.Y k a [ >.<. .m d n } >.6.6.6.6.9.9.6.1.O.M y 9 % * $ $ ",
"              # % : 6 _ ' ( 5 ; O o o e Q J.#X&X&X&X&X&X&X&X@XF.Y k p Z >.<.&.V m M o.<.6.x.x.6.9.x.9.4.*.Z n y 0 * $ $ ",
"              # % , 6 _ ' ) 5 ; O o . e ! J.#X&X&X&X&X&X&X&X@XG.Y k i Z :.5.>.O.} O.*.4.6.x.6.z.6.x.9.5.>.O.{ N f 9 % $ ",
"              @ % > 6 ) ` ( 5 ; O o O j ! F.@X&X&X&X&X&X&X&X@XG.Y k f Z :.6.5.3.<.1.4.5.6.6.6.6.6.9.6.6.6.5.:. .M s % @ ",
"              # $ : 4 / ( ~ 2 ; # o O e ! H.@X&X&X&X&X&X&X&X@XG.Y y p Z :.6.z.6.6.6.6.6.6.6.6.6.6.6.6.9.9.x.6.*.V i % @ ",
"              # $ : < 7 6 4 , & O o O e ! H.#X&X&X&X&X&X&X&X@XF.Y e i Z :.6.x.z.z.z.z.6.6.z.6.6.6.9.6.9.9.x.6.:.S d % . ",
"              $ $ & ; , , , ; $ O o O t ! J.#X&X&X&X&X&X&X&X@XF.Y e i V :.6.x.z.z.6.z.6.6.6.z.6.9.6.6.w.z.x.6.:.S d * @ ",
"              $ $ % & * & & & & % + O t Q F.OX*X&X&X&X&X&X*XOXS.R z f { >.6.z.z.6.6.6.6.6.z.6.6.6.6.9.6.9.w.6.*.C i w @ ",
"                $ $ $ # $ & : , > = $ q K B.K.oX#X%X*X%X#XoXL.Z.R m N  .<.6.z.z.6.6.6.6.6.6.z.6.9.9.6.z.x.z.6.*.S d % @ ",
"                  # # # $ : 2 7 7 1 > q z T t.S..X@X%X@X).S.t.+.o.o. .:.4.6.6.6.z.6.6.z.6.6.6.6.6.z.z.z.x.x.6.:.C s % . ",
"                    # $ & < 6 ( / 7 , * e e G Q G.OX$XoXS.Q H U o.:.1.5.6.6.6.z.6.6.6.6.z.6.6.6.6.6.6.6.z.x.6.*.S d % @ ",
"                      # & 2 ~ ` _ ^ , % o o * F Z.XX#X|.C.F r b X.4.6.6.z.6.6.6.6.6.z.6.6.6.z.6.6.5.3.1.1.3.:.O.M s $ @ ",
"                      # & 2 / ' ] ~ < & o X o D C.oX$X XV.z w h  .3.6.9.6.6.9.6.6.9.z.9.z.z.z.6.4.:.O.} } | } V c 9 * O ",
"                      # ; 2 / ' ` ~ < & o X o D Z.oX$X XC.l 9 a [ :.5.5.6.9.9.9.6.6.9.z.z.z.x.z.>.| V n g g c d r 9 % $ ",
"                      # & 2 ~ _ _ ^ , & + o w F C.|.@X.Xt.G 0 h [ :.>.5.6.6.6.9.6.6.6.5.5.6.6.4.*.A f 9 9 * 9 9 * % $ $ ",
"                      $ & , 7 / ~ 5 > & + w s H t.H.).F.t.H f v ..*.>.1.4.5.6.6.6.5.<.:.:.*.:.O.| M y $ O O # $ # $ $ % ",
"                      % * : < 4 3 1 > * 0 p M U +.t.C.t.+.S V [ X.#.:.>.<.4.5.6.5.>.O.{ V V V V M x 9                   ",
"                      $ $ & ; : > & % & i M { o.o.L J J U {  .X.#.#.:.:.:.>.4.5.3.:.} n s y s i s y                     ",
"                      $ $ $ * # $ $ $ * i N } } N f s g S X.:.:.:.:.:.:.:.>.4.5.5.:.[ g 0 * % * *                       ",
"                        $ % + # @ @ @ % s n S C M g f v [ X.:.>.>.>.>.>.>.<.4.5.5.:.| N g 0 9 # O                       ",
"                                  # $ % 9 y f c v B C [  .#.:.>.>.3.3.3.3.1.5.5.5.3.:. .[ b r % @                       ",
"                                    $ % % % 9 s v Z X.*.#.:.:.1.5.5.9.9.9.6.9.9.z.z.6.5.:.{ f 9 @                       ",
"                                    % $ $ O $ 9 c } *.>.2.7.7.r.e.e.c.c.c.c.c.c.c.c.v.c.8.O.m q #                       ",
"                                      $ @ . $ r c ..=.7.q.r.a.f.m.n.n.n.n.n.n.n.n.N.N.N.j.;.L * @                       ",
"                                          O % 9 c } =.7.a.h.P.U.W.W././././././././.(./.l.i.L t O                       ",
"                                          O $ r c ..=.0.h.P.T.!._.{.].].{.'.{.{.'.[.[.'.Q.y.P t O                       ",
"                                          . # 0 c [ =.0.h.P.R._.`.].[.[.[.[.[.[.[.[.[.[.!.u.P t O                       ",
"                                          . O 9 f [ =.0.h.P.T.!.`.].[.[.[.[.].].[.[.}.[.!.u.I t O                       ",
"                                          @ % r b [ =.0.j.P.T.!._.].].].[.].].'.[.[.[.[.!.y.I t O                       ",
"                                          0 y f V ..=.7.h.P.T.!._.].].].].].].].].[.[.[.R.y.I t O O                     ",
"                                        y n V Z | X.-.7.h.P.R._.`.].[.[.].].].].[.[.}.[.!.y.I t O X O                   ",
"                              % $ @ O * f V O.&.#.=.=.q.h.P.R.!.`.].[.[.].].].].[.[.}.[.!.u.I j O O O %                 ",
"                            $ $ % $ % q n } >.1.3.:.>.7.a.P.Y.Q.^._.'.].'.].].].'.'.'.{.Q.u.P u O O + + $               ",
"                            $ $ 9 9 d n A O.1.5.3.:.:.7.q.h.l.U.E.W./.(.^._._.`._.(.(./.E.p.%.m p 0 w % $               ",
"                            @ $ 9 f V } O.>.1.4.<.:.:.2.7.q.p.g.b.m.M.E.Q.!.!.!.!.Q.E.n.b.r.-.} N f 9 % #               ",
"                            @ $ y m | :.<.>.>.:.:.:.=.=.-.-.7.5.r.e.b.l.Y.T.R.R.T.E.m.d.e.6.8.,.| M y % O               ",
"                            @ $ y m  .:.:.*.O.O.O.*.:.:.:.:.>.3.5.6.e.f.I.I.Y.Y.I.l.d.r.6.6.6.5.O.S s $ O               ",
"                            # % 9 f V { } Z C S } O.*.:.>.>.<.3.6.w.w.d.f.k.k.k.k.g.r.8.4.4.6.4.*.N s % O               ",
"                            $ % 9 0 d g f f f n V  .*.:.<.4.5.5.6.9.x.e.e.v.v.d.e.e.5.1.<.3.3.<.X.M y % @               ",
"                            $ $ $ % 9 * * * w y m } *.>.3.5.6.6.5.5.5.5.8.8.6.6.5.4.>.:.#.:.=.&.{ n y % O               ",
"                              $ $ $ # $ O O $ 0 c } *.1.5.6.5.4.>.:.X.X.X.*.X.X.&.X.X.} } } } A C n y %                 ",
"                                        . O O 9 c { *.1.6.9.5.:.} V N N N N V N B M m b n n n n f d 0                   ",
"                                          O $ r c } *.<.6.6.<. .M d 0 s s s s s y i r r r r r r q 0                     ",
"                                          O $ t c } &.<.<.<.*.{ g 9 # # $ $ # % $ % + * % % $ $ %                       ",
"                                          O % r m } *.=.&. .A M s $ . . . O . O O O @ O @ O @ O                         ",
"                                          O $ r v } &.$.A M g d r                                                       ",
"                                          O % r m } X.} M d 9 %                                                         ",
"                                          @ $ 9 f V A V g 9 #                                                           ",
"                                          # $ 9 y g c c d 9                                                             ",
"                                          $ $ * & 0 r r 9                                                               ",
"                                          $ % $ $ % % %                                                                 ",
"                                          % $ $ $ @ @ @                                                                 "
};
