/* XPM */
static char *_5_resized[] = {
/* columns rows colors chars-per-pixel */
"56 64 196 2 ",
"   c None",
".  c #1F2815",
"X  c #242D18",
"o  c #292E1D",
"O  c #232D15",
"+  c #263119",
"@  c #2C321E",
"#  c #253017",
"$  c #31361E",
"%  c #323B1E",
"&  c #39331C",
"*  c #2F3520",
"=  c #2C3820",
"-  c #313620",
";  c #343A22",
":  c #3A3A22",
">  c #3A3A25",
",  c #433923",
"<  c #4B3924",
"1  c #473621",
"2  c #543A25",
"3  c #5B3A25",
"4  c #633A26",
"5  c #6B3B27",
"6  c #6E3B28",
"7  c #743B28",
"8  c #7C3C29",
"9  c #3B4324",
"0  c #3F4826",
"q  c #3D442C",
"w  c #3F4530",
"e  c #414A27",
"r  c #42442C",
"t  c #444E28",
"y  c #4A4F2F",
"u  c #455124",
"i  c #465129",
"p  c #4A552A",
"a  c #4E5A2C",
"s  c #4A5726",
"d  c #525E2D",
"f  c #414631",
"g  c #444A32",
"h  c #4B4D36",
"j  c #4C513E",
"k  c #4B5233",
"l  c #58593B",
"z  c #54622D",
"x  c #59692D",
"c  c #57682E",
"v  c #566431",
"b  c #596631",
"n  c #5E6D33",
"m  c #5F7032",
"M  c #62732F",
"N  c #606D37",
"B  c #627334",
"V  c #677935",
"C  c #697C36",
"Z  c #6C7D39",
"A  c #64713F",
"S  c #717E3E",
"D  c #4E5340",
"F  c #565B49",
"G  c #555B45",
"H  c #5D6545",
"J  c #6E6649",
"K  c #656746",
"L  c #746C4C",
"P  c #6A7845",
"I  c #777848",
"U  c #696D5E",
"Y  c #636857",
"T  c #6C7457",
"R  c #727C57",
"E  c #6B6E61",
"W  c #777B6B",
"Q  c #6D7262",
"!  c #833C2A",
"~  c #8D3C2B",
"^  c #993D2C",
"/  c #A33D2D",
"(  c #AC3E2E",
")  c #B43E2F",
"_  c #BB3F30",
"`  c #867959",
"'  c #6E8139",
"]  c #6D8235",
"[  c #71853A",
"{  c #768B3B",
"}  c #798E3D",
"|  c #7C923E",
" . c #7F983D",
".. c #758246",
"X. c #7E9440",
"o. c #788259",
"O. c #7B8269",
"+. c #7E8275",
"@. c #7F8279",
"#. c #81983F",
"$. c #818848",
"%. c #809641",
"&. c #849B42",
"*. c #8B974C",
"=. c #979958",
"-. c #8E8659",
";. c #8BA344",
":. c #8EA845",
">. c #8EA149",
",. c #87A141",
"<. c #91AC47",
"1. c #91A24D",
"2. c #94AE48",
"3. c #95B247",
"4. c #96B249",
"5. c #99B54B",
"6. c #9EBB4D",
"7. c #99A553",
"8. c #9AAA51",
"9. c #99A454",
"0. c #9EB450",
"q. c #A1BE4E",
"w. c #A3A85C",
"e. c #AABC5A",
"r. c #A4B756",
"t. c #9B8A66",
"y. c #808476",
"u. c #848877",
"i. c #8D9479",
"p. c #A59869",
"a. c #AB9571",
"s. c #AC9772",
"d. c #A8A663",
"f. c #B6B46A",
"g. c #B5BB66",
"h. c #B9AD72",
"j. c #B9A974",
"k. c #BDB473",
"l. c #B2AA6C",
"z. c #C2AA7F",
"x. c #C5B979",
"c. c #A3C14F",
"v. c #A6C450",
"b. c #BBC06A",
"n. c #C8C675",
"m. c #C0C16F",
"M. c #94978C",
"N. c #9B9E93",
"B. c #969890",
"V. c #8B8F82",
"C. c #9DA192",
"Z. c #A3A59E",
"A. c #A5A99A",
"S. c #A8AAA2",
"D. c #B3B5AD",
"F. c #B9BBB4",
"G. c #BDBEB9",
"H. c #CDBB81",
"J. c #CEB386",
"K. c #DABD8E",
"L. c #D2B888",
"P. c #DEBC93",
"I. c #C8AB84",
"U. c #E1BD96",
"Y. c #BEC0BA",
"T. c #DAC589",
"R. c #DAC787",
"E. c #E1CA8E",
"W. c #E4C396",
"Q. c #EBC59C",
"!. c #EACA98",
"~. c #F1CC9F",
"^. c #F4D29E",
"/. c #EDD197",
"(. c #C2C4BD",
"). c #F5CDA2",
"_. c #F6D2A1",
"`. c #FCD4A6",
"'. c #FFD7A8",
"]. c #FFD9AB",
"[. c #FFD9A7",
"{. c #FFE1B1",
"}. c #C9CBC4",
"|. c #CFD1CB",
" X c #D1D2CE",
".X c #DCDDD9",
"XX c #D6D7D4",
"oX c #DFE0DD",
"OX c #E0E0DE",
"+X c #ECECEA",
"@X c #E7E7E5",
"#X c #EFF0EE",
"$X c #F0F0EF",
"%X c #F2F2F1",
"&X c #FFFFFF",
"*X c #F8F8F7",
/* pixels */
"                                      @ @ @ * * * @ * @ * @ @ * * @ * * o * o o @ @ @ * @ @ * * o * o *         ",
"                                      : - : ; - - : - - - : - - - - ; ; ; ; ; ; - : - - ; - ; ; - ; ; -         ",
"                                    e e 0 e e e 0 0 e i t t t t i t t e t t t t e t t t i e t t t t t e e       ",
"                                  r s d v c b v c n n n n N n n n n n B B n m N B n B N n B B n B N n b a e     ",
"                - - - - * - @ * % e d B Z [ [ [ [ { } | X.X.X.X.X.X.X.X.X.X.X.X.%.%.X.%.X.%.| %.X.X.| Z n e - * ",
"                ; ; - ; ; ; - - % e b Z }  . . .%.&.:.<.3.3.5.5.2.4.3.4.3.4.4.2.4.4.2.2.2.4.3.4.5.5.:.| n e - * ",
"              * - ; : 9 t e 9 ; % 9 s M [ { { [ } %.:.3.6.q.q.q.q.v.v.q.q.6.6.5.5.5.5.5.5.6.6.6.c.c.5.%.B t - * ",
"            = * * 9 e a v c s 0 $ % e s x x x x m ] #.2.5.q.q.q.q.v.v.v.q.6.5.5.4.4.5.5.4.3.5.5.c.c.6.&.B t ; * ",
"        = * * @ = > p n C Z n u ; % % 0 e e t e p n [ &.2.5.5.q.q.q.v.q.6.4.2.:.:.<.:.>.<.<.>.2.6.q.5.%.A t ; o ",
"        : : : $ - 9 p m [ { Z v g f r f g t f f k b Z } #.<.4.q.q.6.5.4.2.2.:.;.&.;.;.;.;.&.;.:.<.5.<.} n e ; * ",
"      2 3 3 2 , : ; i c V [ R T T E E E U U E Y U T P S } #.<.5.5.2.&.&.%.&.;.:.:.:.:.:.<.:.<.;.;.%.} V d 0 ; * ",
"= : , 4 7 8 6 3 , : 9 u z A o.i.C.Z.S.Z.Z.Z.S.Z.N.u.R A B { ,.3.2.%.[ A C X.&.2.4.3.2.2.2.2.2.;.| ' n a e 9 ; - ",
"@ - < 6 ~ / ~ 6 < ; % % 0 v +.A.}..XOX.X.X.XoX.X}.A.O.H a M #.3.;.{ b a n ' ;.5.6.6.5.5.q.6.5.&.[ b i 9 9 ; ; - ",
"= = < 7 ^ ) / ! 2 ; @ + - j +.F.@X&X&X&X*X&X&X&X@XF.y.j e x  .<.:.[ v p v [ ;.6.q.q.6.6.q.q.6.&.[ v e 9 ; ; ; = ",
"= : < 7 / _ ( ! 2 ; @ # @ j +.Y.%X&X&X&X&X&X&X&X%XY.y.D 0 x } <.<. .V n A | <.6.q.v.q.q.q.q.q.2.X.V v i 0 ; - - ",
"= : < 7 / _ ( ! 2 : + # @ j +.Y.+X&X&X&X&X&X&X&X%XG.y.D 0 z } 2.3.>.X.{  .;.3.6.q.q.q.q.q.q.q.2.;.X.[ n p 9 : * ",
"= = < 7 ^ ) / ! 2 : + + - j y.F.+X&X&X&X&X&X&X&X+XG.@.D f v } 3.6.0.4.<.4.0.6.6.q.6.6.q.6.q.6.5.5.3.;.{ b e ; * ",
"= - , 5 ~ / ~ 7 < ; @ # % j y.F.+X&X&X&X&X&X&X&X+XG.W F e z { 2.q.v.6.6.6.6.6.q.6.q.6.6.q.6.q.6.v.6.4.X.m e ; * ",
"= : : 3 7 8 7 4 : $ @ X - j y.G.+X&X&X&X&X&X&X&X$XG.W D 0 z { 3.q.v.v.q.q.6.q.6.6.6.q.6.6.6.6.v.v.v.5.&.B i - @ ",
"- - : , 2 3 2 < : % @ # - j y.(.$X&X&X&X&X&X&X&X%XG.V.D 0 z { 2.q.v.q.v.q.q.6.q.6.q.6.6.q.6.6.q.q.v.5.%.m i ; @ ",
"= : - : : : : : : ; & X = D +.D.@X&X&X&X&X&X&X&X@XF.+.G t c | 4.q.v.q.6.q.6.6.6.6.6.q.6.6.q.6.6.q.q.4.X.B t - @ ",
"- - - - = - : , 1 < 1 & ; g Q N.(.oX$X*X*X*X+XOX}.A.O.b z V  .4.q.q.q.6.6.q.q.6.q.6.v.6.6.q.q.v.v.v.5.X.B t : @ ",
"  - = = * - , 2 5 6 4 < > f F W M.D. X@X*X+X XD.C.i.o.P ' | :.5.q.q.q.6.6.6.q.6.6.6.6.6.q.q.q.v.v.v.5.%.m t - @ ",
"      = = ; 1 5 ! ^ ! 3 , 9 w j Y y.D..X+X.XD.u.U P ..X.,.:.3.6.q.6.q.6.q.6.6.6.q.6.6.6.q.q.q.v.v.v.5.X.A t ; @ ",
"        = : 2 8 ^ ( ^ 6 < - $ $ w Y N. X+X XN.Y j z ' ;.5.6.6.5.6.6.6.q.6.6.6.6.6.6.q.6.0.5.5.5.6.5.:.X.n e - * ",
"        * ; 2 ! ( _ / 7 < $ # # - F M.|.+X XB.F 9 0 ] ;.5.v.v.6.6.q.6.q.q.q.q.q.6.6.q.6.4.;.&.X.&.X.X.C v 0 ; * ",
"        = : 3 ! ( _ / 8 < $ # O @ F M. X+X XB.H 9 u m  .3.6.6.6.q.q.6.6.q.q.v.v.v.v.v.4.,...V m N B n v t 9 ; * ",
"        * : 2 8 ( _ ^ 7 < % + # : H M. X+X|.B.H 9 s M X.:.3.6.6.q.6.q.6.q.6.6.6.v.v.6.<.X.m a i e i t e 9 ; ; - ",
"        = > 2 7 ^ ( ~ 7 , ; @ # ; F V.G.XXY.M.H i s m  .;.3.3.6.6.q.6.6.0.3.4.3.4.4.<.,.[ d 0 ; - - ; ; ; - ; - ",
"        = : < 4 8 ! 8 3 , - @ @ ; j W B.S.Z.+.K v x ]  .,.:.:.3.3.3.6.6.3.;.X.X.} } X.[ B a ; o o * * * - - - ; ",
"        - : : 2 3 4 3 < : - $ @ ; w F E +.O.R P V ] {  . .,.;.:.3.3.5.3.;.{ m c v n b b d t                     ",
"        - - : : , , , : ; ; $ - ; > w j j b P ..X.X. .,.;.;.,.:.<.5.6.5.,.' v 0 0 e e e e                       ",
"        - - - : - = - : : - - - : ; : , r d S %.1.1.8.1.8.8.1.8.0.0.v.e.1...n h r , ; * *                       ",
"          - = = = = = = = - - - % % 9 u d B $.=.d.f.g.f.f.f.f.f.g.b.n.b.f.p.-.L G < > o X                       ",
"                            * - - 9 u x Z $.=.l.x.H.T.T.R.R.T.T.R.R.E.E.T.L.I.a.` G > o .                       ",
"                              * ; 0 d V #.1.w.z.L.T.W.~.^._._.)._._._._._._.Q.K.a.L h > @                       ",
"                              * ; t d V { *.d.j.J.K.!.~.`.'.'.'.].].].'.].].].).I.t.J l h                       ",
"                                  0 p z B I -.w.h.J.T.Q.).).'.'.].].].].{.{.]._.U.j.t.` L l                     ",
"                                    0 0 p N P *.w.f.J.K.Q.).).'.].].].'.].].].'.).U.L.s.` J q @                 ",
"                                    9 9 e a B X.1.d.k.H.U.Q.).`.'.'.'.'.'.'.'.'.'.'.).L.p.J w * X               ",
"                                    e i a b V | >.w.h.J.P.Q.).'.].].'.'.'.'.'.].].{.].W.a.J r * +               ",
"                          - *   * 9 d n C [ {  .>.9.h.J.P.Q.).'.].].].'.'.'.].].{.{.].W.a.J , * X @ -           ",
"                        - = * * - t n { &.,.,.,.1.w.j.J.P.Q.).'.'.].'.'.'.'.'.].{.].].U.a.J r * @ @ - :         ",
"                      - - : : - 9 d V %.<.3.3.;.1.9.l.x.L.W.Q.^.`.`._.'.`.`.'._.[.]._.K.p.L k ; % - - -         ",
"                      * - ; 9 i d B } ;.3.5.<.:.>.7.d.h.x.n.R.R.E./.~._.).).).).^././.x.d.$.n p 0 9 - -         ",
"                      * - 9 p n ' X.&.:.3.3.2.;.>.1.7.w.l.k.g.n.n.R.E.!.Q.).Q.W.T.R.n.g.r.=.{ N a 0 ; =         ",
"                      * - 0 v Z &.:.<.:.;.:.;.,.;.&.>.1.7.8.q.e.b.n.L.P.U.U.P.P.T.m.g.v.q.5.>.X.n p 9 @         ",
"                      * - 0 v ' ,.>.:.%.X.X.%.&.&.;.;.;.:.3.3.6.e.f.h.z.I.J.J.J.k.e.r.6.6.6.4.&.V p ; *         ",
"                      * - 9 p B [ { [ Z C [ } %.;.;.:.:.2.3.5.6.5.w.=.t.p.l.k.k.g.r.6.3.5.6.5.&.V p ; *         ",
"                      - : ; e p v z d d d n Z | &.:.:.3.3.6.q.q.2.$.I L R =.w.g.e.r.3.:.3.3.2.X.B i ; *         ",
"                      - - ; 9 9 q 9 9 9 9 a B } ,.2.3.5.6.6.q.5.&.S l a l [ >.0.5.8.;.;.;.;.&.{ n i > *         ",
"                        ; ; = * - * * * > i n { &.2.5.6.6.5.3.;.{ B e 9 p N } ,.,.#.| } } } { Z b i ; *         ",
"                          - * * * o o o - t n { ;.3.6.q.5.<.%.[ B s 9 : 9 s m ' C V B n m B n b a e ;           ",
"                                    o * ; t n { ;.2.6.q.3.&.Z v i 9 ; - 9 t p s a a p p p p p i i               ",
"                                      * > i n { &.2.5.4.:.{ b e ; - - : - ; 9 9 9 > ; 9 9 ; 9 > 9               ",
"                                      * ; p n { &.:.;.&.X.V d > - @ - = - * * * @ - * * * * * *                 ",
"                                      * ; p B } &.%.} Z B v p ;                         * @                     ",
"                                      * ; p B } %.} B d p e                                                     ",
"                                      * 9 i n [ | C v t ; -                                                     ",
"                                      - ; e d B V B a 9 *                                                       ",
"                                      = : 9 i a d a t                                                           ",
"                                      : = ; 9 0 0 0 9                                                           ",
"                                      - - - - - - :                                                             ",
"                                      ; - - * * * *                                                             "
};
