/* XPM */
static char *__resized[] = {
/* columns rows colors chars-per-pixel */
"56 64 205 2 ",
"   c None",
".  c #252E19",
"X  c #292E1D",
"o  c #2D321F",
"O  c #2E3520",
"+  c #2C3820",
"@  c #313620",
"#  c #3B3621",
"$  c #333A22",
"%  c #3A3B22",
"&  c #433622",
"*  c #4A3623",
"=  c #443923",
"-  c #4B3924",
";  c #533924",
":  c #5A3A25",
">  c #5A3625",
",  c #6D3624",
"<  c #643A26",
"1  c #6C3A27",
"2  c #743B28",
"3  c #7C3A29",
"4  c #703525",
"5  c #3C4325",
"6  c #3F4826",
"7  c #364023",
"8  c #414A27",
"9  c #444E28",
"0  c #464A2D",
"q  c #544728",
"w  c #455627",
"e  c #465229",
"r  c #4A552A",
"t  c #4D592C",
"y  c #4C5527",
"u  c #515E2D",
"i  c #5A5027",
"p  c #4C4D32",
"a  c #444934",
"s  c #51573C",
"d  c #6C4625",
"f  c #655427",
"g  c #54622E",
"h  c #58682F",
"j  c #5D732E",
"k  c #576530",
"l  c #586730",
"z  c #5C6B32",
"x  c #55653A",
"c  c #5E7331",
"v  c #4F602F",
"b  c #626A38",
"n  c #647435",
"m  c #677836",
"M  c #697C37",
"N  c #6B7E38",
"B  c #667130",
"V  c #4E5340",
"C  c #5E6153",
"Z  c #5F6D4D",
"A  c #696C44",
"S  c #74744D",
"D  c #666A59",
"F  c #7D7252",
"G  c #727E51",
"H  c #6A7057",
"J  c #6E7562",
"K  c #823B2A",
"L  c #8C3C2B",
"P  c #9C3C2C",
"I  c #933C2B",
"U  c #A23D2D",
"Y  c #AB3D2E",
"T  c #B43E2F",
"R  c #BB3E30",
"E  c #854028",
"W  c #6E8238",
"Q  c #6D8237",
"!  c #72853A",
"~  c #768A3C",
"^  c #798E3D",
"/  c #7C923E",
"(  c #788948",
")  c #7F9540",
"_  c #7B8471",
"`  c #849D3E",
"'  c #88A23F",
"]  c #87A03E",
"[  c #809641",
"{  c #859C42",
"}  c #879847",
"|  c #8C9957",
" . c #979859",
".. c #87A042",
"X. c #8BA344",
"o. c #8EA944",
"O. c #8CA349",
"+. c #91AB46",
"@. c #93A54D",
"#. c #94AE48",
"$. c #98AC4E",
"%. c #95B246",
"&. c #96B249",
"*. c #9AB54B",
"=. c #9EBB4C",
"-. c #98B647",
";. c #91A652",
":. c #9BA655",
">. c #93A954",
",. c #9EA857",
"<. c #99AE5E",
"1. c #96AA5A",
"2. c #9EB354",
"3. c #A1BE4E",
"4. c #A3A95B",
"5. c #A4BC52",
"6. c #ADBE5C",
"7. c #A7B858",
"8. c #B0BE5F",
"9. c #8E9475",
"0. c #B79F79",
"q. c #B89F7A",
"w. c #B39E75",
"e. c #AB9C6D",
"r. c #95A760",
"t. c #9DB064",
"y. c #97A17A",
"u. c #ACAB65",
"i. c #B3AE6B",
"p. c #A1B469",
"a. c #A8B466",
"s. c #B4BC64",
"d. c #BEBC6F",
"f. c #B5B669",
"g. c #BBAF74",
"h. c #A8B976",
"j. c #BBB073",
"k. c #C1BB73",
"l. c #C8B77D",
"z. c #A3C14F",
"x. c #A6C450",
"c. c #A9C056",
"v. c #B2C25F",
"b. c #B5C461",
"n. c #BCC16A",
"m. c #CCC977",
"M. c #CAC677",
"N. c #D0C97C",
"B. c #D3D07B",
"V. c #9B9D97",
"C. c #999E8B",
"Z. c #9EA68A",
"A. c #9FA19A",
"S. c #B0BD8C",
"D. c #A2A79A",
"F. c #B3B6AE",
"G. c #B5B7B2",
"H. c #CAB482",
"J. c #CDB882",
"K. c #D0BA84",
"L. c #DABB8F",
"P. c #D6B98B",
"I. c #DCBA92",
"U. c #B5C588",
"Y. c #BCCA93",
"T. c #B9C499",
"R. c #DAC688",
"E. c #C1CE9A",
"W. c #C1D094",
"Q. c #DFC390",
"!. c #E1CD8D",
"~. c #EAC49C",
"^. c #EDCD9A",
"/. c #E5C496",
"(. c #F0CB9E",
"). c #E6D090",
"_. c #EBD494",
"`. c #F5D49E",
"'. c #C5D2A0",
"]. c #C8D3AA",
"[. c #D4DEB9",
"{. c #C6CEB3",
"}. c #F3CBA2",
"|. c #FAD4A4",
" X c #FFD7A8",
".X c #FFD9AB",
"XX c #FAD7A3",
"oX c #FFDEB0",
"OX c #CED4C3",
"+X c #D5D5D4",
"@X c #DBDCDB",
"#X c #D8D9D6",
"$X c #CCCFC0",
"%X c #DEE6CA",
"&X c #DAE2C4",
"*X c #E2EACC",
"=X c #E5EBD3",
"-X c #E3E7D8",
";X c #E9EAE9",
":X c #EFF1E9",
">X c #EEF1E6",
",X c #F1F3ED",
"<X c #F3F4F1",
"1X c #F9F9F7",
"2X c #EEEEF0",
/* pixels */
"                                                                                                                ",
"                                                                                                                ",
"                                                                                                                ",
"                                                                                                                ",
"                @ @ @ @ O @ O O @ o @ @ o o o o @ o @ O o o O O O + O + O + O o O O O O O + O O O O +           ",
"                $ $ @ $ $ $ $ $ $ $ $ $ 7 $ 7 $ 7 $ $ % 7 $ % % $ % $ % % % % @ % $ $ $ $ % $ % % $ $ %         ",
"              O @ $ % 5 8 9 e e 9 9 9 9 e 9 e 9 e e e e r e r r r r r r r r r r r r r r r r r r r r r r 9       ",
"            + O @ 7 8 r g z z z z z h z z z z z z z n m M m m m m n m n m m m m m m m m m m m m m m n z u 0 @   ",
"        + + O O + 7 9 l M ! ~ ~ ! ! ~ ! ! ! W ! ~ ^ ` [ { { { { { { { { { { { { { { { { { { { { { { ) ! z 9 @ o ",
"        # # # @ $ 7 e n ~ { { { ..) { { { ..{ { { { @.&.*.*.*.&.*.*.*.*.*.*.*.*.*.*.*.*.&.&.*.=.=.=.+.^ z e $ o ",
"      ; : : ; & # % t m / X.o.X.X.' X.X.X.X.X.' ' +.#.-.3.3.3.3.=.x.x.x.z.=.=.=.*.=.*.=.=.=.=.=.x.x.*.{ n 9 $ o ",
"+ $ = < 2 3 1 > & 5 t m / X.X.' ] ' X.X.o.X.' ' ' ' o.#.&.&.3.3.x.x.x.x.=.=.&.&.+.+.&.+.+.+.&.=.3.x.=.{ n 9 $ o ",
"+ $ - 1 L P I , 8 7 6 c / X.X.X.......X.X.X...{ X.X.X.X.o.&.*.3.=.x.=.=.=.&.+.o.O.o.O.o.o.O.O.+.*.3.*.[ c 9 $ o ",
"+ @ - 2 P T U 3 ; 7 v Q / ..@.;.>.| O.} ) } O.;.:.@.O...X.+.-.3.=.*.$.#.+.+.X.X.X.X.....X.X.X.o.+.#.o.~ z 9 $ o ",
"+ $ - 2 U R Y 3 ; = w c ) O.<.h.h.h.r.( ( ( | h.h.h.t.O.X.+.%.3.&...) ) ) / X.o.+.+.+.+.o.@.o.X.{ ) ! n t 5 @ O ",
"+ $ - 3 U R Y K ; 5 6 j ( ;.n.W.].T.C.( x G y.T.].Y.h.>.X.+.-.*.+.) m c n ( X.&.&.&.&.&.*.&.%...~ m k r 0 7 $ @ ",
"+ @ - 2 P T U 3 ; 5 w j ^ >.U.[.*X[.V.H s D C.$X*X[.U.<.X.' -.*...! k r h W X.*.=.=.=.=.=.=.*...! k 9 7 $ $ $ @ ",
"+ $ = 1 L U I 1 * 5 w j ^ <.W.*X:X+XV.D p D V.+X;X*XT.t.o.#.-.-.O.! l t z ! O.=.z.3.=.3.z.5.=.X.! l 9 5 $ $ $ @ ",
"+ $ = : 2 K 2 > = 7 w j / <.W.*X,X#XA.C 6 C V.+X,X*XY.t.X.' 3.-.+.) N c N ) +.=.z.z.z.=.z.3.=.+.` N z r 0 7 @ O ",
"@ @ % = ; : ; & # % w j / <.W.*X,X#XV.D 6 C V.+X,X*XY.t.X.' -.3.&.o.{ ) { O.*.=.3.=.=.=.z.=.=.*.o.{ ( m u 5 $ O ",
"$ @ $ % # # # % % % r z ~ 1.Y.%X2X@XA.C V C V.+X:X*XY.1.+.' %.-.=.=.&.&.&.=.=.=.=.z.=.=.3.3.=.=.=.*.o.~ z 9 $ O ",
"@ $ @ + + @ # # = : i B Q | U.&X2X@XG.C.J C.G.@X:X*XY.1.o.' %.=.5.=.z.=.z.=.=.=.=.=.=.=.=.=.=.z.x.3.*.) b 9 $ X ",
"  $ @ + + @ # ; < d d f z ( Z.OX2X2X+XG.A.F.+X2X,X*XW.<.X.' #.=.=.x.x.3.x.=.=.=.=.3.z.=.=.3.=.z.x.x.*.{ n 9 @ O ",
"      + + $ - 1 L I K d q Z 9.{.2X1X2X@X+X@X2X1X<X*XU.<.X.+.%.=.=.=.z.=.=.x.=.z.=.=.=.=.=.=.=.3.3.z.*.) c 9 $ O ",
"        + $ ; 3 P Y I , - s _ F.;X1X1X,X:X<X<X1X>X[.U.<.X.' -.=.=.z.=.=.5.=.=.3.=.=.z.=.=.=.=.z.z.3.&.) z 9 $ o ",
"        + % : K Y R P , & a J D.{.=X=X=X=X=X=X=X&XT.h.1.X.o.%.=.=.=.=.z.3.3.3.3.=.z.=.z.z.z.=.z.x.z.*.) n e $ o ",
"        + % : K Y R U 4 = 0 Z 9.U.W.].'.'.'.'.E.Y.h.t.;.X.+.-.=.x.3.=.=.3.3.z.z.z.z.z.z.z.z.z.z.x.x.*.{ n 9 $ o ",
"        + $ : K Y T P 4 = 6 x ( r.p.h.a.p.p.p.t.t.1.;.O.X.+.&.=.=.=.3.=.3.=.3.3.=.z.=.=.=.3.3.z.z.z.*./ n 9 @ o ",
"        + % ; 2 P Y I , & 5 v Q ) O.o.O.O...O.O.O...X.....+.-.*.=.=.=.=.*.*.&.&.+.&.&.%.&.+.+.&.*.&.o.~ z 9 $ o ",
"        O $ - < K K 2 > = 5 u M / ..] ] ` ` ` ` ` ..{ ....o.@.&.*.=.=.=.&.X.) ^ ~ ) ) ( / / / / / / ! m u 5 @ @ ",
"        @ $ = ; > < > * % 5 g M / ' ' ] ] ` ` ` ` { ..{ ..o.O.+.+.=.=.*.O.~ m z h h z z z z z z z z l t e 7 $ @ ",
"        @ $ $ # = = # # % 5 u M ` ..X.X...............X...O.X...+.&.=.&...Q g 9 6 6 6 6 0 6 6 6 0 0 8 6 5 $ @ @ ",
"        @ $ @ $ @ @ @ @ $ 7 r n ! ` { { ` X.X.{ ......X.X.X.X.X.+.&.=.&...Q v 6 7 % $ @ @ $ @ @ @ @ @ @ @ @ $ @ ",
"          @ $ + + + O O @ 7 9 g b N ~ ` { X.{ X...X.X.o.o.o.o.o.o.&.=.*.X.^ m g e 5 $ o o o o o o o o O @ @ @ $ ",
"                    + + @ % 5 0 t l M ^ { X.X.` ..X.o.#.%.%.&.&.&.*.*.-.%.X./ ! z r 7 @ o X                     ",
"                      @ $ @ $ $ 5 e z ! { X.o.} X.+.&.=.=.=.=.=.=.x.3.=.3.3.*.X.! g 8 @ o                       ",
"                        $ @ O O $ 8 l W { ..@.;.>.4.7.v.b.b.v.v.v.v.v.v.v.b.b.5.} b 0 @ X                       ",
"                          @ O X @ 8 g W { @.,.4.a.j.d.M.m.m.m.m.m.m.m.m.m.B.B.n. .b 8 @ X                       ",
"                            o o @ 8 h Q } :.u.i.l.K.R.!.).).).~.!.).).)._._._.R.e.S p @ .                       ",
"                              O $ 8 h Q { ,.u.l.P.I.^.`.XXXX|.|.XXXXXXXXXX.XXX/.w.F p @ .                       ",
"                            X o @ 8 g Q ` ,.i.l.I.~.}. X X X X X.X.X.X.X.XoX.X~.g.F p @ .                       ",
"                  @ @ O   X X X @ 6 g Q { 4.i.J.I.~.}.}. X XoX X.X.X X.X.XoXoX~.q.F p @ .                       ",
"                + $ $ + @ O O O @ 8 g Q } ,.i.H.I.~.}. X XoX X X X X X X.XoX.X~.q.F p $ .                       ",
"                $ $ $ % 7 6 % 7 6 e z ! } ,.i.l.P.~.}.}. X X X X X X.X X.X.X.X^.q.F p @ .                       ",
"              @ @ % 5 e t k h g h z M ^ } ,.i.l.I.~.}. X X.X.X X.X X X.X.X.X.X~.q.F p @ .                       ",
"              O $ % e k N ! ! ~ ! ~ / ` O.,.i.H.I.~.}. X.X.X.X.X X.X X X.XoX.X^.H.F p @ .                       ",
"              O @ 7 r m ) o.@.o.o.o.X.' } :.i.l.L./.}.|. X X.X X X X X X.X.X.X~.w.F p # .                       ",
"              o @ 7 t m { +.*.*.*.&.#.X.o. .u.g.J.Q./.^.`.`.|.|.|.|.|.|. XXXXXQ.e.D p o .                       ",
"              o @ % e z W / X.&.*.*.+.o.} @.4.u.g.l.N.R.R.).^.~.}.}.}.(.(._.!.l. .S 0 @ X                       ",
"              O @ $ 5 e k b W { o.#.+.o.X.@.@.,.4.u.s.s.M.N.R./.~.~.~.~./.N.M.f.| b 9 @ o                       ",
"                $ $ $ $ 5 e z W [ X.o.X.{ X.} @.@.&.5.7.s.d.l.L.I.I.I.L.l.M.v.5.[ l 8 @ X                       ",
"                @ $ + @ @ 7 t z ! / [ { { X.X.X.o.+.%.*.5.b.k.l.K.K.K.l.k.s.7.#.~ k 6 @ o                       ",
"                  @ O O @ $ 8 t z M ! / ` O.X.+.+.%.-.=.z.v.s.d.k.k.k.j.s.8.5.#.~ l 8 @ X                       ",
"                    @ @ @ $ 7 5 e h M ~ { o.+.&.-.*.3.3.z.5.6.s.s.s.8.6.6.c.3.#.^ l 8 @ O                       ",
"                      @ @ @ $ $ % e z ! { +.#.*.=.*.*.*.*.*.*.=.5.3.5.5.3.5.3.#.^ z 8 @ X                       ",
"                        $ @ @ O @ 8 l ! { +.*.=.=.*.+...{ { { { { X.#.#.3.z.3.#.^ l 8 @ O                       ",
"                          @ o o @ 8 g ! { #.=.3.=.@.) W m n m M W / X.+.=.z.3.%.^ z 6 @ O                       ",
"                            o o $ 8 l ! { #.*.3.*.{ N k e 9 9 r l M / X.%.3.3.&.^ z 6 @ O                       ",
"                              O $ 8 g N ` ..#.#.o./ z e $ @ @ 7 9 h W ` O.#.#.o.! z 9 @ X                       ",
"                              O $ 8 r z M ! ^ ) ~ M h 5 o X X @ 5 r z N ! ^ / ~ N g 6 @                         ",
"                              @ $ 7 9 r g l z z z k t     X X @ $ 8 r g h z z z k r                             ",
"                              @ $ $ 7 5 5 9 9 9 9 9         @ @ $ 7 5 8 8 9 9 9 e                               ",
"                              @ @ $ @ $ $ $ $ $ $ @         @ $ $ $ @ $ $ $ $ $ $                               ",
"                              @ @ @ @ O o O o o o o         $ @ @ @ @ o o o o o o                               "
};
