/* XPM */
static char *__resized[] = {
/* columns rows colors chars-per-pixel */
"56 64 199 2 ",
"   c None",
".  c #262D1A",
"X  c #292E1D",
"o  c #2D321F",
"O  c #2E3520",
"+  c #2C3820",
"@  c #313620",
"#  c #3A3521",
"$  c #333921",
"%  c #393A23",
"&  c #423722",
"*  c #4A3623",
"=  c #423923",
"-  c #4A3924",
";  c #533924",
":  c #5C3A25",
">  c #5B3623",
",  c #6B3421",
"<  c #653A26",
"1  c #6B3A26",
"2  c #6C3D28",
"3  c #743B28",
"4  c #7B3A29",
"5  c #783827",
"6  c #3C4325",
"7  c #3F4826",
"8  c #364023",
"9  c #414A27",
"0  c #444D28",
"q  c #47432A",
"w  c #47542A",
"e  c #4A552A",
"r  c #4D592C",
"t  c #515E2D",
"y  c #575229",
"u  c #4C4C33",
"i  c #454A36",
"p  c #4D513D",
"a  c #51593B",
"s  c #674E27",
"d  c #55622F",
"f  c #58692F",
"g  c #576530",
"h  c #586630",
"j  c #5C6A32",
"k  c #5A663B",
"l  c #646A3A",
"z  c #637435",
"x  c #667836",
"c  c #697B36",
"v  c #6C7E39",
"b  c #616D2D",
"n  c #515740",
"m  c #615A41",
"M  c #5C6051",
"N  c #656F4B",
"B  c #746D4C",
"V  c #75764F",
"C  c #636856",
"Z  c #6A705B",
"A  c #7D7253",
"S  c #727E51",
"D  c #6F7663",
"F  c #833B2A",
"G  c #8A3D2B",
"H  c #923C2A",
"J  c #9C3B2B",
"K  c #AB3E2E",
"L  c #A43D2D",
"P  c #B63E2F",
"I  c #BA3E30",
"U  c #804228",
"Y  c #88795B",
"T  c #6E8139",
"R  c #6D8137",
"E  c #71853A",
"W  c #768B3C",
"Q  c #798E3D",
"!  c #7C923E",
"~  c #798848",
"^  c #7F9540",
"/  c #7A8851",
"(  c #7B8476",
")  c #849D3D",
"_  c #87A13F",
"`  c #809641",
"'  c #859C42",
"]  c #889F44",
"[  c #8D9F5B",
"{  c #8E8B57",
"}  c #87A041",
"|  c #8AA344",
" . c #8EA944",
".. c #8CA349",
"X. c #91AC46",
"o. c #92A44D",
"O. c #94AE49",
"+. c #95B246",
"@. c #96B249",
"#. c #99B54B",
"$. c #9EBB4C",
"%. c #98B547",
"&. c #94A551",
"*. c #9AA654",
"=. c #93A954",
"-. c #9CA954",
";. c #99AE5E",
":. c #96AB5A",
">. c #9EB35F",
",. c #A1BE4E",
"<. c #A3A75C",
"1. c #A4BB53",
"2. c #ACBD5B",
"3. c #A3B556",
"4. c #B1BF5F",
"5. c #868B7D",
"6. c #919C73",
"7. c #A29A64",
"8. c #AB9571",
"9. c #B69F78",
"0. c #95A760",
"q. c #9DB064",
"w. c #97A17A",
"e. c #ABAB64",
"r. c #B3AD6C",
"t. c #A1B469",
"y. c #A4B86B",
"u. c #B4BD64",
"i. c #B5B46A",
"p. c #B9BC6A",
"a. c #B3B468",
"s. c #B9A17A",
"d. c #A8B977",
"f. c #BFB176",
"g. c #C1BC73",
"h. c #C5BA78",
"j. c #C5B47B",
"k. c #C2AA7F",
"l. c #A3C14F",
"z. c #A5C350",
"x. c #AAC057",
"c. c #BCC06A",
"v. c #ADC075",
"b. c #C8C575",
"n. c #C0C16F",
"m. c #979E87",
"M. c #9A9C95",
"N. c #9FA19A",
"B. c #9DA28F",
"V. c #A2A69A",
"C. c #ABB78C",
"Z. c #B2B5AE",
"A. c #B8BAB4",
"S. c #C9B381",
"D. c #CFBC82",
"F. c #D4B98A",
"G. c #DCBB91",
"H. c #E1BC96",
"J. c #B5C489",
"K. c #BCCA94",
"L. c #B9C499",
"P. c #BCC0BB",
"I. c #DAC589",
"U. c #DDCB89",
"Y. c #D6C486",
"T. c #C1CE9A",
"R. c #DFC092",
"E. c #EAC49C",
"W. c #EDCB9B",
"Q. c #E6C796",
"!. c #F4D29E",
"~. c #E9CE95",
"^. c #C5D2A0",
"/. c #C8D3AA",
"(. c #D4DEB9",
"). c #C6CDB3",
"_. c #F4CCA2",
"`. c #FBD4A5",
"'. c #FFD7A8",
"]. c #FFD9AB",
"[. c #F9D5A2",
"{. c #FFE0B1",
"}. c #CCD1C3",
"|. c #D5D5D4",
" X c #DCDCDA",
".X c #D8D9D5",
"XX c #D0D5C4",
"oX c #DEE6CA",
"OX c #D9E1C4",
"+X c #E2E9CE",
"@X c #E4EBD3",
"#X c #E3E7D8",
"$X c #E9E9E8",
"%X c #EFF0E9",
"&X c #EDF0E5",
"*X c #F2F3ED",
"=X c #F4F4F2",
"-X c #F9FAF7",
";X c #EEEEF0",
/* pixels */
"                $ @ O O O O O o O O o O O X O o O O                                                             ",
"              $ @ $ $ $ $ $ $ @ # @ @ $ $ $ $ $ @ @                                                             ",
"              O $ $ % 8 7 7 9 9 9 9 9 9 7 7 7 7 9 9                                                             ",
"            + O O $ 7 w r d g g g d g t g g g g d r 0                                                           ",
"          + O O $ 8 9 d z v E T v v E v v v T T c j r 8 @ X O O O + O + O + O O O O O + O O O O O O +           ",
"        % % # @ @ % e z W ` ' ' ' ` ) ` ` ) ' ' ! c g 9 % # $ $ $ % $ % % % % $ 8 % $ % $ 8 % % % $ % %         ",
"      - ; - * # # 8 r z ! | | | | | | | | | | | ' W z t w w w w e e w e e e w e e e e e e e e e e e e w 0       ",
"  $ - : 1 3 1 ; & 8 r z ! | X.| | | | | | | | | ' ` W c x x x x x x x x x x x x x x x x x x x x x x x j t 9 $   ",
"+ $ - 2 G J G , - 6 w z ^ }  .} | | } | | ] | | | | } ' ' ' ' ' ` ' ' ' ' ' ' ` ' ' ' ' ' ' ' ' ' ' ^ T j 0 O o ",
"+ $ - 3 J K J 5 ; = w z Q } | ..} | ' | | ' | ' } | O.@.#.#.#.#.#.#.$.#.#.#.#.#.#.#.#.#.@.#.#.#.$.$.O.^ j 0 $ o ",
"+ @ - 4 J I K 4 ; 6 e z ! } | } ' } ' } | ' _ | } | O.#.$.$.,.,.,.z.z.z.z.$.$.$.$.#.$.#.$.#.$.,.z.z.$.` z 0 $ O ",
"+ $ - 3 L I K F ; 6 e z ! } | } ) ' | | | | ) ) ) | | O.@.$.$.,.z.z.z.z.$.$.@.@.O.O.O.@.O.O.O.#.,.z.,.` z 0 $ X ",
"+ $ - 3 L P L 5 q 8 7 z ! } } } } } } } | } } } | } | | X.+.#.$.$.z.,.,.#.@.O.| | |  .| | X. .O.#.$.#.^ z 0 $ O ",
"+ @ - 2 H K J 3 - 7 r z W } =.=.=.[ ..' ` ` ..[ =.&...| | X.%.$.$.#.O.X.X.X.| | | | | | | | | | O.O...W j 0 $ O ",
"O $ & : 3 U 4 > = 6 w z ! X.>.v.v.d.[ ~ ~ ~ [ d.d.d.;...| X.%.$.@.} ^ ^ ^ ` |  .X.X.X...X.X...| ' ^ W z r 7 $ O ",
"@ $ % - : < > * # 8 w z ! =.v.K.).L.w./ k S w.L./.K.d.=.|  .%.$.X.^ x z z ~ } @.#.@.O.@.@.@.O.| Q z g w 7 % $ @ ",
"$ @ @ % = = & # # 6 e b Q o.J.(.@X}.M.Z a C m.}.@X(.J.;. . .%.#...E g w h T ..#.$.$.$.$.,.$.#.} E g 0 8 $ $ $ $ ",
"@ $ $ $ $ @ $ # = - y b E &.J.OX%X.XN.C u C M..X&XoXK.;. ._ %.#. .T g r f E ..$.,.,.$.$.,.,.#...E h 0 7 % $ $ + ",
"$ $ O + + O # ; 1 s s s b / C.XX%X XN.M i M M..X*X@XK.;. . .%.#.X.^ v z T ^ O.$.z.,.,.,.,.l.$.O.` v h r 0 8 @ @ ",
"      + + @ - < U U 4 1 y N m.}.$X XV.C i M M.|.*X+XK.;. . .+.#.%...} ^ ^ ..#.$.,.,.,.,.,.,.$.#.X.` ^ z r 6 # O ",
"        + $ ; 4 J K H , q a 5.P.$X XN.C p C M..X&XoXK.;.|  .+.$.$.#.#.@.@.#.$.$.,.,.$.,.,.,.$.$.$.#. .Q j 0 $ O ",
"        + % ; F K P J , - a ( P.$X$XA.m.D 5.Z. X*XoXK.>.| _ +.$.,.,.,.,.,.,.,.$.$.$.,.$.$.$.$.,.l.1.#.` j w $ X ",
"        + % : F K I L , - p ( P.$X;X XZ.N.Z.|.;X=XoXK.;.|  .+.#.,.z.,.,.,.,.,.$.$.,.$.$.$.,.,.,.l.l.$.` z 0 $ O ",
"        + % ; F K P J , - p ( P.$X-X=X X|. X;X-X=XOXK.;. ._ +.$.$.,.,.,.,.,.,.,.$.$.$.,.$.,.$.,.l.l.#.^ j w $ O ",
"        + % ; 4 J K H , - p ( Z.$X-X-X*X%X*X=X-X&X(.C.;.|  .+.$.,.,.,.$.$.$.$.,.,.$.,.$.,.$.$.,.z.,.#.^ z 0 # O ",
"        @ $ - 2 G H 5 > = i D V.).#X@X@X@X#X@X@X(.^.d.:. . .+.$.$.,.,.$.,.,.,.,.,.,.,.,.,.,.,.z.z.z.#.^ j 0 $ X ",
"        @ $ = ; < 1 > * % 0 N 6.C.T./.^.^.^.^.T.K.d.t.o.}  .+.$.,.,.,.,.,.,.,.z.z.,.,.,.z.,.,.z.z.z.#.^ z 0 $ O ",
"        @ $ % = - * & # # 7 k / 0.y.y.y.t.t.t.t.q.:.&.....X.@.$.$.,.$.$.,.$.,.,.,.,.,.$.,.,.,.,.z.z.#.^ z 0 @ o ",
"        $ $ @ $ # $ @ @ @ 7 t v ' o.o. ...| | | ..| } } } X.+.$.$.$.,.$.$.#.@.@.X.@.O.X.X.X.O.O.@.@.| W h 0 $ O ",
"          $ $ + + + + o @ 8 t c ! ) _ ) ) ) ) ) ) ) _ _ }  . .+.%.#.$.#.X.} ^ ^ W ^ ^ ^ ^ ^ ^ ^ ! ^ W x t 7 $ O ",
"                    o + $ 6 t c ) _ _ ) ) ) ) ) ! _ ! _ } } } | X.%.#.%.} W z d g g j j h h j j j j g r 0 8 $ O ",
"                      o @ 7 t c ! )  .| ] ] ] _ | } | } } } .. .X.%.$.#.} T d 7 7 7 0 7 0 7 0 7 0 0 7 6 8 $ $ $ ",
"                        @ 7 r z E ` ) ' ] ] | o.o.o.o.*.*.-.&.-.#.>.x.2.&.~ k u q $ $ $ O $ @ @ $ @ @ $ $ $ @ $ ",
"                          6 r h z v E ) ] o.*.<.e.e.a.i.a.i.i.i.p.c.c.c.i.7.Y B m u % O o o o O o o o O O @ $ @ ",
"                            9 e t h x Q ] o.<.r.j.h.D.Y.Y.Y.I.Y.U.U.U.U.Y.F.S.8.Y m 9 o . X                     ",
"                              $ 6 e j E ' *.r.j.F.G.Q.!.!.!.!._.[.!.[.!._.`.E.G.8.B u @ .                       ",
"                              o @ 9 d R ' <.r.S.G.E._.[.].].].].].'.'.'.].{.].W.s.A u $ .                       ",
"                            . X o 6 t R ' *.r.S.G.E._.`.].].].].].'.].].].{.{.W.s.A u @ .                       ",
"                $ + @ @ + O o o @ 6 d R ' <.r.S.H.H._.`.'.].].'.'.].'.].].{.].W.s.A u @ .                       ",
"                $ $ $ % % % $ $ 8 w f E ] <.r.S.G.H._.`.'.].'.'.'.'.].].].].].E.s.A u $ .                       ",
"              @ @ $ 8 9 e r r r t f x W ' *.r.S.G.H._.`.].].'.'.'.'.'.'.].{.].W.9.A u @ .                       ",
"              O $ % 0 g x v T T v R ! ! | *.r.S.G.E._.].'.].].'.'.].].].].].].W.9.A u $ .                       ",
"              O @ 8 r z ^ | ..| | | ' _ ] *.r.S.G.Q._.`.'.].'.'.'.'.'.'.].{.].Q.s.A u @ .                       ",
"              X @ 8 r c ` X.#.#.#.+.X.| o.*.e.j.F.R.W._.`.`.`.`.`.`.[.'.'.'.[.Q.9.B u $ .                       ",
"              O O 8 e j E ' o.@.#.#.O. .] &.<.r.f.h.Y.U.~.~.W.W._._._._.!.!.~.Y.7.B u o .                       ",
"              O $ % 7 e h x Q ' X.+.X.| ] o.*.<.e.a.p.n.b.Y.U.Q.E.E.E.E.Q.U.b.i.{ l 0 $ o                       ",
"              @ @ $ $ 8 9 r b W ] | | | ] ] ] o.&.-.3.2.c.c.D.G.H.H.H.G.D.b.c.3.` j 9 @ X                       ",
"                $ $ @ O $ 7 t z E ) ] ] ] ] ] ]  .X.+.$.1.p.h.D.F.F.F.S.h.c.1.@.Q f 9 $ o                       ",
"                  @ O O O $ 0 r z T W ` ' | |  . .+.%.$.1.2.p.g.h.h.h.f.p.x.1.+.Q f 7 $ O                       ",
"                    O O O # 8 0 r h c Q } | X.O.%.#.$.$.z.x.x.u.u.u.u.u.u.x.,. .W h 7 @ X                       ",
"                      $ $ $ $ $ 6 e j W '  .@.#.$.$.$.$.$.$.,.1.1.1.1.1.1.z.1.@.W h 9 @ o                       ",
"                        @ $ @ O $ 0 g T ' X.#.#.$.%.+.| ..| } | ..X.@.#.$.z.$.O.! h 9 $ X                       ",
"                          @ O o O 7 g T ' X.#.,.$.X.' ~ R R R R W ! | +.#.,.l.@.! h 9 $ o                       ",
"                            o o # 9 d T ' O.#.,.#.} T h r w e t j R ! | %.$.$.%.! h 7 $ o                       ",
"                              o $ 0 g v ' X.#.#.X.^ z w 8 $ $ 6 w j W } O.#.@.X.W h 7 $ O                       ",
"                              O $ 9 h E ' | | ' ^ T g 6 O X o $ w f E } | ..' ^ T g 7 O                         ",
"                              o $ 0 f W ` ' Q E z h r 8 o . X @ 7 f E ' ` Q T z h r 7                           ",
"                              o $ 0 h E ` ^ c d r 0 9       o $ 0 h W ` ^ x g e 0 7                             ",
"                              O $ 0 g T Q E j w % $         O $ 0 f T W E h w % $                               ",
"                              @ $ 7 r j x z d 7 @           O $ 7 r z x z t 7 O                                 ",
"                              @ $ % 0 e g r e 6             @ $ 8 0 r t t w %                                   ",
"                              @ $ $ 8 7 7 7 7               @ $ % % 7 7 7 7                                     ",
"                              $ $ $ @ @ $ $                 @ $ $ $ @ $ $                                       ",
"                              $ @ @ O O O O                 $ $ + O O O O                                       "
};
