/* XPM */
static char *__resized[] = {
/* columns rows colors chars-per-pixel */
"56 64 203 2 ",
"   c None",
".  c #262E19",
"X  c #292E1D",
"o  c #2D311F",
"O  c #2E3520",
"+  c #2C3820",
"@  c #313620",
"#  c #3B3621",
"$  c #333921",
"%  c #393922",
"&  c #423722",
"*  c #4B3723",
"=  c #423923",
"-  c #4A3924",
";  c #533924",
":  c #5C3A25",
">  c #5B3625",
",  c #643926",
"<  c #6B3A26",
"1  c #6C3926",
"2  c #743B28",
"3  c #7B3A29",
"4  c #713625",
"5  c #3B4324",
"6  c #3F4826",
"7  c #374122",
"8  c #414A27",
"9  c #444E28",
"0  c #49462A",
"q  c #455527",
"w  c #465229",
"e  c #4A562B",
"r  c #4D5A2C",
"t  c #4A5527",
"y  c #515E2D",
"u  c #575229",
"i  c #4C4D32",
"p  c #464B36",
"a  c #565B39",
"s  c #4D5230",
"d  c #674E27",
"f  c #55632F",
"g  c #58692F",
"h  c #5D722E",
"j  c #566430",
"k  c #596631",
"l  c #5D6D33",
"z  c #57673E",
"x  c #5E7232",
"c  c #616F33",
"v  c #676D3D",
"b  c #637335",
"n  c #677935",
"m  c #697C36",
"M  c #6C7E39",
"N  c #69753E",
"B  c #616D2D",
"V  c #5B5F50",
"C  c #5E6153",
"Z  c #696944",
"A  c #716D48",
"S  c #77714C",
"D  c #646957",
"F  c #7D7253",
"G  c #6A7254",
"H  c #757C6B",
"J  c #833B2A",
"K  c #8A3D2B",
"L  c #923C2B",
"P  c #9C3C2C",
"I  c #A33C2D",
"U  c #AB3E2E",
"Y  c #B63E2F",
"T  c #BA3E30",
"R  c #804228",
"E  c #847957",
"W  c #6E8139",
"Q  c #6E8237",
"!  c #71853A",
"~  c #768B3B",
"^  c #798E3D",
"/  c #7C923E",
"(  c #778546",
")  c #7E9440",
"_  c #7E9049",
"`  c #788752",
"'  c #7E8574",
"]  c #859D3E",
"[  c #88A23F",
"{  c #87A03E",
"}  c #809641",
"|  c #849B42",
" . c #899C48",
".. c #8D9F59",
"X. c #959658",
"o. c #898B51",
"O. c #87A041",
"+. c #8BA344",
"@. c #8EA844",
"#. c #8DA44B",
"$. c #91AB46",
"%. c #91A54C",
"&. c #93AE49",
"*. c #94B146",
"=. c #96B249",
"-. c #99B54A",
";. c #9EBB4C",
":. c #98B547",
">. c #93A651",
",. c #9BA655",
"<. c #9DA956",
"1. c #96AB5A",
"2. c #9AAE5E",
"3. c #94A956",
"4. c #9DB156",
"5. c #8FA15B",
"6. c #A1BE4E",
"7. c #A3A85D",
"8. c #A6B956",
"9. c #948461",
"0. c #929D78",
"q. c #8F9C78",
"w. c #A39767",
"e. c #B79F79",
"r. c #B89F7A",
"t. c #B09B73",
"y. c #AB9472",
"u. c #9BAE64",
"i. c #9AA970",
"p. c #A8A863",
"a. c #B3AD6C",
"s. c #A2B56B",
"d. c #A7BB6F",
"f. c #B6B968",
"g. c #BBA877",
"h. c #A9BB75",
"j. c #A7B975",
"k. c #C3B679",
"l. c #A3C14F",
"z. c #A6C351",
"x. c #ADC05A",
"c. c #B1C65B",
"v. c #B8C266",
"b. c #C5C771",
"n. c #C9C974",
"m. c #C1C36F",
"M. c #9A9C95",
"N. c #989E87",
"B. c #9FA19A",
"V. c #9CA28B",
"C. c #A3A89B",
"Z. c #ABB78D",
"A. c #A9ABA5",
"S. c #B4B8AF",
"D. c #C8AB84",
"F. c #C9B381",
"G. c #CEBB82",
"H. c #D2B589",
"J. c #D6BC8A",
"K. c #DBBA91",
"L. c #E1BE95",
"P. c #B6C58A",
"I. c #BCCB93",
"U. c #B7C395",
"Y. c #D7C685",
"T. c #C1CD9E",
"R. c #C1D094",
"E. c #DFC091",
"W. c #E0CF8A",
"Q. c #E3D28C",
"!. c #E3C394",
"~. c #EAC59B",
"^. c #EAC69B",
"/. c #F4D39E",
"(. c #ECCE98",
"). c #CAD5AA",
"_. c #CED9AD",
"`. c #C8CDBC",
"'. c #D3DDB8",
"]. c #CFDAB0",
"[. c #F4CCA2",
"{. c #F8CFA5",
"}. c #FBD4A5",
"|. c #FFD7A9",
" X c #FFD9AB",
".X c #FAD6A3",
"XX c #FFDEB0",
"oX c #CBCCCA",
"OX c #D5D6D4",
"+X c #DADAD8",
"@X c #D2D8C4",
"#X c #DEE5CA",
"$X c #DDE5C6",
"%X c #DFE0DE",
"&X c #E2EACC",
"*X c #EAEEDC",
"=X c #ECF1DE",
"-X c #ECECEC",
";X c #E9EAE6",
":X c #EFF1E9",
">X c #EDF1E1",
",X c #F1F3EC",
"<X c #F8F9F7",
/* pixels */
"                $ @ O O O O O O O o o O o O @ X @ X o o o X o O o o O o o o o X O o o o o o O O o o o o         ",
"              $ @ $ $ $ $ $ $ @ $ $ $ $ $ @ $ $ $ $ $ $ $ $ $ $ $ $ $ $ $ $ $ $ $ $ $ $ $ @ $ $ $ $ $ @         ",
"              O @ $ $ 5 5 8 8 8 8 8 8 8 8 8 8 8 8 8 9 9 9 9 9 9 9 9 9 9 9 9 9 9 w 9 9 9 9 9 9 9 9 9 9 9 8       ",
"            + O @ $ 6 w y f j j f f f f f j y j j j l l l c c l l c l l c l c c l c l c l b l l b l l j r 8     ",
"          + O O @ $ 9 f b M ! ! M W M M M M M M ! ! ^ ^ } ] } ) ) ) ) ) ) ) ) ) ) ) ) ) ) ) ) ) ) ) ^ m k 9 $ o ",
"        % % # @ @ 5 e l ~ } | } / ] ] } | ) ] ] | | @.&.&.&.=.&.=.=.=.=.=.=.=.=.&.=.=.=.&.=.=.=.-.-.#.) l 9 $ o ",
"      - ; - - # % 5 e n / | +.+.+.+.+.+.+.+.+.| +.$.&.:.6.6.6.6.;.z.l.6.6.;.;.-.;.-.;.;.;.-.;.;.z.l.:.| b 9 $ o ",
"  $ - : < 2 < ; = % e b ] +.$.[ [ [ [ +.+.+.[ [ [ +.$.*.=.;.6.6.l.z.z.z.z.;.-.=.=.=.&.=.=.=.=.;.6.z.;.| b 9 $ o ",
"O $ - < K P J 1 - 5 e b ) +.+.O.| +.| +.+.+.+.+.[ +.+.+.$.=.;.;.;.z.l.;.;.=.$.#.@.@.@.@.@.@.@.&.;.6.=.) b 9 $ o ",
"+ $ - 2 P U P 3 ; 5 q b ^ +.#.#.%.#.+. .| |  .#.#.#.#.+.+.$.=.:.;.;.:.-.=.@.+.@.@.+.+.+.+.+.@.+.&.:.#.) l 8 $ O ",
"+ $ * 3 P T U 3 ; 8 w x ) +.2.s.j.s..._ ( _ ..s.j.s.1.#.+.$.-.;.-.$.+.) )  .@.+.+.@.+.#.@.#.+.+.+.| ) n y 6 $ O ",
"+ @ * 2 I T U J ; % e h ( 3.v.P.).Z.0.` b ` q.Z.T.P.s.3.+.$.*.;.&.) W b n ) +.$.=.=.=.$.=.=.$.+.) m l r 8 5 $ O ",
"+ @ - 2 R T Y J 0 6 6 h ~ 3.P._.#X`.V.G a G N.`.#X].P.1.@.$.:.:.#.! k r k ! +.=.;.;.;.-.;.;.-.O.! k w 6 7 $ $ @ ",
"+ $ - < L I P 4 - 7 q h / 1.I.$X-XOXC.D p D M.OX;X$XI.2.@.[ :.;.@.Q j e j ! @.;.z.6.6.;.6.6.;.+.W j 9 % 7 $ $ @ ",
"O $ = : 2 K 3 > & 7 q Q ) 2.I.&X,X+XB.D p C M.OX,X&XI.2.@.@.:.:.#.^ b k n ) #.;.6.l.;.6.l.l.;.#.) n j w 5 % $ @ ",
"$ $ % - : , > * # 7 6 h ) 6.R.&X-X+XB.C 6 V M.OX,X&XI.u.@.[ *.;.=.@.) ^ ) +.-.;.6.6.6.;.6.6.;.=.#.) W l r 5 $ O ",
"$ @ @ % = = = % @ 7 t B ^ <.I.$X:X+XM.D V D M.OX:X#XI.2.@.[ *.;.;.-.=.$.=.-.;.;.z.;.;.;.l.;.;.;.-.=.+.! k 9 $ o ",
"@ $ $ $ $ @ $ # * ; u B Q ..U.@X:X%XS.' C H A.+X,X#XI.2.@.@.*.;.;.6.;.;.;.6.;.;.;.;.;.z.;.;.;.;.l.l.-.) l 9 $ O ",
"$ $ O + + + # * , d d d B ` Z.'.:X-XoXA.M.A.oX-X,X&XI.2.+.[ :.;.;.z.z.6.6.6.6.;.;.;.;.;.;.;.6.z.z.z.-.| b 9 @ o ",
"      + + @ * 1 R R 3 < u Z q.oX:X<X-X+XoXOX-X<X,X$XI.2.@.[ :.;.;.6.6.6.6.6.6.;.;.;.;.;.l.;.;.;.l.z.-.) b 9 $ o ",
"        + % ; 3 P U L , 5 V ' S.;X<X<X,X;X-X<X<X:X'.P.2.+.@.*.;.;.;.6.;.;.;.6.;.6.;.;.;.;.;.;.l.6.6.-./ x w $ O ",
"        + % : 3 U T P 4 = p ` C.@X=X>X=X*X*X;X*X$X).Z.3.+.@.*.;.6.6.;.6.6.;.6.6.6.6.;.z.;.;.z.;.z.l.;.) x 9 @ o ",
"        + % ; J U T P 4 - p D q.U._.].]._._.).).T.P.s.#.+.@.=.;.6.6.6.;.;.l.6.l.6.z.l.l.z.z.6.z.z.z.;.) b 9 $ O ",
"        + % : J U T P 4 & 6 z ` u.h.h.j.j.j.j.j.s.u.3.#.+.@.=.;.;.6.;.6.6.6.6.l.6.6.l.6.6.6.6.z.l.l.-.) l 9 $ O ",
"        + % ; 3 P U L < - 6 y ( | %.%.%.#.#.%.#.#.#.+.+.+.$.=.;.;.6.;.;.;.-.-.-.:.-.-.-.-.-.-.-.;.:.#.) l 9 $ o ",
"        @ $ - < J L 3 , - 5 y m / | [ +.] ] | [ ] | | | +.#.$.-.;.;.;.;.-.@.+.) } } } } } } } } | | / m j 5 $ O ",
"        $ @ = ; , < , * % 5 y m / [ [ [ ] ] ] ] ] ] O.O.O.+.@.$.=.-.;.-.#.) m x l b b b n b b b b b l j 9 5 $ O ",
"        @ $ % = - * * # $ 6 y m / [ +.+.O.O.] | | O.| +.+.O.+.@.#.-.;.-.+.W j w 9 9 w w w w w w w w w 8 5 $ $ @ ",
"        $ $ @ $ $ $ $ O $ 5 r n / ] | | +.+.O.+.+.+.+.+.+.O.+.+.$.:.;.=.| Q r 6 7 $ 7 $ $ $ $ $ $ $ $ $ $ $ @ @ ",
"          $ $ + + + + O $ % w k n Q / } | | +.| | +.+.@.@.@.+.+.@.:.-.:.+.~ x r 9 % $ O O O O O O o O O @ @ $ $ ",
"                    + O + $ 6 w y l W ^ | +.+.] [ +.@.@.*.*.*.*.=.:.;.-.@.O.^ m k w $ O X o                     ",
"                      $ $ $ $ % 6 e x ~ | +.+.+.+.@.*.-.-.;.-.;.;.;.;.;.;.;.$.O.W j 5 @ o                       ",
"                        @ @ O @ $ 8 k ! | +.@.%.%.<.8.8.x.x.x.x.x.x.c.x.c.c.x.4.} l 8 $ X                       ",
"                          @ O X @ 8 k Q | %.,.7.p.f.f.m.b.n.n.n.n.v.n.v.n.n.n.f...v 0 $ X                       ",
"                            o o @ 8 f Q  .>.7.a.k.k.Y.Y.Q.W.Q.Y.Q.W.W.W.Q.Q.Q.Y.w.S 0 $ X                       ",
"                              O $ 8 k M | ,.a.k.H.!.(././././.{..X.X/./..X.X.X!.t.S i @ .                       ",
"                              O $ 8 f Q  .,.a.F.K.~.[.}.|.|. X|.|. X X}.XXXX X(.e.F i @ .                       ",
"                            X X @ 8 f Q  .,.a.F.K.~.[.|. X X X X|. X}. XXXXX X^.e.F i $ .                       ",
"                $ $ @ @ O O o o @ 6 f Q  .,.a.F.K.L.[.{. X X X|.|.|. X X XXX X^.e.F i $ .                       ",
"                @ $ $ $ $ 5 $ $ 7 t g Q | 7.a.F.K.~.[.{.}. X}. X|.|. X X X X X^.e.F i @ .                       ",
"              @ @ $ 5 8 e r r r r g b ~ | 7.a.k.K.L.{.|.|. X X}.|. X X}. XXX X^.g.F i $ .                       ",
"              O $ $ 9 j n m W m Q Q ~ ] +.,.a.F.K.[.{.|. X X X X X}. X X XXX X(.r.F i @ .                       ",
"              O @ 5 e b )  .@.#.+.+.| [  .,.a.D.K.L.{.|. X X|. X}. X}. X X X X~.e.F i $ .                       ",
"              X O 5 r m } &.=.-.=.*.&.+.%.,.p.k.H.L.L.L.[.[.{.}.}.}.}.}.}. X.X!.t.F i O .                       ",
"              O O 5 w l ~ | @.&.-.-.&.@.+.>.7.a.g.k.r.k.D.H.!.[.}.{.{.[././.(.G.w.A p $ .                       ",
"              O $ % 6 e k n ^  .$.=.$.@. .%.,.7.7.X.E E E y.D.!.~.[.~.~.!.Y.n.f.X.v 0 @ o                       ",
"              @ @ $ $ 5 8 e c ~ | @.@.+. .+.%.%. .o.Z a Z E t.H.L.L.L.K.Y.n.f.8.) l 8 $ X                       ",
"                @ $ @ @ $ 5 y c ! ] ] ]  .+.+.+.| ! c s a A 9.g.D.H.H.G.k.v.x.=.~ j 6 @ o                       ",
"                  @ O o O $ 9 y c M ^ } +.+.$.@.+.^ Q g l Z F 9.w.g.g.f.v.v.z.=.~ g 6 @ o                       ",
"                    O O @ @ 5 8 r k n / | $.&.=.*.@./ / ~ Z Z A S o.7.f.v.x.z.-.^ k 8 $ X                       ",
"                      $ @ $ $ $ 5 e l ! | +.=.:.:.;.;.*.+.W k s a N  .4.z.z.;.$.^ g 8 @ O                       ",
"                        $ @ O @ $ 8 f n ^ | +.=.;.l.l.6.#.~ y 6 8 j ~ O.@.#.#.| Q f 8 @                         ",
"                          @ O X @ 5 e j b ! ) +.-.6.z.l.=.~ y 7 7 q h m Q ! Q m b r 6                           ",
"                                    5 9 e k M | @.;.z.6.$.~ j 5 $ 5 w r r f y r e w                             ",
"                                      $ 5 r c ~ O.$.-.-.@.W j 5 $ O $ 5 5 % 5 5 5                               ",
"                                      o $ 9 j n Q / ) | ^ b e 5 O O O O O O O O                                 ",
"                                          5 e j k x b b l y 9 % @ O O O O o o                                   ",
"                                            8 w w w e e w 8 5 $ @ @ @ O O O                                     ",
"                                            $ $ $ $ $ % $ $ $ $ $ $ @ $ $                                       ",
"                                              @ O @ O o O $ @ $ $ @ $ @                                         ",
"                                                                                                                ",
"                                                                                                                ",
"                                                                                                                ",
"                                                                                                                "
};
