/* XPM */
static char *__resized[] = {
/* columns rows colors chars-per-pixel */
"56 64 201 2 ",
"   c None",
".  c #252E19",
"X  c #292F1D",
"o  c #2D321F",
"O  c #2E3520",
"+  c #2C3820",
"@  c #313621",
"#  c #3B3621",
"$  c #343A22",
"%  c #3A3A22",
"&  c #4A3623",
"*  c #443923",
"=  c #4B3924",
"-  c #433622",
";  c #533924",
":  c #5A3A25",
">  c #5A3625",
",  c #6D3624",
"<  c #683A27",
"1  c #743B28",
"2  c #7C3A29",
"3  c #703525",
"4  c #3C4325",
"5  c #3C4525",
"6  c #414A27",
"7  c #444D29",
"8  c #464A2D",
"9  c #544728",
"0  c #455627",
"q  c #465329",
"w  c #49542A",
"e  c #4D5A2C",
"r  c #4C5527",
"t  c #515E2D",
"y  c #5A5027",
"u  c #4D4D32",
"i  c #444934",
"p  c #545838",
"a  c #6A4A26",
"s  c #54622E",
"d  c #58682F",
"f  c #5D732E",
"g  c #576430",
"h  c #586631",
"j  c #5C6B32",
"k  c #55653A",
"l  c #5E7231",
"z  c #4F602F",
"x  c #616B37",
"c  c #637435",
"v  c #677836",
"b  c #697B36",
"n  c #6C7E38",
"m  c #647038",
"M  c #707D3B",
"N  c #616A2C",
"B  c #4E5340",
"V  c #655F43",
"C  c #5E6153",
"Z  c #5F6D4D",
"A  c #696944",
"S  c #75744B",
"D  c #666A59",
"F  c #7D7252",
"G  c #727E51",
"H  c #706E52",
"J  c #6E7562",
"K  c #823B2A",
"L  c #8C3C2B",
"P  c #9C3C2C",
"I  c #933C2B",
"U  c #A23D2D",
"Y  c #AB3D2E",
"T  c #B43E2F",
"R  c #BB3E30",
"E  c #854028",
"W  c #8B7B5D",
"Q  c #6F8239",
"!  c #6D8137",
"~  c #72853B",
"^  c #768B3C",
"/  c #798E3D",
"(  c #7C923E",
")  c #798848",
"_  c #7F9440",
"`  c #7B8471",
"'  c #849D3E",
"]  c #88A23F",
"[  c #87A03E",
"{  c #809740",
"}  c #859C42",
"|  c #899B47",
" . c #8C9957",
".. c #9B9B5C",
"X. c #8C8A55",
"o. c #87A042",
"O. c #8BA344",
"+. c #8EA944",
"@. c #8CA349",
"#. c #91AB46",
"$. c #93A54D",
"%. c #94AE48",
"&. c #94AB4A",
"*. c #95B146",
"=. c #96B249",
"-. c #99B54B",
";. c #9EBB4D",
":. c #98B547",
">. c #91A652",
",. c #9BA754",
"<. c #93A954",
"1. c #9EA857",
"2. c #99AE5E",
"3. c #98AA5A",
"4. c #9DB158",
"5. c #A1BE4E",
"6. c #A2AD58",
"7. c #A7B957",
"8. c #938261",
"9. c #8E9475",
"0. c #A49569",
"q. c #AD9872",
"w. c #B79E79",
"e. c #B89F7A",
"r. c #B39C76",
"t. c #A28B6D",
"y. c #95A760",
"u. c #9DB064",
"i. c #97A17A",
"p. c #ACAC64",
"a. c #B5AF6C",
"s. c #A1B469",
"d. c #A4B86B",
"f. c #B7B56B",
"g. c #BAA777",
"h. c #A8B976",
"j. c #C1AD7B",
"k. c #C5B879",
"l. c #A3C14F",
"z. c #A6C450",
"x. c #B2C25F",
"c. c #B5C461",
"v. c #BBC269",
"b. c #CCC977",
"n. c #CBC877",
"m. c #D1CF7A",
"M. c #9B9D97",
"N. c #999E8B",
"B. c #9EA68A",
"V. c #9FA19A",
"C. c #B0BD8C",
"Z. c #A2A79A",
"A. c #B3B6AE",
"S. c #B5B7B2",
"D. c #C6AA83",
"F. c #CAB381",
"G. c #D2B38B",
"H. c #D5B98B",
"J. c #DBBA91",
"K. c #E0BE95",
"L. c #B5C588",
"P. c #BCCA93",
"I. c #B9C499",
"U. c #D7C586",
"Y. c #C1CE9A",
"T. c #C1D094",
"R. c #DFC390",
"E. c #E2CD8D",
"W. c #EBC69C",
"Q. c #EDC99C",
"!. c #E4C395",
"~. c #E6D090",
"^. c #EBD494",
"/. c #F4D39E",
"(. c #F0CB9E",
"). c #C5D2A0",
"_. c #C8D3AA",
"`. c #D4DEB9",
"'. c #C6CEB3",
"]. c #F5CEA2",
"[. c #FAD5A4",
"{. c #FFD7A9",
"}. c #FFDAAC",
"|. c #FBD7A4",
" X c #FFDEB0",
".X c #CED4C3",
"XX c #D5D5D4",
"oX c #DADBD9",
"OX c #CCCFC0",
"+X c #DEE6CA",
"@X c #DAE2C4",
"#X c #E2EACC",
"$X c #E5EBD3",
"%X c #E3E7D8",
"&X c #E9EAE9",
"*X c #EFF1E9",
"=X c #EEF1E6",
"-X c #F1F3ED",
";X c #F3F4F1",
":X c #F9F9F7",
">X c #EEEEF0",
/* pixels */
"                                                                                                                ",
"                                                                                                                ",
"                                                                                                                ",
"                                                                                                                ",
"                @ @ @ @ O @ O O o o @ @ o o o o o O O O O O O O O O O O O @ O O O O O O O O + X O O +           ",
"                $ $ $ $ $ $ $ $ $ $ $ $ $ $ 4 $ 4 $ $ % $ $ % $ $ % $ $ $ $ $ $ $ 4 $ $ $ $ $ 4 % $ % $         ",
"              O O $ % 5 6 7 q q 7 7 7 7 q q 7 7 q q q q e w w w w w w w w w e w w w w w w w w w w w w q 7       ",
"            + O $ $ 6 w s j j j j j j d j j j j j j c c c b v v v v v v v v v v v v v v v v b c v v v j t 7 $   ",
"        + O O @ O 4 q g b ~ ^ ~ ~ ~ ~ ~ ~ ~ ~ ~ ~ / ( } } } } } } } } } } } } } } } o.} o.} } } } } _ Q j 7 $ X ",
"        % # # @ $ $ w c ^ } o.o.} } [ } } } } ' } O.#.*.-.-.-.-.-.-.-.-.-.=.=.;.=.=.=.=.-.-.-.-.;.;.&._ j 7 $ o ",
"      ; : : = - # 4 w c ( O.+.O.o.O.O.O.+.O.o.O.O.#.*.-.;.;.5.5.5.5.z.z.z.;.;.;.-.;.;.;.-.-.;.;.z.z.;.{ m 7 $ O ",
"+ $ * < 1 2 1 > - 4 e c ( O.O.O.[ ] o.@.+.O.] ] [ ] #.#.=.;.;.5.z.z.z.z.;.;.=.&.*.&.%.=.&.*.&.;.;.z.;.{ c q $ X ",
"+ $ = < L P L , 8 5 z l ( o.O.O.} o.O.o.o.O.O.O.O.O.O.O.#.*.-.;.;.z.;.;.;.=.#.#.O.@.@.+.O.O.O.&.-.;.=.} c 7 $ X ",
"+ $ = 1 P T U 2 ; 5 5 l / o.&.<.<.<.@.| { } | <.<.$.@.O.O.#.-.;.;.-.=.&.#.#.O.O.O.O.O.O.O.O.O.+.&.*.O.^ j 7 $ O ",
"+ $ = 1 U R Y K ; 4 z f _ @.2.h.h.h.y.) ) ) y.i.h.h.2.@.O.#.:.-.=.@._ _ _ } o.#.+.#.#.#.#.&.+.@.} _ ~ c z 5 $ O ",
"+ $ ; 1 U R Y 2 ; * 5 d _ >.v.P.'.I.i.G j G i.I._.P.h.<.O.#.:.;.#._ v j c ^ O.&.=.=.=.=.=.=.*.o._ v g w 5 % @ @ ",
"+ @ = 1 P T U 2 ; 4 0 f / <.L.`.#X.XB.D p D N.'.$X`.L.3.O.+.:.-.@.~ g w g Q @.-.;.;.;.;.;.;.=.o.! h 7 4 4 $ $ O ",
"+ $ * < L U I 3 = % 0 f / 2.P.#X=XoXM.D i D M.XX*X+XP.2.O.#.:.-.O.~ g e j ~ @.;.;.z.;.;.;.z.;.@.Q h 7 4 $ $ $ O ",
"O $ - : 1 2 1 > - 4 0 f ( 2.T.#X-XoXV.D 5 C M.oX-X#XP.2.+.] :.-.&._ n l n _ %.;.z.;.5.5.z.;.;.%._ n h e 8 $ @ @ ",
"O $ % * ; : ; - @ 4 0 f ( 2.T.#X-XoXV.C i C M.XX-X$XP.2.O.+.:.;.-.+.} _ } O.-.;.;.z.;.;.;.z.;.-.#._ _ c t 5 $ O ",
"@ @ $ $ % # # # # % r N _ y.P.+X>XXXV.C B C M.XX=X#XP.2.#.] *.:.;.;.=.=.=.-.;.;.;.;.;.;.z.;.;.;.;.=.&._ h 5 $ X ",
"$ $ @ $ + $ # # * 9 y N ) _ L.@X>X&XS.N.J N.S.oX-X+XP.2.O.] *.;.;.;.z.;.z.;.;.;.;.;.;.z.;.;.;.;.z.z.-.{ j q $ O ",
"  @ + + + @ % ; < 1 a y g ) B.'.>X>XoXS.V.S.XX>X;X#XP.u.O.] *.;.;.;.;.z.z.;.;.;.;.;.;.;.;.5.;.;.z.z.=.{ m 7 $ X ",
"      + + # = < L I K a 9 Z N.'.>X:X>XoXXXoX&X:X-X@XP.4.%.] %.;.5.z.;.;.5.5.;.;.z.;.;.;.;.;.;.z.;.z.-._ l q $ O ",
"        + % ; 2 U Y I , = p ` A.&X:X:X-X*X-X:X;X=X`.C.2.O.+.*.;.;.5.5.;.;.;.5.;.;.;.;.;.;.;.;.;.z.;.=._ m 7 $ X ",
"        + % ; K Y R P , = i J V.'.$X$X$X$X%X$X$X`.).h.3.O.+.*.;.;.5.;.5.5.5.;.z.;.;.z.;.;.z.;.z.z.l.-._ j 7 $ O ",
"        + % : K Y R P 3 = 8 Z 9.C.Y.).).).).).Y.P.h.u.>.+.+.=.;.z.;.5.;.;.z.z.5.z.z.5.z.z.z.z.z.z.z.-.} c 7 $ X ",
"        + % ; K Y R P 3 * 5 k ) y.d.d.d.s.s.s.s.u.3.>.@.O.+.=.;.;.;.;.5.;.;.5.;.5.5.;.;.;.5.;.;.l.l.-._ m q $ X ",
"        + % ; 1 P U L , * 4 z b } @.#.@.@.O.O.O.@.O.O.} +.+.=.-.;.;.;.;.;.=.=.*.&.&.*.#.&.#.%.%.=.=.O.^ j 7 $ O ",
"        @ $ * < 2 L 2 > - 6 s b ( } [ [ ' ' ' ' ' } [ } O.+.&.=.-.;.;.=.*.@._ _ ^ _ _ _ _ _ _ _ _ ( ^ v t 5 $ O ",
"        @ $ % ; : < > * # 4 t b ' [ [ [ ' ' ' ' ' ' } } } O.+.+.*.-.;.-.@._ c j j h j j g j j j j j g e 7 4 $ O ",
"        $ @ # % * * # # $ 4 t b ( [ O.O.} O.} O.} o.O.O.O.| O.O.#.=.;.-.} n t 7 5 6 5 7 7 5 6 6 7 6 6 5 $ $ $ $ ",
"        @ $ @ $ $ @ $ O @ 4 e m ^ { } } [ | | O.O.o.o.O.O.O.O.O.#.=.;.:.o.! z 5 4 $ $ $ @ $ @ $ @ $ @ $ $ @ $ @ ",
"          @ $ + + + + O $ 4 7 t N n / { } O.] ' o.O.O.#.+.+.+.#.+.-.-.-.O./ c d q 4 $ o o X o o o X X O O @ @ $ ",
"                    + O @ $ 4 6 e j n / } O.| ' o.O.#.#.:.*.*.*.-.;.-.;.*.O.( ~ d 0 % @ X X                     ",
"                      O $ $ $ $ 4 q N ~ ' O.O.| O.#.=.-.;.;.;.;.;.;.;.;.;.;.-.+.) h 5 @ o                       ",
"                        $ @ O O $ 6 g ~ } @.$.$.<.6.7.d.c.c.x.x.x.x.x.x.c.c.c.7.{ x 8 @ X                       ",
"                          @ O X + 6 g n { $.6.6.p.f.n.b.b.b.b.b.n.n.n.n.b.m.m.v...m 8 @ X                       ",
"                            O X $ 6 s ! } ,.p.a.k.k.U.E.~.~.~.Q.E.^.E.^.^.^.^.U.0.S u @ .                       ",
"                              O $ 6 s ~ } 1.a.j.J.!.Q.(.[.[.[.].|.[.[.|.|.}.|.!.r.F u $ .                       ",
"                              O $ 5 s ! ' 1.a.F.J.W.].{.{. X}.{.|.{.{.{.}. X}.Q.g.F u @ .                       ",
"                              . @ 5 s ! } 1.a.F.K.W.].{. X X}.}.}.}.}.}.}. X}.Q.w.F u @ .                       ",
"                              O $ 6 s ! | 6.a.F.J.W.].{.{.{.{.}.{.{.{.{.}.}.}.W.w.F u @ .                       ",
"                              % 5 w j ~ | 1.a.k.K.K.K.K.].].].{.{.{.{.{.}.}.{.W.w.F u $ .                       ",
"                            7 w s j b / } 1.a.F.G.G.D.D.D.J.W.{.}.}.}.{.}. X}.W.w.F u @ .                       ",
"                  @ o X o 4 e c ! / ( ' | 1.a.F.G.e.t.W W r.J.[. X}.}.}.}. X}.Q.e.F u @ .                       ",
"                + $ $ O @ 5 j ~ } +.O.O.| 1.a.F.D.q.W x A W j.Q.}.}.}.{.}. X}.!.e.F u @ .                       ",
"              @ $ $ $ % 5 e v ( #.-.%.O.$.6.a.k.j.t.S p p W q.H.Q.].[.].|.|./.E.r.S u @ .                       ",
"              O @ $ 5 q g m ^ O.*.-.*.O.+.,.p.f.a.0.) m x S X.q.D.G.!.Q./.^.E.k.0.A 8 $ X                       ",
"              O $ % q j Q _ } +.%.%.#.O.| #.6.7.7.6.| ' ^ M S F W q.G.R.~.U.b.f.| x 8 @ X                       ",
"              X O 4 e b _ #.&.#.@.} } } O.#.&.7.7.7.5.&.} ~ d p V W g.G.U.n.f.;.{ j 6 $ o                       ",
"              o O 4 e c _ O.o._ / / ' } } #.=.-.;.5.5.5.+.~ e 5 u H 0.g.k.f.z.&.^ h 5 @ o                       ",
"              O $ $ 7 h v Q n v c c ~ { O.#.*.-.;.l.l.l.*.Q e 4 8 V X.a.f.c.7.*./ d 5 $ O                       ",
"              @ $ $ 4 7 w t e w w s c / } #.-.;.;.l.l.5.#.~ t 5 8 x { ..7.7.5.=./ j 6 @ X                       ",
"                @ $ $ % 4 % $ % 4 q j ~ ' O.%.-.;.5.l.;.+.~ s 5 6 g M | #.=.=.#.^ h 6 @ O                       ",
"                $ @ @ + + O O + @ 5 t c ~ _ O.%.:.l.l.5.#.~ s 5 5 e j M ( { { _ ! g 6 @                         ",
"                    @ O         O 4 q t j n / O.=.;.z.;.&.^ g 5 % 6 e d f c c c j t 5                           ",
"                                    4 6 w h n ( +.-.;.;.+.^ g 4 $ $ 5 q q q q q q 7                             ",
"                                      @ 4 w j ~ } O.#.&.o.Q s 4 $ @ $ $ $ 4 % $ $                               ",
"                                      O @ 5 e m ! ^ _ _ ~ c w 4 @ o o o o o o o                                 ",
"                                      O $ 4 6 e g h j j g e 5 $ $ o o                                           ",
"                                      @ $ $ % 5 5 7 7 7 7 5 4 $ @ $                                             ",
"                                      O @ $ @ @ $ @ $ $ $ $ $ $ $ @                                             ",
"                                      $ $ O O O O O O O o o o @ @ $                                             "
};
