/* XPM */
static char *__resized[] = {
/* columns rows colors chars-per-pixel */
"56 64 202 2 ",
"   c None",
".  c #262E19",
"X  c #2A2F1E",
"o  c #2D311F",
"O  c #31391F",
"+  c #2E3520",
"@  c #2C3820",
"#  c #313620",
"$  c #3B3621",
"%  c #333921",
"&  c #393B22",
"*  c #423722",
"=  c #4B3723",
"-  c #423923",
";  c #4A3924",
":  c #533924",
">  c #5C3A25",
",  c #5B3625",
"<  c #643926",
"1  c #6B3A26",
"2  c #6C3926",
"3  c #743B28",
"4  c #7B3A29",
"5  c #713625",
"6  c #3B4224",
"7  c #3F4826",
"8  c #364023",
"9  c #414A27",
"0  c #444E28",
"q  c #494529",
"w  c #475229",
"e  c #4A552B",
"r  c #4D5A2C",
"t  c #465627",
"y  c #515E2D",
"u  c #575229",
"i  c #4C4C32",
"p  c #464B36",
"a  c #54593A",
"s  c #674E27",
"d  c #55632F",
"f  c #596A2F",
"g  c #5D722E",
"h  c #566430",
"j  c #586730",
"k  c #5E6D33",
"l  c #57673E",
"z  c #5E7232",
"x  c #616F33",
"c  c #676E3D",
"v  c #637335",
"b  c #697C36",
"n  c #6C7F38",
"m  c #667837",
"M  c #616D2D",
"N  c #5B5F50",
"B  c #5E6153",
"V  c #75704B",
"C  c #646957",
"Z  c #6A7254",
"A  c #7D7153",
"S  c #656E48",
"D  c #757C6B",
"F  c #833B2A",
"G  c #8A3D2B",
"H  c #923C2B",
"J  c #9C3C2C",
"K  c #A33C2D",
"L  c #AB3E2E",
"P  c #B63E2F",
"I  c #BA3E30",
"U  c #804228",
"Y  c #827A53",
"T  c #6C8137",
"R  c #6E8139",
"E  c #71843A",
"W  c #758A3B",
"Q  c #798E3D",
"!  c #7C923E",
"~  c #788845",
"^  c #7E9440",
"/  c #7E9049",
"(  c #788752",
")  c #7E8574",
"_  c #859D3E",
"`  c #88A23F",
"'  c #87A03E",
"]  c #809740",
"[  c #849B42",
"{  c #889D46",
"}  c #8D9F59",
"|  c #8A914F",
" . c #87A041",
".. c #8BA344",
"X. c #8EA844",
"o. c #8DA44B",
"O. c #91AC46",
"+. c #92A54D",
"@. c #93AD49",
"#. c #94B146",
"$. c #96B249",
"%. c #99B54B",
"&. c #9EBB4C",
"*. c #98B547",
"=. c #94A551",
"-. c #9BA655",
";. c #9DAA55",
":. c #96AB5A",
">. c #9AAE5E",
",. c #94A956",
"<. c #9DB256",
"1. c #8FA15B",
"2. c #A1BE4E",
"3. c #A3A85D",
"4. c #A4BA53",
"5. c #ACBD5B",
"6. c #A5B558",
"7. c #929D78",
"8. c #8F9C78",
"9. c #B79F79",
"0. c #B69F78",
"q. c #A49B66",
"w. c #9BAE64",
"e. c #9AA970",
"r. c #AAAB63",
"t. c #B3AD6C",
"y. c #A2B56B",
"u. c #A7BB6F",
"i. c #B5BD65",
"p. c #B9BB6A",
"a. c #B2B367",
"s. c #A9BB75",
"d. c #A7B975",
"f. c #B8A278",
"g. c #C2BC74",
"h. c #C5B77A",
"j. c #A3C14F",
"k. c #A5C450",
"l. c #ADC05A",
"z. c #A9C056",
"x. c #B1C45C",
"c. c #BBC16A",
"v. c #C4C671",
"b. c #C9C974",
"n. c #C1C36F",
"m. c #9B9D95",
"M. c #9A9C94",
"N. c #989E87",
"B. c #9FA19A",
"V. c #9CA28B",
"C. c #A3A89B",
"Z. c #ABB78D",
"A. c #A9ABA5",
"S. c #B4B8AF",
"D. c #C9B381",
"F. c #CEBA82",
"G. c #D5B98A",
"H. c #DCBA91",
"J. c #E1BC96",
"K. c #B6C58A",
"L. c #BCCB93",
"P. c #B7C395",
"I. c #D4C483",
"U. c #DCC98A",
"Y. c #C1CD9E",
"T. c #DFC092",
"R. c #C1D094",
"E. c #E1CF8B",
"W. c #E3D28C",
"Q. c #EAC59C",
"!. c #E7C896",
"~. c #EBD195",
"^. c #F5D39F",
"/. c #F2CF9E",
"(. c #CAD5AA",
"). c #CED9AD",
"_. c #C8CDBC",
"`. c #D3DDB8",
"'. c #CFDAB0",
"]. c #F4CCA2",
"[. c #FBD5A5",
"{. c #FFD7A9",
"}. c #FFD9AB",
"|. c #FAD7A2",
" X c #FFDEB0",
".X c #CBCCCA",
"XX c #D5D6D4",
"oX c #DADAD8",
"OX c #D2D8C4",
"+X c #DEE5CA",
"@X c #DDE5C6",
"#X c #DFE0DE",
"$X c #E2EACC",
"%X c #EAEEDC",
"&X c #ECF1DE",
"*X c #ECECEC",
"=X c #E9EAE6",
"-X c #EFF1E9",
";X c #EDF1E1",
":X c #F1F3EC",
">X c #F9FAF8",
",X c #F7F7F6",
/* pixels */
"                % # + + + + o o o + o o + o o + o o o o o o o + o o + o o o o o + X o o o o + o X + X o         ",
"              % # % % % % % % % % % % % % % % % % % % % % % # % % # % % % % % # % % % % % % % % % % % %         ",
"              + # % % 6 7 9 7 9 9 9 9 9 9 9 9 9 9 9 9 0 0 0 0 0 0 0 0 0 0 0 0 0 0 0 0 0 0 0 w w 0 0 0 9 9       ",
"            @ @ % % 7 w r d h h d d d d d d y h h h k k k x x k x k k x k k v k v k k k k k k k v k k j r 9     ",
"          @ + + # 8 9 d v n E R n n R R R R R R E E Q ! _ Q ] ^ ^ ! ^ ! ^ ^ ^ ^ ^ ^ ^ ^ ^ ^ ^ ^ ^ ^ ! b j 0 % o ",
"        $ & $ # # & e v W ] [ [ ] _ ] ] ] ^ _ ! [ { O.O.$.$.$.@.$.$.%.%.$.$.@.$.$.$.$.$.$.$.$.%.%.%.o.^ k 0 % o ",
"      ; : ; ; $ $ 8 e m ! _ ...... ......... .....X.O.%.&.2.2.2.2.j.j.j.4.&.&.%.%.&.&.%.%.%.%.&.k.k.%.] v 0 % o ",
"  % ; > 1 3 1 : * 6 r m ! ..X...` ` ` ..X.....' ` X.O.O.$.&.2.2.j.k.k.j.j.&.%.%.$.$.$.$.$.%.%.%.2.k.&.] v 0 % o ",
"o % ; 1 G J G 2 ; 6 e m !  .X. . . ......... .' _ ....X.O.$.%.&.j.k.j.j.&.$.@.O.o.X.X.X...O.O.O.%.4.%.] v 0 % o ",
"O % ; 3 J L J 5 : & e z Q  .o.+.=.o.{ { [ [ o.o.o.o.o...X.O.$.&.%.&.%.$.@.O...................o.$.$.O.Q k 0 % o ",
"o % : 3 J I L F : - t z ~ o.>.y.d.w.} / ~ ~ } w.d.y.:.o...O.$.&.%.O...^ [ [ ..X.X.X.o.X.X.X.o.....[ ^ m r 7 % + ",
"o % = 3 K I L F : 9 t z Q ,.l.L.Y.P.7.( c ( 8.P.Y.K.y.=...O.*.&.@.^ R v b Q ..@.$.$.@.#.$.$.O...! b k r 9 6 % + ",
"@ % ; s J P L 4 q 7 7 g Q ,.K.'.+X_.V.Z a Z N._.+X'.K.,.X.X.*.%...E j r k R ..%.&.%.%.&.&.&.%...E k w 6 & & % % ",
"@ @ = 5 H K H 3 ; 8 t g Q :.L.@X=XoXB.C p C M.XX=X+XL.>.X.#.*.*.o.R h w j R X.%.j.4.&.&.2.j.%...R j 0 & % % % @ ",
"+ % - < 3 G 4 , - 8 t T ^ >.L.$X,XoXB.B p B M.XX:X$XL.w.X.` *.%.X.^ v k m ~ O.&.j.j.&.j.j.j.%.X.^ m h w 7 % % # ",
"% # & ; > < , ; $ 8 7 g ^ 2.R.$X:XoXB.B 7 N M.oX:X$XL.>.X.` *.%.%. .^ Q ^ ..%.&.2.2.2.&.&.j.&.%...^ R k e 7 % + ",
"% # # & - - * $ & 8 t M Q ;.L.$X;XoXB.C N B B.XX-X+XL.>.X.X.#.&.%.%.@.@.@.%.&.&.2.2.2.&.2.2.&.&.%.#.o.W k 9 % o ",
"+ % % % # % % $ - ; u M E } Z.@X=X%XS.D C D A.#X-X+XL.>.X.` #.&.2.2.2.&.2.&.&.2.&.&.&.2.&.&.&.2.k.2.$.^ k 0 % + ",
"% % + @ + # $ = < 1 s s M ( Z.OX*X*X.XA.M.B..X*X:X+XL.>.X.` #.&.2.j.k.2.2.2.2.&.&.2.2.&.&.2.&.j.k.k.%.^ k w # o ",
"      @ @ % ; < G H s < u S 8._.*X>X*XoX.XXX*X,X,X@XP.>...X.#.&.&.2.2.2.2.2.2.&.2.&.&.&.2.&.&.2.j.k.%.] v 0 % o ",
"        @ & : 3 J L H 2 9 p ) S.=X>X>X:X*X*X,X>X-X`.K.w...X.#.&.2.2.&.2.&.2.&.&.&.&.2.&.&.2.&.2.j.2.%.^ k w % o ",
"        @ & : F L P J 5 - N ( C.OX&X;X&X%X=X%X%X@X(.s.>...X.#.%.&.2.2.&.2.&.2.2.2.2.2.2.2.&.2.j.k.j.%.^ k w % o ",
"        @ $ > F L I K 5 = p B 8.P.(.'.'.).).).(.Y.K.y.+.X.X.$.&.&.2.&.2.2.2.2.j.j.j.j.j.j.j.j.j.k.k.%.[ k w % o ",
"        @ & : F L P J 5 * 7 S ( w.d.s.s.d.d.d.d.y.w.,.o...X.%.&.4.2.2.&.2.2.2.j.2.2.j.2.2.j.j.4.k.k.%.^ k t % + ",
"        @ & : 4 J L H 1 ; 7 y R { { =.=.o.o.+.o.o.o.....o.X.%.%.&.&.j.&.&.%.%.%.$.%.%.%.%.%.%.&.&.%.O.^ k 0 # + ",
"        @ $ ; 1 G H 4 , - 6 r b _ _ ` [ _ _ _ _  .[  .[  .X.#.$.%.&.&.&.%.X.{ ] ] ] ] ] ] ] ] ] [ [ ~ m y 7 % + ",
"        # % - : < 2 < = & 7 y b ! ` ` ` _ _ _ _ _ _ [  .o...X.X.%.%.&.%.O.^ T k x v v m m v v v v v k h 0 6 % + ",
"        # % & - ; = * $ % 7 y b _ ` .... . ._ [  . .[ .. . ...o.X.%.%.%.{ R j w 9 0 w w w w 0 w w t w 7 6 & % # ",
"        % % # % % & # # & & r m W _ [ ..[ .. ............. ... .O.$.&.%.[ b y 7 8 & % % % % % % % % % % % % % # ",
"          # % @ @ @ @ @ # 6 w h m E ! ] [ ....[ [  ...X.X.X.X.X.O.*.%.*. .Q z r 9 8 % # + + + o + + + + # # # % ",
"                    @ @ # & 7 w y x n Q [ ..[ _  ...X.O.#.#.#.#.#.*.&.%.O. .Q b d w % + X X                     ",
"                      # % % % & 6 e x W [ ........X.#.%.%.%.%.&.&.&.&.&.%.%.#. .E y 9 # o                       ",
"                        % # + + % 0 h E [ ..{ =.+.;.4.l.l.l.l.l.z.z.l.l.l.x.x.<.] k q # X                       ",
"                          # o o # 9 h R [ +.-.-.r.a.p.c.v.v.b.b.v.b.b.c.b.b.b.c.| c 0 # o                       ",
"                            o o % 9 d R [ -.r.t.p.F.I.U.E.E.W.U.E.E.E.E.W.W.W.I.q.V i # X                       ",
"                              + % 9 d n { -.t.h.G.H.!./.^.|.[.].|.^.^.^.|.|.|.U.0.V i % .                       ",
"                              o % 9 d T { ;.t.D.H.Q.].[.{.}.}.{.{.{.}.{. X X}.Q.f.A i # .                       ",
"                            X X # 7 d T { ;.t.D.H.Q.].{.{.}.}.{.}.}.}.}. X X}.Q.f.A i % .                       ",
"                % % # # + + o o O 7 d T [ ;.t.D.H.Q.].[.}.}.}.}.{.{.}.{.}. X}./.0.A i # .                       ",
"                # % % % & 6 % % 8 t f E | -.t.D.H.J.].[.[.}.{.[.{.{.{.}.}.}.}.Q.0.A i % .                       ",
"              # @ % 6 9 e r r r r f m W { -.t.h.H.Q.].[.{.{.{.{.{.{.{.{.}. X}.Q.0.A i + .                       ",
"              + % & 0 h v n R b n R Q ! ..-.t.D.H.Q.].{.{.}.}.}.{.{.{.{.}. X}./.0.A i o . o #                   ",
"              o # & e v ^ ....o....._ _ | -.t.D.G.J.].[.{.}.}.{.{.{.{.{.{.}.}.Q.9.A i + o o # O                 ",
"              X + 6 y b ] @.%.%.*.$.O.X.o.-.r.h.G.!.Q.].[.[.[.[.{.[.{.|.{.{.|.!.f.Y a 6 O O % %                 ",
"              o # 8 w k E [ X.$.2.*.@.X...=.3.t.p.D.I.U.U.~././.].].].].].~.~.I.t.| c y 9 8 % O #               ",
"              + % % 9 e k m Q { X.@.@.....+.=.3.r.a.p.v.b.I.T.!.Q.Q.Q.!.!.U.b.n.6.+.~ m d 0 & # +               ",
"              # # % & & 9 e M W _ ..X.....{ { +.=.<.6.5.c.c.I.H.J.J.J.H.F.v.p.5.6.&.+._ v r 8 # +               ",
"                # % % o % 9 r c E _ { _ { ..{ { X.X.$.&.4.p.h.F.G.G.G.F.g.a.6.&.2.&.%...T y 6 # o               ",
"                  % + o + % 9 y v n W _ [ ..X.X.X.#.#.&.k.5.p.p.g.g.h.p.p.6.&.$.&.%.%.X.R y 6 # X               ",
"                    # + # % 6 0 y h b Q [ ..O.@.$.*.&.2.4.5.l.i.p.c.c.i.5.6.@.O.#.%.@.] b r 6 + o               ",
"                      # # % % % 6 e x E [ X.$.$.%.%.&.&.&.&.&.4.4.4.6.4.;.@.X... .....Q m e & +                 ",
"                        % # + + % 9 h E [ O.$.2.&.%.#.X.......o.......{ [ _ ! W Q ! Q R k e 6 #                 ",
"                          # o o # 9 d n [ O.%.2.&.#.[ W b b b T T T T T b m v v z v k k y w 8                   ",
"                            o o % 9 d E [ O.&.2.%...R k y r r r r r r r r e e w w e w w w 9                     ",
"                              + % 0 d E [ O.$.$.O.^ k w 6 % & 8 8 6 6 6 6 8 % 6 8 & & 8 &                       ",
"                              o % 9 h E [ ..X.{ ^ R j 7 + o + + # o O o + + % # + # + #                         ",
"                              + % 0 k E [ [ ! R v k e 6                         + X                             ",
"                              o % 0 j E ] ! b h e 0 7                                                           ",
"                              + % 9 d R Q E k w 8 %                                                             ",
"                              # % 7 r k m v y 7 #                                                               ",
"                              # % & 0 e y y e 6                                                                 ",
"                              # % % 8 7 7 7 7                                                                   ",
"                              % % % % % % %                                                                     ",
"                              % # # + + o o                                                                     "
};
