/* XPM */
static char *__resized[] = {
/* columns rows colors chars-per-pixel */
"56 64 200 2 ",
"   c None",
".  c #252E19",
"X  c #2A2F1E",
"o  c #2D321F",
"O  c #2E3520",
"+  c #2C3820",
"@  c #313620",
"#  c #3B3621",
"$  c #343A22",
"%  c #393A22",
"&  c #423722",
"*  c #4B3723",
"=  c #423923",
"-  c #4A3924",
";  c #533924",
":  c #5C3A25",
">  c #5B3625",
",  c #643926",
"<  c #6B3A26",
"1  c #6C3926",
"2  c #743B28",
"3  c #7B3A29",
"4  c #713625",
"5  c #3B4325",
"6  c #3F4826",
"7  c #364023",
"8  c #414A27",
"9  c #444E28",
"0  c #474529",
"q  c #465229",
"w  c #4A552A",
"e  c #4D5A2C",
"r  c #465627",
"t  c #515E2D",
"y  c #575229",
"u  c #4C4D32",
"i  c #464B36",
"p  c #545B3D",
"a  c #674E27",
"s  c #55632F",
"d  c #596A2F",
"f  c #5D722E",
"g  c #566430",
"h  c #586730",
"j  c #5E6D33",
"k  c #57673E",
"l  c #5E7232",
"z  c #616F33",
"x  c #666B3D",
"c  c #637334",
"v  c #697C36",
"b  c #6C7E38",
"n  c #667837",
"m  c #616D2D",
"M  c #5B5F50",
"N  c #5E6153",
"B  c #77704C",
"V  c #646957",
"C  c #6A7254",
"Z  c #7D7253",
"A  c #6A6D47",
"S  c #757C6B",
"D  c #833B2A",
"F  c #8A3D2B",
"G  c #923C2B",
"H  c #9C3C2C",
"J  c #A33C2D",
"K  c #AB3E2E",
"L  c #B63E2F",
"P  c #BA3E30",
"I  c #804228",
"U  c #6D8137",
"Y  c #6E8139",
"T  c #71853A",
"R  c #758A3B",
"E  c #798E3D",
"W  c #7C923E",
"Q  c #758447",
"!  c #7E9440",
"~  c #7E9049",
"^  c #788752",
"/  c #7E8574",
"(  c #859D3E",
")  c #87A03E",
"_  c #88A23F",
"`  c #809641",
"'  c #849B42",
"]  c #889D46",
"[  c #8E9B57",
"{  c #8A934E",
"}  c #86A041",
"|  c #8BA344",
" . c #8EA845",
".. c #8DA44B",
"X. c #91AC46",
"o. c #92A54D",
"O. c #93AE48",
"+. c #94B146",
"@. c #96B249",
"#. c #99B54A",
"$. c #9EBB4C",
"%. c #98B547",
"&. c #94A551",
"*. c #9BA655",
"=. c #9DAA55",
"-. c #96AB5A",
";. c #9AAE5E",
":. c #94A956",
">. c #9DB059",
",. c #8FA15B",
"<. c #A1BE4E",
"1. c #A3A85D",
"2. c #A3BB52",
"3. c #ACBD5A",
"4. c #A4B756",
"5. c #B0BE5E",
"6. c #929D78",
"7. c #8F9C78",
"8. c #B79F79",
"9. c #B89F7A",
"0. c #B19D73",
"q. c #A39A65",
"w. c #9BAE64",
"e. c #9AA970",
"r. c #AAAB63",
"t. c #B3AD6C",
"y. c #A2B56B",
"u. c #A7BB6F",
"i. c #B5BE64",
"p. c #BABD6A",
"a. c #B4B468",
"s. c #A9BB75",
"d. c #A7B975",
"f. c #C6BB79",
"g. c #C3B778",
"h. c #A3C14F",
"j. c #A6C450",
"k. c #ADC05A",
"l. c #A9C056",
"z. c #B1C45C",
"x. c #B8C166",
"c. c #C4C671",
"v. c #C9C974",
"b. c #C1C36F",
"n. c #9B9D95",
"m. c #9A9C94",
"M. c #989E87",
"N. c #9FA19A",
"B. c #9CA28B",
"V. c #A3A89B",
"C. c #ABB78D",
"Z. c #A9ABA5",
"A. c #B4B8AF",
"S. c #C9B381",
"D. c #CEBB82",
"F. c #D5BA8A",
"G. c #DCBA91",
"H. c #E1BC96",
"J. c #B6C58A",
"K. c #BCCB93",
"L. c #B7C395",
"P. c #D3C383",
"I. c #DDC98A",
"U. c #C1CD9E",
"Y. c #DFC092",
"T. c #C1D094",
"R. c #E1CF8B",
"E. c #E3D28C",
"W. c #EAC59C",
"Q. c #E7C896",
"!. c #F4D39E",
"~. c #E7D091",
"^. c #CAD5AA",
"/. c #CED9AD",
"(. c #C8CDBC",
"). c #D3DDB8",
"_. c #CFDAB0",
"`. c #F4CCA2",
"'. c #FBD5A5",
"]. c #FFD7A9",
"[. c #FFD9AB",
"{. c #FAD7A2",
"}. c #FFDEB0",
"|. c #CBCCCA",
" X c #D5D6D4",
".X c #DADAD8",
"XX c #D2D8C4",
"oX c #DEE5CA",
"OX c #DDE5C6",
"+X c #DFE0DE",
"@X c #E2EACC",
"#X c #EAEEDC",
"$X c #ECF1DE",
"%X c #ECECEC",
"&X c #E9EAE6",
"*X c #EFF1E9",
"=X c #EDF1E1",
"-X c #F1F3EC",
";X c #F9FAF8",
":X c #F7F7F6",
/* pixels */
"                @ @ @ @ O O O X O o O O X O X @ X @ X X o o o O o X O X O O X O O O X O O X O X O O X X         ",
"              @ @ $ $ $ @ $ $ $ $ @ @ $ $ $ $ $ $ $ $ $ $ $ @ $ $ $ $ $ @ $ $ @ $ $ @ $ $ @ $ $ @ $ $ $         ",
"              O @ $ 7 7 6 8 8 8 8 8 8 8 8 8 8 8 8 8 9 9 9 9 9 9 9 9 9 9 9 9 9 9 9 9 9 9 9 q 9 q 9 9 9 9 8       ",
"            + + @ $ 6 q t s g g s g s s s g t g g h h z j z z j j j z j j j j z j z j z z j j j j j j h e 8     ",
"          + O O @ % 8 s c b T b b U b T U U b b T T E E ( ! ` ! ! ! ! W ! ! ! ! ` ! ! ` ! ! ! ! ` ! W b h 9 @ O ",
"        % % # @ @ 7 w c R ` ' ' ! ( ` ` ` ` ! ( ' ]  .X.@.O.@.O.@.@.@.@.@.@.@.@.@.O.O.@.@.O.@.@.#.#. .W j 9 @ O ",
"      - ; - * # # 7 w n E | | | | ) | | | | } | |  .X.#.$.<.<.<.h.h.h.h.2.<.$.#.$.#.#.$.$.#.$.$.j.h.$.! j 9 @ O ",
"  $ - : 1 2 < ; & 5 e n W |  ._ ) ) | |  . .| ) _  .X.+.@.$.<.<.h.j.j.h.h.$.#.@.@.@.@.@.@.@.@.$.2.h.$.' c q $ O ",
"+ $ * 1 F H D 1 - 5 e l ! } | | | ) | | | | | ' } } |  .X.@.#.<.h.h.h.$.$.@.O... . . . . . . .O.$.$.#.` c 9 $ X ",
"+ $ - 2 H K H 3 ; % w c E | ........| ' ' ' ..........|  .X.#.$.$.$.$.@.O.O.| | | | | | | | |  .O.@.O.E j 9 $ O ",
"+ @ * 2 H P K 3 ; = r l W ..>.y.d.e.[ { Q ~ ,.y.d.y.-...| X.#.#.@.O.' ` ` ' |  . . ... . ... .| | ` ! n t 6 $ O ",
"+ $ * 3 J P K D ; 8 r f W ..u.K.U.L.6.^ n C e.C.U.J.y.&.| X.%.#.O.! U n n ! | +.@.@.X.@.@.O.O.] ! U j e 9 % $ @ ",
"+ $ - 2 K P J 3 - 6 6 f E :.J./.oX(.B.C p C M.(.oX_.J.-.| X.%.#.| T h e h T | #.$.$.$.#.$.$.@.| Y h q 6 7 $ $ @ ",
"+ @ - 1 I J H 2 - 6 r f E -.K.OX%X.Xn.V i V m. X&XOXK.;. .+.%.%...Y g w h T | $.<.<.$.$.<.<.#.| T g 9 % $ $ $ @ ",
"O $ = : 2 F 3 > = 6 r f ! ;.K.@X-X.Xn.V i M n..X-X@XK.;. ._ +.$. .W c j c ! ..$.j.<.<.<.j.<.$.O.! n g q 6 $ @ @ ",
"@ $ % - > , > * # 7 r f ! $.T.@X-X.XN.N 6 M m. X-X@XK.w. ._ +.#.@.| ! E ! | @.$.<.<.$.<.<.<.$.@...! Y j w 6 $ O ",
"$ @ @ % = = # # @ % r m E -.K.@X=X.XN.V M N N. X-XOXK.;. . .%.$.$.#.+.X.@.@.$.<.<.<.<.$.<.<.$.$.$.@.| R h 9 @ O ",
"@ $ $ $ @ $ % # * - y m T [ C.OX&X#XA.S V S Z.+X-XOXK.;. ._ +.$.$.$.$.$.$.$.$.$.$.$.$.<.$.$.$.<.<.$.@.! j 9 $ O ",
"$ $ O + + O # ; , a a a z ^ C.XX%X%X|.Z.m.N.|.%X-XoXL.w. . .%.%.2.h.h.h.j.<.<.$.$.<.<.$.$.<.<.<.j.j.$.! c 9 @ o ",
"      + + @ - , F I I , y A 7.(.%X;X%X.X|. X%X:X:XOXL.-.| _ %.$.<.<.h.2.<.$.<.$.<.$.$.$.<.$.$.<.h.h.$.` c q @ o ",
"        + % ; 2 H K G , 0 M / A.&X;X;X-X%X%X:X;X*XOXJ.w.| | +.$.$.<.<.$.$.$.<.$.$.$.$.<.<.$.$.<.h.$.@.! j q $ O ",
"        + % ; D K L H 4 = 6 ^ V.XX$X=X$X#X&X#X#XoX^.s.-.| | +.$.<.$.<.$.<.<.<.<.<.<.<.<.$.<.<.h.j.h.$.! j 9 @ X ",
"        O % : D K P H 4 = i C 7.L.^._._./././.^.K.J.y.O. . .@.$.<.<.<.$.$.<.<.j.h.h.h.h.h.h.h.h.j.j.$.` c q @ O ",
"        + % ; D K P H 4 - 6 M ^ w.d.s.s.d.d.d.d.y.w.:...|  .@.$.$.<.<.$.<.<.<.<.<.h.<.<.h.h.h.h.j.j.@.! j q $ O ",
"        O % ; 3 H K G < - 6 t Y { o.O.........o.....| | |  .@.$.$.<.$.$.$.$.@.@.#.#.#.#.#.#.#.#.$.#.O.E j 9 @ O ",
"        O $ - < F G 3 : - 5 e v W ) | ) ( ( ( ' ) } ' ' |  .+.@.$.$.$.$.@. .| ` ` W ` ` ` ` ` ` ` ` ! v s 8 $ O ",
"        @ $ = ; , < , * % 6 e v W ) _ ) ( ( ( ( ( ( ' } } | | X.+.$.$.$.| ! b j j c c n n c c c n c j g 9 7 $ @ ",
"        @ $ % = & ; & # $ 5 g v ( | _ | ( | ( } } ' | } | | | | ..@.$.@.| Y h w 9 9 q w q q q q q q 9 8 6 $ @ @ ",
"        $ $ @ $ % % @ @ @ 5 t n R ( ' ] ] | } ] | | | | | | | | X.%.$.#.' b e 6 7 $ % $ $ $ $ $ $ $ $ $ @ @ @ $ ",
"          @ $ + + + + + $ % q g n T E ( ' _ | } } } |  . .|  .| X.%.#.%.| R f t 9 7 @ O O o O O O o O @ @ @ $ @ ",
"                    O O $ $ 5 q e j b W ' | ' ( } |  . .+.X.X.+.+.%.#.#.X.} E v h 9 $ O X X                     ",
"                      $ $ $ $ 7 6 w c T ' | | | |  .O.#.$.$.$.$.$.$.$.$.$.#.O.} b s 6 @ o                       ",
"                        @ @ O O # 8 h T ( | ....o.=.4.3.k.k.k.k.l.l.z.k.z.z.z.>.` x 8 @ o                       ",
"                          @ O o @ 8 s T ` ..*.1.r.a.p.x.c.c.c.c.x.v.v.x.v.v.v.x.[ x 0 $ X                       ",
"                            O X @ 8 s Y ] *.r.t.g.f.P.I.E.E.R.R.~.R.R.R.E.E.E.P.q.A q $ .                       ",
"                              o $ 8 s b ' *.t.g.F.H.Q.!.!.{.{.`.{.{.!.!.{.{.{.Y.0.Z u o .                       ",
"                              O $ 8 s U ] =.t.S.G.H.`.'.[.[.'.[.].].[.[.}.}.[.Q.9.Z u $ .                       ",
"                            X X @ 6 s U ] =.t.S.G.W.`.'.[.}.[.[.].].[.[.}.}.[.W.9.Z u @ .                       ",
"                @ $ @ @ @ O X O @ 5 s U { =.t.S.G.W.`.].[.[.[.[.[.].[.[.[.}.[.W.9.Z u @ .                       ",
"                $ $ $ $ 7 % $ $ 5 r f U ] *.t.S.G.H.`.'.'.[.'.[.].].{.[.[.}.}.W.8.Z u $ .                       ",
"              @ @ $ 6 9 w e e e e d v R ' =.t.S.G.H.`.].].[.[.'.].'.[.].[.}.[.W.9.Z u 7 .                       ",
"              O @ 7 9 t c b Y b U Y E W | =.t.S.G.W.`.].[.[.[.[.[.[.{.[.[.}.[.W.9.Z u @ .                       ",
"              O @ % w n ! | | | | ] } ) { *.t.S.G.H.`.'.].[.[.'.].].].[.].[.].Q.9.Z u $ .                       ",
"              X @ 7 e v ` O.#.#.%.+.X.| ] *.r.g.F.Q.Q.`.`.'.'.'.'.'.'.'.].[.{.Q.0.B u @ .                       ",
"              O @ 7 w j R '  .@.<.%.+. .| &.1.t.g.f.P.I.~.~.!.`.`.`.`.`.`.!.~.F.q.A i o .                       ",
"              O @ 7 6 w h n E ]  .O.X. .| o.[ 1.1.a.p.c.v.P.I.Q.W.W.W.W.R.P.v.a.{ x 0 O .                       ",
"              @ @ $ $ % 0 w z R '  . .] | | o.o.&.=.4.3.p.g.D.G.H.H.H.G.F.v.p.4.` j 0 @ X                       ",
"                $ @ @ @ @ 6 e z T ( ] ( ] ( ] ]  . .@.$.2.i.p.D.F.F.F.D.f.x.3.@.` c w 6 %                       ",
"                  @ O O O $ 8 t z b E ( ' ]  . . .+.%.$.2.3.p.g.f.f.f.g.p.3.2.@.} R c h t 9                     ",
"                    @ O O @ 7 8 w h n E '  .X.O.@.#.$.$.<.3.k.i.i.p.i.z.z.3.j.#. .} ! T z t 7 @                 ",
"                      @ $ $ $ % 6 q z T '  .O.#.$.$.$.$.$.$.2.2.4.2.4.2.4.2.$.$.$.$.@.' b t 5 @                 ",
"                      @ @ $ % 7 8 e z R ' X.@.$.$.#.+.| | | | | | | | |  .O.#.$.$.h.$.o.T t 7 O o               ",
"                      @ $ 7 6 q t z T ! | O.#.<.$. .` R Y b b b U v U U E `  .@.<.j.h.+.T g 7 @ X               ",
"                      O @ 5 w h v R ! ' | X.#.<.#.| U j e e e e e e e t f R ' O.$.h.$.O.T g 5 @ X               ",
"                      O @ 6 e c R ( ' ' '  .X.#. .! c w 7 $ 7 7 7 7 7 6 e c E } ..#.#.| U t 5 @ X               ",
"                      O @ 7 w j T T E T T E W ` W U h 6 O O O O o o o @ 9 h n R W ' ` R c e 7 @ o               ",
"                      @ @ 7 9 e h j j j h j c n c j e 5               @ 6 e s h z c n j e 8 % @ O               ",
"                      @ @ $ 7 8 q q q 9 9 q q w q q 9                     8 9 q q w q q 8 7 $ @ @               ",
"                      @ @ $ $ $ $ $ $ $ $ % 7 7 $ %                       $ $ $ $ 7 % $ $ $ @ @                 ",
"                        @ @ @ @ O O @ O @ o o o O                           O O O O O o @ @ @ $                 ",
"                                                                                                                ",
"                                                                                                                ",
"                                                                                                                ",
"                                                                                                                "
};
