/* XPM */
static char *__resized[] = {
/* columns rows colors chars-per-pixel */
"56 64 203 2 ",
"   c None",
".  c #262E19",
"X  c #2A2F1D",
"o  c #2D321F",
"O  c #2E3520",
"+  c #2C3820",
"@  c #313620",
"#  c #3B3621",
"$  c #343A22",
"%  c #3A3A22",
"&  c #433622",
"*  c #4A3623",
"=  c #443923",
"-  c #4B3924",
";  c #533924",
":  c #5A3A25",
">  c #5A3625",
",  c #6D3624",
"<  c #643A26",
"1  c #6C3A27",
"2  c #743B28",
"3  c #7C3A29",
"4  c #703525",
"5  c #3B4325",
"6  c #3F4826",
"7  c #364023",
"8  c #414A27",
"9  c #444D29",
"0  c #43482B",
"q  c #544728",
"w  c #455627",
"e  c #465229",
"r  c #49542A",
"t  c #4D592C",
"y  c #4C5527",
"u  c #505D2D",
"i  c #5A5027",
"p  c #4C4C32",
"a  c #444934",
"s  c #55583B",
"d  c #6C4625",
"f  c #655427",
"g  c #54622E",
"h  c #5D732E",
"j  c #576430",
"k  c #596631",
"l  c #5C6B32",
"z  c #55653A",
"x  c #5E7231",
"c  c #4F602F",
"v  c #626939",
"b  c #637435",
"n  c #667836",
"m  c #697B36",
"M  c #6C7E38",
"N  c #68733B",
"B  c #667130",
"V  c #4E5340",
"C  c #5E6153",
"Z  c #5F6D4D",
"A  c #696A44",
"S  c #74744D",
"D  c #666A59",
"F  c #7D7252",
"G  c #727E51",
"H  c #6A7057",
"J  c #6E7562",
"K  c #823B2A",
"L  c #8C3C2B",
"P  c #9C3C2C",
"I  c #933C2B",
"U  c #A23D2D",
"Y  c #AB3D2E",
"T  c #B43E2F",
"R  c #BB3E30",
"E  c #854028",
"W  c #847A56",
"Q  c #6E8239",
"!  c #6D8137",
"~  c #72853A",
"^  c #758A3C",
"/  c #798E3D",
"(  c #7C923E",
")  c #7F983F",
"_  c #788848",
"`  c #7E9540",
"'  c #7B8471",
"]  c #849D3E",
"[  c #88A23F",
"{  c #87A03E",
"}  c #809641",
"|  c #859C42",
" . c #879A46",
".. c #8E8C56",
"X. c #8C9957",
"o. c #8E9452",
"O. c #87A042",
"+. c #8AA344",
"@. c #8EA944",
"#. c #8CA349",
"$. c #91AB46",
"%. c #92A54D",
"&. c #94AE49",
"*. c #95B246",
"=. c #96B249",
"-. c #9AB54B",
";. c #9EBB4D",
":. c #98B547",
">. c #92A652",
",. c #9BA654",
"<. c #93A954",
"1. c #9EA857",
"2. c #99AE5E",
"3. c #98A85B",
"4. c #9DB156",
"5. c #A1BE4E",
"6. c #A4AC5C",
"7. c #A1BA51",
"8. c #A8B959",
"9. c #B0BE5F",
"0. c #909272",
"q. c #AC9871",
"w. c #B79F79",
"e. c #B89F7A",
"r. c #B39E75",
"t. c #A5946B",
"y. c #95A760",
"u. c #9DB064",
"i. c #97A17A",
"p. c #ACAC64",
"a. c #B3AD6B",
"s. c #A1B469",
"d. c #A8B666",
"f. c #B7B86A",
"g. c #B8A676",
"h. c #A8B976",
"j. c #BFB673",
"k. c #C4B27C",
"l. c #C4BC75",
"z. c #C0AD7A",
"x. c #A3C14F",
"c. c #A6C450",
"v. c #B2C25F",
"b. c #B5C361",
"n. c #CCC977",
"m. c #C9C676",
"M. c #D1CF7A",
"N. c #9B9D97",
"B. c #999E8B",
"V. c #9EA68A",
"C. c #9FA19A",
"Z. c #B0BD8C",
"A. c #A2A79A",
"S. c #B3B6AE",
"D. c #B5B7B2",
"F. c #C7A984",
"G. c #C9B381",
"H. c #CDB484",
"J. c #D1BB85",
"K. c #D9BA8E",
"L. c #D5BB8A",
"P. c #DDBB92",
"I. c #E2BE96",
"U. c #B5C588",
"Y. c #BCCA93",
"T. c #B9C499",
"R. c #D9C588",
"E. c #C1CE9A",
"W. c #C1D094",
"Q. c #DFC390",
"!. c #E1CD8D",
"~. c #EAC59C",
"^. c #E8C598",
"/. c #E6D090",
"(. c #EBD494",
"). c #F3D09F",
"_. c #C5D2A0",
"`. c #C8D3AA",
"'. c #D4DEB9",
"]. c #C6CEB3",
"[. c #F4CCA2",
"{. c #FAD4A4",
"}. c #FFD7A8",
"|. c #FFD9AB",
" X c #FBD7A4",
".X c #FFDEB0",
"XX c #CED4C3",
"oX c #D5D5D4",
"OX c #DBDCDB",
"+X c #D8D9D6",
"@X c #CCCFC0",
"#X c #DAE2C4",
"$X c #DEE6CA",
"%X c #E2EACC",
"&X c #E5EBD3",
"*X c #E3E7D8",
"=X c #E9EAE9",
"-X c #EFF1E9",
";X c #EEF1E6",
":X c #F1F3ED",
">X c #F3F4F1",
",X c #F9F9F7",
"<X c #EEEEF0",
/* pixels */
"                                                                                                                ",
"                                                                                                                ",
"                                                                                                                ",
"                                                                                                                ",
"                @ @ @ @ O @ O O o O O o O O o o o $ @ O o o O O O + O O O + O O + O O + O + O O O O +           ",
"                $ $ @ $ $ $ $ $ $ $ $ % $ 7 $ $ $ $ $ $ % $ 7 % $ $ $ % % % $ $ % % $ % $ $ % 7 % $ 7 %         ",
"              O @ $ $ 6 8 9 e e 9 9 9 9 e 9 e 9 e e r r r r r r r r r r r r r r r r r r r r r r r r r r 9       ",
"            + O @ $ 8 r g l l l l l l l l l l l l x b b n n n n n n n n n n n n n n n n n n n n n n b l u 0 %   ",
"        O O O O @ % e j m Q / ~ ~ ~ ~ ~ ~ ~ ~ ~ ^ / ) } | | | |  . .| | | | | | | | | |  .| | O. .| ` Q k 9 @ O ",
"        % # # @ $ 7 r b / | O.O.| ] | | | O.} ] | +.$.*.-.-.-.-.-.-.-.-.-.-.-.-.-.=.-.-.-.-.=.-.;.;.*.` l 9 $ X ",
"      ; : : ; & % % t b ( +.+.+.O.+.+.+.+.+.+.+.+.+.*.-.;.;.5.5.5.c.c.5.x.;.;.-.-.-.-.-.-.-.-.;.c.c.-.} b 9 $ O ",
"+ $ = < 2 3 1 > & 5 t b ( O.@.+.{ [ +.#.@.+.[ [ [ +.$.$.-.-.;.5.c.c.c.c.c.-.-.=.*.&.=.*.=.&.=.-.;.c.-. .b r $ X ",
"+ $ - 1 L P L 1 - 5 c x ( O.+.+. .O.O.O.#.O.O. .[ +.+.+.$.*.-.;.;.5.5.;.-.-.@.@.#.@.+.@.#.+.$.&.-.;.-.` x e $ X ",
"+ $ - 2 P T U 3 ; 5 w x ( O.$.<.<.<.#. .`  .#.>.<.<.#.+.+.$.-.;.;.-.=.&.$.@.#.+.+.+.+.+.+.+.+.+.$.*.@._ l 6 $ O ",
"+ $ - 2 U R Y K ; 5 w x _ #.u.h.h.h.y._ _ _ X.h.h.h.2.#.+.$.:.-.=.+.` ` ` ` @.@.$.$.#.@.$.$.@.+.| ` ~ x t 6 $ O ",
"+ % - 2 U R Y K ; % w x / <.b.Y.].T.i.G l G i.T.`.Y.h.<.+.$.:.;.$.` m l b _ O.*.=.-.=.=.-.=.&.+.( n j r 6 % $ $ ",
"+ @ - 2 P T U 3 ; = w h ( <.U.'.%X'.C.H s H V.@X*X'.U.3.+.@.:.-.+.~ j r z Q +.-.;.;.-.;.;.;.-.O.Q j 9 5 $ $ $ $ ",
"O @ = 1 L U I 1 - 7 w h / 2.Y.%X-X+XC.D a C N.oX-X%XY.2.$.[ :.:.+.~ j t l Q @.;.c.c.5.;.c.c.-.+.~ j 9 6 7 $ $ @ ",
"+ $ = : 2 3 2 > & 7 w h ( 2.Y.%X:X+XC.D 5 C N.oX:X%XY.u.@.[ :.;.&.` M b M ) &.;.;.5.5.5.;.c.;.&.` M j t 8 % $ @ ",
"+ $ % = ; > ; & # 7 w h ( 2.W.%X:X+XC.C 6 C N.oX:X%XY.2.+.@.:.;.=.#.} ` | +.-.;.5.5.5.;.;.;.-.-.$.| / b t 6 $ o ",
"$ O % $ % % # % # % y B _ y.Y.$X<XoXC.C V C N.oX;X$XY.2.$.[ *.-.;.-.=.=.-.-.;.;.;.5.;.;.;.5.;.;.;.-.$._ l 9 $ o ",
"@ $ O $ @ @ # # & q i l Q ` U.#X<X=XD.B.J B.D.OX:X$XY.2.@.[ *.;.;.x.x.x.5.5.;.;.5.;.;.5.5.;.;.c.c.c.-.` x e $ X ",
"  $ O + + O # ; 1 2 d f l _ V.XX<X<XoXD.C.D.oX<X>X%XY.2.+.@.*.;.;.x.x.x.c.;.5.;.5.;.5.;.;.5.;.;.c.c.-.` x 9 $ o ",
"      + + % - 1 I E E d p Z 0.@X<X,X<XOXoXOX<X>X>X#XY.2.@.[ *.;.;.x.;.;.5.5.;.5.;.;.5.;.;.;.;.c.;.c.=.` b 8 $ o ",
"        + % ; 3 E T I 1 - s ' D.=X,X,X:X-X:X,X,X;X'.U.2.+.@.*.-.;.x.;.5.;.;.;.5.;.;.;.;.;.;.;.;.x.5.-.` x 9 $ o ",
"        O $ ; K R R P , * a J V.].&X&X&X&X&X&X&X'._.h.<.@.@.*.;.;.;.5.;.5.5.;.x.;.;.c.;.;.c.;.c.x.x.-.} l 9 $ o ",
"        + % : K Y R U 4 = a Z 0.Z._.`.E._.`.`.Y.Y.h.u.>.+.@.=.;.x.x.;.5.;.x.c.x.c.c.c.c.c.c.c.c.c.c.-.} b 9 $ o ",
"        + % ; K Y R P 4 = 6 z _ y.s.v.d.s.s.u.u.u.3.>.#.+.$.=.;.;.;.;.;.;.5.;.;.5.;.;.;.;.5.;.;.x.x.-.( b e $ o ",
"        + % ; 2 P U I , & 0 c ! ` #.@.#.+.#.+.+.#.O.O.O.+.$.=.-.;.;.;.;.;.-.=.=.*.&.&.&.&.=.&.&.-.=.+./ l 0 $ o ",
"        + % - < 3 L 2 > & 6 u m ` ) [ { { ) { ) O.` | O.O.@.$.=.-.;.;.-.*.+.) _ / ( ` / ` / ( ( ( ( ^ b t 6 $ o ",
"        O $ % ; > < > & # 6 t m ` O.+.[ { ) { { O.O.O.O.O.+.+.$.=.-.;.-.+./ n l j j l l l l l l l l k t 9 5 $ O ",
"        $ @ % # & & & # @ 6 g m ` +.+.O.O.O.O.O.O.O.O.O.O.#.+.+.$.=.;.-.O.m g 9 6 6 9 0 6 6 8 8 9 8 0 6 7 $ $ O ",
"        @ $ @ $ $ $ + O $ 6 t b ~ } | | | +.+.| O.+.+.+.@.+.+.+.$.=.;.*.O.! c e $ $ $ $ $ $ @ $ @ $ @ $ $ @ $ @ ",
"          @ $ + + + O O O % 9 u b M ^ ] ] | +.+.O.O.+.@.@.@.@.@.*.=.;.:.+./ b c e 6 $ o o o o o o X o o O @ @ $ ",
"                    O O + $ 5 8 y l m / | +.+.| O.+.$.&.*.*.=.*.*.-.;.-.*.@.) ! l r 7 o X X                     ",
"                      $ $ $ $ $ 5 r l ~ | +.+. .+.$.=.-.;.;.;.;.;.;.;.7.;.;.=.@.~ j 6 @ o                       ",
"                        $ @ O O # 6 j ~ | +.%.%.<.6.8.9.b.b.v.b.v.v.v.v.b.b.b.8.o.v 9 $ X                       ",
"                          @ o o O 6 g Q | %.1.6.p.f.j.m.n.n.m.m.n.m.m.m.n.M.R.b.o.N 0 # X                       ",
"                            o o @ 6 g Q  .>.p.a.j.R.R.!././.(.^././././.(.(.(.R.t.S p @ .                       ",
"                              O $ e j Q  .,.a.z.L.^.^.). X X X[. X X X X X|. X!.r.S p $ .                       ",
"                              o @ 6 g ! O.1.a.G.P.~.[.[.|.|.|.}.|.}.}.|.|..X|.~.g.F p $ .                       ",
"                              X o 6 g ! | 1.a.H.P.~.[.}.|.|.|.}.|.|.|.}.|..X|.~.g.F p @ .                       ",
"                              o $ 9 g ! | 1.a.G.P.I.[.}.|.|.}.|.}.}.}.}.|..X.X~.e.F p $ .                       ",
"                              % 6 w l !  .6.a.k.P.I.[.{.}.|.}.}.}.}.}.}.|..X|.~.e.F p @ .                       ",
"                            0 t g x m ^ +.1.a.G.P.I.[.}.|.|.|.}.|.}.}.}.|..X|.~.e.F p @ .                       ",
"                  $ O X o 7 t b Q ^ ( ]  .1.a.G.P.~.[.}.|.|..X}.}.|.}.}.|..X|.~.e.F p $ .                       ",
"                + $ O O $ 8 k ~ | @.@.+.+.,.a.G.P.^.[.{.|.|.}.}.}.}.}.}.|.|.|.^.e.F p @ .                       ",
"              @ $ $ $ % 6 y b ` $.-.&.+.#.,.p.z.J.L.P.^.~.~.[.[.{.{.{.{. X X XQ.q.S p @ .                       ",
"              O @ $ 6 r j b ^  .&.-.&.+.+.,.6.f.l.g.g.g.F.F.P.I.[.[.[.[.~.(.!.m.t.A 0 O . O                     ",
"              o @ 5 e l M ` +.$.&.&.$.+.+.&.6.6.p.6...W W t.F.P.~.~.^.^.!.R.m.d.o.v 0 O X O @ @                 ",
"              o O 5 r m } $.$.+.+.+.| | +.$.-.7.-.} N s V W q.H.P.I.P.K.J.m.b.4.` l 9 $ O O $ $                 ",
"              o @ 5 t b ` +.+.} / / ] | | $.=.-.$.^ g 8 = A t.z.J.L.L.l.l.f.8.-.) m t 0 5 $ $ O @               ",
"              o O 7 9 j b Q M n b m ~ } +.$.=.:.+.~ u 5 8 v ..a.l.m.l.l.f.v.;.:.+./ m l t 5 % $ O               ",
"              @ + $ 5 e t u t r t g n / | @.&.$.+.Q u 5 8 k } 6.b.b.f.9.v.8.5.-.*.@.| ~ l r 7 @ o               ",
"                $ $ $ % 7 % % % 5 9 l M ] | +.| ) m u 8 0 k / ,.7.5.;.-.;.;.;.;.;.;.=.O.M u 5 O X               ",
"                $ @ $ @ O O + + @ 5 t b Q ^ / ^ M l e 5 5 u n ( | O.| | +.$.=.-.5.c.x.$.~ u 5 @ X               ",
"                          O X X O $ 9 t l l l l j y 8 7 7 e g x b n n m ~ ] +.=.5.c.c.&.^ j 5 O X               ",
"                            O @ @ $ 5 6 9 9 9 e 9 6 7 $ $ 5 0 e r w r t l ! ] $.-.5.;.$.~ u 5 O X               ",
"                              @ $ $ $ $ $ $ 7 $ $ $ $ $ $ $ $ % $ $ $ 7 t l ~ } @.&.&.+.M u 5 @                 ",
"                                @ $ @ O o O o @ O @ o $ $ o O O o o o $ 6 t b Q ^ / ( ~ b t 5 @                 ",
"                                                                X X O @ 5 8 t g l l l l j r                     ",
"                                                                  O @ @ $ 5 6 8 8 8 9 9 0                       ",
"                                                                    @ $ $ @ @ $ $ $ $ $ $                       ",
"                                                                    $ @ @ O O o o o o o o                       "
};
