/* XPM */
static char *__resized[] = {
/* columns rows colors chars-per-pixel */
"56 64 202 2 ",
"   c None",
".  c #262E19",
"X  c #292E1D",
"o  c #2C311F",
"O  c #2E3520",
"+  c #2C3820",
"@  c #313620",
"#  c #3B3621",
"$  c #333921",
"%  c #393C23",
"&  c #423722",
"*  c #4B3723",
"=  c #423923",
"-  c #4A3924",
";  c #533924",
":  c #5C3A25",
">  c #5B3625",
",  c #643926",
"<  c #6B3A26",
"1  c #6C3926",
"2  c #743B28",
"3  c #7B3A29",
"4  c #713625",
"5  c #3C4325",
"6  c #3F4826",
"7  c #364023",
"8  c #414A27",
"9  c #444D28",
"0  c #48472B",
"q  c #475229",
"w  c #4A552B",
"e  c #4D5A2C",
"r  c #475627",
"t  c #515E2D",
"y  c #575229",
"u  c #4D4D33",
"i  c #464B36",
"p  c #56573A",
"a  c #504D36",
"s  c #674E27",
"d  c #55632F",
"f  c #59692F",
"g  c #5D722E",
"h  c #556330",
"j  c #596731",
"k  c #5E6D33",
"l  c #5A633C",
"z  c #5E7232",
"x  c #616E33",
"c  c #666C3C",
"v  c #637334",
"b  c #677936",
"n  c #697B36",
"m  c #6C7E38",
"M  c #67733B",
"N  c #616D2D",
"B  c #5B5F50",
"V  c #5E6153",
"C  c #6B6A47",
"Z  c #726C49",
"A  c #77754A",
"S  c #646957",
"D  c #6A7254",
"F  c #7D7253",
"G  c #7F7950",
"H  c #757C6B",
"J  c #833B2A",
"K  c #8A3D2B",
"L  c #923C2B",
"P  c #9C3C2C",
"I  c #A33C2D",
"U  c #AB3E2E",
"Y  c #B63E2F",
"T  c #BA3E30",
"R  c #804228",
"E  c #857858",
"W  c #6D8237",
"Q  c #6E8139",
"!  c #71843A",
"~  c #768B3C",
"^  c #798E3D",
"/  c #7C923E",
"(  c #778745",
")  c #7E9440",
"_  c #7E9049",
"`  c #788752",
"'  c #7E8574",
"]  c #859D3E",
"[  c #88A23F",
"{  c #87A03E",
"}  c #828B49",
"|  c #819641",
" . c #849B42",
".. c #849A48",
"X. c #8E9C56",
"o. c #979759",
"O. c #929F4F",
"+. c #87A041",
"@. c #8AA344",
"#. c #8EA845",
"$. c #8DA44B",
"%. c #91AB46",
"&. c #91A54C",
"*. c #93AE48",
"=. c #94B146",
"-. c #96B249",
";. c #99B54A",
":. c #9EBB4C",
">. c #98B547",
",. c #92A751",
"<. c #96AB5A",
"1. c #9AAE5D",
"2. c #99A855",
"3. c #9DB256",
"4. c #8FA15B",
"5. c #A1BE4E",
"6. c #A2A95B",
"7. c #A7B759",
"8. c #998865",
"9. c #929D78",
"0. c #8F9C78",
"q. c #A59969",
"w. c #B79E79",
"e. c #B89F7A",
"r. c #B19D73",
"t. c #A7926F",
"y. c #9BAE64",
"u. c #9AA970",
"i. c #ACAB65",
"p. c #B3AE6B",
"a. c #A2B56B",
"s. c #A7BB6F",
"d. c #B7B56C",
"f. c #BBA17B",
"g. c #A9BB75",
"h. c #A7B975",
"j. c #C6B67B",
"k. c #C1AE7B",
"l. c #A3C14F",
"z. c #A6C450",
"x. c #ADC05A",
"c. c #A8C154",
"v. c #B1C55B",
"b. c #BAC267",
"n. c #C5C771",
"m. c #C9CA74",
"M. c #C1C36F",
"N. c #9A9C95",
"B. c #989E87",
"V. c #9FA19A",
"C. c #9CA28B",
"Z. c #A3A89B",
"A. c #ABB78D",
"S. c #A9ABA5",
"D. c #B4B8AF",
"F. c #CDB484",
"G. c #CFBF81",
"H. c #D2B48A",
"J. c #DEBC92",
"K. c #C9AC85",
"L. c #E1BF95",
"P. c #B6C58A",
"I. c #BCCB93",
"U. c #B7C395",
"Y. c #D8C686",
"T. c #C1CD9E",
"R. c #C1D094",
"E. c #DFC091",
"W. c #E0CF8A",
"Q. c #E3D28C",
"!. c #EBC69C",
"~. c #E4C495",
"^. c #F0CB9F",
"/. c #F5D49E",
"(. c #E7D091",
"). c #CAD5AA",
"_. c #CED9AD",
"`. c #C8CDBC",
"'. c #D3DDB8",
"]. c #CFDAB0",
"[. c #F3CCA1",
"{. c #FBD5A5",
"}. c #FFD7A9",
"|. c #FFDAAC",
" X c #F8D5A1",
".X c #FFDEB0",
"XX c #CBCCCA",
"oX c #D5D6D4",
"OX c #DADAD8",
"+X c #D2D8C4",
"@X c #DEE5CA",
"#X c #DDE5C6",
"$X c #DFE0DE",
"%X c #E2EACC",
"&X c #EAEEDC",
"*X c #ECF1DE",
"=X c #ECECEC",
"-X c #E9EAE6",
";X c #EFF1E9",
":X c #EDF1E1",
">X c #F1F3EC",
",X c #F8F9F7",
/* pixels */
"                $ @ $ O O O o o o o O o o O o O X O o o o X O o o o O o o o o o o o o o o o o o o o o X         ",
"              $ $ $ $ $ $ $ $ $ $ $ $ $ $ $ $ $ $ $ $ $ $ $ $ $ $ $ $ $ $ $ $ $ $ $ $ $ $ $ $ $ $ $ $ $         ",
"              O O $ % 7 6 8 6 6 8 8 8 8 8 8 8 8 8 8 9 9 9 9 9 9 9 9 9 9 9 9 9 9 9 9 9 9 9 9 9 9 9 9 9 9 8       ",
"            O O $ $ 5 q e d h h d d d d d d d d h h k k x k x k k k x k k v k k k v k x z x k v k v k h e 8     ",
"          + O O o % 9 d v Q ! Q m Q m W Q n Q Q ! ! ^ / ] ) ) ) ) ) ) ) ) ) ) ) / | ) ) ) ) ) ) | ) / n j 9 $ O ",
"        # % # @ $ % w v ~ |  . .| ] | | | ] | /  . .#.*.*.*.;.*.*.-.-.-.-.-.-.-.;.*.*.-.-.-.*.-.;.;.%./ k q $ X ",
"      - ; - - # $ 5 e v / @.@.@.@.{ @.@.@.@.+.@.@.%.*.>.:.:.5.5.5.l.5.l.5.:.;.:.;.:.;.:.:.;.:.:.l.l.;.| z 9 $ O ",
"  $ - : < 2 < ; & 5 e v / @.#.[ { { @.@.#.#.@.@.[ @.%.=.;.:.5.5.z.z.z.z.z.:.;.-.-.*.;.-.-.-.-.:.l.z.:.| v 9 $ O ",
"+ $ - < K P K 4 * 5 w v / +.@.@.+.+.+.+.@.@.+.+.+.+.@.#.%.-.;.5.:.l.l.l.:.;.*.$.#.#.#.#.#.#.$.*.;.l.;.| v 9 $ X ",
"+ $ * 2 L U P 4 ; % w z / +.$.$.$.$.$... ...+.$.$.$.$.+.#.%.;.:.:.:.;.-.*.%.@.@.@.@.@.@.@.@.@.#.-.-.%.( k 9 $ O ",
"+ $ ; 2 I T U 3 ; % w v / $.3.a.a.a.4._ ( _ X.u.h.a.<.$.@.#.;.;.;.%...] | +.@.#.#.#.$.#.#.#.$.#.@.| ) b t 6 $ O ",
"+ @ * 2 I T U J ; 8 r g / $.s.I.).A.u.` M ` 0.P.T.P.s.,.@.%.>.>.*.) Q v n ^ @.*.-.-.*.-.-.-.%.@./ Q k t 9 $ $ O ",
"+ $ - 2 U T U J 0 6 6 g / <.P._.@XXXB.D p D B.`.@X].P.<.@.#.>.:.@.! j e j ! @.;.:.:.;.:.:.:.;. .! j q 6 % $ $ $ ",
"+ $ - < R I L 4 * 7 r g ^ <.I.#X=XOXV.S i V N.oX:X@XI.<.#.=.>.;.@.! h w h ! @.:.5.5.5.:.5.5.;.@.Q h 9 7 $ $ $ $ ",
"O $ & : 3 J 3 > & 7 r W ) 3.I.%X>XOXV.V i V N.OX>X%XI.y.#.[ >.;.$./ v k b ) $.:.5.l.5.5.5.l.:.%.) v d q 6 $ $ @ ",
"@ $ % - : , : * # 7 6 g / 3.R.%X>XOXV.V 6 V N.oX>X%XI.1.#.[ >.;.-.@.) ^ ) @.-.:.5.5.5.:.5.5.:.-.#.) ! k w 6 $ O ",
"$ @ @ % & & & # # % r N ^ <.I.%X:XOXN.S B V N.oX;X@XI.1.$.#.=.:.:.;.-.%.=.;.:.:.:.z.5.:.:.l.:.:.;.-.@.! j 8 $ O ",
"@ $ $ $ @ $ $ # & * y N ! X.A.#X-X&XD.' S H D.OX;X@XI.1.#.[ =.:.:.:.:.:.:.5.:.:.:.:.:.5.:.:.:.:.z.5.-.| x 9 $ O ",
"$ $ O + + @ # * , s s s x ` A.+X=X=XXXS.N.V.XX=X;X@XI.y.#.[ >.:.:.z.:.z.z.:.:.5.:.:.:.:.:.5.:.l.z.z.;. .v 9 $ o ",
"      + + $ - , K R R , y C 0.`.=X,X=XOXXXoX-X,X,X@XP.<.#.[ =.:.:.:.z.:.z.:.5.:.:.:.:.l.:.:.:.l.l.z.;.| v 9 $ X ",
"        + # ; 2 P U L , 8 B ' D.-X,X,X>X=X=X,X,X;X#XP.y.#.[ =.:.5.:.:.:.5.:.5.:.z.:.5.:.:.:.:.:.5.5.-.) v q $ O ",
"        + % ; J U Y P 4 & i ` Z.+X&X:X:X&X-X&X&X@X).h.<.#.#.=.:.:.z.z.:.:.:.5.5.:.:.:.z.l.:.l.l.l.z.;.) z 9 @ O ",
"        O % : J U T P 4 * 8 D 0.U._.].]._._.).).I.P.a.,.@.#.;.:.:.:.:.:.l.5.l.5.l.l.z.5.l.l.l.l.z.l.;.| v q $ X ",
"        + % ; J U T P 4 * 8 B ` y.g.g.g.h.h.h.h.a.y.,.$.#.#.-.:.5.z.:.:.:.5.:.z.:.z.:.l.l.:.l.z.z.z.;.| k 9 $ O ",
"        + % ; 3 P U L 1 * 8 t Q ..&.&.&.$.&.$.$.$.$.@.@.@.$.=.;.:.:.5.:.:.:.;.;.-.;.;.;.;.;.;.;.:.;.%.^ j 9 @ O ",
"        @ $ - < J L 3 , & 5 e n / ] [ @.] ] { ] {  .+. .@.#.=.-.:.:.:.:.-.$.+.) | | | | | | | |  .| ) n h 6 $ O ",
"        $ @ & ; , 1 , * % 8 d n / { [ { ] ] ] ] ] ]  .+.@.@.$.%.-.;.:.;.@.) W v x v v v b v v v v v x h q 7 $ O ",
"        @ $ % & - * & # $ 6 e n ] [ @.@. .+.{  .+.+. .@.+.@.@.@.$.-.:.;.+.Q h w 9 9 q q q q q q w q q 8 5 $ $ @ ",
"        $ @ @ $ $ # O O $ 5 e b ~ ]  .@. .@. .@.@. .+.@.@.@.@.@.%.=.:.>...W e 9 7 % $ $ $ $ $ $ $ $ $ $ $ $ @ @ ",
"          $ $ + + + O O $ 7 w h v ! / |  .@.@.+.+.@.@.#.#.#.#.#.=.>.;.;.@.~ z e 8 7 $ @ O O O O o o O @ @ @ $ $ ",
"                    O O $ $ 6 q t k m /  .@.]  .+.@.#.%.=.=.=.=.=.>.:.;.=.+.^ n h q $ O X X                     ",
"                      $ $ $ $ $ 8 w v !  .@.@.@.@.#.=.;.;.;.;.:.:.:.:.:.;.-.*.+.! t 8 @ o                       ",
"                        @ @ @ O # 8 f ! ]  .&.&.&.-.7.7.x.x.x.x.x.x.x.x.x.v.x.3.| k 8 @ O                       ",
"                          @ o o @ 8 d !  .&.6.6.i.d.d.n.n.n.m.m.m.b.m.b.m.m.m.b.o.c 0 @ X                       ",
"                            O X $ 6 d m  .2.6.p.d.G.Y.Y.W.Q.Y.Q.W.W.W.W.Q.Q.Q.Y.q.Z 9 $ .                       ",
"                              O $ 8 d m ] 6.i.j.H.J.~././. X X X X X/. X X|. XE.r.A u $ .                       ",
"                              O $ 6 d W ..6.p.F.J.!.[.}.}.|.}.}.}.}.}.}..X.X}.(.w.F u $ .                       ",
"                            X X @ 6 d W  .6.p.F.L.[.{.}..X.X|.}.|.}.|.}..X.X|.!.f.F u o .                       ",
"                $ $ @ @ O O o o @ 6 d W ..6.p.F.L.!.[.|.|.|.}.}.}.}.}.}.|..X|.!.w.F u $ .                       ",
"                @ $ $ $ % % $ $ 7 q g W ..2.i.K.H.L.L.[.[.{.}.}.}.}.}.}.|.|.}.!.w.F u @ .                       ",
"              @ $ $ 7 8 w e e e e f v ^  .O.o.q.t.w.K.K.K.L.[.{.|.|.}.}.|..X}.!.f.F w @ .                       ",
"              O @ % 9 h v m Q m m ! ^ ]  ...} E F E E E 8.K.L.{..X.X.X}.|..X|.!.f.F u @ .                       ",
"              O @ 7 e v ) @.#.@.[ @.@.@. .( M l p a a p Z 8.K.[.}..X}.}.|.|.}.!.w.F u $ .                       ",
"              X @ 7 e b | *.;.;.>.;.*.#. .^ v y 8 5 5 8 p E e.L./.{.{. X}.}. X~.r.A u @ .                       ",
"              O @ 5 q k ~  .%.*.;.;.;.%. .^ b k d r r t k A 8.f.F.J.!.!.[./.(.Y.q.Z u @ .                       ",
"              O O % 6 w j b (  .*.*.%.#.@.] / ! W W W W ! A ( E 8.w.H.~.~.W.m.d.X.c 9 @ X                       ",
"              @ @ $ % % 8 e x ~  .#.@.@.@.@.@.@.$.%.#.#. .! k p C E K.H.Y.m.b.7.} k 8 @ o                       ",
"                $ $ + @ @ 6 e x ~ ]  . .@.@.*.;.;.:.5.:.@.Q t 6 a F t.K.m.j.7.=.~ f 8 @ X                       ",
"                  @ O O O $ 9 t x m ^ | @.#.*.;.:.5.5.:.#.W w 5 0 Z o.d.b.b.c.=.^ j 6 $ O                       ",
"                    O O O @ % 8 e j b /  .#.%.*.*.;.;.*. .n r 5 9 c o.7.b.v.c.-./ j 8 @ X                       ",
"                      $ @ $ $ $ 6 q k !  .@.@.@.@.#.#. ./ v w 6 w c ..3.z.z.5.&.~ j 8 @ X                       ",
"                        $ $ @ @ $ 8 h b ~ ^ ^ ^ ^ ^ ^ ^ Q j 9 5 q v  .-.:.;.%. .W d 6 $                         ",
"                          @ O X O 6 w j k v x v x x v v j w 5 7 q v +.-.=.+.^ n k e 6                           ",
"                                    8 q w q w w w q w w q 7 $ $ q b +.-.$.^ z t w 6                             ",
"                                      % $ 7 % 7 % 7 % 7 % % $ 7 w n  .$. .b e 6 $                               ",
"                                      @ @ @ @ O @ O @ @ $ % 5 w d b / / ! k 8 $                                 ",
"                                                O X O O % 8 t k v b b v k t 6                                   ",
"                                                    O O 7 e x m Q v h e 9 8                                     ",
"                                                    O @ 8 t b ~ ! z w 7 $                                       ",
"                                                    O # 7 e k n b h 9 $                                         ",
"                                                    @ $ 7 8 e t h e 8                                           ",
"                                                    @ @ $ % 6 6 6 6                                             ",
"                                                    $ @ @ $ @ $ $ $                                             ",
"                                                    $ $ @ @ @ O X O                                             "
};
