/* XPM */
static char *Item_resized[] = {
/* columns rows colors chars-per-pixel */
"64 64 239 2 ",
"   c None",
".  c #42495E",
"X  c #030D04",
"o  c #120E0A",
"O  c #100B05",
"+  c #0B1608",
"@  c #141402",
"#  c #1D1C05",
"$  c #14100C",
"%  c #1D150E",
"&  c #171B09",
"*  c #1F1813",
"=  c #1A1411",
"-  c #120D11",
";  c #211B15",
":  c #281D15",
">  c #152409",
",  c #1A3209",
"<  c #15371A",
"1  c #1C2117",
"2  c #222107",
"3  c #232109",
"4  c #2C2B05",
"5  c #3F3D0E",
"6  c #2B231D",
"7  c #3A2A1A",
"8  c #37291B",
"9  c #243B13",
"0  c #323814",
"q  c #163626",
"w  c #232422",
"e  c #3A2D25",
"r  c #3D3229",
"t  c #3C3126",
"y  c #323530",
"u  c #1C1820",
"i  c #433B11",
"p  c #4B3624",
"a  c #4D3924",
"s  c #483728",
"d  c #523C26",
"f  c #533E2B",
"g  c #513F32",
"h  c #2D4D14",
"j  c #3C691A",
"k  c #354D2D",
"l  c #30692C",
"z  c #44420B",
"x  c #404007",
"c  c #54530F",
"v  c #555310",
"b  c #5C5A13",
"n  c #5A5714",
"m  c #6D6A17",
"M  c #716C1C",
"N  c #5B452A",
"B  c #4F4035",
"V  c #524335",
"C  c #584738",
"Z  c #525629",
"A  c #634B32",
"S  c #785837",
"D  c #7B5B39",
"F  c #665136",
"G  c #706C2B",
"H  c #50601A",
"J  c #265F41",
"K  c #3E6C4B",
"L  c #545250",
"P  c #695544",
"I  c #695744",
"U  c #644F48",
"Y  c #646A58",
"T  c #75707A",
"R  c #87623E",
"E  c #845F3B",
"W  c #856141",
"Q  c #8A6542",
"!  c #8E6943",
"~  c #8A6A4B",
"^  c #926D4A",
"/  c #926C45",
"(  c #97724C",
")  c #886E58",
"_  c #8B7158",
"`  c #94765B",
"'  c #957956",
"]  c #A57A4E",
"[  c #A87E53",
"{  c #977A62",
"}  c #8D7262",
"|  c #538229",
" . c #4F952F",
".. c #6A9637",
"X. c #65BA3A",
"o. c #6AAB34",
"O. c #75C637",
"+. c #7FD035",
"@. c #398E52",
"#. c #3A9865",
"$. c #3CA054",
"%. c #48975C",
"&. c #709051",
"*. c #54AD48",
"=. c #47A557",
"-. c #54AA59",
";. c #59B44A",
":. c #60B648",
">. c #71B054",
",. c #4D976E",
"<. c #709773",
"1. c #56A761",
"2. c #6FA774",
"3. c #78CA42",
"4. c #6EC847",
"5. c #8D891C",
"6. c #908C1C",
"7. c #9A971D",
"8. c #9C981E",
"9. c #A19C1F",
"0. c #958D2A",
"q. c #9C9820",
"w. c #9D8F3B",
"e. c #A39E22",
"r. c #A59C2C",
"t. c #A49936",
"y. c #AAA22B",
"u. c #A2A224",
"i. c #BFB82A",
"p. c #AEAA2E",
"a. c #CBBF3B",
"s. c #85D63E",
"d. c #B2C139",
"f. c #D7CF2E",
"g. c #D7D02C",
"h. c #D9D12F",
"j. c #DBCF3C",
"k. c #D5CA3A",
"l. c #DCD334",
"z. c #F6E73C",
"x. c #F6E83B",
"c. c #E7E337",
"v. c #E4E13A",
"b. c #9A884A",
"n. c #9C835C",
"m. c #A9845E",
"M. c #B98857",
"N. c #BC8B59",
"B. c #B5885A",
"V. c #BEB240",
"C. c #9E8166",
"Z. c #8E9E7E",
"A. c #A38665",
"S. c #B9926C",
"D. c #B79576",
"F. c #B18F6B",
"G. c #8AAC75",
"H. c #A7A576",
"J. c #BFA56C",
"K. c #C08E5B",
"L. c #C7945F",
"P. c #C3B441",
"I. c #C8B945",
"U. c #DEAB5F",
"Y. c #C7B354",
"T. c #C19161",
"R. c #C69869",
"E. c #C79C74",
"W. c #D09D69",
"Q. c #C2A666",
"!. c #D9A46A",
"~. c #CAA57A",
"^. c #D8A776",
"/. c #D5B47A",
"(. c #D0B666",
"). c #E2AC69",
"_. c #E1AD79",
"`. c #EBB57D",
"'. c #E7B37D",
"]. c #F2BF75",
"[. c #88D745",
"{. c #8ED04F",
"}. c #ADCB4C",
"|. c #95E14C",
" X c #9BE654",
".X c #A4ED5C",
"XX c #A9EE67",
"oX c #A1CE6B",
"OX c #D5C752",
"+X c #E2CD55",
"@X c #F4CA59",
"#X c #F3C75F",
"$X c #EAD656",
"%X c #F6DB5A",
"&X c #E7D64D",
"*X c #FDE14C",
"=X c #F6E648",
"-X c #FFF344",
";X c #FDE85B",
":X c #FFF05E",
">X c #E3E14B",
",X c #D8CB67",
"<X c #E6CC6B",
"1X c #EDD26C",
"2X c #F6D867",
"3X c #E8C977",
"4X c #F4CD77",
"5X c #FAD97A",
"6X c #F4C46A",
"7X c #FCE664",
"8X c #FFF461",
"9X c #FFE37D",
"0X c #FFE375",
"qX c #7EA781",
"wX c #949494",
"eX c #9EB089",
"rX c #AFAF87",
"tX c #CEA781",
"yX c #CDA886",
"uX c #D6AC84",
"iX c #DBB58B",
"pX c #D9BA92",
"aX c #C6B286",
"sX c #E9B988",
"dX c #F3BE8A",
"fX c #E6BB94",
"gX c #BAF086",
"hX c #ADD883",
"jX c #D7C48E",
"kX c #ECC58A",
"lX c #EEC685",
"zX c #F5C78C",
"xX c #FED582",
"cX c #F0C992",
"vX c #C2FA8C",
"bX c #C2D0B6",
"nX c #D5F8B1",
"mX c #D0DAC6",
"MX c #E4F7D1",
/* pixels */
"                                                        . . . . . . . .                                                         ",
"                                                        . . . . . . . .                                                         ",
"                                                        $ & 1 1 1 w w w                                                         ",
"                                                      , h h k Z L L L L y                                                       ",
"                                                  . + 9 j G &.&.wXwXwXT L u .                                                   ",
"                                                . . 1 h | :.{.hXbXmXbXwXL w . .                                                 ",
"                                                X + , j ..[..XvXnXMXmXeXY 0 & X                                                 ",
"                                              > , h j H o.[.XXvXnXnXbXeX&.k h , >                                               ",
"                                          . + , h j | o.O.|..XXXgXvXgXoXo.| j h , @ .                                           ",
"                                        . . + , j  .o.O.[.|. X.X.XXX X{.>.o. .j h @ . .                                         ",
"                                        . . + h j  .X.3.[.[.|.|.|.|.{.3.3.X. .l h + . .                                         ",
"                                        . . + < l  .;.4.3.[.[.s.s.|.3.3.4.*.*.l < X . .                                         ",
"                                        . . X q J @.*.;.4.3.+.+.+.+.O.X.;.=.@.l < X . .                                         ",
"                                        . . - q J @.$.-.:.X.O.O.O.O.O.;.-.=.@.J q - . .                                         ",
"                                        % * 9 k K #.1.1.;.:.X.X.X.X.X.;.-.1.,.K k 9 , #                                         ",
"                                      : s V L Y T 2.qX2.-.*.*.*.*.*.*.;.4.>.>...G H n z 4                                       ",
"                                  . $ t I ) C.H.rXrXeXG.2.-.$.$.$.=.-.>.{.{.}.d.p.u.6.m z @ .                                   ",
"                                . . * V ) D.yXiXfXpXrXeX2.,.#.#.#.#.1.4.V.>Xc.c.c.l.i.5.v 2 . .                                 ",
"                                $ ; t P { yXfXfXcXfXiXrXZ.2.,.,.,.,.1.G.}.>X=X-X-X-Xj.r.M 5 2 @                                 ",
"                              6 r V I _ S.uXdXzXdXsXsXaXH.Z.<.<.qXqXeXoX,X2X:X:X:X;X+XV.0.M v i 4                               ",
"                          . * s P ) { F.E.^.'.`.sX`.'.^.Q.H.H.H.eXrXaXjXkXxX9X0X5X5X1XOXV.r.5.m z 3 .                           ",
"                        . . * B ) S.tXuX_._.!.!.).!.!.W.R.Q.R.~.aXaXjXjXfXcXcXcXcXzX4X1X&Xj.i.5.v 3 . .                         ",
"                        . . * B ` tXsXdXsX!.!.W.L.K.M.M.N.B.K.R.E.yXyXyXyXyXyXyXpXcXcX5X:X-Xg.7.v 2 . .                         ",
"                        . . % g _ E.dXdXdXsX^.L.[ / R E R Q ! ^ _ { { { } { { yXyXcXcX9X8Xx.h.8.v # . .                         ",
"                        . . $ a ~ R.sXdXzXdX^.F.Q A a p p a d f g C C V g C U } rXiXzXxX8X-Xl.8.c # . .                         ",
"                        . . * d Q K.!.sXzXfXtX{ P 7 % o $ % % % ; ; ; = = ; r I A.yXcXxX8X-Xh.q.b 2 . .                         ",
"                        o % 8 A ( L.!.sXuX~.D.) V ; . . . . . . . . . . . . ; V ) D./.<X2X=Xj.r.M 5 3 @                         ",
"                      : 7 a A ! [ W.^.W.D.C.) P r $ . . . . . . . . . . . . - r P ) n.J.,X$X$XP.0.M n z 4                       ",
"                  . $ 7 N E ( B.tXsX^.S.` P V r 6                             : r B F n.J.3X1X<XI.p.0.m z # .                   ",
"                . . % p S ] T.^.uXsXuX{ P r ; $                                 $ ; r I n./.3X1X$Xj.i.5.c 2 . .                 ",
"                . . % a R N.!.^.uXuXD.) g ; . .                                 . . * B ) D./.<X;Xz.g.7.b 2 . .                 ",
"                . . % d R K.!.W.L.{ } U r o .                                     . - r U ) m.Y.&Xx.l.9.b 2 . .                 ",
"                . . % d R K.R.N.^ P V r 6                                             : r V S w.k.v.h.u.b 2 . .                 ",
"                . . % d R N.K.( F e ; $                                                 - * p M p.f.h.q.m 3 . .                 ",
"                . . % d / N.M.! d * . .                                                 . . 3 b e.h.h.u.b 3 . .                 ",
"                . . % N R M.M.R a $ . .                                                 . . # b 8.g.h.e.b 2 . .                 ",
"                . . % d ! M.M.Q a % . .                                                 . . 2 b 9.g.h.e.b 3 . .                 ",
"                . . * d ! N.M.! d % . .                                                 . . 3 b e.h.h.e.b 3 . .                 ",
"                . . % N ~ N.N.~ f % . .                                                 . . 3 n r.k.k.r.b 2 . .                 ",
"                . . % V ( S.R.^ g % . .                                                 . . * n w.OXI.w.F 2 X .                 ",
"                . . ; C ' E.E._ g $ . .                                                 . . % Z b.(.(.b.Z ; . .                 ",
"                . . ; C ` ~.~.{ C ; . .                                                 . . ; C n.~./.m.A ; . .                 ",
"                . . * V { yXyXF.I p 2 @                                                 o * t I A.tX~.{ C ; . .                 ",
"                . . * U C.uXfXQ.b.M n h 4                                             : s V I ` E.uXE.` V ; . .                 ",
"                . . ; C { yXjX3XY.y.6.m 5 @ .                                     . - t P ) A.E.^.^.E.^ f ; . .                 ",
"                . . ; C { yXkX5X%Xj.i.5.c 2 . .                                 . . ; V ) D.tXuX^.^.N.Q d % . .                 ",
"                . . * B ) D./.<X2X=Xj.y.M z 2 @                                 @ 3 0 F A.uXfXsX^.T.[ S p $ . .                 ",
"                  . * s U ) m.Q.,X2X&XP.0.m c i 4                             4 x v G b.J.pXfXuXS.( D N 7 % .                   ",
"                      6 s V I n.Q.<X1X+XP.y.5.m h @ . . . . . . . . . . . . @ i m 5.t.Y./.fXpXE._ A p 7 :                       ",
"                        - * r F A./.lX1X$Xj.i.5.c 2 . . . . . . . . . . . . 2 c 6.i.j.$X5XkXuX{ P e % O                         ",
"                        . . 3 C ` ~.zX5X7X*X&Xy.M 5 2 # # 2 2 2 2 2 2 # # 2 i M y.j.*X7X5XlXtX` V * . .                         ",
"                        . . - g ) E.dX5X0X7X&XV.0.M b c c n n n n b v v c b M 0.P.&X7X0XxXlXE.) g % . .                         ",
"                        . . % s ~ E.'.zXxX5X1XOXV.y.8.7.7.8.8.q.7.q.7.7.7.7.e.P.OX1X5XxXxX`.R.~ s = . .                         ",
"                        . . % a W K.^.`.dXlXlX<X+Xj.g.g.f.f.f.f.h.h.f.h.g.g.j.+X1XlXkXlX`.^.N.Q a % . .                         ",
"                        . . % p S ] T.^.uXsXlX4X%X=Xz.z.z.z.z.z.z.z.z.x.x.z.*X%X4XlXsXuXW.T.] S p % . .                         ",
"                          . $ 7 N S / [ E.uXdX4X2X%X*X*X*X*X*X*X*X*X*X*X*X*X%X2X4XdXuXE.m./ S N 7 $ .                           ",
"                              : 7 p N W m.W.`.].6X#X@X@X@X@X@X@X@X@X@X@X@X@X#X6X].`.W.m.W A p 8 :                               ",
"                                o % 7 A ^ T.!.).).U.U.U.U.U.U.!.U.!.U.U.U.U.U.).).!.T.^ A 8 % o                                 ",
"                                . . % p D ] B.K.K.N.N.N.M.M.N.N.M.N.M.M.M.N.N.K.K.N.] D p % . .                                 ",
"                                  . O 7 N S W Q R E W W R R W W R R W W W W R R R R S N 8 O .                                   ",
"                                      : 7 p p a p p p a p p p a a p p p p p a p a a p 7 :                                       ",
"                                        % % % % % % % ; % % % % % % % % % % % % % % $ %                                         ",
"                                        . . . . . . . . . . . . . . . . . . . . . . . .                                         ",
"                                        . . . . . . . . . . . . . . . . . . . . . . . .                                         "
};
