/* XPM */
static char *road_resized[] = {
/* columns rows colors chars-per-pixel */
"64 64 52 1 ",
"  c #5E6475",
". c #606677",
"X c #616779",
"o c #656B7D",
"O c #676D80",
"+ c #686E80",
"@ c #6D7386",
"# c #6F7588",
"$ c #707689",
"% c #747A8E",
"& c #767C91",
"* c #797E93",
"= c #7C8196",
"- c #7E8399",
"; c #81869B",
": c #83899E",
"> c #868BA1",
", c #898EA4",
"< c #8B90A6",
"1 c #8E93AA",
"2 c #9196AD",
"3 c #9398AF",
"4 c #959AB1",
"5 c #999EB4",
"6 c #9CA1B5",
"7 c #9FA3B8",
"8 c #A1A7B6",
"9 c #A3A9B7",
"0 c #A1A6BA",
"q c #A5AABD",
"w c #A8ADBF",
"e c #A7ACC0",
"r c #A9AEC0",
"t c #ADB2C3",
"y c #B1B6C6",
"u c #B5BAC9",
"i c #B9BECB",
"p c #BDC2CE",
"a c #BEC3D0",
"s c #C1C6D2",
"d c #C5CAD5",
"f c #C9CED9",
"g c #CCD1DB",
"h c #D1D6DE",
"j c #D2D7E0",
"k c #D5DAE2",
"l c #D8DDE4",
"z c #DCE1E7",
"x c #DEE3E8",
"c c #E1E6EB",
"v c #E5EAEE",
"b c #E7ECF0",
/* pixels */
"4444444444444444444444444444444444444444444444444444444444444444",
"4444444444444443444444444444443444444444344444444444444444444444",
"4444443444444444434444344444444444444444444444444444444444444444",
"4444444444444444443332333344444444444444444444444444444444444444",
"4444444444444444443434333444444444444444444444444444444444444444",
"4444444444444444455566665444444444444444444444444444444444444444",
"444444444444443457qrtttwe744444444444444444444444444444444444444",
"44444444444444346euasdspt054344444444344444444444344444544444444",
"44444444444344347tsgklkgie44344444444444444434444444443444444444",
"44444444444443348yfzccxhdy54344444444444444444444444311113444444",
"44444444444444348ugzvbvzdt543344444444444444444444431>;;><344444",
"44444444444443348ugcvvckdt53334444444444443444444553<-%%=,344444",
"44444444444443348wdhlzkgie54444444444444444444444453,=##&>345444",
"444444444444444469wspppiy054444444434444444444444443<-&%=,344444",
"44444444444544445556665544444444444444444444444444441>::>1444444",
"44444444444444442<:;;=->,244444444444444444444444444331113444444",
"44444444433112343>-&&&&*-134444444444444444444444444444444444444",
"4444444433,:::,33,>-***-><34444444444444444444444444445454444444",
"4444444441:*%*:1331,,,<<1344444444444444444444444444444444444444",
"4444444541;$@%:1443333333444444444444444444444444444444444444444",
"4444444441:&$*>1454544444444444444444434444444444444444444444444",
"4444444441,:-:,3454444444444444444444444444444444444444444444444",
"4444444443311134444444444444444444444444444444444444444444444444",
"4444444444444444444444444444444444344444444444444444444444444444",
"4444444444444444444444444444444444444444444444444444444444444443",
"4444444444444444444444444444444444444444444444444444444444444444",
"4444444444444444444444444444444444444444444444444444444444444444",
"4444444444444444444444444444444444444444544444444444444444444444",
"4444444444444444444444444444444444444444445444444444444444444444",
"4444444444444444444444444444444444444444444444444344444444444444",
"4444444444444444433333114444444444444433313133344444444444444444",
"444444444444344443>>>->>113444444444432<>>>>,,134444434444444444",
"44344444443334442>-%%%%*-<444444444443<>-****-<15443444444444444",
"44444444444345441:%@ooo@=,145444444444<>=&&&=-,23545444444444444",
"44444444445ee7741-#o  X@&>3444444444431<>::>><134444444444434444",
"4444444347etuue51-#X  Xo%:14544444444457899007634434444444444444",
"4444443447tafat71=#o  Xo%>345444444345qtidfdaur54334444444444444",
"444444334eudffu71;%@oXo#&>344444443335tahllxkdu74344444444444444",
"4444444447tasat72:=%%#%&-<345444444335tdlcbvlgu74344444444444444",
"4444444445etyr053<::;;;:<1344444444337tdlcbbxgi74334444444443444",
"44444444445675543331111233344444443335takxcxlfy74334434444444444",
"44444431111344445344444444444444444345eifjjjgit74334444444444344",
"444443<>:->133443445545444434444444335etiaaaiye74444444444444444",
"444443<*$&-,3444454445444544444444444450eeeeee544444444444444444",
"444543>&##=,4444444444444444444444444444445545444444444444344444",
"444443,-$&-<3454444444444444444444444443433334344444444444444444",
"4444431>::,14445454444444444444444444343333333444444444444444444",
"4444443111334444444444444444444444444444444344444444444444444444",
"4444444444444331123353444444444444444434444444444434444444444444",
"44444444445441>>:>1335444444444344444444444444344444444444444444",
"4444444445443<*&%->354444444444444444444444444444444444444434444",
"4444444444543,*##=>345444444444444444444444444444444444444444444",
"4444444444443>-%&-<344444444444444444444444444444444444444444444",
"44444444444431>;->1344444444444444444444444444444444444444444444",
"4444444444443311<13444444444444444434444444444444444443444444444",
"4444444444444444444444444443444444354444435344444444444444443444",
"4444444444444454454444444444444444444443444444444444444444444444",
"4444444444444444454444444444444444444444444444444444444444444344",
"4444444444444444444444444444354444444444444434444444444444444444",
"4444444444444444444444444444434444444444444444444444443444444444",
"4444444444444444434444444444444444444444344444444443444444344444",
"4444444444444444444444444434444443444444534444444444444443544444",
"4444444444444444444444444444444444444444444444444444444444444444",
"4444444444444444444444444444444444444444444444444444444444444444"
};
