/* XPM */
static char *spellbook_resized[] = {
/* columns rows colors chars-per-pixel */
"64 64 216 2 ",
"   c None",
".  c #28403F",
"X  c #4D4412",
"o  c #68550E",
"O  c #565A30",
"+  c #0E3A55",
"@  c #153E56",
"#  c #143F59",
"$  c #194259",
"%  c #37514B",
"&  c #244D5D",
"*  c #324E4B",
"=  c #1A4B67",
"-  c #174B6B",
";  c #1A4C68",
":  c #1D5473",
">  c #1E516D",
",  c #355669",
"<  c #3B5B6D",
"1  c #325366",
"2  c #265A76",
"3  c #245A79",
"4  c #255874",
"5  c #345E76",
"6  c #3D5D70",
"7  c #255168",
"8  c #396379",
"9  c #2D6173",
"0  c #446D6A",
"q  c #456577",
"w  c #4D7A75",
"e  c #45797F",
"r  c #497978",
"t  c #527D73",
"y  c #58707E",
"u  c #4D7164",
"i  c #576E53",
"p  c #947C1C",
"a  c #98760B",
"s  c #83792C",
"d  c #837B30",
"f  c #6E8259",
"g  c #72855A",
"h  c #7F905C",
"j  c #588379",
"k  c #678160",
"l  c #7D9261",
"z  c #A88C1D",
"x  c #B8961B",
"c  c #BF9109",
"v  c #95882E",
"b  c #A38B23",
"n  c #A98E21",
"m  c #AC9327",
"M  c #B59929",
"N  c #B39E3A",
"B  c #AF9A37",
"V  c #BAA233",
"C  c #96801F",
"Z  c #DC9F00",
"A  c #D79E00",
"S  c #DEA000",
"D  c #DDA50D",
"F  c #D9A40A",
"G  c #DDA614",
"H  c #CEA81E",
"J  c #E2A300",
"K  c #E0A90B",
"L  c #F5B401",
"P  c #FAB804",
"I  c #F6BA13",
"U  c #E7B214",
"Y  c #C6A727",
"T  c #D7B32B",
"R  c #CCB23C",
"E  c #D4BA3C",
"W  c #D9B333",
"Q  c #CFAD2F",
"!  c #E2BA2B",
"~  c #F6C53C",
"^  c #848642",
"/  c #888842",
"(  c #9A9A4A",
")  c #8F9350",
"_  c #B2B15C",
"`  c #9BB17F",
"'  c #B5B663",
"]  c #A0B47E",
"[  c #CCB442",
"{  c #DBBB48",
"}  c #D3BF50",
"|  c #E0BB46",
" . c #C9BB65",
".. c #F6CA4E",
"X. c #F5CB52",
"o. c #C9C177",
"O. c #D4C974",
"+. c #D6C56C",
"@. c #1E5F84",
"#. c #205F80",
"$. c #1D6996",
"%. c #1F709F",
"&. c #1E658E",
"*. c #216082",
"=. c #23668B",
"-. c #24698E",
";. c #2E6C85",
":. c #236A90",
">. c #206F9B",
",. c #2E7495",
"<. c #26739C",
"1. c #28759E",
"2. c #327897",
"3. c #326F90",
"4. c #1F71A2",
"5. c #2273A1",
"6. c #2877A2",
"7. c #2E7CA5",
"8. c #2D7DAA",
"9. c #2478AB",
"0. c #307EA7",
"q. c #437982",
"w. c #497885",
"e. c #577789",
"r. c #547D94",
"t. c #4F7C94",
"y. c #697C87",
"u. c #2F80AD",
"i. c #3482AB",
"p. c #3F83A6",
"a. c #3B8CB7",
"s. c #2E81B1",
"d. c #4C8389",
"f. c #5A8A8A",
"g. c #598884",
"h. c #4C8593",
"j. c #598D92",
"k. c #6A8290",
"l. c #6E928B",
"z. c #4388AB",
"x. c #4593BC",
"c. c #4993B9",
"v. c #4A94B7",
"b. c #5196B9",
"n. c #769DB3",
"m. c #629BA1",
"M. c #7AADAD",
"N. c #7EB1AC",
"B. c #7FB0A6",
"V. c #78B2B5",
"C. c #6FA7B1",
"Z. c #75A79F",
"A. c #3F94C4",
"S. c #4295C2",
"D. c #4B9BC6",
"F. c #4EA1CC",
"G. c #51A4CE",
"H. c #56A3C3",
"J. c #4DA3D3",
"K. c #56ABD7",
"L. c #58ADD7",
"P. c #56ADDB",
"I. c #5AAED9",
"U. c #52A6D2",
"Y. c #5CB0DB",
"T. c #77B7C7",
"R. c #6AB6DD",
"E. c #62B1D5",
"W. c #76B8D9",
"Q. c #69AECC",
"!. c #54AFE1",
"~. c #5AB2E1",
"^. c #56B0E2",
"/. c #70BBE0",
"(. c #6DB9E0",
"). c #848E94",
"_. c #8E979C",
"`. c #91989C",
"'. c #9EAD84",
"]. c #959EA3",
"[. c #94A4AD",
"{. c #82B4AA",
"}. c #81B2A7",
"|. c #91BBAE",
" X c #ABACAC",
".X c #A5AEB2",
"XX c #ACB5BA",
"oX c #BCBBBB",
"OX c #B4B7B9",
"+X c #B3B1AF",
"@X c #C0BFBF",
"#X c #B5C79F",
"$X c #D5D18B",
"%X c #C1C0BF",
"&X c #83B4CE",
"*X c #8AB3C9",
"=X c #84B8C4",
"-X c #AEBAC1",
";X c #B8C1C6",
":X c #8CC8E6",
">X c #A0D3ED",
",X c #A1D5F0",
"<X c #CCCCCC",
"1X c #C4C4C5",
"2X c #D4D3D3",
"3X c #D9DADB",
"4X c #CBCED0",
"5X c #D4EBF4",
"6X c #D9EFF8",
"7X c #DFF0F7",
"8X c #EBEBEA",
"9X c #E5E5E5",
"0X c #F1EFEE",
"qX c #EFF8FB",
"wX c #F8F7F7",
"eX c #F1F0EF",
/* pixels */
"                                                                                                                                ",
"                                                                                                                                ",
"                    5X5X                                    @ @ @ @                                     5X5X                    ",
"                    7X7X                                    < < , q                                     5X5X                    ",
"                5X7XqXqX7X5X                        @ @ + 1 y.).).].1X9X9X2XOX X+X+X    + @ @ @                                 ",
"                5X7XqXqX7X5X                        , , , y [.oXoX@X<X2X2X<X@X X].k.    5 8 8 5                                 ",
"                    7X7X                    # + + 1 k.).).].1X2X2X<XoXOXOX1X<XOXy.& @ 5 n.*X*Xn.8 @                             ",
"                    5X5X                    , 6 q k. X1XoX1X<X2X2X<X%X X_._..X[.e.5 8 r.&X>X>XT.8 @                             ",
"                                    @ + + 1 y.].;X3X9X8X3X<XoXOXoX1X2XXXe., 6 e.n.*X*X&XW././.H.2 @             5X5X            ",
"                                    1 6 q k..X2XeXwXeX9X3X<X1X X_.`..X[.e.5 5 r.&X>X>X:XR.I.Y.v.2 @             6XqX            ",
"                            @ + + 1 y.].;X3X8X8X8X3X1XoXoX1X2XXXe., < e.n.*X*X&XW.R.R.R.Y.I.I.x.2 $         5X7XqXqX7X5X        ",
"                            , 6 w.y..X2XeXwXqXwX9X3X<X+X_._..X[.e.8 5 t.&X>X>X:XR.I.I.I.P.P.Y.v.4 @         5X7XqXqX7X5X        ",
"                    @ @ + 1 y.].-X3X8X0X8X8X9X9X9X8X0X1Xy.1 6 e.n.*X*X&XW.R./.R.E.I.Y.I.P.P.Y.v.4 @             7X7X            ",
"                    , 6 q y.[.<X0XwXeX9X3X3X3X3X;X-X;X-Xr.8 9 t.&X>X>X:XR.L.L.L.I.P.P.Q.V.V.Q.D.3.4             5X5X            ",
"            @ @ @ < k.]..X1X2X3X8X9X<XoXOX1X3X;Xy.q w.r.n.*X*X&XW.R./.R.E.I.I.L.P.^.!.V.' ' N.K.D.z.4 @                         ",
"            4 4 $ 1 y.].XX-X-XOXXXOXOX X_._..X[.e.5 5 r.&X>X>X:XR.L.I.L.P.I.I.I.T.{.V.'.! W B.P.Y.c.4 @                         ",
"        @ 4 z.p.> $ 1 6 0 q q q 6 k.-XOXe., 6 e.C.*X*X&XW.(.W.R.Y.I.L.I.P.!.I.T.#XO.} T I E N.!.~.c.4 @                         ",
"        @ 4 z.c.,.9 4 2 2 3 2 2 : w.[.[.w.4 5 t.=X,X>X:XR.L.L.L.I.P.I.I.T.|.T.|.+.~ I L L Q '.V.E.c.4 @                         ",
"        $ > <.a.v.v.v.v.v.v.x.x.c.z.w.w.t.H.Q.*XW.(./.R.Y.I.I.L.P.P.^.T.#X$X$X+.W F S S S F T ' V.x.2 $                         ",
"        @ = *.0.S.G.F.D.F.F.F.G.G.p.4 : z.E.:X:XR.L.L.L.I.I.P.L.V.N.{.|.+.....{ M b v z c S L E {.x.3 @                         ",
"        $ ; =.1.i.i.i.i.i.i.i.i.0.,.; ; <.S.Q.(.Y.I.I.L.P.!.!.M.' { O.O.W G D M f r r f z S L E {.c.3 +                         ",
"        @ = =.1.%.%.i.-.,.%.,.%.6.=.= = &.7.S.J.K.Y.P.E.V.B.N.` T I ~ { M b m ) h.9.4.r b Z L E }.D.3.4                         ",
"        $ ; -.5.u.:.<.<.%.,.%.,.<.=.= = #.6.7.z.K.Y.!.V.' E E T D Z S M f g.m.C.H.A.s.r b Z L E }.K.D.p.4 @                     ",
"        $ & 9 8 8 j ,.1.%.%.u.u.6.=.- - -.<.<.8.a.H.C.] ! P P F x m m ) h.a.F.Y.Y.F.u.w b S I } N.^.~.c.4 @                     ",
"            O o C / w.5.%.u.a.S.8.-.- - :.6.1.1.8.f._ T I P K x i f.m.C.H.G.K.Y.Y.F.8.w z D ~ o.V.!.~.c.4 @                     ",
"            X o s v f j j l.N.M.f.u i % 9 :.<.<.%.j V P P U V ( h.a.J.P.L.I.I.I.Y.F.a.d./ M { +.|.T.E.c.2 @                     ",
"            * * u f v m V E O.O.N z a s % : :.<.<.j n J L E '.C.H.G.P.Y.I.I.I.I.Y.L.F.v.d.f B W +.#XT.x.3 @                     ",
"            + - $.3./ m x R +.' B n n s % - &.5.%.w b J L R Z.J.P.Y.Y.L.I.I.L.I.L.Y.Y.F.s.w z G ..$X=Xc.4 @                     ",
"            @ - &.,.8 j j j g.g.t t j 0 & - =.<.5.w b S L Q g.a.G.Y.Y.I.I.I.I.I.L.Y.Y.F.8.r b G ..$X=Xc.4 @                     ",
"            . % 0 e %.4.%.u.%.%.5.5.5.&.- ; =.5.<.w b S L Y j 9.a.G.L.Y.I.I.I.I.L.Y.I.F.u.r b F ~ O.|.D.3.4                     ",
"            X o C v 3.4.%.$.%.%.%.5.5.&.; = =.<.5.w n J L Q j %.u.a.G.Y.I.L.I.I.I.I.Y.D.u.w b S I } V.P.D.z.4 @                 ",
"            o o a v f j j j j j f.f.y 0 & = =.1.5.e ^ x G Y h d.,.i.x.H.L.I.E.I.L.Y.Y.F.8.w b S L E N.!.~.c.2 @                 ",
"                % O v n n m Y R +.' B s % - 3 u.%.,.e f x F H ( j %.7.a.F.Y.Y.I.I.I.I.F.u.w b S L E N.!.~.x.2 $                 ",
"                $ * d n n m Y } O.' V d % : : -.:.%.%.r b K I E j %.<.7.x.F.F.G.L.I.Y.G.a.d./ x K T '.V.Q.x.2 $                 ",
"                $ & 9 t t j r j {.V.t 0 i.: : : :.u.u.r b F ~ ' f.%.<.1.7.i.i.a.G.Y.Y.I.G.v.d.f x F T ' V.x.4 @                 ",
"                $ ; : $.u.u.: u.S.S.u.u.u.=.= = 3 >.%.j n H X.o.j.<.<.<.<.<.<.2.x.F.F.H.L.F.s.w b S L E }.x.2 @                 ",
"                $ ; &.u.u.&.u.u.u.u.u.&.u.: - - :.>.%.j b H X.o.j.%.<.<.<.:.1.1.i.i.i.a.U.F.s.r b S L E {.x.3 @                 ",
"                $ ; : u.:.u.3 u.u.:.3 u.u.3 - - =.u.u.0 b K ~  .f.%.<.1.,.<.<.<.:.>.>.7.S.A.8.e m S L E B.D.3.4                 ",
"                @ ; 3 u.u.$.u.=.u.3 u.u.u.3 ; ; 3 $.$.j b K I R g.%.<.:.<.<.1.<.<.<.<.6.7.9.4.j V L P E {.K.F.p.4 @             ",
"                @ - : &.3 u.=.u.u.u.u.3 u.3 = ; $.u.$.e ^ x F H h d.2.<.<.,.1.<.<.<.<.2.h.f.e.) H L P R B.P.Y.x.2 @             ",
"                    > : -.u.u.:.3 u.u.3 u.: - - @.u.u.=.e f x F H ( d.<.<.1.1.1.>.%.%.h.'. .[ H F A S N M.~.~.c.2 $             ",
"                    $ > =.:.:.u.: u.u.3 u.: : : : u.@.u.u.w v F L Y j <.%.<.%.2.h.j.m.l  .~ I K x b b ) m.G.Y.c.4 @             ",
"                    $ ; =.:.i.:.u.u.u.u.u.&.u.: : : : u.u.r C F L Q j <.4.%.4.h.'.o.$X' W K J x f r w j p.a.U.c.2 @             ",
"                    $ ; =.u.:.>.u.3 3 u.&.u.u.3 - - 3 &.3 r b F L Y j ,.d.j h.l  .....{ M b b ^ ;.4.<.>.>.7.D.z.4 $             ",
"    6X6X            & ; =.:.<.<.u.,.-.u.$.u.-.@.; = =.u.u.w b F L V j d.( V +.o.W K G M g w w e 2.1.<.<.<.6.i.1.> @             ",
"    6X6X            & : =.u.,.<.-.>.>.:.u.-.u.*.; ; =.u.u.w b F P T l h H I ~ | M b z ^ w.4.5.>.,.1.1.>.-.=.=.: = $             ",
"                    @ = =.u.u.:.>.<.:.u.-.u.>.@.- ; : u.$.w z F L U T Y F F K M g r w e ,.5.<.<.<.1.1.-.4 = ; =                 ",
"                    @ & #.=.:.<.<.<.-.u.:.-.u.=.- - 3 $.u.e ^ x G L P K M b n ^ w.4.%.5.<.1.1.<.-.-.-.3 = @ @ @                 ",
"                        ; : $.6.<.<.<.<.<.<.1.=.= = =.%.u.u.9 f x J J x f w w e ,.<.5.<.1.1.1.-.: = = =                 5X5X    ",
"                        . % 6 j ,.%.<.1.i.i.1.$.: : 3 -.: u.u.9 ^ b n ^ q.4.4.<.<.<.1.,.-.=.=.*.; $ $ $                 5X5X    ",
"                        X o C v 8 u.%.i.a.S.u.,.%.3 : : u.$.u.u.e t w e ,.<.<.<.1.1.1.-.: ; ; =                                 ",
"                        X O C v f w t l.M.N.f.j j 8 & ; : u.3 3 >.<.5.<.<.1.<.<.-.=.=.*.= @ @ @                                 ",
"            5X5X        . * 8 f v b b ( +.O.E Y x d % = =.u.u.u.5.<.<.<.1.1.1.-.: ; = =                                         ",
"            7X7X        $ - $.q.v z b N o.O.[ M x s % ; : u.3 u.1.1.<.<.-.=.=.#.= @ @ $                                         ",
"        6X7XqXqX7X6X    $ - -.i.r t j f.M.M.l.j j 8 & = 3 u.&.u.1.1.1.-.4 ; ; ;                 5X5X                            ",
"        6X7XqXqX7X6X    $ - 3 3 >.<.%.s.S.a.8.5.%.&.= = :.u.u.3 -.=.=.#.= @ @ @                 7X7X                            ",
"            7X7X            ; : :.1.5.6.i.8.6.1.5.=.= = =.1.1.:.: = = =                     5X7XqXqX7X5X                        ",
"            5X6X            ; : *.=.=.=.=.=.=.=.=.#.: 4 *.=.-.#.= @ $ @                     5X7XqXqX7X5X                        ",
"                            -.3 : = ; = = = = = = : *.*.: = = =                                 7X7X                            ",
"                            1.:.; @ @ $ $ @ $ @ @ ; -.-.; @ $ @                                 5X5X                            ",
"                                                                                                            5X6X                ",
"                                                                                                            5X5X                ",
"                                                                                                                                ",
"                                                                                                                                "
};
