/* XPM */
static char *wall_resized[] = {
/* columns rows colors chars-per-pixel */
"64 64 68 1 ",
"  c None",
". c #3E455B",
"X c #40475C",
"o c #42495E",
"O c #464C61",
"+ c #484F63",
"@ c #4A5166",
"# c #4F556A",
"$ c #50576A",
"% c #53596D",
"& c #565D71",
"* c #585F74",
"= c #5C6275",
"- c #5E647A",
"; c #606677",
": c #61677A",
"> c #63697C",
", c #666C81",
"< c #696E82",
"1 c #6C7286",
"2 c #6E748A",
"3 c #71778A",
"4 c #73798C",
"5 c #777C92",
"6 c #787E94",
"7 c #7C8196",
"8 c #7E8399",
"9 c #81869C",
"0 c #83889E",
"q c #868BA1",
"w c #898EA5",
"e c #8B90A6",
"r c #8D92A9",
"t c #9196AD",
"y c #9499AE",
"u c #989DAC",
"i c #969BB2",
"p c #999EB5",
"a c #9CA2AF",
"s c #9CA1B6",
"d c #9FA4B9",
"f c #A1A7B3",
"g c #A3A9B4",
"h c #A1A6BA",
"j c #A5AABD",
"k c #AAAFBF",
"l c #A8ADC0",
"z c #ADB2C4",
"x c #B1B6C7",
"c c #B3B7C8",
"v c #B5BACA",
"b c #B9BECC",
"n c #BBC1CD",
"m c #BEC3D0",
"M c #C2C7D3",
"N c #C5CAD5",
"B c #C9CED6",
"V c #C7CCD8",
"C c #C9CED9",
"Z c #CCD1DA",
"A c #D1D5DF",
"S c #D1D6E0",
"D c #D7DCE3",
"F c #D8DDE4",
"G c #DBE0E7",
"H c #DEE3E9",
"J c #E0E5EB",
"K c #E4E9EE",
/* pixels */
"    OXOXOooOXOoooooooooooooooooooooooOooOXOXOoOXOooOoooOoooo    ",
"    XOXOOooOOXooooOoOoooOoOooooOoooooooooOXOooXOXOOXOooooooo    ",
"   oOXOX.OXooXXoXXXXoXXXXXXXXXXXoXXXoXooXXXXXXXXXXXXooooooooO   ",
"  OooO.O.X........X.X.X.X..X....XXX....X....X.X.X......XoooOO+  ",
"ooOoooO.XXXX.XX.XXXXX.X.XXXXXXXXXXXoXXXX..XXX...XXXXXXXooo.OO.OO",
"oOoooOOO@@#####%###$%$$%$$$$####$$$$$$#$###$$$$$$$####+++OOO.OO.",
"oooooO@%=->2444444443434444447>74444>77>74>773447444>>>=%@O..OO.",
"oooooO%-27wufgffffffffffffffffggffgggggggggffagdafffaw73-%+O.ooO",
"oOXXX@=20uzbNBZBBBBBBBBBBVZCCCCCBBBBBBBBBBBBBBBBZZZBnzs82=@..OO.",
"oooXX@-7izMAGHJHHHHHHHHHHHHHHHGGHHHHHHHHHHHHHHHHHHHHAmza7-#.O.OO",
"oooXX#>ezMSGKKKKKKKKKKKKKKKKKKKKKKKKKKKKKKKKKKKKKKKHGSmzw>#..O.O",
"oOX..#1anAGHJJJJJJJHHJJJJHJJJHJJJJJHKHHHKHHHKHHHHHHHHGSna1#....O",
"ooo..$3aMFGFDFFFFFFFFFFFDFFFFFFFFFAGGAFFGFGDFDGDGGGDGGSma7%...OO",
"ooo.X#2ubZZZBBBVVVVVVCVZZCCVCCCCBBBBZBVBVVZVVVVVZCZmZZZnu1#..OO.",
"OooXo@>ejvbbvvvvvvvvvvvvvvvvvvvvbncnvvvnvvvvvvvvncncnnng8>#...O.",
"ooXXo@>7yhhdddddddddddddhdddddddagddddddddddddddsdddddda7>#.O.OO",
"oooXX@-7eiirrrrrrrtrreeewwwewwew8wr8wwwwweeerrrrerrrisit7-@XXooo",
"OooXX@-4erew88777777732222223223525222222257777777888tt85-@oXooo",
"oooX.@-5erq8522223241-=&&&&=****,&**=*=&==-<1222233478rw5-OXXooo",
"oooXo@-5er82,>>1>1>>-=%@@@@@@@@@@O@@@@@@@#=-<<11<>>,58re5-@XXoOo",
"ooo.o@-7ee81==>123221>=%%#@++@@@OO@O+@@%&=,,22221>-=<7ee5=@oXooo",
"oOooo@-5ww5-%=1790875521;=$#$$%%%%%%##=-125588887<=%-7we5,@XXooo",
"oOo..@-7ew4=$=29rreeeew841;==========-178wwe8itr83=#=48e5,@oXooO",
"ooo.o@-5eq4=#=19rtiiiiir971>>>;>--,,,158tiiiiitr82=#=4rr2,@oXooo",
"ooo..@-5ew5-&&>37qrisppir8822>>>-->1778eisssit882-=%,78e5,@..ooo",
"oOo.O@-7ee71=&&=,5eipppitew84>>;->>370euiiisp85,-=%=,8te5*@ooooo",
"oOoo.@-7wr83;&$#&<8riiiiiirw71>->>27qryuiiist8,&##%-28re5,oooooo",
"ooo..@-5er04>=$@%-48wrtiiiie95211278rysiiir885,@##=,58re5,O.oooo",
"ooo.o@-5er03>=&%&&-15qtpppirw885578qtisise871-=&%==-58re2,@..ooo",
"oOooo@=7er03>>-==&%&,5wippiitreweertyiisse7,=%%===->58re5,@o.ooo",
"ooo..@-5er83>>>>=%@#&18riiyiispsssspiiiyr81=@#%=>>>>28rr5,@oooOo",
"ooooo@-7er03>>>>-=%#&,28qwypllxxxzljsir873-&$$=->>>>58r82,@o.ooo",
"OXOXX+-6wr93>>>>>=**&&=,2qtdxmMCVmnzjt85>-=&&&;;>>;>39rw7;@XXooo",
"XOXXX+-6wr93>;;>>>;;*%#&16tlbCSFGDCnlt7,&$$=;;>>>>>>39rw7=@oXooo",
"OXXXO+-6wr94>>>>>>>>=%@%,5tlbSFKJHSmlt6,%@$=>>>>>>>>49rr4-@XXooo",
"XOOXX@-6wr04>>;>>>>>=%%&,6ilmSJKKHSmlt6,&$&=>>>>>>>>49rw7=@XXooO",
"OXOXX@;6rr04>>>>>>>>-==;28tlmSHKJGSmli82>==>>>>>>;>>49rw7-@XXooo",
"XOXXo@;6wr93>>>>>>>>>>>15qtlbZSHGDCvjt85>>>>>>>>>>>>49rw5-@XXooo",
"OOXXX@;4wr94>>>;>>;>,<258eidzbVCCVmxdie8732>;>>>;>;>49rw5-@XXooO",
"XXOXo@;9ww93>;;>>;;><48qetiplzcvvczlsite084>>->>>;>>39rw5-#oXooo",
"OXOXX@:5er93>>>>>;>>370uyiiipppddssppittt882>>->>;>>39re7-@.Xooo",
"XOXXX+-5wr93>;;>>>>150ryipitrwwqqqwrtpppir861,>>>>>>39ee5-@oXooo",
"OXXXO@-6er93>>;;>1479wuippprq2211258tpppptr8541,;;>>39re5-@ooooo",
"XOOX.@:5er93>>;>>490rtyippie5,*$%*,58pppiittq82,>;;>39re5-@o.ooO",
"OOO.O@-5er93>>>>16qtiiyiiyr81=@+o@*18rppiiiit872>>>>39re5-@oXooo",
"..O..@-5wr93>>>259eyppiyrq83>%@oO@$,288tiippir853>>>39re5-@XXooo",
"OOO.O@-6wr93<1370wtippptq5<;*%%%%%%=,158tpppitw873>>28ee7-@oXooo",
"O.O..@-6ee93>26qtyyiipir6,&%%==;,*=%#%,5eipiiittq73338re5-@XooOo",
"..O..@,5eeq5259ripiitte82,O@%=>>>>=%@#*18rttiipir94350re5-@o.XOo",
"OOO.O@*5ete868wyipptt852,%##&=>>>>=&%@*,268etipiuw978ete5-+oXOoo",
"OXX.OO*5eiteweryipptq5,*&&**=>>>>;-=*&%&*,5qtppiyrwwerie5-@X.XoO",
"XOOX.O,5eiityyyiiipt82*#%*-,,>>>>>>,,-*%$*28tpiiyuttiiie5-@ooooo",
"OXX.O+*5epppipiippptq5,*-,2333334344521,,,28ippipipipsir5-@o.ooo",
"XOOXO+,6tppppppppppir854568q9q9909098865258tippppppppspe5-@XooOo",
"OO.X.+*6epppiiiiiiiitrewwerrrrrrrrrrreewwwtiiiiiiiiiipie5=@o.ooo",
"XOXXO+*2qeteeeeeeeeeeeeeeweeeeweewwrweeewweeeeeweererrrq2=+ooooo",
"OXOXOO%,255556655555556666556565555566566655555555555552,%OOXXOX",
"oOXXXO@%**,***,*=-==-------------;--------------=-=----=&@OXXOXO",
"ooXOOoOO@O@@@@O@@@@@@@@O@@@@@@+@@@@@@@@@@@@@@@@@@@+@+@@+OOXOOXOX",
"OoOXOoXOOOO..OXXo.ooO.XO.OXo.OooooXooXXOXOXXXXXXXX.O.OXoXOOXXOXO",
"  OOOXO.....X.XX.o.Xo.o.X....o.XXXX..XXX..XXX.X.XXXX.o.oXoooOO  ",
"   O.O.OOoOoOXXOooooooo.OOXOoXoooooXOXooOXOXOOXOOXXOoXooooooO   ",
"    .O.OOoOXOXOXoooooOoOOoOoOooOOooOoOOoXOXOXOOXOXOXOoooOooO    ",
"    OoOO.OXOXOoOooOooooO.O.OooooooooooooOXOXOXXOXOXOoooOoooO    "
};
