/* XPM */
static char *__resized[] = {
/* columns rows colors chars-per-pixel */
"56 64 205 2 ",
"   c None",
".  c #262E19",
"X  c #292E1D",
"o  c #2C311F",
"O  c #2E3520",
"+  c #2C3820",
"@  c #313620",
"#  c #3B3621",
"$  c #333921",
"%  c #3A3A22",
"&  c #433622",
"*  c #4A3723",
"=  c #443923",
"-  c #4B3924",
";  c #533924",
":  c #5A3925",
">  c #5A3624",
",  c #643A26",
"<  c #6C3A27",
"1  c #6D3827",
"2  c #743B28",
"3  c #7C3A29",
"4  c #713627",
"5  c #3C4325",
"6  c #3F4826",
"7  c #364023",
"8  c #414A27",
"9  c #444E28",
"0  c #494C2F",
"q  c #544728",
"w  c #455627",
"e  c #465129",
"r  c #4A562B",
"t  c #4D5A2C",
"y  c #4C5527",
"u  c #515E2D",
"i  c #5A5028",
"p  c #4C4D32",
"a  c #464B37",
"s  c #545E37",
"d  c #6C4C2A",
"f  c #54622F",
"g  c #59682E",
"h  c #57682F",
"j  c #5C722E",
"k  c #566430",
"l  c #596730",
"z  c #5D6C32",
"x  c #606F33",
"c  c #636937",
"v  c #627334",
"b  c #667935",
"n  c #6A7C37",
"m  c #6C7E38",
"M  c #65723E",
"N  c #677131",
"B  c #5B5F50",
"V  c #5E6153",
"C  c #6D6E43",
"Z  c #6A7A43",
"A  c #76704C",
"S  c #646858",
"D  c #6A7254",
"F  c #7D7252",
"G  c #7B7E71",
"H  c #823B2A",
"J  c #8C3C2B",
"K  c #9C3C2C",
"L  c #933C2C",
"P  c #A23D2D",
"I  c #AB3D2E",
"U  c #B43E2F",
"Y  c #BB3E30",
"T  c #87422B",
"R  c #6E8239",
"E  c #6F8337",
"W  c #71853A",
"Q  c #768B3B",
"!  c #798E3E",
"~  c #718537",
"^  c #7C923E",
"/  c #788845",
"(  c #7E9540",
")  c #7E9149",
"_  c #758250",
"`  c #7E8174",
"'  c #859E3E",
"]  c #88A23F",
"[  c #809740",
"{  c #859C42",
"}  c #879B48",
"|  c #889757",
" . c #979959",
".. c #87A042",
"X. c #8AA344",
"o. c #8EA845",
"O. c #8DA34B",
"+. c #91AB46",
"@. c #93A54D",
"#. c #93AE48",
"$. c #98AC4E",
"%. c #95B146",
"&. c #96B149",
"*. c #9AB54B",
"=. c #9EBB4C",
"-. c #98B647",
";. c #9BA655",
":. c #96AB59",
">. c #99AE5E",
",. c #94A654",
"<. c #9EB353",
"1. c #A1BE4E",
"2. c #A3AA5B",
"3. c #A3BC52",
"4. c #ADBE5C",
"5. c #A7B858",
"6. c #B0BE5F",
"7. c #999C69",
"8. c #B79F79",
"9. c #B89F7A",
"0. c #B39E75",
"q. c #AB9C6D",
"w. c #9CAF65",
"e. c #97A374",
"r. c #ACAB65",
"t. c #B2AC6B",
"y. c #A1B46C",
"u. c #A8B566",
"i. c #B4BC64",
"p. c #BEBC6F",
"a. c #B5B569",
"s. c #BBAF74",
"d. c #A9BC74",
"f. c #A6B776",
"g. c #BBB073",
"h. c #C1BB73",
"j. c #C6B27E",
"k. c #C9BB7D",
"l. c #A3C14F",
"z. c #A6C450",
"x. c #A9C056",
"c. c #B2C15F",
"v. c #B5C461",
"b. c #BCC16A",
"n. c #CBC977",
"m. c #C9C576",
"M. c #D0C97C",
"N. c #D3D07B",
"B. c #9B9D95",
"V. c #9A9C94",
"C. c #989E87",
"Z. c #9FA19A",
"A. c #9CA28B",
"S. c #AAB197",
"D. c #A9ABA4",
"F. c #B0B1AC",
"G. c #CAB382",
"H. c #CDB882",
"J. c #D0BA84",
"K. c #DABB8F",
"L. c #D6B98B",
"P. c #DCBA92",
"I. c #B7C68A",
"U. c #BDCC93",
"Y. c #BAC696",
"T. c #DAC688",
"R. c #C1CD9E",
"E. c #DFC390",
"W. c #E1CD8D",
"Q. c #E4C296",
"!. c #EAC49C",
"~. c #EDCD9A",
"^. c #E6C696",
"/. c #F0CB9E",
"(. c #E6D090",
"). c #EBD494",
"_. c #F5D49E",
"`. c #CAD5AA",
"'. c #CDD9AD",
"]. c #C4D1A0",
"[. c #CDD5B7",
"{. c #D5DEB9",
"}. c #C5CDAF",
"|. c #F3CBA2",
" X c #FAD4A4",
".X c #FFD7A8",
"XX c #FFD9AB",
"oX c #FAD7A3",
"OX c #FFDEB0",
"+X c #CBCBCA",
"@X c #D5D6D4",
"#X c #DADAD8",
"$X c #DEE6C7",
"%X c #DEE4CA",
"&X c #DFE8C7",
"*X c #DFE0DE",
"=X c #E2E9CC",
"-X c #E9EEDC",
";X c #EBF0DE",
":X c #EAEBEA",
">X c #EDF1E2",
",X c #EFF1EA",
"<X c #F1F3EC",
"1X c #F6F7F3",
"2X c #F8F8F9",
/* pixels */
"        o o o o o o o o o o o o O o o o o o o o o o o o o o o o O o o o @                                       ",
"        $ $ $ $ $ $ $ $ $ $ $ $ $ $ $ $ $ $ $ $ $ $ $ $ $ $ $ $ $ $ $ $ $                                       ",
"      8 9 9 e 9 9 9 e 9 9 9 e 9 9 9 9 9 9 9 9 9 e 9 9 9 9 9 8 8 8 8 8 8 6 6                                     ",
"    8 t l z z x x x z x x x x x x x z z z x z v z z x x z z l f f k f f t e 5                                   ",
"o $ 9 l m ! ( ( ( ( ( ( ( ( ( ( ( ( ( ( ( ( ( ( ( ( ( ( ( Q Q R m m W m v u 6 @ o o o @ $ o $ $                 ",
"o $ 9 z ( +.*.*.&.&.&.&.&.&.&.&.&.#.&.&.&.&.&.&.&.&.&.&.+.O...[ { [ ' ^ m l 9 % $ $ $ $ $ $ $ $                 ",
"o $ e v ( *.z.l.=.=.=.*.=.*.*.*.=.=.1.1.1.1.1.l.1.1.=.*.*.%.o.] { X.X.{ Q v t e 8 9 9 8 5 7 $ $ $               ",
"o $ 9 v [ =.z.3.*.&.&.&.&.&.&.&.&.*.=.l.z.z.z.z.z.=.=.*.&.+.o.] ] o.o...' ~ j g g g g f r 6 $ $ o +             ",
"O $ 9 v [ *.1.*.&.o.O.o.o.o.O.o.+.#.*.=.1.3.1.1.1.*.&.#.o.X.....] ..o...( ( Q R W Q R n h e $ o O + + $         ",
"o $ 9 z ( +.&.&.o.X.X.X.X.X.X.X.X.X.+.#.*.*.=.=.=.&.o.o.X.X.O.,.@.} } { ..) O.O.O.X.{ Q v y 5 $ $ # % %         ",
"O @ 6 u b ( [ X.X.X.o.o.o.X.o.o.o.X.{ [ [ { +.*.*.*.+.X.O.:.w.y.w.,.) Q ) :.y.f.y.w.O.( b y 5 # & ; : ; ;       ",
"@ @ 7 9 t l m ( X.#.&.&.&.#.&.&.#.X.! n v R [ #.=.*.+.X.,.y.Y.R.S.e.A M _ e.Y.].U.c.,.( j y 5 = > 4 2 2 , - $ + ",
"@ $ $ % 5 e l W X.&.=.=.=.*.=.=.*.} W l t l Q X.*.-.+.X.:.I.'.%X[.A.V B D C.[.%X'.I.:.^ j 6 5 - 4 J K J 2 - $ o ",
"@ $ $ $ % 9 k W X.*.1.1.=.=.l.3.=.X.W h r k W X.*.%.o.o.>.U.$X>X@XB.B B V Z.@X>X&XU.:.^ j w 5 - 2 P U K 2 - $ + ",
"O $ 7 6 e k b ^ o.=.l.l.=.l.l.l.=.+.! b z v ! +.=.-.] o.w.U.=X<X@XB.V 6 V Z.*X<X=XU.>.^ j w 6 ; H I Y P 2 - $ + ",
"O $ 5 t z W ( O.&.=.1.l.1.=.1.=.1.*.X.^ / ( ..%.=.-.] o.w.U.=X<X@XB.V 6 V Z.#X<X=XU.>.^ j w 7 ; H I Y P 2 - $ + ",
"O $ 9 l Q X.&.<.=.=.=.1.=.=.=.l.=.*.*.#.#.&.*.*.=.%.] o.>.U.%X,X#XZ.S a S Z.#X,X=XU.:.^ j w 5 ; 3 P U K 2 - $ o ",
"O $ 9 z ( &.l.l.=.=.3.=.=.1.1.=.=.1.=.=.=.=.=.=.=.%.] o.>.U.%X<X#XD.` V ` F.*X,X=XU.:.^ j w % * 4 J P J < = $ + ",
"o $ 9 v [ *.z.z.z.=.=.=.=.1.=.1.=.=.z.z.1.z.z.=.=.%.] X.>.U.%X<X:X+XD.V.D.+X:X1X=XU.>.^ j w 5 & > 2 3 4 : = $ + ",
"o @ 9 v [ &.l.l.=.=.z.=.1.=.=.=.z.=.=.=.1.1.1.3.1.-.] X.>.U.%X1X2X:X@X+X@X:X2X1X=XI.>.^ j w $ # & ; : ; = # $ + ",
"O $ 9 x [ *.1.z.1.=.=.=.=.1.1.=.=.1.1.=.1.=.1.=.*.%.o.X.>.Y.{.,X2X1X:X:X<X1X2X>X{.I.:.Q N y % @ # # % % # $ $ $ ",
"o $ e x [ *.=.z.l.=.l.=.1.=.=.=.=.=.=.1.=.1.1.1.=.&.o.o.:.d.`.%X-X>X-X-X>X>X-X%X].y.| m z i q * & $ $ + $ $ $ $ ",
"o $ e x [ *.z.z.l.l.1.l.=.1.=.1.1.=.=.=.1.=.1.1.=.&.o.X.@.y.I.R.`.'.'.'.'.'.`.Y.A.| m c d d 2 , ; # @ + o + $   ",
"O $ e v [ *.z.z.l.l.1.1.1.=.=.=.1.=.1.=.=.1.1.=.=.&.+.X.X.,.w.y.f.d.d.d.d.d.d.w.| Z s i d T L J 1 * $ o +       ",
"o @ 9 z ( O.*.=.*.*.*.=.=.=.3.=.=.=.=.1.=.=.l.=.=.&.o.X.X.X.X.O.O.O.O.O.O.#.@.} R f 6 8 2 L I K d ; $ +         ",
"O @ 6 u n ( [ [ [ { X.#.*.=.l.l.l.1.l.=.=.=.*.*.*.#.o.X...{ { { ' ..' ' ..] { ^ b t 5 = 4 K Y I J ; # +         ",
"O $ 5 e k z v v x b Q { &.z.z.z.l.l.l.=.=.*.*.&.#.o.X.X...{ { { ' ' ' ' ] ] ] ! b t 5 * 4 P Y I J > # +         ",
"@ $ $ 5 8 9 e 9 9 t v ( #.=.1.z.=.l.=.l.=.*.#.+.X.X.{ X.......{ { ..] { ] ..] ^ b t 5 - 4 K Y I H ; % +         ",
"$ @ $ $ $ % $ @ $ 6 u W { $.&.#.&.&.&.=.*.*.&.o.X.X.X.X.X.X.X.{ { X.{ X...X.X.( b u 6 = , L P K 2 ; # +         ",
"$ $ @ @ O O X X o $ t v W ( ( ( ( ( X.&.*.=.&.#.o.o.o.o.o.X.X.X.X.{ X.{ X.X.o.( m f 5 = > 2 J H , - $ +         ",
"                    9 u k z l k l b / o.*.=.*.&.&.&.&.*.#.+.X.X.{ ..X.X.X.o.X.( m u 5 # * > , : ; % $ $         ",
"                      8 8 8 6 6 9 u R { *.z.l.=.<.*.=.*.*.#.o.X.{ X...{ X.o.X.( n u 8 $ # # = = % # $ @         ",
"                      $ $ $ $ 7 6 u R ..-.l.1.=.=.=.1.=.*.&.+.X.X.{ X.{ { { ( Q x t 5 $ O @ $ $ $ $ $ @         ",
"                      X o $ 5 e f b Q X.-.=.1.1.=.=.1.=.=.%.o...{ ..X.{ ( Q R v f 9 7 O O + + + + O $           ",
"                      o @ 5 e z ~ ^ X.%.-.=.=.=.=.=.=.=.%.%.X.......X.{ ! n l t 9 5 $ $ O O                     ",
"                      o @ 6 s W o.-.=.1.1.1.1.=.1.l.1.3.=.&.+.X.X.X.X.( W z e 5 % $ $ @ @                       ",
"                      X @ 8 c } 5.c.v.v.c.c.c.c.x.c.c.c.4.5.<.;.@.@.O.{ W h 6 @ O O O @                         ",
"                      X @ 9 C  .p.N.N.N.n.n.n.n.n.n.n.n.m.h.a.t.2.;.@.[ R f 6 o X o @                           ",
"                      . @ p A q.T.).).(.(.(.(.(.(.(.).(.(.T.G.j.g.r.;.{ E f 6 o X o                             ",
"                      . $ p A 0.E.oXOXoXoXoXoX_.oXoXoXoX|.!.P.L.j.t.;.{ E h 9 5 $                               ",
"                      . @ p F 9.~.XXOXXXXXXXXXXXXXXXXX.X.X|.!.P.j.t.2.{ Q b h t e 8                             ",
"                      . $ p F 8.!.XXOXOXXXXXXXXXXXXXXX.X.X|.!.P.G.t.;.X.' Q R n z t 5   X O @                   ",
"                      . @ p F 8.~.XXXXXX.X.X.XXX.XXXXX.X X|.!.P.G.t.;.O.......[ W k 6 O O O $ $                 ",
"                      . $ p F 8.!.XXXXXX.X.X.X.X.X.X.X.X X|.Q.P.j.t.;.X.o.+.*.+.^ z e 5 $ $ $ $                 ",
"                      . $ p F 9.~.XXOXXXXX.XXX.X.XXXXXXX.X|.Q.P.G.t.;.X.o.#.*.#.{ W z t 9 5 % + @               ",
"                      . @ p F 9.!.XXOXXX.XXX.XXX.XXXXXXX.X|.!.P.G.t.2.X...o.+.+.X.[ ! m k 9 % @ O               ",
"                      . @ p F 8.~.XXXXXX.X.X.X.XXX.X.XXX X|.^.P.j.r. .X.] ..o.o.+.+.O.[ v t % O o               ",
"                      . $ p A q.E. X.X X X X X X XoX_.|.~.Q.K.H.j.r.;.} { ..{ X.X.+.o.[ n u 5 O o               ",
"                      . $ p C 7.k.W.).~./.|.|.|.!.~.(.T.T.m.k.g.t.2.@.X.......X.{ ( ! m l e $ @ o               ",
"                      X @ 9 c } u.m.T.W.Q.!.!.!.Q.E.M.m.b.i.r.2. .@.@.X.X.X.X.{ ^ R z f e 6 $ @ O               ",
"                      o @ 8 c / <.v.m.J.K.P.P.P.L.k.p.6.3.<.$.@.@.} ....X...{ [ R l e 5 % $ $ $ @               ",
"                      o $ 8 g ! +.4.i.p.G.J.L.H.k.h.i.3.=.-.o.o.X.X.X.} { [ ^ W v t 5 $ O $ @ $                 ",
"                      o @ 8 k Q o.z.i.i.g.p.h.h.h.i.c.1.=.-.%.o.+.o.] { ^ Q n x k 9 $ O o O @                   ",
"                      X $ 8 g ! #.3.x.4.4.i.i.i.6.4.3.3.1.=.=.&.#.+.+.{ ! v f r 9 6                             ",
"                      o @ 8 g ! #.=.z.3.3.=.=.=.=.=.*.*.=.=.=.=.*.#.+.' W l 9 5 $                               ",
"                      X @ 8 l Q #.z.=.=.*.&.o...{ { [ } ..o.&.=.1.*.+.{ W f 8 $ o                               ",
"                      o $ 8 l ! &.l.l.=.%...^ E n v v v R ( +.=.1.=.#.{ Q f 8 @ X                               ",
"                      X $ 8 z ! &.3.=.&.X.^ b h r e 9 r k R { *.1.*.#.{ W k 8 $ o                               ",
"                      o $ 8 l Q X.#.#.X.^ E l e 5 @ @ $ 9 x ! X.#.#.X.^ m f 8 $ o                               ",
"                        @ 8 u n Q ( ! Q R z r 5 @ X X O 5 k m Q ^ ! Q n z r 5 $ O                               ",
"                            t k z z l l f r 6 % O X X     t k z z l l f r 8 5 $ @                               ",
"                              9 9 9 9 8 6 5 7 $ @ @         9 9 9 9 9 8 5 % $ $ @                               ",
"                              $ $ $ $ @ $ $ $ $ @ $         $ $ $ $ $ $ $ $ $ @ $                               ",
"                              O o X O O O O O @ $ $         o o o o o o o @ @ $ $                               "
};
