/* XPM */
static char *_0_resized[] = {
/* columns rows colors chars-per-pixel */
"64 64 193 2 ",
"   c None",
".  c #252D19",
"X  c #2A2F1E",
"o  c #2D311F",
"O  c #30361F",
"+  c #2E3520",
"@  c #2C3820",
"#  c #273720",
"$  c #313620",
"%  c #3B3621",
"&  c #343A22",
"*  c #3A3A22",
"=  c #433622",
"-  c #433923",
";  c #4C3924",
":  c #473925",
">  c #5C3523",
",  c #533925",
"<  c #5C3A25",
"1  c #533624",
"2  c #633A26",
"3  c #693B27",
"4  c #693726",
"5  c #763A28",
"6  c #3C4425",
"7  c #3F4826",
"8  c #414A27",
"9  c #444D29",
"0  c #4D4629",
"q  c #465129",
"w  c #4A552A",
"e  c #4E5A2C",
"r  c #515E2D",
"t  c #5A5929",
"y  c #484930",
"u  c #444836",
"i  c #4A5239",
"p  c #575D38",
"a  c #664927",
"s  c #6D5128",
"d  c #4D612A",
"f  c #54622F",
"g  c #57692F",
"h  c #576530",
"j  c #586631",
"k  c #5E6D32",
"l  c #606F33",
"z  c #63683B",
"x  c #627334",
"c  c #677A35",
"v  c #697C36",
"b  c #6B7E38",
"n  c #68743D",
"m  c #67722F",
"M  c #555A48",
"N  c #5F6850",
"B  c #686A46",
"V  c #766D4D",
"C  c #717D5C",
"Z  c #68734E",
"A  c #6C6F63",
"S  c #727765",
"D  c #853B2A",
"F  c #8A3B2A",
"G  c #893826",
"H  c #933C2C",
"J  c #9C3B2C",
"K  c #A53D2D",
"L  c #AC3E2E",
"P  c #B33E2F",
"I  c #B93E30",
"U  c #8A402B",
"Y  c #6E8139",
"T  c #72853A",
"R  c #768A3C",
"E  c #798E3D",
"W  c #708637",
"Q  c #7C923F",
"!  c #7A8B43",
"~  c #7E9440",
"^  c #7B8857",
"/  c #849D3E",
"(  c #88A23F",
")  c #809740",
"_  c #849B42",
"`  c #899D49",
"'  c #8A9757",
"]  c #8B8F51",
"[  c #87A041",
"{  c #8AA344",
"}  c #8EA945",
"|  c #8EA34B",
" . c #91AC46",
".. c #92A44D",
"X. c #93AD49",
"o. c #95B247",
"O. c #96B149",
"+. c #99B54A",
"@. c #9EBB4C",
"#. c #98B847",
"$. c #94AA55",
"%. c #9CAC53",
"&. c #98A758",
"*. c #9DB25F",
"=. c #A1BE4E",
"-. c #A4AA5C",
";. c #A2A75C",
":. c #A4BB53",
">. c #ACBD5B",
",. c #A4B756",
"<. c #B0BE5F",
"1. c #9D9562",
"2. c #858B7B",
"3. c #8A946B",
"4. c #B09975",
"5. c #AB9870",
"6. c #9AAC66",
"7. c #9FB266",
"8. c #9DA87C",
"9. c #AAAB63",
"0. c #B5AD6D",
"q. c #A2B56D",
"w. c #A7BB6F",
"e. c #B4BB64",
"r. c #B8BA69",
"t. c #B9AE71",
"y. c #A9BB75",
"u. c #A8BA76",
"i. c #BBB072",
"p. c #BFB972",
"a. c #C5B37C",
"s. c #C6BB78",
"d. c #A3C14F",
"f. c #A6C350",
"g. c #ADC05A",
"h. c #A9C056",
"j. c #B1C45C",
"k. c #B6C065",
"l. c #AEC17A",
"z. c #C5C671",
"x. c #C6C871",
"c. c #CBCA76",
"v. c #C2C56F",
"b. c #8A8C83",
"n. c #92978B",
"m. c #9EAA84",
"M. c #A2A798",
"N. c #B0BB94",
"B. c #ACAEA8",
"V. c #AFB0AB",
"C. c #B9BDB1",
"Z. c #CEB586",
"A. c #CEBA81",
"S. c #D4B98A",
"D. c #D4BA88",
"F. c #DEBC93",
"G. c #E0BC96",
"H. c #B3C285",
"J. c #BECA98",
"K. c #BDC2AE",
"L. c #D9C688",
"P. c #C1CD9E",
"I. c #E1CF8B",
"U. c #E4D28D",
"Y. c #E4C395",
"T. c #EBC49D",
"R. c #E8C997",
"E. c #F5D39F",
"W. c #F0D19A",
"Q. c #CED9AB",
"!. c #CAD6A7",
"~. c #D6DFBC",
"^. c #C8D1B0",
"/. c #F5CDA3",
"(. c #F7D5A0",
"). c #FBD5A5",
"_. c #FDD9A5",
"`. c #FFD7A9",
"'. c #FFD9AB",
"]. c #FFDEB0",
"[. c #D7E0BD",
"{. c #C9CBC6",
"}. c #D1D4C9",
"|. c #D5D6D4",
" X c #DBE2C6",
".X c #DFE2D8",
"XX c #E7EBD9",
"oX c #ECF0DD",
"OX c #E4E4E3",
"+X c #ECEEE8",
"@X c #EEF1E7",
"#X c #F1F3EA",
"$X c #F6F6F5",
/* pixels */
"        o o o o o o o o o o o o o o o o o o o o o o o o o o o o o o o o o o o o X O X $ o $ + & &                               ",
"        & & & & & & & & & & & & & & & & & & & & & & & & & & & & & & & & & & & & & & & & & & & & &                               ",
"      8 9 9 9 9 9 9 q 9 9 9 9 9 9 q 9 9 9 9 9 9 9 9 9 9 7 9 8 9 7 8 7 8 8 8 8 8 8 8 8 8 * * * @ &                               ",
"    8 e h k k x k k k l l l l k k k k k k k k k l l k l k k k f f f f f f f f f j j r r w 8 6 + + +                             ",
"o & 9 h b E ~ ~ ~ ~ ~ ~ Q ~ ~ ~ ~ ~ ~ ~ ~ ~ ~ ~ Q ~ ~ ~ Q E R Y b b b b b b T b Y T b v g w 8 O @ @ + @                         ",
"o & 9 k E } O.+.O.O.O.O.O.O.O.O.O.O.O.O.O.O.O.O.O.O.O.O.X.} { _ ) ) / / _ ) _ ) _ / / E v f 8 O $ $ & % *                       ",
"o & 9 k ) +.f.d.@.@.@.+.+.@.@.+.@.@.@.=.=.f.=.=.=.=.@.@.+.O.} { { ` { { { { [ [ { { [ / b h 7 O % = ; 1 ;                       ",
"o & 9 x _ @.f.=.@.O.O.O.O.O.O.O.O.+.@.@.f.f.f.f.d.@.@.@.O. .} ( ( ( { } { { ( ( { { { _ T f 9 - ; 2 5 4 3 , *                   ",
"# & q l ~ +.=.@.X.} } } } } } } }  .+.@.=.d.f.=.@.@.O.X.} { { [ ( _ { { { { _ [ [ { { ~ Y d 7 O 2 5 H H 5 < * +                 ",
"X & 9 k ! } O.O.} { { { ` { { ` {  ... .O.+.@.@.@.O.O.} { { | | ..{ ` _ _ { | ..| X.| _ Y d 7 - 4 F L K D < * +                 ",
"+ & 7 e c Q ~ { { { } }  .{ {  .{ { ` ) _ _ } +.@.O.X.{ | $.7.w.8.$.] E Q ` 6.w.7.7.| _ Y d 7 ; 4 J I P F < * & #               ",
"+ & 6 7 e k Y ! { X.O.O.X.O.X.O.X.{ Q b x b ~ { +.#. .{ | 7.H.J.J.8.^ n Z 3.N.J.J.l.*.~ Y d 7 - 4 J I P F < * + @               ",
"& & & & 6 q j Y _ O.@.@.@.@.@.@.+.{ R k r f T { +.+. .} $.l.!. X}.M.S p N 2.K.|.[.J.7.[ Y d 8 ; 4 J P L F < * +                 ",
"$ & & & * 8 h Y { +.d.@.@.@.@.:.=.{ R k w r v _ +.+.( { $.H.[.@X.XB.A M M b.{.+XXX!.7.[ c d 8 O 4 F K J 5 < * &                 ",
"+ & * 6 q h x ~ } @.d.d.=.=.d.d.@.X.) c k l R { #.#.o.( $.H.[.#XXXB.A u M b.{.#XoXQ.g.~ Y d & 6 1 4 D D 3 ; & + #               ",
"+ & 7 w k Y ~ { O.@.d.d.@.@.d.@.:.+.} ) E E [ X.=.@.( } %.H.[.@XOXB.A 7 M b.{.+XoXQ.l.[ Y d 6 @ = 1 2 < , = & & &               ",
"+ & 9 j T { O.@.@.@.@.d.@.@.@.f.@.@.O.O.X.O.O.@.@.o.(  .$.H.[.@XOXV.A M M b.{.+XXX!.q.] v r 6 * % % = - * & & $                 ",
"X & 9 l ) X.=.=.d.@.@.@.=.@.=.@.@.@.@.@.@.@.@.@.@.o. .( $.H.[.@XOXC.b.A S M.|.#XXXP.6.) m t 0 = % % & $ & & & &                 ",
"# & 9 l ) +.f.f.=.@.@.=.@.@.=.=.@.@.f.f.d.d.f.@.@.#.( { $.H.[.#X$X|.V.n.M.{.OX$X XN.' n t s a 4 , = & + @ @ &                   ",
"X & 9 l ) @.=.d.f.@.=.@.@.=.@.@.@.=.@.=.@.d.=.d.d.#.( } $.H.~.@X$XOX|.{.{.OX$X$X|.M.C t a s F G 5 , * + # +                     ",
"o & 9 k ~ +.=.=.@.@.=.@.@.@.=.@.@.@.@.=.@.@.f.@.@.O.} ( $.u.Q.+X$X$X$X+X#X$X$X#X}.n.A 9 > G K K D 2 % & @                       ",
"o & 9 k ~ X.=.f.d.@.d.@.d.=.=.@.=.@.f.@.@.=.@.@.@.O.} } $.u.J. XOX@XoXXX@X#XoX.XC.^ M - > G P P H 2 - & @                       ",
"o & 9 x ) @.f.f.d.d.d.d.d.d.d.d.f.d.=.@.=.=.f.@.@.#.} { | 7.l.J.!.Q.Q.Q.Q.Q.Q.J.m.^ M * > G I I H 3 - @ #                       ",
"o & 9 l ) +.d.f.f.d.@.d.=.d.d.d.=.=.d.=.@.@.=.@.@.O.O.{ { $.6.7.w.u.u.u.u.l.u.q.^ Z y * 2 F L P H 3 - & #                       ",
"o & 9 k E  .+.@.+.+.+.+.O.O.+.O.O.@.+.@.@.=.=.@.@.O.X.{ { { | | | | | | X.X...| ! g 7 - < D L L F 3 - + #                       ",
"o & 6 r c ~ _ _ ) ) ) ) _ _ _ ~ _ _ { O.+.@.@.+.O.O.} { [ [ _ / _ _ / ( _ ( [ ~ W g 7 6 1 5 F F 5 , * + @                       ",
"o & 6 9 r k x x x x x x x x x l l c ! } +.@.#.O.X.} | [ [ [ ~ [ ( / / / ( ( ( Q W g q * = > 2 3 < : % & @                       ",
"& & & 6 8 q w w q q q q q q 9 9 q h v _ O.@.+.X.| { { [ [ [ [ [ _ [ ( _ [ { [ ( R g 9 * % % : ; - * & & &                       ",
"& & & & & & & & * * & & & * & & 7 w v ~ +.@.+.X.{ { [ { { { { [ _ { { [ [ [ [ Q b f 8 & o & & & & & & & &                       ",
"& o + & o o o o + # + X # & 6 9 e k W [ O.+.#.X.} } } } } { { [ [ { _ { ~ Q R b k e 6 & + + + @ + & & +                         ",
"                    X X + & 9 f c R ~  .#.#.#.O. .o. . . .} { [ [ [ [ _ ~ Y x f w 7 & & + +                                     ",
"                      + $ 6 r n _ X.#.@.@.@.=.@.#.@.@.@.#.O.} { { { { _ Q c f 7 6 & & & &                                       ",
"                      X $ 8 j ) +.j.j.j.g.g.g.g.g.g.g.g.>.,.%.%...| { ` E m q * $ + $ $ $                                       ",
"                      X O y z ] e.c.c.c.x.z.z.x.x.x.x.x.v.r.e.9.;.&.X.` R k q O + X $ $                                         ",
"                      . O y B 1.s.U.U.U.L.U.L.U.U.I.U.U.L.L.A.a.t.9.%.` R k q * + X                                             ",
"                      . o y V 5.Y.(._._.E.E.(.(.E.E.E.E.E.R.G.S.a.t.;.` R g q 6 + +                                             ",
"                      . O y V 4.Y.`.].'.`.`.`.`.`.'.'.'.`./.T.F.Z.0.-.` R k q 6 + X                                             ",
"                      . O y V 4.Y.'.].].'.`.'.'.'.'.'.'.`./.T.G.Z.a.-...R k 9 O X X X                                           ",
"                      . O y V 4.Y.'.'.'.`.'.`.`.`.'.'.`.)./.T.F.Z.i.-.` R g q O @ X X # + $ $ $                                 ",
"                      . O y V 4.Y.'.].'.`.`.`.`.`.`.'.`.).E.T.F.Z.i.,.{ E l e 7 & * * 6 * & & & &                               ",
"                      . O y V 4.Y.'.]._._.`.`.`.`.`.'.`.`./.T.G.Z.i.-.| E c j t e w e w q 7 * @ $                               ",
"                      . O y V 4.Y.'.].].'.'._.`.'.'.'.'.`./.T.G.Z.i.;.| / / W Y b T T c j q 6 & @                               ",
"                      . O y V 5.Y.'.'.'.`.`.'.`.`.'.'.'.)./.T.G.a.0.;.| ` / ` ( { } { _ Y h 7 & +                               ",
"                      . O y V 5.G.).'.`.).).).`.).).).).E.T.Y.S.a.0.;.| } ( o.X.+.+.X.{ T h 8 @ +                               ",
"                      . $ y B 1.s.I.W.E.E././././.W.R.U.L.L.A.a.a.;.&.` (  .+.=.+...{ ! c r 6 & +                               ",
"                      X $ 8 z ] 0.c.L.L.Y.T.T.T.R.Y.L.c.x.r.r.9.;.....{ ( ..X...{ ~ Y l r 8 * & +                               ",
"                      X $ 8 h ! ,.e.z.L.F.F.G.G.F.A.z.e.>.,.%.X.....` ` ( ( } _ ~ c r 9 6 & & & &                               ",
"                      X $ 6 h R  .:.e.s.Z.S.S.S.Z.s.r.>.=.+.O.} ` { { ( { ` / / c h 8 & + & & & &                               ",
"                      X & 6 f W } @.e.r.p.p.s.s.s.r.k.:.@.#.o.} } { { ` _ Q T x f w & & o + & &                                 ",
"                      o & 6 f R } =.h.g.e.e.e.e.e.g.h.f.d.#.#.O.o. .} [ Q Y l f q 6 & + + o                                     ",
"                      X & 6 f R X.@.f.:.:.:.:.:.,.,.@.@.@.@.@.@.+.O. .[ E x e 7 * & & & &                                       ",
"                      o + 6 f R X.@.d.@.+.+.X.} { { { { { X.O.@.@.#.X.[ E k w * + + + & &                                       ",
"                      X & 6 h E O.@.=.@. .} Q E Y Y b b T ) ..@.=.@.O.{ R k q & o o + &                                         ",
"                      # + 6 h R X.@.=.#.} / Y k d e w w h b _ X.@.@.O._ R k q & + o                                             ",
"                      X & 6 h T { +.O.O.{ E x e 7 & & * 9 h R } +.@.X.[ R k q 6 + o                                             ",
"                        + 6 h c ~ [ { { _ R k q & # X # 6 r c ~ _ { { _ E l q * +                                               ",
"                          6 w j l Y E ~ _ E l q $ X . X & w h x b R _ _ E x w * +                                               ",
"                            8 9 q h x E ~ E l q & X X       9 w h x R ) E x w 6 +                                               ",
"                              & * 9 h Y Q T k q * @         & & 8 h b R Y k q * +                                               ",
"                                + 6 e k c l r 8 & $           + 6 w l v x f 9 & &                                               ",
"                                  * q r h w 9 6 & $               9 r r e q 6 & +                                               ",
"                                    7 7 7 6 6 * & &                 6 6 7 6 & & &                                               ",
"                                      & & & & $ & $                 & & & & & @ &                                               ",
"                                      X + # $ $ $ &                 + X + + & & &                                               "
};
