/* XPM */
static char *_1_resized[] = {
/* columns rows colors chars-per-pixel */
"60 64 195 2 ",
"   c None",
".  c #262E19",
"X  c #292E1D",
"o  c #2D321F",
"O  c #2F381E",
"+  c #30371F",
"@  c #2F3520",
"#  c #2C3820",
"$  c #313620",
"%  c #3B3521",
"&  c #333922",
"*  c #3B3B23",
"=  c #423A23",
"-  c #4B3924",
";  c #453622",
":  c #533624",
">  c #533A25",
",  c #5C3925",
"<  c #583624",
"1  c #643A26",
"2  c #693A27",
"3  c #693826",
"4  c #7C3B29",
"5  c #743B28",
"6  c #3B4324",
"7  c #3F4926",
"8  c #3B4127",
"9  c #414A27",
"0  c #444D29",
"q  c #48462C",
"w  c #465229",
"e  c #4A552A",
"r  c #4D5A2C",
"t  c #515D2E",
"y  c #5E502A",
"u  c #4D5534",
"i  c #545238",
"p  c #565737",
"a  c #484A32",
"s  c #6C4B29",
"d  c #54632E",
"f  c #59682C",
"g  c #566330",
"h  c #586630",
"j  c #5C6B32",
"k  c #5E7133",
"l  c #626D32",
"z  c #647535",
"x  c #667836",
"c  c #6A7C37",
"v  c #6C7D39",
"b  c #6A723D",
"n  c #687836",
"m  c #515643",
"M  c #635B43",
"N  c #5D6153",
"B  c #5B614A",
"V  c #686543",
"C  c #766D4E",
"Z  c #6A7943",
"A  c #727744",
"S  c #676B5C",
"D  c #737155",
"F  c #75796A",
"G  c #843A2A",
"H  c #883B2A",
"J  c #943C2C",
"K  c #9B3C2C",
"L  c #A33E2D",
"P  c #AC3D2E",
"I  c #B43E2F",
"U  c #BA3E30",
"Y  c #88412B",
"T  c #8D7E5E",
"R  c #847758",
"E  c #6F8436",
"W  c #6E8139",
"Q  c #708637",
"!  c #72853A",
"~  c #75893B",
"^  c #798E3D",
"/  c #718837",
"(  c #7D933E",
")  c #7F9540",
"_  c #7F914A",
"`  c #778357",
"'  c #6C8040",
"]  c #849D3E",
"[  c #87A13E",
"{  c #83894B",
"}  c #819642",
"|  c #859D42",
" . c #889C48",
".. c #8A9859",
"X. c #99985B",
"o. c #90845D",
"O. c #86A041",
"+. c #8BA344",
"@. c #8FA945",
"#. c #8DA44B",
"$. c #91AC47",
"%. c #93A44D",
"&. c #93AE49",
"*. c #95B247",
"=. c #96B149",
"-. c #9AB54B",
";. c #9EBB4C",
":. c #8FA451",
">. c #93A652",
",. c #9AA555",
"<. c #93AA53",
"1. c #9DAA55",
"2. c #9FA659",
"3. c #95A95B",
"4. c #9CB358",
"5. c #A0BE4E",
"6. c #A2AC59",
"7. c #A4BA54",
"8. c #ADBC5C",
"9. c #A5B656",
"0. c #9B8B65",
"q. c #B09974",
"w. c #99A47A",
"e. c #ABAA64",
"r. c #ABA467",
"t. c #B2AD6A",
"y. c #B0A36E",
"u. c #A5B769",
"i. c #BBBB6D",
"p. c #B3B766",
"a. c #BAA777",
"s. c #A9BB75",
"d. c #A8B979",
"f. c #BCB471",
"g. c #C2BB74",
"h. c #C2B17A",
"j. c #C7B97B",
"k. c #A3C14F",
"l. c #A6C450",
"z. c #AFC17B",
"x. c #C8C576",
"c. c #939788",
"v. c #8C8F85",
"b. c #9FA296",
"n. c #A7B483",
"m. c #A2A39E",
"M. c #BCBDBA",
"N. c #AEB0A8",
"B. c #CBAF86",
"V. c #C6A983",
"C. c #CBB582",
"Z. c #CDB584",
"A. c #D3B58B",
"S. c #D7BB8B",
"D. c #DABC8E",
"F. c #D0BD83",
"G. c #DEBC92",
"H. c #E0BD95",
"J. c #B4C484",
"K. c #BCCD8D",
"L. c #BCC998",
"P. c #AFC080",
"I. c #DBC889",
"U. c #E4C395",
"Y. c #E5CB92",
"T. c #EBC59B",
"R. c #EDC99C",
"E. c #E7C498",
"W. c #F1CE9E",
"Q. c #ECD196",
"!. c #F3D19E",
"~. c #C7D3A6",
"^. c #D5DEBA",
"/. c #D1DBB6",
"(. c #C9D3AD",
"). c #F4CDA1",
"_. c #FBD4A5",
"`. c #FFD7A9",
"'. c #FFD9AA",
"]. c #F8D3A3",
"[. c #FFDFB0",
"{. c #D9E2BF",
"}. c #FFE1B2",
"|. c #C5C5C4",
" X c #DCDCDB",
".X c #DDDFD6",
"XX c #D0D4C4",
"oX c #DCE5C1",
"OX c #E0E6CE",
"+X c #E3E7D8",
"@X c #E8E7E8",
"#X c #EEF1E5",
"$X c #F2F4EA",
"%X c #F0F3E7",
"&X c #F7F7F9",
/* pixels */
"                                                                                                                        ",
"                                                                                                                        ",
"                                                                                                                        ",
"                                                                                                                        ",
"                      $ @ $ @ @ @ @ @ @ @ @ @ @ @ @ @ @ @ @ @ @ @ $ @ @ $ @ @ # @ @                                     ",
"                    6 6 6 6 6 6 6 6 6 6 6 8 6 6 6 6 6 6 6 6 6 6 6 6 6 6 6 * 6 6 * 6                                     ",
"                    e t t g d d g g d g g g g g g g t g g g t g d t t t r r r e e e 0                                   ",
"                & 0 h c ! ~ ~ ~ ! ~ ! ~ ~ ! ! ~ ! ~ ~ ! ! ~ ! ~ ~ ~ ! v x x x x x j r 6 @ X o o @ @ & &                 ",
"              @ & w j ) #.&.&.$.&.&.$.&.&.$.$.$.&.&.&.&.&.&.&.&.$.$.#.| ] ^ ] ] ~ v h 9 & O & & & & # & &               ",
"              X & w z | ;.l.5.-.-.-.-.-.-.-.;.-.-.;.;.;.;.;.;.;.;.-.=.$.+.+. .+.| ~ l r 7 7 7 7 6 6 & & $               ",
"              @ & w n +.k.k.5.-.=.=.-.*.-.=.=.-.;.5.l.l.l.l.5.;.-.-.&.$.@.+.@.$.| ] Q j d d f g r 0 6 @ @ @             ",
"              X & e x +.;.k.-.&.@.$.$.@.$.@.$.$.-.;.l.5.l.;.;.-.&.$.@.+.+.+.+.[ +.] ^ / E W W W z t 7 & @ # # #         ",
"              @ & 0 k ) &.=.&.+.O.#.+.+.+.O.+.#.&.*.-.-.-.;.;.*.$.+.+.+.| +.] ] | |  .:.:.#. .) ! h 0 & @ & % %         ",
"              @ & 7 g c ( | +.@.@.@.@.+.@.@.@.+.| ) ) O.&.-.-.-.$.| | | ] ] ( / ~ { ..u.s.u.4.+.! f 0 % ; - < , >       ",
"              @ & 6 w t j W ) @.=.-.=.=.=.=.*.+.) c z W ) -.-.*.@.+.] ] ] ^ E l j ` w.L.~.K.u.#./ f 7 * : 2 4 4 2 - & # ",
"              $ & & * 6 e j ^ $.;.;.-.-.;.;.-.#.W g r h ~ &.;.-.$. .+.+.| ] z r u S b./.oX/.z.:./ f 7 = , H K K 5 > & # ",
"              $ $ & & 6 e z ) &.;.l.5.;.5.k.;.@.! h r h ~ &.;.*.@.+.+.<.3.:.Z u a N m. X$XoXJ.:.Q d 7 6 3 K I L 4 : & O ",
"              $ & 6 0 t j ! O.-.7.;.5.5.5.k.;.*.) W z W ) *.-.*.@.+.3.z.J.n.` u 8 N m. X$XoXJ.:.Q d 7 = 3 K U P G : O O ",
"              @ & 9 g v ) #.&.-.5.5.5.5.;.l.;.-.@.O.( [ &.-.;.*.@.@.u.K./.M.c.B 7 N b. X$XoXJ.:.E d 7 = 3 K I P 4 > & O ",
"              @ & 0 k ) =.;.;.;.;.;.5.;.;.5.;.;.;.-.-.;.-.;.-.$.+.#.z.(.+X.Xm.F m F m..X$XoXJ.:.E d 9 9 3 J P L 4 - & O ",
"              @ & w x | -.l.l.5.l.;.;.;.;.;.5.;.5.5.5.5.5.5.5.[ +.@.z./.$X$X|.c.F v.M.@X%XoXJ.:.E f 7 = < 4 Y J 2 - & # ",
"              X & w x | ;.l.l.;.;.;.;.;.;.;.;.5.5.5.5.5.5.5.;.$.[ <.d./.$X&X@X|.N.|. X&X$XoXJ.<.E f 7 & ; , 2 2 > % & O ",
"              @ & w z | -.l.k.;.;.;.;.;.5.;.5.;.5.;.5.5.5.5.-.$.+.#.s.(.#X&X&X@X X@X@X&X$X{.P.:.E d 7 & % % - - % % & & ",
"              X & w z | -.l.k.;.;.;.l.;.;.;.5.;.5.;.;.5.5.5.;.$.@.<.u.~.OX%X$X$X%X%X&X$XOX~.d...E f 9 ; % % O O & & O O ",
"              o & w x | ;.l.l.7.l.5.5.;.;.5.;.;.;.;.5.;.5.;.;.*.*.*.4.J.~./.oX{.{.{.{./.~.n...' l s s 1 > % & # # # & & ",
"              o & w x  .;.l.l.l.7.5.5.5.;.5.;.5.5.;.;.5.;.5.;.;.-.-.-.z.z.P.P.P.J.J.J.P.d...Z g y s Y H 5 > % # #       ",
"              o & 0 z } =.;.;.-.-.;.;.;.;.;.;.;.;.5.;.5.5.;.;.;.;.;.-.<.<.<.:.<.<.<.<.<._ ' t 7 , 4 L L H 1 % & #       ",
"              @ & 9 f ! | +.| | +.&.-.;.;.l.5.5.l.;.5.;.;.;.;.;.-.-.&.@.O.O.O.) [ O.O.[ ) z e 8 < G I U Y 1 = #         ",
"              @ & 6 e h z x z x W ) *.;.l.l.l.5.;.;.;.5.5.5.;.-.=.&.&.+.[ [ ( [ ( [ [ [ ( z e * < G I U J 2 = #         ",
"              $ & & 6 9 w 0 0 e h ! +.-.l.l.5.;.l.;.;.5.5.;.;.*.&.@.+.O.O.O.O.[ O.+.@.O.( z e 6 : G P I J 1 % &         ",
"              & & & & & & $ $ & w k ) &.&.=.&.*.-.-.;.5.;.;.-.*.@.O.O.O.O.#.O.O.+.O.O.( / k e 6 : 4 K L Y , % #         ",
"                & & @ @ @ X X @ 7 h v ~ ) ! ~ ^ | &.-.;.-.*.$.@.O.O.| | O.O.O.O.O.) ( E z d 7 % ; 1 4 G 5 > % &         ",
"                                  e g h d t d z ! O.*.-.*.@.@.O.O.O.| | [ | O.+.| ( c h r 0 6 & % - , , > = & $         ",
"                                  6 6 8 6 6 9 u v #.-.7.=.$.+.#.#.+. .+.+.+.+.+.| ~ j e 6 & & & & % % = % & & &         ",
"                                    @ @ * q i V { 2.p.l.8.6.1.1.1.1.1.,.1.,.%.%.| ! h 9 & o O $ & # & & @ & & &         ",
"                                    . @ q M R 0.y.f.x.x.x.g.g.g.g.g.g.f.t.e.6.<. .! h 7 $ o @ $ @   # # # & #           ",
"                                    X * i T a.A.U.Y.Y.Q.E.Y.Y.Y.Y.Y.I.S.Z.h.t.1. .! f 6 $ @                             ",
"                                  & * u C q.G.].'.`._._._._._._.].].W.U.S.h.t.,.} v f 7 $ @                             ",
"                                  M V D 0.B.!.'.}.'.'.'.'.'.`.`._.).T.D.Z.y.X.{ v j r 7 &                               ",
"                              & i C 0.q.Z.U._.[.'.'.'.'.'.`.`.].).T.I.j.t.2.{ b g e 0                                   ",
"                            . & i R a.H.)._.`.`.`.`.`.'.'.`.].).H.H.j.t.2.{ v d 0 6 &                                   ",
"                            . & i T B.).[.'.`.`.`.`.`.`.'.`.].).H.G.h.t.%.] v f e 9 6                                   ",
"                          . . $ i T A.`.[.[.'.`.`.`.'.'.'.'.`.).H.G.h.e.%.] / c z h t 6                                 ",
"                      & & o o + i T B.`.[.[.'.`.`.`.`.`.'.`._.W.H.A.h.e.%.| ] ] } ! j 9 @ @ @ & &                       ",
"                      & & O @ 6 p o.C.!.'.'.`.`.`.`._.`._._.!.E.H.A.a.6.,.| $.*.&.} n e 6 & & & $                       ",
"                      $ & 6 9 r b X.g.I.Q.!.W.).).).).W.Q.Y.I.I.F.h.y.6.%.@.$.-.-.+.~ l r 0 6 & $                       ",
"                      @ & w h v } ,.p.x.x.Y.E.T.R.).R.Y.I.x.x.i.t.6.6.,.+.@.@.&.=.$.| ^ v h 0 & $                       ",
"                      @ 6 r c } $.7.7.8.x.j.S.G.H.H.G.S.x.l.7.7.1.%.%. . .| | @.+.@.$.@.| c r 6 $                       ",
"                      @ 6 t ! @.;.;.;.5.8.i.j.A.B.V.h.a.p.7.-.*.$.+.+.+.+.| } ) ( } +.+.} v r 6 $                       ",
"                      @ 6 t ! $.;.-.*.*.9.p.f.f.y.0.0.o.,.4.;.*.*.@.@.+.+.| ^ v x x W ! v h w 6 $                       ",
"                      $ 6 r v | $.*.$.$.-.9.8.6.o.A b A } =.;.5.-.*.&.$.+.( W j r r r t r w 6 & $                       ",
"                      $ * e x ( | +.| | @.&.-.#.! p 0 t W @.-.;.;.;.-.&.@.( x r 7 & & 6 6 & & & &                       ",
"                      $ 6 e h v ! ! W ! ~ ( ( ! f 0 6 0 j ~ O.&.-.;.;.*.+.) z e & @ o @ @ $ $ & &                       ",
"                          0 r h g f g h j k k f w 6 O 6 e f v } *.;.;.-.@.( l e & @ X X                                 ",
"                            7 7 7 9 9 7 0 0 0 9 6 6 O & 6 7 d v O.-.;.-.@.^ x e & @ o                                   ",
"                            & & & & & & & & & & O O & + o & 9 j ) +.$.&.+.( z e 6 @                                     ",
"                              @ @ o @ o o o o o @ $ $ @ X @ 6 t z ! ) | | ) x e & $                                     ",
"                                                              0 r g z ~ } ) x r 6 @                                     ",
"                                                                & 7 r n ^ ^ x e 6 @                                     ",
"                                                                @ & w j v v h w & $                                     ",
"                                                                    9 r d d e 6 & $                                     ",
"                                                                      9 0 9 6 * & &                                     ",
"                                                                      & & & & & & $                                     ",
"                                                                      @ @ @ @ & $ &                                     "
};
