/* XPM */
static char *_2_resized[] = {
/* columns rows colors chars-per-pixel */
"53 64 193 2 ",
"   c None",
".  c #292E1E",
"X  c #262E19",
"o  c #2D321F",
"O  c #2E3520",
"+  c #2D3820",
"@  c #313620",
"#  c #3B3621",
"$  c #343A22",
"%  c #3A3B23",
"&  c #4B3623",
"*  c #433A23",
"=  c #4A3924",
"-  c #433622",
";  c #553624",
":  c #533A25",
">  c #5B3925",
",  c #593624",
"<  c #6B3726",
"1  c #643A26",
"2  c #6C3A27",
"3  c #633725",
"4  c #723B28",
"5  c #7C3B29",
"6  c #3C4425",
"7  c #3F4926",
"8  c #3E422B",
"9  c #414A27",
"0  c #42442B",
"q  c #444E28",
"w  c #5B4628",
"e  c #475129",
"r  c #49542A",
"t  c #4C592C",
"y  c #515D2D",
"u  c #4C5534",
"i  c #7B422A",
"p  c #625A2B",
"a  c #6E4D2A",
"s  c #54632D",
"d  c #58662D",
"f  c #576530",
"g  c #596631",
"h  c #5D6C32",
"j  c #5A6A39",
"k  c #5F7232",
"l  c #616B38",
"z  c #647535",
"x  c #667935",
"c  c #697B36",
"v  c #6B7D38",
"b  c #6A7132",
"n  c #535A40",
"m  c #5D6153",
"M  c #6D6747",
"N  c #716A4A",
"B  c #70674A",
"V  c #646858",
"C  c #707B52",
"Z  c #7B7E71",
"A  c #833A29",
"S  c #8B3B2A",
"D  c #943C2C",
"F  c #9B3D2C",
"G  c #A33D2D",
"H  c #AB3E2E",
"J  c #B13D2F",
"K  c #B93E30",
"L  c #6F8536",
"P  c #6F8238",
"I  c #71853A",
"U  c #75893B",
"Y  c #798E3D",
"T  c #728837",
"R  c #7C923E",
"E  c #7A8A49",
"W  c #7E9440",
"Q  c #768750",
"!  c #849D3E",
"~  c #80973F",
"^  c #87A03E",
"/  c #809741",
"(  c #859D42",
")  c #899D46",
"_  c #899B4B",
"`  c #888A51",
"'  c #87A041",
"]  c #8AA344",
"[  c #8EA945",
"{  c #8EA44B",
"}  c #91AC46",
"|  c #91A54D",
" . c #93AD49",
".. c #94B146",
"X. c #96B249",
"o. c #9AB64B",
"O. c #9EBB4D",
"+. c #8EA351",
"@. c #93A551",
"#. c #99A857",
"$. c #9EB451",
"%. c #9CB359",
"&. c #A0BE4E",
"*. c #A1A95A",
"=. c #A4A75E",
"-. c #A4BB53",
";. c #A4B35B",
":. c #ACBD5B",
">. c #A9BB59",
",. c #B0BD5F",
"<. c #838974",
"1. c #A5956A",
"2. c #AD9773",
"3. c #AF9A72",
"4. c #96A66C",
"5. c #9EB264",
"6. c #ABAA65",
"7. c #B5AD6D",
"8. c #A2B666",
"9. c #B4BD63",
"0. c #BDBC6E",
"q. c #B5B569",
"w. c #B8AE71",
"e. c #B7AD70",
"r. c #ABBC7A",
"t. c #A8BB73",
"y. c #BBB072",
"u. c #BEB971",
"i. c #C3BC75",
"p. c #C8B97C",
"a. c #A3C14F",
"s. c #A6C450",
"d. c #B2C15F",
"f. c #B4C360",
"g. c #BBC268",
"h. c #B2C47D",
"j. c #CECA79",
"k. c #C7C475",
"l. c #D1CB7C",
"z. c #D5D17D",
"x. c #999B92",
"c. c #9EA48E",
"v. c #B1BE89",
"b. c #A1A39C",
"n. c #B5BE9A",
"m. c #A8A9A5",
"M. c #B4B5B0",
"N. c #CDB484",
"B. c #CEB883",
"V. c #D2BD85",
"C. c #D4B98A",
"Z. c #DDBC92",
"A. c #E1BC96",
"S. c #B4C584",
"D. c #B8C88C",
"F. c #BCC997",
"G. c #D8C588",
"H. c #C4D19E",
"J. c #C2CE9D",
"K. c #E2CB8E",
"L. c #E4C395",
"P. c #E7C399",
"I. c #ECC59D",
"U. c #EFCF9A",
"Y. c #F1CE9E",
"T. c #EAD194",
"R. c #F1D39B",
"E. c #C8D4A5",
"W. c #D4DDBB",
"Q. c #D1DBB6",
"!. c #C8D2AC",
"~. c #F5CEA2",
"^. c #F8CFA5",
"/. c #FCD5A6",
"(. c #FFD7A9",
"). c #FFD9AB",
"_. c #FBD6A4",
"`. c #FFDEB0",
"'. c #D9E3BD",
"]. c #CECECD",
"[. c #DCDCDC",
"{. c #D7D7D6",
"}. c #D2D6C7",
"|. c #DDE5C4",
" X c #E5EBD5",
".X c #E9EEDD",
"XX c #E1E7CF",
"oX c #EDEDEC",
"OX c #E4E4E2",
"+X c #EFF2E5",
"@X c #F2F4EC",
"#X c #F8F8F7",
"$X c #EFEEF2",
/* pixels */
"        O O O O . O O O o O o o O . o O o o O o o o o o o o o O o O o                                     ",
"        $ $ @ $ $ @ $ $ $ $ $ $ $ $ $ $ $ $ $ $ $ $ $ $ $ $ $ $ $ $ $                                     ",
"      q r e e r r r e r e r r q e r e e r r e r e r e e e q q q q q 9 9                                   ",
"    q s l z z z z x z z x x x z z x x z z z z z z z z z h h g g h f s r 6                                 ",
"o $ e h Y ( ' ' ( ( ( ( _ ( ( ( ( ( ( ( ( ( ( ( _ ) ( / R Y U U U I x s 7 @ . o o o o $ $                 ",
"o $ r z ( X.O.O.o.o.o.o.o.o.o.o.o.o.o.O.O.o.O.o.O.o.o. .[ ( ( ) ( ~ T d q 6 6 % 6 6 6 o $ $               ",
"o $ r c ] O.s.O.O.o.o.o.o.o.o.o.O.O.a.a.a.a.a.&.O.O.o.X.} [ ] ] } ' R x d r r r t e 6 6 $ o o             ",
"o $ r c ] -.s.O... . . . . . . .X.O.&.s.s.s.a.O.O.X. .} [ ] ] [ [ ] ! T x z z z z g r 6 $ + o o           ",
"O $ r x ( o.O. .[ [ ] ] ] ] ] ] |  .o.o.&.&.O.O.X.} [ ] ' ' ' ' ( ( ( ( W W W W R v f 7 $ O O $ $         ",
"O $ q h Y ) [ [ ] ] [ ] [ ] ] [ ] ] [ [ } o.O.o.X.[ ] ( ' ' ( ! ~ Y / @.#.5.%.+.' U g 7 $ # - = = =       ",
"O @ 7 r h v Y ( [ }  . .}  . .} ] / I I Y ) X.o.X.[ ] ( ' ! R T v z Q 4.v.D.h.%.[ U g 7 % - , < 2 1 =     ",
"@ $ $ 6 q y x R } o.o.o.o.o.o.o.] I h s z Y  .O.o.[ ] ' ' ! R x f y C c.!.'.E.h.+.T d 7 * , 5 D S 4 = $ + ",
"@ @ $ $ 6 q h R  .&.&.&.O.&.&.O.] I y r f U } o.o.[ ) ] { { / x t 0 V m.{.OX'.h.+.L s 7 6 > D H G 5 : $ + ",
"@ @ % 7 q s v / X.&.&.&.&.&.&.&. .Y z f z ~  .O.X.[ [ @.5.t.4.C u 0 m b.[.@X|.S.+.L s 7 * < G K G 5 : $ + ",
"O $ 7 t l I / } o.&.&.&.&.&.&.&.o.( Y U Y ] ..o...] { 5.D.J.F.<.n % m b.[.@X|.S.+.L s 7 * < F K H A : $ + ",
"O $ q h Y [ X.o.O.&.&.&.O.&.&.&.o.o. .}  .o.&.o...] { t.E.|.}.b.V u V m.[.@X'.S.+.L s 7 * 2 D J G 5 : $ + ",
". $ r z ) o.s.-.O.&.O.O.&.O.O.&.O.O.O.O.&.O.O.O...^  .r.Q.+XOXM.Z V Q m.OX+X'.S.[ T s 7 - > S G D 4 = $ + ",
"O $ r c ] O.s.a.&.O.O.&.&.O.&.O.O.s.O.s.s.&.O.o...^ { r.W.@X#X{.M.x.M.].oX@X'.S.+.T s 7 % & 2 5 5 > * $ + ",
"O $ r z ' O.a.a.O.&.O.&.O.O.&.O.O.&.s.&.a.&.O.o...^ | r.Q.+X#X$X[.].{.oX#X@X'.S.+.T s 7 @ # & : : * % $ @ ",
"o $ r z ) o.a.a.&.O.&.O.&.O.O.&.O.O.O.O.O.&.&.o...] | t.!..X#X#X$X$XoX#X#X+X!.v.{ L d 9 % # # # % # $ @ @ ",
"O $ e x ' O.s.s.O.O.-.O.O.&.&.O.&.O.&.O.&.&.O.O...[  .8.F.W.XX X.X X X XXX}.D.4.E b p w : - # $ O + @ @ $ ",
"o $ r x ' O.s.s.s.s.&.&.&.O.O.O.O.&.O.O.O.&.O.O.o...o.5.h.D.F.J.J.J.H.H.J.v.4.Q h p a i 5 1 = $ + + +     ",
"o $ r x ( O.s.&.O.O.O.O.O.O.O.O.O.&.O.&.&.O.O.O.O.O.O.%.%.%.5.5.5.5.5.5.5.#.E j r w i D F 5 > % + +       ",
"O $ q j W [ .. . ...X.O.O.s.O.O.&.O.&.O.O.&.O.O.O.O.o.X.[ ] ' ' ] ] ] +.' W x r 0 : A H J D 1 % +         ",
"O $ 7 y z I U I U W ) X.a.s.a.s.&.&.&.&.O.&.O.O.O.X.X. .] ^ ! ! W ^ ! ^ ^ Y k e % ; S J K D 1 - +         ",
"@ @ % 9 r y f y f k E [ O.s.s.O.a.&.&.O.O.O.&.O.$...[ [ ' ' ^ ! ' ' ^ ] ! Y k r % ; A J K D 2 % @         ",
"@ $ $ $ 6 6 % 6 6 t x ( o.O.O.o.O.O.O.O.O.O.O.O.X.[ ] ' ] ) ' ' ' ' ' ] W R L 7 * : A G H S 1 - +         ",
"$ @ $ $ O O O . + e h U / ' ( ) ' [ o.O.O.O.O.X. .{ ' ' ( ] ' ) ' ' ] { [ Y L t 6 & < S D 5 > % $         ",
"                  7 y h x x z x P W [ O.O.X...[ ] ] ' ) ' ' ' ] ] ' ] [ [ W L t 6 - ; 2 4 > = % +         ",
"                    q e r q q e f P ] o.O.X.[ ] ] ' ' ' ' ' ' ) ' ' ] ] W W L t % $ # & = * % $ @         ",
"                      $ $ $ 6 7 t v ' o.O...[ ] ] ] ] ] ' ' ' ] ' ' ' ' W Y k 7 6 @ @ @ $ $ $ @ $         ",
"                      o @ % 7 t k U ] o.o...[ [ [ [ [ ] ] ' ' ' ' _ W W T k s 7 $ O O + O O + $ @         ",
"                      O $ q f v R ] ..o.O.o.......} } } ] ' ( ' ' ( R v g t 7 6 $ @ +                     ",
"                      O 6 y v ] o.O.O.a.O.O.$.O.&.&.&.X. .[ ] [ ] ( U h r 6 $ + $ @ @                     ",
"                      O 6 g / *.d.f.f.d.d.d.f.9.d.d.:.:.;.#.| | { ( P g 9 @ O O @ $                       ",
"                      . 6 M ` 0.z.z.j.j.j.j.j.j.j.l.j.i.i.q.6.*.| ) P f 7 @ . O @                         ",
"                      o 0 M 1.V.T.R.T.T.T.T.T.T.T.T.T.K.Z.B.y.6.#.( P s 7 @ O                             ",
"                      o 0 B 1.L._.`.)._././././._._./.Y.A.Z.N.e.*.) P s 9 @ O                             ",
"                      o 0 B 2.P.).`.`.).(.(.).).).).(.^.I.A.C.w.*.) P s 7 @ .                             ",
"                      o 8 B 2.P.).`.).(.).).).).).(.(.^.~.A.N.w.*.) P s 6 O .                             ",
"                      o q N 2.P.).`.).)._._.(.).).(.(.~.I.Z.N.w.*.) T f q $ o                             ",
"                    X o 7 N 2.P._.`.)._.).)._.(.(.)./.~.I.A.N.w.*.) T z t e 7                             ",
"                  o X X % B 2.P.).`.).).).).).).).).(.^.I.A.N.w.=.) R I c l f q                           ",
"                $ o o o 8 B 2.I.).`.).).(._.).(.(.(.(.^.~.Z.N.w.*.] ' ^ ( W b y $ o o @ @                 ",
"              @ @ $ o $ q M 3.A./.).(./._./././././.R.U.A.C.p.7.#.{ ] } ..[ U g q $ @ $ @ @               ",
"              @ @ % 7 e g ` 6.G.T.R.R.Y.R.^.~.~.U.T.T.G.C.p.e.6.@.) [ X.o. ./ v f r 7 $ @ @               ",
"              + $ 6 t l U _ ;.g.j.G.L.P.I.I.I.L.G.l.k.0.q.6.=.@.| ] [ X.X.} [ ~ Y z t 7 $ O               ",
"              o $ 9 h Y ] -.-.:.f.i.V.Z.A.A.A.C.p.0.:.-.-.#.| [ ) ) ! ] ] [ [ } ] Y g q $ O               ",
"              o $ e z W o.O.O.O.-.q.i.B.C.C.V.p.0.:.-.o...[ ] ] ] ] ( W R R ) ] ' E h 9 @ O               ",
"              o $ e z / X.o.o.o.$.>.q.u.i.i.i.0.9.>.&.o...} [ ] ] ( R I c x v I P z y 7 $ @               ",
"              o $ q h R [ ....[  .$.>.9.9.f.9.d.s.a.&.O.o.o... .[ ( Y x s t t y t t q 6 $ @               ",
"              o @ q g I / ' ^ ^ ] { X.o.$.$.$.o.$.o.o.o.O.O.o.o.} ( U g e % $ $ $ 6 $ $ @ @               ",
"                @ 9 y x P I P I I Y R W ! ~ / R / / / [  .O.O.o. .( I s 7 @ . O o @ @ @ @                 ",
"                  9 r y f f f f d h k k k k z z h z x I ( o.&.O. .( I f 7 O . .                           ",
"                    7 9 9 q 7 9 7 q q e e q q q q q r h R  .O.o. .( I s 7 @ o                             ",
"                      @ @ @ $ @ $ $ @ $ @ @ $ @ o $ 6 t v / }  .[ ( I f q $ o                             ",
"                        O O O o O O . O . . O . . . @ e g P Y / ( ( U f 9 $ .                             ",
"                                                      7 r y g P R ( U g 9 $ o                             ",
"                                                        $ 7 e g I ~ I f 9 $ o                             ",
"                                                          O 6 y z v z y 6 $ @                             ",
"                                                            $ r s f t e % $ @                             ",
"                                                              9 9 9 7 6 $ @ @                             ",
"                                                                @ $ $ $ $ @ @                             ",
"                                                                O O O @ @ $ @                             "
};
