/* XPM */
static char *_3_resized[] = {
/* columns rows colors chars-per-pixel */
"53 64 199 2 ",
"   c None",
".  c #292E1E",
"X  c #272B1D",
"o  c #2D321F",
"O  c #2F3520",
"+  c #2D3820",
"@  c #313620",
"#  c #3B3621",
"$  c #333921",
"%  c #3A3B22",
"&  c #4C3623",
"*  c #433A23",
"=  c #4A3924",
"-  c #433622",
";  c #543622",
":  c #523A25",
">  c #5B3925",
",  c #593624",
"<  c #643A26",
"1  c #6C3A27",
"2  c #683726",
"3  c #7C3B29",
"4  c #763B26",
"5  c #3B4325",
"6  c #3F4926",
"7  c #3F4428",
"8  c #414B27",
"9  c #42442B",
"0  c #444E28",
"q  c #594526",
"w  c #475129",
"e  c #49542A",
"r  c #4D592B",
"t  c #515D2D",
"y  c #454934",
"u  c #535939",
"i  c #4B5A30",
"p  c #605929",
"a  c #734728",
"s  c #54622E",
"d  c #56652C",
"f  c #576430",
"g  c #596631",
"h  c #5C6B32",
"j  c #576536",
"k  c #5F7132",
"l  c #616A38",
"z  c #647535",
"x  c #677836",
"c  c #697B37",
"v  c #6C7E39",
"b  c #667037",
"n  c #525743",
"m  c #5D6152",
"M  c #5C674E",
"N  c #6B6745",
"B  c #70684A",
"V  c #676B5A",
"C  c #6C745D",
"Z  c #6D7847",
"A  c #75796B",
"S  c #823B2A",
"D  c #893A29",
"F  c #943C2C",
"G  c #9C3C2C",
"H  c #A33D2D",
"J  c #AB3E2E",
"K  c #B13D2E",
"L  c #B93E30",
"P  c #6F8436",
"I  c #6E8239",
"U  c #72853A",
"Y  c #75893C",
"T  c #798E3D",
"R  c #718737",
"E  c #7D933E",
"W  c #7B8A44",
"Q  c #7F9540",
"!  c #7E914A",
"~  c #778656",
"^  c #79836B",
"/  c #859E3E",
"(  c #88A23F",
")  c #87A13E",
"_  c #809740",
"`  c #859C42",
"'  c #899D46",
"]  c #889C4D",
"[  c #8D8F53",
"{  c #87A041",
"}  c #8AA344",
"|  c #8EA945",
" . c #8DA34B",
".. c #91AC46",
"X. c #91A64E",
"o. c #93AE48",
"O. c #94B146",
"+. c #96B149",
"@. c #9AB64B",
"#. c #9EBB4C",
"$. c #8FA256",
"%. c #92A651",
"&. c #94A953",
"*. c #9BA757",
"=. c #9EB451",
"-. c #A0BE4E",
";. c #A1A95A",
":. c #A4A75E",
">. c #A3BB51",
",. c #ADBD5C",
"<. c #A6B757",
"1. c #8E9A78",
"2. c #9B9261",
"3. c #A6956C",
"4. c #AD9772",
"5. c #9CB064",
"6. c #9AA777",
"7. c #9BAF62",
"8. c #ABAB64",
"9. c #B5AD6D",
"0. c #A1B46D",
"q. c #A1B667",
"w. c #B2BD61",
"e. c #BBBD6C",
"r. c #B4B469",
"t. c #B8AE71",
"y. c #B7AD70",
"u. c #ACBD7B",
"i. c #A6B774",
"p. c #BBB072",
"a. c #BEB971",
"s. c #C5BA78",
"d. c #A3C04E",
"f. c #A6C450",
"g. c #A9C056",
"h. c #B2C15F",
"j. c #B4C361",
"k. c #B9C466",
"l. c #AEC07A",
"z. c #CECA79",
"x. c #C7C375",
"c. c #D1CB7C",
"v. c #D5D17D",
"b. c #909389",
"n. c #9EA09A",
"m. c #9DA28E",
"M. c #A2A899",
"N. c #A9AAA4",
"B. c #B3B7AD",
"V. c #BDBEBA",
"C. c #CDB484",
"Z. c #CDBA81",
"A. c #D2BD85",
"S. c #D4B98A",
"D. c #DDBC92",
"F. c #E1BC96",
"G. c #B2C283",
"H. c #B8C988",
"J. c #BAC59C",
"K. c #BEC3B0",
"L. c #DBC689",
"P. c #DFC192",
"I. c #E2CB8E",
"U. c #E4C496",
"Y. c #E7C399",
"T. c #ECC59D",
"R. c #EFCF9A",
"E. c #F1CE9E",
"W. c #EAD194",
"Q. c #F2D49B",
"!. c #C3CFA0",
"~. c #C8D4A6",
"^. c #D2DCB6",
"/. c #D3DCBA",
"(. c #C8D1B3",
"). c #F5CEA2",
"_. c #F8CFA5",
"`. c #FCD5A6",
"'. c #FFD7A9",
"]. c #FFD9AB",
"[. c #FCD7A5",
"{. c #FFDEB0",
"}. c #D9E2BF",
"|. c #D7E0BF",
" X c #C2C3C0",
".X c #D6DACB",
"XX c #DDDDDB",
"oX c #CFD3C3",
"OX c #DDE5C5",
"+X c #E1E1DE",
"@X c #E0E6CE",
"#X c #DFDFE1",
"$X c #E4E4E2",
"%X c #E9EAE8",
"&X c #EEF1E5",
"*X c #F1F4EA",
"=X c #F3F6EA",
"-X c #F5F5F6",
";X c #FBFBFB",
/* pixels */
"                                                                                                          ",
"                                                                                                          ",
"                                                                                                          ",
"                                                                                                          ",
"        O O O O O O @ O O O O @ O O O O O O O + O O O O O @ O O O O O O @ O O O @ @ @ @ @                 ",
"      5 5 5 5 5 5 5 5 5 5 5 5 5 5 5 5 5 5 5 5 5 5 5 5 5 % 5 5 5 5 % 5 5 5 % 5 5 5 $ $ $ @ @               ",
"      e t s f f t f f t t f s s f t t s t f f t f f t t i r r r r r r r r r r r r w 5 5 $ @ +             ",
"o $ w g c U Y Y Y Y Y Y Y U Y Y Y U Y U W U U Y U Y Y U I x x z x z z x z x x x x g e 5 @ + + +           ",
"O $ w b Q | o.o.......................o.....o.o.o.o.| } { Q Q Q Q Q Q Q Q Q Q Q E c d 6 $ @ @ @ $         ",
"O $ w x ` #.d.-.#.@.@.@.@.#.@.=.#.#.#.-.f.#.#.#.#.#.@.+.| { { { { { { ` { { } } ` Y g 8 $ # - & = =       ",
". $ e c | -.f.-.@.@.+.@.+.@.@.+.@.#.>.f.f.f.f.f.#.@.+.+.| } { } } }  .} ( ( } } { Y h 0 % & > 1 1 < =     ",
"O $ e x } #.-.@... .| | ..| | | o.+.#.f.f.#.#.#.@.+.| | } { { } } } } } ) ) } | ` Y h 6 % , 3 F F 1 = $ + ",
"O $ w b _ o.@.o.| } } } } } } } | | +.@.@.#.#.#.+.| } }  . . . .{ ` _  . . .&.| ` U d 6 5 < F J G 3 : % + ",
"O @ 6 f v Q ` } } |  .|  .| | | } _ _ _ { o.@.@.+.| } %.7.i.0.$.! W ! $.0.i.q.&.} U d 6 * < G L J a : $ + ",
"+ $ 5 0 t h U _ | o.+.+.o.o.+.o.} Q x z I _ +.@.O.|  .5.H.!.J.6.~ b Z 6.J.J.H.0. .P d 6 * 1 G L J 3 : $ + ",
"@ $ $ $ 5 e b T ..#.#.#.#.#.-.@.} I d r h W ..@.O.|  .i.~.OX.XM.C u C m.oX@X^.l.$.I s 6 * 1 G K J 3 : % + ",
"@ @ @ $ 6 e b Q +.#.f.#.#.#.#.#.| W j r g T ..@.O.( ..l./.&X+XN.V y V n.XX&X}.G. .P d 6 # < D G F 4 = $ + ",
"@ $ 5 0 t k U { @.#.#.f.#.f.f.#...Q v z I _ +.@.O.( X.l.|.&X$XN.V 7 m n.XX=XOXH.X.R d 6 % & 1 3 4 , - $ + ",
"O $ 0 f c Q  .+.#.f.#.f.#.f.#.f.@...{ Q { o.@.@.O.(  .l.|.&X+XN.V y V n.XX*XOXH.X.R d 6 $ # = > : & # $ O ",
"O $ w k Q +.#.#.#.#.#.#.#.#.#.#.@.@.@.@.@.#.#.@.O.} X.u.^.&X+XN.A n C M.XX&XOXG.$.I s 0 % # # # # $ $ $ $ ",
"+ $ e x } #.f.f.f.#.#.#.#.f.#.#.-.-.-.-.f.-.#.@.( ( +.u./.&X%X Xb.A b.V.%X%X/.6.W k p q : - # $ + + $ $ $ ",
"O $ e x { #.f.f.#.#.#.#.#.#.#.#.-.-.-.f.-.-.-.@.O.( &.u.^.*X-X#X XB.V.XX-X%X(.1.Z t a S 3 1 = $ + + +     ",
". $ e z { #.f.#.#.#.#.#.#.#.f.#.#.-.-.#.-.-.-.@.O.(  .u.(.&X;X-X%X$X%X-X;X%XB.^ t q 4 F G a > # + +       ",
"O $ e z ' @.-.f.f.#.#.#.f.#.#.#.#.-.-.#.-.-.-.@...|  .i.!.OX*X*X*X%X*X-X=XOXM.C 9 ; 4 J J F < * +         ",
"O $ e x { #.f.f.f.-.f.-.#.f.f.#.-.-.-.-.-.-.#.#...}  .5.G.~./././.OXOX}.|.J.1.M * : S K L F 1 # +         ",
". $ w c } #.f.f.f.-.-.f.f.f.#.f.d.-.-.#.-.-.-.@.O.| } &.5.i.G.G.G.G.G.G.l.6.~ n 9 ; D J L F < * +         ",
"O $ w z Q +.#.#.#.#.@.@.@.@.@.@.@.#.#.-.-.#.#.#.+. .} }  .X.&.&.%.%.&.&.&.Q W i 9 ; 3 J J D 2 # $         ",
"O $ 0 j W _ } { ` ` ` { { ` ` ` } ..+.#.#.#.@.+...} { { { { Q { / / { } { E z e % & 1 D F 3 , # +         ",
"O $ 6 e g z x x z z x x x b b z I Q | @.#.@.+.| | } { ] Q { Q { ) Q ) { { E P e 5 - ; 1 1 > = % $         ",
"@ $ $ 7 0 w w e e w w 0 w w 0 w f I } @.#.+.| } } { { { { { { { { { { } { E P e % % # = = - % $ $         ",
"$ @ $ $ $ @ $ @ $ + $ $ $ $ 5 8 r I { @.@.+.| } } } { { } { { { { { } { Q Y h 6 5 @ @ @ $ $ $ $ @         ",
"@ $ O O O O O O O O O O + 5 6 i k Y } @.#.O.| | | | | | } { { { { } Q T R x d 6 $ + O O + @ @ @ $         ",
"                    . O $ 0 f v E { O.@.@.@.O...O.O.....} } ' } } Q Q x g r 0 5 $ $ +                     ",
"                    . O 5 t v } +.#.#.d.-.>.#.#.-.-.@.@...} } } } { Y h e 5 $ @ $ @ @                     ",
"                      O 5 j _ ;.j.k.h.h.h.h.w.h.h.h.h.,.<.*.%.X.| ` U f 6 O O O @ @                       ",
"                      + * l [ r.v.v.c.z.z.z.z.z.z.z.z.s.e.9.8.;.%.` I f 5 O O O @                         ",
"                      O 9 N 2.L.W.Q.W.W.W.W.W.W.W.W.W.I.D.Z.t.8.*.` I f 6 @ O                             ",
"                      O 9 B 4.U.[.{.[.[.`.'.`.`.[.[.`.E.F.D.C.t.;.} I d 8 @ O                             ",
"                      O 9 B 4.Y.].{.{.].'.].].].].].'._.T.F.S.t.;.' I d 5 @ . .                           ",
"                      o 9 B 4.Y.].{.].].].].].].].'.'._.).F.C.t.;.' I d 5 O . . o O @ @ $                 ",
"                      o 8 B 4.U.].{.].].[.].[.[.].'.'.).T.D.C.t.;.' U g 8 $ @ @ @ @ $ @ $ @               ",
"                      o 9 B 4.Y.[.{.].[.].[.[.].'.'.'.).T.D.C.t.;.' Y z t w 0 0 w 8 5 5 @ @               ",
"                      o 9 B 4.Y.].{.].].].].{.[.].].'._.).F.C.t.*.' E R c z b z z g e 5 @ @               ",
"                      o 9 B 4.Y.].{.].[.[.[.].[.'.'.'.`.T.D.C.t.;.} { / ` ` ` ` _ I f 8 $ O               ",
"                      o 9 N 3.D.[.].[.[.[.`.`.`.`.`.Q.E.F.S.C.8.*. .} ..O.@.@.@.| Q h 0 @ O               ",
"                      o 9 N 2.s.W.Q.Q.).`.).).).R.W.I.L.S.s.y.8.*. .} o.@.@.+.| _ I f 0 @ +               ",
"                      o 7 j [ r.z.L.U.Y.T.T.T.U.L.L.x.k.r.8.:.*. .} } ..O...` Y z f w 5 @ @               ",
"                      O 7 f W =.k.x.A.D.F.F.D.S.x.e.w.<.=.*.%.} ' ' } | } ` U g w 7 $ $ @ @               ",
"                      O 5 s I o.<.k.s.Z.S.S.S.s.e.w.#.@.O.| } } } ` ' ` Q Y h e $ @ @ @ @ $               ",
"                      O 5 t P | >.h.e.a.s.a.a.e.w.g.-.@.O.O.| | } } E Y c h r 5 $ O O @ $                 ",
"                      O 5 r Y | #.g.,.h.w.w.w.h.g.f.-.-.@.@.+.o.| ` T z f e 5 5 @ @ +                     ",
"                      O 5 s Y | #.f.>.#.#.=.=.=.=.@.@.@.@.#.@.@...` U h w $ @ @ $ @                       ",
"                      O 5 s Y ..-.f.@.+.| } { _ Q Q _  .+.@.#.@.o.` U f 6 @ O O @ @                       ",
"                      O 5 s Y o.#.f.@.| ) Y c z k k x Y } @.#.#.o.` U s 6 @ . O                           ",
"                      O 5 t Y | #.@.+.{ Y k r 0 6 6 e h T o.#.#.o.` U s 6 @ O                             ",
"                      O 5 f I ` | o.| ` I d 6 @ + O 5 r c ` | o...` U f 0 @ O                             ",
"                        5 r h U T Q { _ I d 5 O X . @ e h I T _ ' / Y f 8 $ o                             ",
"                          0 r t h I Q _ I f 5 @ X       e t g I T / Y g 8 $ o                             ",
"                            $ 7 e b Y Q I s 6 @ O       $ 5 w g U E U f 8 $ o                             ",
"                              @ 5 s z c b r 5 + O         @ 5 t b v z t 5 @ O                             ",
"                                5 e f f r 0 5 $ O           $ e t d r w 5 $ @                             ",
"                                  8 8 8 5 5 $ @ @             8 0 0 6 5 $ $ @                             ",
"                                    $ @ $ $ $ $ @               @ $ $ $ $ @ @                             ",
"                                    O O O @ @ @ @               O O @ @ @ $ @                             "
};
