/* XPM */
static char *_4_resized[] = {
/* columns rows colors chars-per-pixel */
"60 64 196 2 ",
"   c None",
".  c #292E1E",
"X  c #232C16",
"o  c #263119",
"O  c #2C321E",
"+  c #33381E",
"@  c #2E3520",
"#  c #2C3820",
"$  c #313620",
"%  c #343A22",
"&  c #3A3A22",
"*  c #393A25",
"=  c #43341E",
"-  c #433722",
";  c #433923",
":  c #4B3924",
">  c #4A3723",
",  c #533924",
"<  c #5B3A25",
"1  c #5E3723",
"2  c #633A26",
"3  c #6B3B27",
"4  c #6F3B28",
"5  c #743B28",
"6  c #7C3B29",
"7  c #773A27",
"8  c #38411E",
"9  c #3C4425",
"0  c #3F4826",
"q  c #3F442A",
"w  c #354120",
"e  c #3E4430",
"r  c #414A27",
"t  c #42442C",
"y  c #444E28",
"u  c #484C2E",
"i  c #465226",
"p  c #495526",
"a  c #4D5B26",
"s  c #475129",
"d  c #49532A",
"f  c #4E5A2B",
"g  c #515E2D",
"h  c #505F25",
"j  c #404630",
"k  c #434A30",
"l  c #4A4F3C",
"z  c #4A503A",
"x  c #525D33",
"c  c #55622E",
"v  c #5A6A2E",
"b  c #58672C",
"n  c #576530",
"m  c #596632",
"M  c #5D6C32",
"N  c #5F7132",
"B  c #616B38",
"V  c #647535",
"C  c #677835",
"Z  c #6A7C35",
"A  c #6C7E39",
"S  c #66753A",
"D  c #4E5341",
"F  c #545946",
"G  c #535846",
"H  c #5C6445",
"J  c #5D634B",
"K  c #5D6351",
"L  c #666A47",
"P  c #726A4B",
"I  c #70674B",
"U  c #697643",
"Y  c #686C5E",
"T  c #636958",
"R  c #6C7455",
"E  c #727B59",
"W  c #727F4D",
"Q  c #6F7363",
"!  c #737864",
"~  c #8C3C2B",
"^  c #853C2A",
"/  c #943D2C",
"(  c #9C3D2D",
")  c #A23D2D",
"_  c #AB3E2E",
"`  c #B33E2F",
"'  c #BA3F30",
"]  c #B73E30",
"[  c #6E8236",
"{  c #6E8239",
"}  c #72853A",
"|  c #758A3C",
" . c #798E3D",
".. c #708536",
"X. c #7C923E",
"o. c #748644",
"O. c #7E9440",
"+. c #7A845D",
"@. c #7D8763",
"#. c #819A3F",
"$. c #80973E",
"%. c #808849",
"&. c #809740",
"*. c #859C42",
"=. c #899D45",
"-. c #8F9E4D",
";. c #929257",
":. c #8BA444",
">. c #8EA945",
",. c #8EA248",
"<. c #91AC47",
"1. c #93AD48",
"2. c #92A34C",
"3. c #94B246",
"4. c #96B149",
"5. c #9AB54B",
"6. c #9EBB4D",
"7. c #9AA654",
"8. c #9EB451",
"9. c #A0BE4E",
"0. c #A1A959",
"q. c #A2A75B",
"w. c #A4BB53",
"e. c #ACBC5B",
"r. c #A6B559",
"t. c #868B77",
"y. c #AD9772",
"u. c #AE9973",
"i. c #A8976D",
"p. c #ABAA65",
"a. c #B5AD6E",
"s. c #B8AF6F",
"d. c #B3BD62",
"f. c #BDBC6E",
"g. c #B5B569",
"h. c #B8AE71",
"j. c #BBB272",
"k. c #C3BC75",
"l. c #C8B97C",
"z. c #A3C14F",
"x. c #A6C450",
"c. c #B2C15F",
"v. c #B4C360",
"b. c #BBC268",
"n. c #CECA79",
"m. c #C6C374",
"M. c #D1CB7C",
"N. c #D5D17D",
"B. c #8B8E84",
"V. c #878981",
"C. c #8E9185",
"Z. c #929787",
"A. c #9FA297",
"S. c #A1A49A",
"D. c #A6A99F",
"F. c #A9ABA3",
"G. c #A6A8A1",
"H. c #AEB1A6",
"J. c #AFB1A9",
"K. c #B4B6AC",
"L. c #B8BAB1",
"P. c #CDB484",
"I. c #CEB883",
"U. c #D2BD85",
"Y. c #D5BA8A",
"T. c #DDBC92",
"R. c #E0BC95",
"E. c #D8C588",
"W. c #E1CB8E",
"Q. c #E4C495",
"!. c #EBC59C",
"~. c #EBCC98",
"^. c #F2CE9F",
"/. c #EAD294",
"(. c #F2D39B",
"). c #C1C3BC",
"_. c #F6CEA3",
"`. c #F8CFA5",
"'. c #FCD6A6",
"]. c #FFD7A9",
"[. c #FFD9AB",
"{. c #FBD6A4",
"}. c #FFDEB0",
"|. c #CACBC6",
" X c #CCCDC9",
".X c #C6C7C1",
"XX c #CFD0CB",
"oX c #D1D3CE",
"OX c #D8D9D4",
"+X c #E1E2DF",
"@X c #E5E5E3",
"#X c #E9E9E7",
"$X c #EDEDEB",
"%X c #F5F5F4",
"&X c #FFFFFE",
"*X c #F8F8F7",
/* pixels */
"        @ @ . @ @ . O O O O O @ @ @ . @ @ . @ . @ @ O O O O O O O O @                                                   ",
"        % % % % % % * % % % % % % % % % % % % % % % % % % + * % % * %                                                   ",
"      y s s s s d s s s s s s s s s s s s y s s d y s y y y y y i r y 0                                                 ",
"    y c M V C V S C C S C C S C C S C C C C S C S C C S V B M M M M c f 0                                               ",
"O % s M | *.*.:.*.*.:.*.*.*.*.*.:.*.*.*.*.*.*.*.*.*.*.&.X. .| |  .} C c 0 $ @ @ @ @ $ $ %                               ",
"O % d S *.5.6.6.5.5.5.5.5.5.5.5.5.5.5.5.5.6.5.5.6.5.4.<.:.*.$.$.$. .C c 0 % % % 9 w % % $ %                             ",
"@ * d C :.9.x.9.5.5.5.5.5.5.5.6.5.9.z.z.x.x.z.z.9.9.5.>.$.} Z Z Z Z b i 8 + w y d d 0 * % @ @                           ",
". % d Z :.6.x.6.4.3.<.1.1.1.1.1.5.5.6.x.x.x.z.9.9.5.1.*.Z b h a a a i 8 + + y m N M f 9 % @ # @                         ",
"@ % y C *.5.5.4.>.:.:.:.,.:.:.:.>.1.5.6.6.6.9.6.5.3.:.| M f q q 0 t 9 % 9 q c Z | A n r $ $ $ $ %                       ",
"@ % y M o.:.>.>.>.:.:.>.:.:.:.>.,.:.:.>.1.5.5.5.>.*.o.U L H F G G G F F F H U U | C c 0 & & - > : :                     ",
"@ % 0 f N [ | *.>.<.<.1.1.1.<.<.:.O.} }  .:.4.1.#...V U ! t.B.B.B.B.B.C.C.t.@.W V c i 9 & : < 3 3 < :                   ",
"$ % % 9 y g V O.>.5.5.5.5.5.5.4.:.} M c V O.1.1. .N n R Z.K.|. X X|. XoXXXL.Z.E x 0 w % & 2 6 / ~ 5 : %                 ",
"$ $ % % 9 s M O.1.9.9.9.6.9.9.6.>.[ x s M  .>.>.[ a s Y S.OX%X&X*X%X*X&X%XOXF.Q k O o # ; 3 / _ ( 5 : % #               ",
"$ % % 9 s c Z &.4.9.z.9.9.9.z.6.<.| V c C #.<.:.[ i k Y F.@X&X&X&X&X&X&X&X#XJ.Q e o o + ; 5 ) ' _ 6 , $ #               ",
"$ % q f B } &.<.5.9.9.9.9.9.9.9.4.:.o.} O.>.5.:.Z i k Y G.@X&X&X&X&X&X&X&X#XJ.Q e o o O ; 5 ) ' _ 6 , % #               ",
"@ % y M  .>.4.5.6.9.6.9.6.9.9.6.6.5.3.<.1.5.6.:.Z p k Y G.@X&X&X&X&X&X&X&X@XH.Q j O o @ ; 5 ( ` _ 6 , $ #               ",
"@ % d S *.5.z.9.6.6.6.6.z.6.9.6.9.6.6.6.x.9.6.:.Z p r Y G.@X&X&X&X&X&X&X&X@XJ.Q r O o O - 2 ~ ) ~ 4 : % #               ",
"O % d C :.9.x.z.z.6.6.6.6.6.6.6.9.9.9.x.x.x.6.:.C i t Y G.@X&X&X&X&X&X&X&X#XJ.! e O o O % , 4 6 5 < ; $ #               ",
". % d C *.6.x.z.6.6.6.6.6.6.6.9.9.9.9.9.9.x.6.>.Z i k Y F.@X&X&X&X&X&X&X&X#XJ.Q k O . + $ ; , < , > * $ @               ",
"@ % d S *.6.z.9.z.6.6.6.z.6.6.6.6.6.9.6.9.9.6.>.Z f z Y S.OX*X&X&X&X&X&X*XOXG.Y q O O $ & & & & & & $ % %               ",
"O % d S :.6.x.9.6.6.w.z.9.6.6.9.6.9.6.6.9.x.6.<. .N m R Z.L.oX@X%X%X%X#XoXL.B.K q + = , , - & $ @ # % %                 ",
"O * d C :.6.x.x.x.x.z.6.6.9.6.6.6.6.9.9.9.9.6.3.:.X.} o.@.t.A..X@X%X@X.XS.t.T D q - 1 7 6 2 > $ # # #                   ",
"O % s C *.6.x.w.6.6.6.6.6.9.9.6.9.6.9.6.6.9.6.5.5.<.:.o.S J Q A.oX$XOXD.! G e * * : 7 / ( 6 < & # #                     ",
"@ % s M O.>.1.3.1.3.5.6.6.9.6.6.6.9.6.6.9.9.6.9.9.6.4.X.b y G B. X#XoXZ.F % o O & 1 ^ _ ` ~ 2 & #                       ",
"@ % 0 g V } } } | O.*.4.9.x.x.9.x.6.6.6.6.6.w.6.z.6.3.| c 8 z V. X$XoXC.l o X o & 1 ~ ` ] / 2 - #                       ",
"@ % 9 r f g n f n V o.<.6.x.x.9.x.6.9.9.6.6.z.6.5.5.>.[ a w l B. X$XoXC.G O X o & < ~ ` ] / 2 - #                       ",
"% $ % % 9 9 * 9 q f Z *.5.6.6.5.6.5.6.6.6.x.6.5.5.1.*.[ a y G B..X@X|.Z.F * o O & , ^ _ _ ~ 2 & #                       ",
"$ % $ $ @ @ O . % y N | &.*.:.*.:.1.5.6.6.6.5.4.<.>.*...M f H @.F.).H.t.H i w + & : 4 ~ / 5 , & %                       ",
"                  0 g M C C V V { O.>.5.6.5.3.>.>.:.#. .[ V S +.t.C.t.@.U M a 0 & ; < 3 4 < > & #                       ",
"                    y s d y y s n { :.5.6.3.>.:.:.:.:.#.X. .o.S H J L U | [ N i * $ - : : - & $ %                       ",
"                      % % % 9 0 x A :.5.5.3.>.:.:.:.:.:.:.*.X.C g d f V } } N d w $ $ $ % $ % % %                       ",
"                      O $ * y f N | :.3.6.3.<.>.:.:.:.>.>.:.X.[ v a g N C V n y * @ @ # @ % # $                         ",
"                      @ * y b Z X.:.3.5.5.5.3.4.3.3.<.<.>.*.#. .{ C N n c f y 9 % @ @                                   ",
"                      @ w f A :.5.6.6.z.6.w.6.5.9.w.5.5.<.:.:.:.*.X.{ v s 9 * # % $                                     ",
"                      $ 0 m %.r.c.v.c.c.c.c.v.v.c.c.e.e.r.7.7.2.>.O.} n 0 % O O % %                                     ",
"                      $ * B ;.f.N.N.n.n.n.n.n.n.n.n.n.m.f.g.p.0.7.:.} c 9 % O O $                                       ",
"                      @ t L i.U./.(././.~././././././.W.Y.P.j.p.7.*.[ c 0 @ O                                           ",
"                      @ t I i.Q.'.}.[.{.'.'.{.{.].].{.^.!.T.P.s.0.*.[ c 0 % @                                           ",
"                      O t P y.Q.}.}.[.[.[.].[.[.[.[.'.`.!.R.I.h.0.=.[ c 0 $ .                                           ",
"                      O t I y.!.'.}.}.'.].[.[.[.[.].].`.!.R.Y.h.0.=.[ g 9 @ .                                           ",
"                      O t P y.!.'.}.'.'.'.'.'.[.[.].]._.!.T.P.h.0.=.} n 0 * O                                           ",
"                    o O t I y.R.'.}.}.[.}.'.'.[.].].]._.!.T.P.h.0.=.} M f y 0                                           ",
"                  O o o 9 I y.!.}.}.}.'.'.[.[.[.[.[.].`.!.R.P.h.7.=.X...Z N n y                                         ",
"                % O O O t I u.!.'.}.[.'.[.'.[.'.[.[.].{._.T.P.h.7.:.:.:.:.o.C f * O O % %                               ",
"              % $ + O + u P y.Q.].'.].{.'.'.'.{.{.{.(.^.R.Y.l.a.7.2.:.3.4.:.| n 0 * % % % @                             ",
"              @ % * 0 d B o.p.E./.(.^._.{._._._.(./.W.E.I.l.h.p.7.,.>.4.5.1.O.A c d 0 % % @                             ",
"              @ $ 0 f V o.-.r.b.n.E.Q.!.!.!.!.Q.E.E.m.f.s.p.0.7.-.,.:.>.4.3.:.O...V f 0 % @                             ",
"              O % r M | 2.5.w.e.v.m.U.T.R.R.T.Y.l.b.e.w.8.7.2.:.,.*.:.:.:.:.>.1.:.| M 0 % @                             ",
"              O % y V &.4.6.6.6.r.d.k.I.Y.Y.Y.l.f.e.w.5.3.>.:.:.:.=.*.O.X.O.*.,.:.| M y $ @                             ",
"              O % s V &.4.6.5.5.8.r.g.f.k.l.f.f.d.w.z.5.3.3.:.>.:.*.O.} C C A } [ V f 0 % @                             ",
"              @ % y M  .>.<.3.>.4.8.r.v.d.v.d.c.w.x.z.6.6.3.5.<.>.*. .C n f f g x d r * $ $                             ",
"              O % r M } #.:.:.#.:.2.4.5.8.8.8.5.6.5.5.5.6.5.5.5.<.*.} m y % % % 9 % % % % $                             ",
"                % q g C [ } } } .. .O.O.#.X.&.&.O.O.*.:.1.6.6.5.<.*.} c 0 $ . @ @ @ $ $ %                               ",
"                  0 f g c m c c c M N N N V N N N N C | :.5.6.6.<.*.[ c 9 $ . .                                         ",
"                    0 0 r 0 r r 0 y r y s i y y y y f M o.1.6.5.1.*.} c 0 $ O                                           ",
"                      % % % % % % % % % % % % % @ @ % x [ *.<.1.>.&.} n r $ @                                           ",
"                        O O @ O O O O O . @ O . . . % d M A | O.=.*.} b r % @                                           ",
"                                                      0 d c M A X.*.} m r $ @                                           ",
"                                                        * 9 s M }  .} c r % @                                           ",
"                                                          O 9 c C A V g 9 $ @                                           ",
"                                                            * d g n f y * % @                                           ",
"                                                              0 r r 0 9 * + %                                           ",
"                                                                % % % % $ % %                                           ",
"                                                                @ $ @ @ $ $ %                                           "
};
