/* XPM */
static char *_5_resized[] = {
/* columns rows colors chars-per-pixel */
"56 64 196 2 ",
"   c None",
".  c #1F2815",
"X  c #242D18",
"o  c #292E1D",
"O  c #232D15",
"+  c #263119",
"@  c #2C321E",
"#  c #253017",
"$  c #31361E",
"%  c #323B1E",
"&  c #39331C",
"*  c #2F3520",
"=  c #2C3820",
"-  c #313620",
";  c #343A22",
":  c #3A3A22",
">  c #3A3A25",
",  c #433923",
"<  c #4B3924",
"1  c #473621",
"2  c #543A25",
"3  c #5B3A25",
"4  c #633A26",
"5  c #6B3B27",
"6  c #6E3B28",
"7  c #743B28",
"8  c #7C3C29",
"9  c #3B4324",
"0  c #3F4826",
"q  c #3D442C",
"w  c #3F4530",
"e  c #414A27",
"r  c #42442C",
"t  c #444E28",
"y  c #4A4F2F",
"u  c #455124",
"i  c #465129",
"p  c #4A552A",
"a  c #4E5A2C",
"s  c #4A5726",
"d  c #525E2D",
"f  c #414631",
"g  c #444A32",
"h  c #4B4D36",
"j  c #4C513E",
"k  c #4B5233",
"l  c #58593B",
"z  c #54622D",
"x  c #59692D",
"c  c #57682E",
"v  c #566431",
"b  c #596631",
"n  c #5E6D33",
"m  c #5F7032",
"M  c #62732F",
"N  c #606D37",
"B  c #627334",
"V  c #677935",
"C  c #697C36",
"Z  c #6C7D39",
"A  c #64713F",
"S  c #717E3E",
"D  c #4E5340",
"F  c #565B49",
"G  c #555B45",
"H  c #5D6545",
"J  c #6E6649",
"K  c #656746",
"L  c #746C4C",
"P  c #6A7845",
"I  c #777848",
"U  c #696D5E",
"Y  c #636857",
"T  c #6C7457",
"R  c #727C57",
"E  c #6B6E61",
"W  c #777B6B",
"Q  c #6D7262",
"!  c #833C2A",
"~  c #8D3C2B",
"^  c #993D2C",
"/  c #A33D2D",
"(  c #AC3E2E",
")  c #B43E2F",
"_  c #BB3F30",
"`  c #867959",
"'  c #6E8139",
"]  c #6D8235",
"[  c #71853A",
"{  c #768B3B",
"}  c #798E3D",
"|  c #7C923E",
" . c #7F983D",
".. c #758246",
"X. c #7E9440",
"o. c #788259",
"O. c #7B8269",
"+. c #7E8275",
"@. c #7F8279",
"#. c #81983F",
"$. c #818848",
"%. c #809641",
"&. c #849B42",
"*. c #8B974C",
"=. c #979958",
"-. c #8E8659",
";. c #8BA344",
":. c #8EA845",
">. c #8EA149",
",. c #87A141",
"<. c #91AC47",
"1. c #91A24D",
"2. c #94AE48",
"3. c #95B247",
"4. c #96B249",
"5. c #99B54B",
"6. c #9EBB4D",
"7. c #99A553",
"8. c #9AAA51",
"9. c #99A454",
"0. c #9EB450",
"q. c #A1BE4E",
"w. c #A3A85C",
"e. c #AABC5A",
"r. c #A4B756",
"t. c #9B8A66",
"y. c #808476",
"u. c #848877",
"i. c #8D9479",
"p. c #A59869",
"a. c #AB9571",
"s. c #AC9772",
"d. c #A8A663",
"f. c #B6B46A",
"g. c #B5BB66",
"h. c #B9AD72",
"j. c #B9A974",
"k. c #BDB473",
"l. c #B2AA6C",
"z. c #C2AA7F",
"x. c #C5B979",
"c. c #A3C14F",
"v. c #A6C450",
"b. c #BBC06A",
"n. c #C8C675",
"m. c #C0C16F",
"M. c #94978C",
"N. c #9B9E93",
"B. c #969890",
"V. c #8B8F82",
"C. c #9DA192",
"Z. c #A3A59E",
"A. c #A5A99A",
"S. c #A8AAA2",
"D. c #B3B5AD",
"F. c #B9BBB4",
"G. c #BDBEB9",
"H. c #CDBB81",
"J. c #CEB386",
"K. c #DABD8E",
"L. c #D2B888",
"P. c #DEBC93",
"I. c #C8AB84",
"U. c #E1BD96",
"Y. c #BEC0BA",
"T. c #DAC589",
"R. c #DAC787",
"E. c #E1CA8E",
"W. c #E4C396",
"Q. c #EBC59C",
"!. c #EACA98",
"~. c #F1CC9F",
"^. c #F4D29E",
"/. c #EDD197",
"(. c #C2C4BD",
"). c #F5CDA2",
"_. c #F6D2A1",
"`. c #FCD4A6",
"'. c #FFD7A8",
"]. c #FFD9AB",
"[. c #FFD9A7",
"{. c #FFE1B1",
"}. c #C9CBC4",
"|. c #CFD1CB",
" X c #D1D2CE",
".X c #DCDDD9",
"XX c #D6D7D4",
"oX c #DFE0DD",
"OX c #E0E0DE",
"+X c #ECECEA",
"@X c #E7E7E5",
"#X c #EFF0EE",
"$X c #F0F0EF",
"%X c #F2F2F1",
"&X c #FFFFFF",
"*X c #F8F8F7",
/* pixels */
"        @ o * o * o * * o o * o @ @ @ * o o * o * * o o @ @ @ @ @ * @ * @                                       ",
"        ; ; ; ; ; ; ; ; ; ; ; ; ; ; ; ; ; ; ; ; - ; ; ; ; ; ; ; ; ; ; ; ;                                       ",
"      e t t t t t t t t t t t t i t t t t t t t t t t t e t e e e e e e e q                                     ",
"    e a b n n B n n B n n B n N N n n n n n n B N n m N n n n b v b b z d s e                                   ",
"@ ; t b Z } X.X.X.X.X.X.X.X.X.X.X.X.X.X.X.X.X.X. .X.X.X.X.} { [ [ [ [ ] V d e ; @ @ - - * * ; ;                 ",
"@ ; t n X.<.5.5.4.4.4.4.4.4.4.4.4.2.4.4.4.4.4.4.4.4.4.4.2.;.&.#.#.%.#.} C v e ; = ; ; ; ; ; ; ;                 ",
"* ; t B X.5.v.q.6.6.6.5.5.6.5.5.6.6.6.6.q.q.q.q.q.q.q.6.4.;.&.{ [ { { ] M s 0 ; ; 9 t t 0 > ; = -               ",
"o ; t B &.6.v.q.5.4.4.4.4.4.4.4.4.5.6.v.v.v.v.v.c.q.q.5.<.#.] m x x x x s 0 % $ 9 s b c p 0 > = * =             ",
"* ; i m &.5.q.5.2.<.;.<.;.<.;.<.<.2.4.6.q.v.v.6.6.6.5.3.&.[ b s e t e e 9 % $ ; i b ' C n i > * * - = *         ",
"* ; t n } <.4.4.:.;.;.;.;.;.;.;.;.;.<.2.4.5.6.6.6.5.:.,.X.Z b y r r g t f w r y b Z } [ m s 9 * ; : : :         ",
"o ; 0 d V X.&.,.;.;.<.:.:.:.;.:.;.;.&.&.%.&.2.4.5.:.#.{ P P T T U E U U U E E T T ....V c i : : 1 < 2 2 2       ",
"* ; > e a n Z | ;.<.4.2.2.2.4.4.2.;.} Z V Z &.2.5.,.{ B K R u.N.Z.Z.Z.Z.Z.S.S.C.i.o.A d u 9 : , 3 7 8 7 4 < - = ",
"* ; ; > 0 i b [ ;.5.5.q.5.5.6.6.4.;.[ b a b { ;.2. .M a F W S.|..X.X.XXX.XOX.X}.A.O.b w % = > < 6 ~ ^ ~ 7 < - = ",
"- ; ; ; > e b ' ;.5.q.q.q.q.q.q.6.>.[ v s c { ;.2.| x t F W G.@X&X&X&X&X&X&X&X@XY.+.j = + % ; 2 8 / ) / 7 < ; = ",
"= ; 9 9 i v V X.<.5.q.v.q.q.q.q.6.<.X.B n V | 2.3.} z e D y.G.%X&X&X&X&X&X&X&X%XY.+.j @ # + ; 2 ! ( _ / 7 < ; = ",
"* ; 9 p n [ X.>.4.q.q.q.q.q.q.q.q.2.;.X.{ X.:.3.<.} z e D y.G.%X&X&X&X&X&X&X&X+XY.+.j + # + > 2 ! ( _ / 7 < ; = ",
"* ; t b { ;.4.5.6.6.6.q.6.6.q.q.6.0.5.2.2.4.6.6.2.{ x e j y.G.+X&X&X&X&X&X&X&X+XF.+.j ; + + ; 2 ! / ) ^ 7 < - = ",
"* ; t m X.4.q.v.q.6.q.6.6.q.6.6.6.6.6.6.6.6.v.6.3.{ z e j +.G.+X&X&X&X&X&X&X&X+XF.+.j $ + @ ; < 7 ~ / ~ 5 , ; * ",
"o ; t B %.5.v.v.q.q.6.q.6.6.q.q.6.q.v.v.v.q.v.6.3.{ z 0 j y.Y.%X&X&X&X&X&X&X&X#XY.y.j ; + + - , 3 7 ! 7 3 , ; = ",
"* - t N %.5.q.v.q.q.6.6.q.6.6.6.q.6.6.6.6.v.v.q.3.{ d 0 D y.Y.%X&X&X&X&X&X&X&X#XY.u.j ; + @ - : 1 2 3 2 1 : ; = ",
"* ; t n X.5.v.6.q.6.q.6.q.6.6.6.q.6.6.6.6.q.v.6.3.} c i G O.Y.@X&X&X&X&X&X&X&X@XD.+.j ; + & ; : : : > : ; ; ; - ",
"* ; t m X.5.v.v.q.q.q.6.6.6.q.q.6.6.q.q.6.q.q.q.5.X.V z n O.A.(.oX+X*X*X*X#XoX(.C.Q g ; & 1 1 < , : ; * - - - ; ",
"o ; i m X.5.v.v.v.q.q.q.q.6.6.6.6.q.q.6.6.q.q.q.5.:.X.' P o.u.C.D. X+X*X@X XD.M.W F f : 1 4 6 5 2 , * = * * ;   ",
"* ; i B X.5.v.v.q.v.q.q.q.6.6.6.6.6.6.6.q.6.q.6.5.3.:.>.X...T T u.D..X+XoXD.@.Y D w > 1 4 8 ^ ~ 5 1 ; * =       ",
"o ; t n X.:.5.6.5.5.5.6.6.6.q.6.q.6.q.6.6.q.6.6.6.6.6.5.;.' z k Y N. X@X XN.Y > ; @ ; , 7 ^ ( ^ 8 2 ; =         ",
"* ; q d V X.%.%.%.&.;.2.5.q.v.q.q.q.q.q.6.q.q.6.q.c.6.6.,.] u 9 F B.|.+X XB.F ; O # % < 7 ^ _ ( ! 2 : =         ",
"* ; 9 i v n B B B V { &.5.q.v.v.v.q.q.q.q.6.q.6.6.q.6.3.&.M u 9 F B.XX#X XB.F * O # $ < 8 ( _ ( ! 3 : =         ",
"* ; ; 9 e t i t i a N X.<.6.v.q.6.q.q.6.6.6.q.6.6.5.5.<. .m u 0 F B. X+X XB.F > X + - < 7 ^ ) ( ! 2 > =         ",
"; - ; ; ; ; ; - ; q v ' &.4.4.4.2.4.5.6.6.6.6.6.5.5.<.;. .m s i H V.Y.XXY.V.F ; + @ % , 7 ~ ( ^ 7 2 : =         ",
"; ; - - * * o o @ ; p B [ | | } X.X.,.3.6.5.6.3.3.<.:.,. .] x v P +.A.D.N.W D ; @ @ % , 3 8 ! 8 4 < ; *         ",
"                    i d b n b c b B { ,.3.5.3.<.:.;.,.,. .{ ] V P o.W W E F w ; $ @ - : < 3 4 3 2 : ; -         ",
"                      0 e e 0 0 t d ' ,.5.6.5.<.;.,.;.,.,.X. . .' P H D h w > = - - - ; > , , 1 : : - -         ",
"                      * ; ; , < h b ..1.r.e.r.0.8.8.8.7.8.8.7.1.X.P d t , ; ; ; - - ; - ; - ; - ; ; ; -         ",
"                      X o > g l L -.p.f.b.n.b.k.f.f.f.f.f.f.f.d.9...B d u 9 9 ; - - - ; = = = = * = ;           ",
"                      . o > l ` s.I.T.T.R.E.R.R.R.T.R.R.T.H.H.x.l.=.$.C x u 9 % - *                             ",
"                      * ; j L s.K.~._._.^._._.).^.^.^.^.!.!.K.L.z.d.7.| V d 0 ; *                               ",
"                      h G J ` I.~.].{.].].].`.].`.'.'.`.~.!.K.L.h.p.*.X.V z 0 ; *                               ",
"                    l L ` t.I.U.).].{.].].].].].'.'.).).Q.U.x.h.d.*.I B c i 0                                   ",
"                @ r K ` j.J.W.^.`.].].].].'.].].'.).).Q.K.x.h.w.*.Z b p t 0                                     ",
"              O $ r J a.L.).`.].'.'.'.'.'.'.'.'.`.).Q.P.L.k.w.1.X.B a e 9 ;                                     ",
"              X @ r J a.U.].{.].].].].`.].].].'.'.).Q.P.J.h.w.;.{ V b a i e                                     ",
"          ; @ X o r J a.W.].{.{.].`.`.].[.].].].'.).Q.U.J.h.w.;. .{ [ C n a q *   @ -                           ",
"        ; * $ @ + r J a.W.].].].].[.'.].[.].].'.`.).Q.P.J.h.w.*.,.,.,.&.{ n t - @ * - ;                         ",
"        - ; % $ 9 k L s.K._.].[.`.`.`.`.`.`.`._.^.!.W.K.z.l.9.<.,.2.4.2.%.C a 0 ; ; ; - -                       ",
"        * ; 9 0 i n $.d.n.E./.^.).).).)._.^./.E.E.R.H.x.h.d.9.>.:.3.5.4.;.} B d i 0 > ; *                       ",
"        * ; 0 a N X.*.w.g.n.R.W.W.Q.).Q.!.W.E.n.n.g.f.d.w.9.1.>.,.:.2.2.<.&.| S n i 9 - *                       ",
"        * ; i m { :.0.q.e.b.x.n.K.U.U.U.P.H.n.b.e.r.8.8.1.>.&.;.,.;.;.;.<.<.;.&.Z d 0 - @                       ",
"        * > p V &.4.6.6.6.q.e.x.J.J.J.I.z.h.f.r.q.5.4.;.;.,.;.;.,.&.%. .&.;.<.&.[ v 0 - @                       ",
"        @ > p V &.5.6.6.3.6.r.g.k.k.l.p.t.=.9.4.6.6.3.:.:.;.;.,.&.{ S C Z [ { [ n a 9 ; *                       ",
"        @ 9 i B  .2.4.2.:.4.r.e.g.d.-.I L I *.4.6.q.6.3.2.<.:.,.| Z n d d d v v p e ; - *                       ",
"        - ; i n { &.;.;.;.;.2.5.0.<...b k b S *.6.q.q.6.5.4.<.;.{ B d 0 9 9 9 9 9 > ; ; -                       ",
"        @ ; t b C { X.{ } X.%.&.&.| n u 9 t n { ,.3.5.6.6.5.<.&.{ n t ; * * - - * ; - ;                         ",
"          ; t a b n m m N B V C C m a 9 % 9 s B ' #.2.5.q.6.2.;.{ n t - @ o o * * * ;                           ",
"              t s i p i i s p a a i 0 9 ; ; q i c Z %.4.6.6.4.,.{ n i ; @ o                                     ",
"              9 > 9 > 9 9 > 9 9 9 9 ; ; ; ; ; ; e b { ;.5.5.2.;.{ n i : *                                       ",
"                * * * * * * * * @ - = ; ; @ @ * 9 a V X.&.;.;.&.} n s ; *                                       ",
"                    * *                         ; i b N Z { &.&.X.n i ; =                                       ",
"                                                    t s d V { %.} n i 9 *                                       ",
"                                                    - ; e b Z } [ n i > *                                       ",
"                                                      * 9 a n C B d e > -                                       ",
"                                                          t d d a t 9 ; -                                       ",
"                                                          0 0 0 0 9 ; ; ;                                       ",
"                                                            ; - ; - - ; ;                                       ",
"                                                            * * * * - ; -                                       "
};
