/* XPM */
static char *__resized[] = {
/* columns rows colors chars-per-pixel */
"56 64 205 2 ",
"   c None",
".  c #252E19",
"X  c #292E1D",
"o  c #2D321F",
"O  c #2E3520",
"+  c #2C3820",
"@  c #313620",
"#  c #3B3621",
"$  c #333A22",
"%  c #3A3B22",
"&  c #433622",
"*  c #4A3623",
"=  c #443923",
"-  c #4B3924",
";  c #533924",
":  c #5A3A25",
">  c #5A3625",
",  c #6D3624",
"<  c #643A26",
"1  c #6C3A27",
"2  c #743B28",
"3  c #7C3A29",
"4  c #703525",
"5  c #3C4325",
"6  c #3F4826",
"7  c #364023",
"8  c #414A27",
"9  c #444E28",
"0  c #464A2D",
"q  c #544728",
"w  c #455627",
"e  c #465229",
"r  c #4A552A",
"t  c #4D592C",
"y  c #4C5527",
"u  c #515E2D",
"i  c #5A5027",
"p  c #4C4D32",
"a  c #444934",
"s  c #51573C",
"d  c #6C4625",
"f  c #655427",
"g  c #54622E",
"h  c #58682F",
"j  c #5D732E",
"k  c #576530",
"l  c #586730",
"z  c #5C6B32",
"x  c #55653A",
"c  c #5E7331",
"v  c #4F602F",
"b  c #626A38",
"n  c #647435",
"m  c #677836",
"M  c #697C37",
"N  c #6B7E38",
"B  c #667130",
"V  c #4E5340",
"C  c #5E6153",
"Z  c #5F6D4D",
"A  c #696C44",
"S  c #74744D",
"D  c #666A59",
"F  c #7D7252",
"G  c #727E51",
"H  c #6A7057",
"J  c #6E7562",
"K  c #823B2A",
"L  c #8C3C2B",
"P  c #9C3C2C",
"I  c #933C2B",
"U  c #A23D2D",
"Y  c #AB3D2E",
"T  c #B43E2F",
"R  c #BB3E30",
"E  c #854028",
"W  c #6E8238",
"Q  c #6D8237",
"!  c #72853A",
"~  c #768A3C",
"^  c #798E3D",
"/  c #7C923E",
"(  c #788948",
")  c #7F9540",
"_  c #7B8471",
"`  c #849D3E",
"'  c #88A23F",
"]  c #87A03E",
"[  c #809641",
"{  c #859C42",
"}  c #879847",
"|  c #8C9957",
" . c #979859",
".. c #87A042",
"X. c #8BA344",
"o. c #8EA944",
"O. c #8CA349",
"+. c #91AB46",
"@. c #93A54D",
"#. c #94AE48",
"$. c #98AC4E",
"%. c #95B246",
"&. c #96B249",
"*. c #9AB54B",
"=. c #9EBB4C",
"-. c #98B647",
";. c #91A652",
":. c #9BA655",
">. c #93A954",
",. c #9EA857",
"<. c #99AE5E",
"1. c #96AA5A",
"2. c #9EB354",
"3. c #A1BE4E",
"4. c #A3A95B",
"5. c #A4BC52",
"6. c #ADBE5C",
"7. c #A7B858",
"8. c #B0BE5F",
"9. c #8E9475",
"0. c #B79F79",
"q. c #B89F7A",
"w. c #B39E75",
"e. c #AB9C6D",
"r. c #95A760",
"t. c #9DB064",
"y. c #97A17A",
"u. c #ACAB65",
"i. c #B3AE6B",
"p. c #A1B469",
"a. c #A8B466",
"s. c #B4BC64",
"d. c #BEBC6F",
"f. c #B5B669",
"g. c #BBAF74",
"h. c #A8B976",
"j. c #BBB073",
"k. c #C1BB73",
"l. c #C8B77D",
"z. c #A3C14F",
"x. c #A6C450",
"c. c #A9C056",
"v. c #B2C25F",
"b. c #B5C461",
"n. c #BCC16A",
"m. c #CCC977",
"M. c #CAC677",
"N. c #D0C97C",
"B. c #D3D07B",
"V. c #9B9D97",
"C. c #999E8B",
"Z. c #9EA68A",
"A. c #9FA19A",
"S. c #B0BD8C",
"D. c #A2A79A",
"F. c #B3B6AE",
"G. c #B5B7B2",
"H. c #CAB482",
"J. c #CDB882",
"K. c #D0BA84",
"L. c #DABB8F",
"P. c #D6B98B",
"I. c #DCBA92",
"U. c #B5C588",
"Y. c #BCCA93",
"T. c #B9C499",
"R. c #DAC688",
"E. c #C1CE9A",
"W. c #C1D094",
"Q. c #DFC390",
"!. c #E1CD8D",
"~. c #EAC49C",
"^. c #EDCD9A",
"/. c #E5C496",
"(. c #F0CB9E",
"). c #E6D090",
"_. c #EBD494",
"`. c #F5D49E",
"'. c #C5D2A0",
"]. c #C8D3AA",
"[. c #D4DEB9",
"{. c #C6CEB3",
"}. c #F3CBA2",
"|. c #FAD4A4",
" X c #FFD7A8",
".X c #FFD9AB",
"XX c #FAD7A3",
"oX c #FFDEB0",
"OX c #CED4C3",
"+X c #D5D5D4",
"@X c #DBDCDB",
"#X c #D8D9D6",
"$X c #CCCFC0",
"%X c #DEE6CA",
"&X c #DAE2C4",
"*X c #E2EACC",
"=X c #E5EBD3",
"-X c #E3E7D8",
";X c #E9EAE9",
":X c #EFF1E9",
">X c #EEF1E6",
",X c #F1F3ED",
"<X c #F3F4F1",
"1X c #F9F9F7",
"2X c #EEEEF0",
/* pixels */
"                                                                                                                ",
"                                                                                                                ",
"                                                                                                                ",
"                                                                                                                ",
"          O O O O O O O O @ O O O O O O o o o o O O O O O O @ O O + O O O @ O O + O O O O O $ $                 ",
"        % % 7 $ $ % $ $ $ $ % $ 7 $ $ $ % 7 % % $ $ % $ $ $ $ % % % $ $ $ $ % $ $ % $ % $ $ $ $                 ",
"      9 e r r r r r r r r r r r r r r r w r r r t r r r r 9 e 9 9 e 9 9 e 0 e 9 e 9 0 9 5 7 $ $ O               ",
"  $ 8 u z n m m m m m m m m m m m m n m m m m m m m m m m n z z l l z z l z z z z z z k r 5 $ O O +             ",
"O $ 0 z W ) ....{ { { { { { { { { { { { { { { { { { { { [ / ^ ~ ! W ! ~ ^ ~ ~ ^ ^ ~ ! Q l e $ @ O O O $         ",
"o $ 9 z ) #.=.=.=.*.*.*.*.*.*.*.&.*.*.*.*.*.*.=.=.*.*.&.&.+.X.{ { { { { ) ) ) ) ) o.) ~ c r 5 @ @ # % %         ",
"o $ 9 n [ =.z.z.=.=.*.*.=.*.*.*.*.=.3.3.z.z.z.z.3.3.3.=.*.%.o.X.' ..X.X.X.X.X.o.o.o.X./ n t 5 # & ; : ; ;       ",
"o $ 9 c { =.z.5.*.&.#.#.#.&.#.&.#.-.=.z.x.x.x.z.3.3.*.%.#.+.' ] ' X.X.o.X.X.X.) ' ' X./ m t % = > 1 2 2 < - @ + ",
"X $ 9 c [ *.=.*.#.o.X.O.X.O.X.o.X.+.#.=.3.3.3.3.=.*.#.+.O.X.X.X...X.O.X.....) X.X.X.) ) Q w % ; , L P L 2 - $ + ",
"O $ 8 z ~ X.#.#.O.X.X.X.X.X.X.X.X.o.O.+.#.&.*.3.=.&.+.O.O.O.@.>.;.O.{ ) { O.;.r.>.+.) ( Q w 5 - 3 U T P 2 - $ + ",
"O $ 5 t n ! ) { X.o.+.+.+.+.+.+.O.o.[ / ^ [ X.&.*.-.+.X.O.<.h.h.h.r.( W ( r.y.n.v.t.) ) c w 7 ; K Y R U 2 - $ + ",
"@ $ % 8 r k m ^ X.#.&.&.#.&.&.&.%.X.^ m b M / +.*.-.o.o.;.h.T.].S.y.H A ( C.T.].T.n.r.) c w 7 0 K Y R U 2 - $ + ",
"@ $ $ $ 5 9 k ! { *.=.=.=.=.=.=.=.X.W l t k W O.*.-.' o.1.U.[.*X$XC.D V D Z.$X=X[.U.>.^ j w 5 ; 3 U T P 2 - @ + ",
"O $ $ $ 5 e z ! O.=.3.x.=.=.3.3.=.O.W l t l W O.*.-.#.o.<.Y.*X>X+XV.C V D A.#X:X*XY.<./ j y % - , I U L 1 - $ O ",
"O $ % 6 t h N ) #.=.=.x.=.3.x.x.=.+.) N c N ) +.*.-.o.X.<.W.=X,X+XV.C 5 C V.@X<X*XW.<./ j w 7 & > 2 3 2 : % $ + ",
"O $ 6 v n ( { +.*.=.3.=.=.=.=.3.=.*.o.{ ) { o.*.=.-.' o.<.W.*X2X+XV.C a D V.#X<X*XW.2./ j w 7 $ & ; : ; - # $ + ",
"O $ 9 z ^ o.*.=.=.=.3.x.=.=.=.=.=.=.=.*.&.*.=.=.=.%.' o.<.Y.%X>X+XA.D V C A.@X,X%XU.1./ B y % # # # % % # $ $ @ ",
"o $ 9 z / *.z.x.=.=.=.=.x.=.=.x.=.=.=.=.=.5.=.=.=.%.' o.<.Y.%X,X@XG.9.J C.G.@X2X&XU.| N l f ; - # @ $ + @ @ @ $ ",
"o $ 9 n [ *.x.x.x.=.=.=.=.=.=.=.=.3.x.3.x.3.3.=.=.%.o.X.t.Y.%X<X2X+XF.A.G.#X2X2X[.Z.( b f d 2 , > # @ + + $ @   ",
"o $ 9 n ) *.z.z.=.=.x.=.=.=.3.=.=.=.=.=.=.x.3.3.=.%.' X.t.U.%X,X1X2X@X+X@X2X1X;X{.9.Z q d E E K 1 * $ O +       ",
"o $ 9 n ) *.=.z.=.=.=.3.=.=.=.=.3.=.3.=.=.3.3.=.=.%.X.X.<.U.[.;X<X1X,X:X<X1X1X-XG._ V - , I Y U 3 ; $ O         ",
"X $ e z ) *.x.x.z.=.3.z.=.=.x.=.3.3.3.3.3.=.=.3.=.*.o.X.1.h.'.&X-X-X-X=X=X=X=X[.Z.J a 8 4 U R Y K : # +         ",
"O $ 9 n ) =.x.x.x.x.x.z.x.x.=.x.3.x.3.3.3.3.=.=.=.*.o.X.O.t.h.Y.T.'.'.'.'.'.E.S.9.Z a & 4 U R Y K : % +         ",
"o $ e z ) *.z.x.=.z.=.=.=.x.=.=.3.3.=.3.=.=.5.=.=.%.%.X.O.;.<.t.p.p.p.p.p.h.t.r.( x 5 - 4 P T Y 3 : % +         ",
"o @ 9 z ^ O.&.&.&.&.+.#.#.#.+.+.&.&.*.=.=.=.=.=.*.%.o.X.X.{ X.O.O.X.X.X.O.+.O.[ Q v 5 - 1 I U P 2 ; $ +         ",
"O $ 6 t n ~ / ) / ^ ) ) ) ) ) ) ) ) X.#.=.=.=.*.&.+.X.X.X.{ ` ` ` ` ` ` ] ' ] / M t 6 = > 2 L K < - % +         ",
"@ $ % 9 t k z z z z z z k z z l l m ^ +.*.=.*.#.o.O.X.X.{ { ` ` ` ` ` ] ' ' X./ M u 5 # & > < : ; # $ $         ",
"@ @ $ 5 6 6 9 8 6 6 9 6 6 6 6 5 9 v N { &.=.&.+.X.X.X...X...X.{ X.{ { X.' X.X./ M u 8 $ # # = = % $ $ $         ",
"@ $ $ $ $ $ $ $ o $ $ o o $ % % 6 k Q ..*.*.*.o.X.X.X.X.X.X.X...{ X.X.{ { [ ` ! n t 5 $ O @ $ $ @ $ @ $         ",
"$ @ @ O o o o o o o o o o $ 5 e g c ^ X.-.=.%.#.o.o.o.o.o.X.........X.{ ` ~ N n g 9 $ $ O + + + + + $           ",
"                    o o o 5 r z ! / X.%.*.=.*.%.%.%.&.%.%.o.X.] ..{ X.{ ^ M l t 9 5 $ @ O O                     ",
"                      o $ 6 g ( o.*.=.3.=.=.=.=.=.=.=.=.=.&.+.O.X.X.X.[ ! z r 5 $ $ $ $ @                       ",
"                      o @ 8 b } 7.v.b.b.v.v.v.v.v.v.b.v.6.7.4.:.@.@.@.{ ! l 8 $ O O @ @                         ",
"                      . $ 0 b  .n.N.B.B.m.m.m.m.m.m.m.m.M.k.f.u.4.,.@.[ W g 6 @ X O @                           ",
"                      . @ p S e.R._._._.!.).).).).).).).!.R.H.H.j.4.:.[ Q h 8 @ O o                             ",
"                      . @ 0 F w.Q.XXoXXX|.|.XXXXXXXXXXXX}.}.I.H.l.i.:.{ Q h 8 $ O                               ",
"                      . $ p F q.^..XoXoX.X.X X.X.X.X.X.X X}.~.I.H.i.:.{ Q g 8 $ o X                             ",
"                      . @ p F 0.~..XoX.X.X.X.X.X X.X.X.X X}.~.I.H.j.4.} Q g 6 o . . X   O @ @                   ",
"                      . $ p F 0.^..XoX.X X X X.X X.X.X X|.}.~.I.l.i.:.{ Q h 8 @ o o @ @ @ @ @ $                 ",
"                      . @ p F 0.~..X.X.X X X X X.X|..X X|.}./.I.l.i.4.{ ! h r 6 % 5 5 5 7 $ $ @                 ",
"                      . @ p F q.^..XoX.X X X X.X|..X.X.X|.}.~.I.H.i.:.} ^ M j g k g k t e 6 $ $ @               ",
"                      . $ p F q.(..XoX.X X.X X.X.X.X.X.X X}.~.I.H.i.4.X.` / ~ ~ ~ ~ ! N k 9 7 @ O               ",
"                      . @ p F 0.~..X.X.X X X X|.|. X X X|.}.~.L.H.u.:.O.' X.o.O.+.+.O.) m t 5 @ o               ",
"                      . @ p S e.Q.|.|.|.|.|. X|.|.|.|.`.^./.I.K.l.e.@.} ' +.-.*.*.*.#.) m t % O o               ",
"                      . $ 9 A e.l.!._.^.(.}.}.}.}.^.!.!.R.M.l.j.u.4.@.X.o.#.*.&.#.O.) Q l e 5 @ o               ",
"                      X @ 0 b } s.M.R.R./.~.~.~.I.Q.N.M.d.s.4.4. .@.O.X.o.+.#.+.[ ! z g e 5 $ @ O               ",
"                      X @ 8 z ( 2.s.M.K.L.I.I.I.P.l.d.6.5.5.>.+.@.O.{ X.{ O.X.[ ! z e 5 % $ $ @                 ",
"                      o $ 8 l ^ %.7.s.k.l.K.P.K.l.d.s.7.=.%.+.X.O.{ X.X.[ ` ^ ! c r 5 $ O O @ $                 ",
"                      o @ 8 l ~ +.5.8.s.d.k.k.k.k.b.v.z.=.-.%.o.+.o.X.` ) ! M z t 8 $ @ o O @                   ",
"                      X @ 8 h ^ #.3.c.6.6.8.s.8.8.6.7.5.3.=.=.%.%.+.o.{ ~ m k r 8 $ $ @ O @                     ",
"                      o @ 8 h ^ #.3.z.3.5.2.=.2.3.3.*.*.-.=.=.=.*.&.+.{ ! z 9 5 $ $ $ @ $                       ",
"                      X $ 8 h ^ &.3.z.=.*.#.o.X.[ [ { { X.o.*.=.3.*.+.{ ! k 8 @ O O @ @                         ",
"                      o @ 8 l ^ &.3.z.=.%.../ Q m n n m W ) +.=.3.3.&.{ ! k 8 @ o o @                           ",
"                      X $ 8 z ^ &.3.=.&.X./ m h t 9 9 r k N { *.3.*.+.[ ! k 8 $ o o                             ",
"                      o @ 8 l ~ O.#.#.X./ W z e 7 @ @ $ 9 z ^ o.+.@.{ ` M u 8 $ o                               ",
"                        @ 8 k M ! ) ) ~ Q z r 5 @ X X O 5 k M ^ ` ~ ~ N b y 8 $ O                               ",
"                            t k z z z l k r 8 $ O X X     t k z z z h g r 8 7 $ @                               ",
"                              8 9 8 9 8 6 5 5 $ $ O         9 9 9 e 6 6 5 % % $ @                               ",
"                              $ $ $ $ $ @ $ $ $ $ @         $ $ $ $ % $ $ $ $ o @                               ",
"                              O O X O X O O @ @ @ $         o o o o o o o o $ $ $                               "
};
