/* XPM */
static char *__resized[] = {
/* columns rows colors chars-per-pixel */
"56 64 199 2 ",
"   c None",
".  c #262D1A",
"X  c #292E1D",
"o  c #2D321F",
"O  c #2E3520",
"+  c #2C3820",
"@  c #313620",
"#  c #3A3521",
"$  c #333921",
"%  c #393A23",
"&  c #423722",
"*  c #4A3623",
"=  c #423923",
"-  c #4A3924",
";  c #533924",
":  c #5C3A25",
">  c #5B3623",
",  c #6B3421",
"<  c #653A26",
"1  c #6B3A26",
"2  c #6C3D28",
"3  c #743B28",
"4  c #7B3A29",
"5  c #783827",
"6  c #3C4325",
"7  c #3F4826",
"8  c #364023",
"9  c #414A27",
"0  c #444D28",
"q  c #47432A",
"w  c #47542A",
"e  c #4A552A",
"r  c #4D592C",
"t  c #515E2D",
"y  c #575229",
"u  c #4C4C33",
"i  c #454A36",
"p  c #4D513D",
"a  c #51593B",
"s  c #674E27",
"d  c #55622F",
"f  c #58692F",
"g  c #576530",
"h  c #586630",
"j  c #5C6A32",
"k  c #5A663B",
"l  c #646A3A",
"z  c #637435",
"x  c #667836",
"c  c #697B36",
"v  c #6C7E39",
"b  c #616D2D",
"n  c #515740",
"m  c #615A41",
"M  c #5C6051",
"N  c #656F4B",
"B  c #746D4C",
"V  c #75764F",
"C  c #636856",
"Z  c #6A705B",
"A  c #7D7253",
"S  c #727E51",
"D  c #6F7663",
"F  c #833B2A",
"G  c #8A3D2B",
"H  c #923C2A",
"J  c #9C3B2B",
"K  c #AB3E2E",
"L  c #A43D2D",
"P  c #B63E2F",
"I  c #BA3E30",
"U  c #804228",
"Y  c #88795B",
"T  c #6E8139",
"R  c #6D8137",
"E  c #71853A",
"W  c #768B3C",
"Q  c #798E3D",
"!  c #7C923E",
"~  c #798848",
"^  c #7F9540",
"/  c #7A8851",
"(  c #7B8476",
")  c #849D3D",
"_  c #87A13F",
"`  c #809641",
"'  c #859C42",
"]  c #889F44",
"[  c #8D9F5B",
"{  c #8E8B57",
"}  c #87A041",
"|  c #8AA344",
" . c #8EA944",
".. c #8CA349",
"X. c #91AC46",
"o. c #92A44D",
"O. c #94AE49",
"+. c #95B246",
"@. c #96B249",
"#. c #99B54B",
"$. c #9EBB4C",
"%. c #98B547",
"&. c #94A551",
"*. c #9AA654",
"=. c #93A954",
"-. c #9CA954",
";. c #99AE5E",
":. c #96AB5A",
">. c #9EB35F",
",. c #A1BE4E",
"<. c #A3A75C",
"1. c #A4BB53",
"2. c #ACBD5B",
"3. c #A3B556",
"4. c #B1BF5F",
"5. c #868B7D",
"6. c #919C73",
"7. c #A29A64",
"8. c #AB9571",
"9. c #B69F78",
"0. c #95A760",
"q. c #9DB064",
"w. c #97A17A",
"e. c #ABAB64",
"r. c #B3AD6C",
"t. c #A1B469",
"y. c #A4B86B",
"u. c #B4BD64",
"i. c #B5B46A",
"p. c #B9BC6A",
"a. c #B3B468",
"s. c #B9A17A",
"d. c #A8B977",
"f. c #BFB176",
"g. c #C1BC73",
"h. c #C5BA78",
"j. c #C5B47B",
"k. c #C2AA7F",
"l. c #A3C14F",
"z. c #A5C350",
"x. c #AAC057",
"c. c #BCC06A",
"v. c #ADC075",
"b. c #C8C575",
"n. c #C0C16F",
"m. c #979E87",
"M. c #9A9C95",
"N. c #9FA19A",
"B. c #9DA28F",
"V. c #A2A69A",
"C. c #ABB78C",
"Z. c #B2B5AE",
"A. c #B8BAB4",
"S. c #C9B381",
"D. c #CFBC82",
"F. c #D4B98A",
"G. c #DCBB91",
"H. c #E1BC96",
"J. c #B5C489",
"K. c #BCCA94",
"L. c #B9C499",
"P. c #BCC0BB",
"I. c #DAC589",
"U. c #DDCB89",
"Y. c #D6C486",
"T. c #C1CE9A",
"R. c #DFC092",
"E. c #EAC49C",
"W. c #EDCB9B",
"Q. c #E6C796",
"!. c #F4D29E",
"~. c #E9CE95",
"^. c #C5D2A0",
"/. c #C8D3AA",
"(. c #D4DEB9",
"). c #C6CDB3",
"_. c #F4CCA2",
"`. c #FBD4A5",
"'. c #FFD7A8",
"]. c #FFD9AB",
"[. c #F9D5A2",
"{. c #FFE0B1",
"}. c #CCD1C3",
"|. c #D5D5D4",
" X c #DCDCDA",
".X c #D8D9D5",
"XX c #D0D5C4",
"oX c #DEE6CA",
"OX c #D9E1C4",
"+X c #E2E9CE",
"@X c #E4EBD3",
"#X c #E3E7D8",
"$X c #E9E9E8",
"%X c #EFF0E9",
"&X c #EDF0E5",
"*X c #F2F3ED",
"=X c #F4F4F2",
"-X c #F9FAF7",
";X c #EEEEF0",
/* pixels */
"                                                            o o O o O o o O o o o o o O @ @ O $                 ",
"                                                            $ $ $ $ $ $ $ $ $ $ $ $ $ $ $ @ $ $ $               ",
"                                                            7 7 9 9 9 9 9 9 9 9 9 9 9 7 8 % $ $ @               ",
"                                                          0 r d d d d d d d d d h d d r w 6 % + O +             ",
"          O O O O O O O O + o o O O O O O O O + O O X O 8 r j v v E E v v E v v T E R z d 0 6 o O + O           ",
"        % % 8 $ $ 8 $ $ % % 8 % $ $ $ % $ $ $ 8 $ $ $ % 7 g v ! ' ' ` ` ` ` ` ) ` ' ` W z w % @ @ $ $ #         ",
"      0 w w e e e e e e e e w e e e e e e e w w e e e e a z Q ` | | | | | | | | |  .} ! z r 6 # # * - ; -       ",
"  $ 9 t j x x x x x x x x x x x x x x x x x x x x x z x T E ^ }  ...| | | | | |  . .| ! z r 6 = > < 3 2 < = $   ",
"o % 0 j E ` ' ] ] ' ' ' ' ' ' ' ^ } } ^ } } ^ ..} ^ } ^ | ^  .^ ] | ] | | | | | | | | ! z r 8 - 1 G H G 2 - @ + ",
"o $ 0 j ! O.$.$.#.#.#.#.#.#.#.#.#.@.#.#.#.#.#.#.$.#.$.#.#.X. . .) | ] ] ' | ' | | | ' Q z w 6 - 5 J K J 3 - $ + ",
"o $ 0 z ` $.l.l.$.$.#.#.#.$.#.#.$.$.,.,.z.z.z.,.,.,.$.$.#.O.+._ ] ) _ | } } ' _ | | } ! z w 9 ; 4 K I L 3 - $ + ",
"o $ 0 z ` $.z.,.#.@.O.O.O.O.O.@.O.@.$.l.z.z.z.z.,.,.#.+.O. ._ ^ ) ) | | } _ _ ) _ | ' Q z w = ; F K I L 4 - @ + ",
"o $ 0 z ) @.$.#.O...| | .. . .|  .X.O.#.,.,.,.,.$.#.O.X.| | ^ } | ] | | ' | } } | | ' ! z w % ; 4 L P J 3 - $ + ",
"o $ 0 h Q ..O.X.X.| | | ..| | | | | X.X.O.@.#.$.$.@.X.| | ..=.:.&.] ' ` ' ] &.=.=.X.| ! z w 9 - 5 J L H 2 - $ O ",
"o $ 6 r z E ! ' | ..X.X.X.X.X. .| ..^ ^ ^ ^ | O.$.#.X.| ..q.d.v.d.[ ^ E / 0.d.v.y.>...! z r 8 % < 4 G 5 : = $ O ",
"$ $ 8 7 e h x Q | O.#.@.O.@.@.@.O.| ^ x j x ^ X.#.%.X.| =.d.K./.Z.w.S k S w.Z./.T.v.=.^ z 7 8 8 * : : : - % $ $ ",
"@ $ $ $ 6 0 d T } #.,.,.#.$.,.,.#.} T h r g T ..#.%._  .:.J.(.+X}.m.C n Z M.}.#X(.J.-.Q b e 6 $ # & & # % $ $ O ",
"O $ % % 6 w f E ..#.,.,.,.,.,.,.$...E f r h T  .#.%.+. .;.K.oX&X|.M.C i C V..X$XOXJ.[ E b y - = # @ $ $ $ $ $ $ ",
"O $ 8 9 r f T ^ O.$.,.,.,.,.,.,.$.O.^ R z c ^ O.#.%.+.| ;.K.@X*X.XM.M 7 C M..X;XOXC./ l s s 1 > ; # $ O O + $ $ ",
"o $ 9 r z ~ ' X.@.,.,.,.,.,.,.,.$.#...^ ^ ' ..@.$.%._ | ;.K.+X*X|.M.M i C V.|.$X).m.x y s U H 4 < & $ + +       ",
"o $ 0 j Q  .$.$.$.$.,.$.,.$.,.$.$.$.#.#.@.#.#.$.$.+._  .;.K.oX&X.XV.Z n C N. X$XP.m.n = , H K J 3 ; % +         ",
"X $ w j ! #.l.l.,.$.$.,.$.,.$.,.,.,.,.,.,.,.,.,.$.+._  .;.K.oX*X XZ.5.D m.A.$X$XP.( n * , J P K F ; % +         ",
"o $ 0 z ` #.l.z.,.,.$.,.$.,.,.$.$.,.,.,.z.,.,.,.$.+.+.^ q.K.oX=X;X|.Z.N.A. X;X$XA.m.p & , L I K F : % +         ",
"o $ w z ^ #.l.l.,.$.,.$.,.$.$.,.,.$.$.,.,.,.,.,.$.%._  .q.J.oX=X=X;X X|. X;X-X$XA.D p * , J I K F ; % +         ",
"o $ 0 j ^ #.,.,.$.$.$.,.,.$.,.$.$.,.$.,.$.,.,.$.$.+. .| ;.J.XX&X-X-X%X%X=X-X-X#XZ.( a = , H P L 4 ; % +         ",
"o $ 0 z ^ #.z.z.z.$.,.,.,.,.,.,.,.,.,.,.,.$.$.,.$.+. .| :.v.K.oX#X X@X#X@X@X#X(.B.D i = > 5 U F 2 - % O         ",
"O $ w z ^ $.z.z.z.z.z.z.l.l.,.,.,.,.,.,.$.,.,.,.$.#. .| @.q.v.K.T.^.^.^.^.^.T.C.6.N u # * > , 1 ; = $ O         ",
"o $ 0 j ^ #.z.z.,.,.,.$.,.,.,.$.,.,.,.$.$.,.$.,.$.+. . .^ =.;.>.t.t.t.t.y.y.t.0./ k 7 $ # & - - % % $ $         ",
"O @ 0 j Q  .O.@.@.O.@.O.O.@.O.O.@.@.#.$.$.$.$.$.#.+. .| ^  ._ +...| | o.o.X...` v d 7 @ @ @ $ % $ $ $ O         ",
"O $ 7 r x E ^ ^ Q Q ^ ^ Q ^ ^ Q W ^ } O.#.$.$.+.O.X. . . .^ ^ _ ) ) ) ) ) _ ) ) c t 6 @ o + + + $ $ $           ",
"@ $ % 0 r h j j j j j j h j f g f z W | %.#.+.X. .| ^ ^ ^ ^ ^ ^ ) ) ) ) ) _ ] ! v t 7 @ O O                     ",
"@ @ % 8 7 7 0 9 7 0 7 7 7 7 7 7 7 g R } %.$.#.X.| |  .|  .^ +.^ ] ) ) ] | | ' ) x t 8 O O                       ",
"@ $ $ $ $ $ $ $ $ $ $ @ $ % = - u l ~ &.1.2.1.-.O.*.*.*.&.&.o.o.o.| ] ] ] ` ` W x r 7 $                         ",
"$ @ @ O o o X o X o X X O % u a B Y 7.r.p.b.p.p.i.i.i.i.i.r.e.e.<.*...] ) E v z h e 6                           ",
"                    X . O i k Y 8.S.D.Y.U.U.U.I.I.I.I.Y.Y.h.j.j.r.<.*.] W x h r e 0                             ",
"                      . @ i B 8.G.E.[.[.[.[.!.[.!.!.!.!._.W.G.F.j.e.*.] E j w 6 $                               ",
"                      . @ u Y 9.E.].].].'.].'.].'.'.'.'.`._.H.G.j.r.*.] R d 9 @ X                               ",
"                      . $ u A s._.].{.{.].].].].'.'.].].'._.E.H.S.r.<.' R d 6 o X .                             ",
"                      . @ u A s.W.].{.].'.].'.'.].].].].`._.H.G.S.r.-.] R d 7 @ O o O O @ $ O $                 ",
"                      . @ u A 9.W.].].].'.'.'.'.'.'.].'.`._.E.F.S.r.<.) R f w % $ 8 $ $ % $ $ $                 ",
"                      . @ u A 9.E.].].].'.'.'.'.].'.].'.[._.E.G.S.r.<.] Q x f t e t e e 9 6 $ $ @               ",
"                      . @ u A 9.W.].{.].].].].].].].].'.'._.E.G.S.r.<.] ! Q R R v R v z g 0 $ $ O               ",
"                      . @ u A 9.E.].{.].'.'.'.'.].].].].'._.E.G.k.r.*.| ) ] ] ] ....| ! x e 8 O O               ",
"                      . $ u V 9.Q.[.'.'.`.`.'.[.[.'.!.!.!.Q.G.F.j.r.*.|  .X.@.#.$.@.X.' x r 6 $ o               ",
"                      . @ u B 7.b.~.!.!._._._._._.W.~.~.U.Y.j.j.r.<.o.|  .O.#.#.+. .' W j e 6 O O               ",
"                      o @ u l { p.b.U.Q.Q.E.E.E.E.I.Y.b.n.p.a.e.<.&.o.] | X.O.O.] Q x h e 7 $ O O               ",
"                      o @ 0 j ` 3.p.b.D.G.G.H.H.G.D.n.u.2.3.#.=.o...] ] |  . .` E b e 9 % $ $ $ @               ",
"                      o @ 7 h Q O.2.p.h.D.F.G.F.D.h.u.1.$.@. . .] ] ] ] ] ) ` W z t 7 $ O $ $ $                 ",
"                      o @ 7 f Q  .1.x.p.f.h.j.h.p.p.x.1.$.%.+.X. . .| } ` Q v z t 0 $ O o O @                   ",
"                      o @ 9 f W +.1.x.u.u.c.u.u.c.2.x.z.$.$.%.+.X.X...' Q x h r 9 8 $ @ O @                     ",
"                      X $ 7 f Q O.$.z.z.,.1.1.1.1.$.$.$.$.$.$.#.#.+...' E b e 6 % $ $ @ @                       ",
"                      o $ 7 h Q O.z.$.$.#.@.O. .....} ....O.#.$.#.#.X.' E h 9 $ O O @ $                         ",
"                      o @ 7 h ! @.1.,.%.+.| ^ W T R v R W ` O.$.,.#.X.' R g 7 @ o O @                           ",
"                      o $ 7 h ! @.$.$.#.| ! R h r r e t h E ' #.$.$.X.' E d 9 @ o o                             ",
"                      O @ 7 h Q X.#.#.X.' W z e 6 $ $ 8 e z ^ X.#.%.X.' E d 9 $ o                               ",
"                        @ 7 g v ^ } | | ' E h 9 + o X O 7 h v ^ ' ..| ' E h 0 $ O                               ",
"                          7 r h z v Q ' ' W j 9 @ X X X 6 e j z R ! ' ' E j 9 $ O                               ",
"                            9 0 e g x ! ` E j 9 @ o       9 0 e h c ! ` E j 0 $ O                               ",
"                              $ % w j v Q T h 9 $ @         $ 8 w j E Q v g 9 $ O                               ",
"                                @ 6 t z x b t 7 $ O           @ 7 t z x b r 9 $ O                               ",
"                                  8 w t t e 0 8 $ @             8 w t t e 0 8 $ O                               ",
"                                    9 9 7 7 8 % @ @               7 7 7 7 % % $ $                               ",
"                                      @ $ $ $ $ $ @                 $ $ $ $ + $ @                               ",
"                                      O O O @ @ @ $                 o O O O @ $ $                               "
};
