/* XPM */
static char *__resized[] = {
/* columns rows colors chars-per-pixel */
"56 64 203 2 ",
"   c None",
".  c #262E19",
"X  c #292E1D",
"o  c #2D311F",
"O  c #2E3520",
"+  c #2C3820",
"@  c #313620",
"#  c #3B3621",
"$  c #333921",
"%  c #393922",
"&  c #423722",
"*  c #4B3723",
"=  c #423923",
"-  c #4A3924",
";  c #533924",
":  c #5C3A25",
">  c #5B3625",
",  c #643926",
"<  c #6B3A26",
"1  c #6C3926",
"2  c #743B28",
"3  c #7B3A29",
"4  c #713625",
"5  c #3B4324",
"6  c #3F4826",
"7  c #374122",
"8  c #414A27",
"9  c #444E28",
"0  c #49462A",
"q  c #455527",
"w  c #465229",
"e  c #4A562B",
"r  c #4D5A2C",
"t  c #4A5527",
"y  c #515E2D",
"u  c #575229",
"i  c #4C4D32",
"p  c #464B36",
"a  c #565B39",
"s  c #4D5230",
"d  c #674E27",
"f  c #55632F",
"g  c #58692F",
"h  c #5D722E",
"j  c #566430",
"k  c #596631",
"l  c #5D6D33",
"z  c #57673E",
"x  c #5E7232",
"c  c #616F33",
"v  c #676D3D",
"b  c #637335",
"n  c #677935",
"m  c #697C36",
"M  c #6C7E39",
"N  c #69753E",
"B  c #616D2D",
"V  c #5B5F50",
"C  c #5E6153",
"Z  c #696944",
"A  c #716D48",
"S  c #77714C",
"D  c #646957",
"F  c #7D7253",
"G  c #6A7254",
"H  c #757C6B",
"J  c #833B2A",
"K  c #8A3D2B",
"L  c #923C2B",
"P  c #9C3C2C",
"I  c #A33C2D",
"U  c #AB3E2E",
"Y  c #B63E2F",
"T  c #BA3E30",
"R  c #804228",
"E  c #847957",
"W  c #6E8139",
"Q  c #6E8237",
"!  c #71853A",
"~  c #768B3B",
"^  c #798E3D",
"/  c #7C923E",
"(  c #778546",
")  c #7E9440",
"_  c #7E9049",
"`  c #788752",
"'  c #7E8574",
"]  c #859D3E",
"[  c #88A23F",
"{  c #87A03E",
"}  c #809641",
"|  c #849B42",
" . c #899C48",
".. c #8D9F59",
"X. c #959658",
"o. c #898B51",
"O. c #87A041",
"+. c #8BA344",
"@. c #8EA844",
"#. c #8DA44B",
"$. c #91AB46",
"%. c #91A54C",
"&. c #93AE49",
"*. c #94B146",
"=. c #96B249",
"-. c #99B54A",
";. c #9EBB4C",
":. c #98B547",
">. c #93A651",
",. c #9BA655",
"<. c #9DA956",
"1. c #96AB5A",
"2. c #9AAE5E",
"3. c #94A956",
"4. c #9DB156",
"5. c #8FA15B",
"6. c #A1BE4E",
"7. c #A3A85D",
"8. c #A6B956",
"9. c #948461",
"0. c #929D78",
"q. c #8F9C78",
"w. c #A39767",
"e. c #B79F79",
"r. c #B89F7A",
"t. c #B09B73",
"y. c #AB9472",
"u. c #9BAE64",
"i. c #9AA970",
"p. c #A8A863",
"a. c #B3AD6C",
"s. c #A2B56B",
"d. c #A7BB6F",
"f. c #B6B968",
"g. c #BBA877",
"h. c #A9BB75",
"j. c #A7B975",
"k. c #C3B679",
"l. c #A3C14F",
"z. c #A6C351",
"x. c #ADC05A",
"c. c #B1C65B",
"v. c #B8C266",
"b. c #C5C771",
"n. c #C9C974",
"m. c #C1C36F",
"M. c #9A9C95",
"N. c #989E87",
"B. c #9FA19A",
"V. c #9CA28B",
"C. c #A3A89B",
"Z. c #ABB78D",
"A. c #A9ABA5",
"S. c #B4B8AF",
"D. c #C8AB84",
"F. c #C9B381",
"G. c #CEBB82",
"H. c #D2B589",
"J. c #D6BC8A",
"K. c #DBBA91",
"L. c #E1BE95",
"P. c #B6C58A",
"I. c #BCCB93",
"U. c #B7C395",
"Y. c #D7C685",
"T. c #C1CD9E",
"R. c #C1D094",
"E. c #DFC091",
"W. c #E0CF8A",
"Q. c #E3D28C",
"!. c #E3C394",
"~. c #EAC59B",
"^. c #EAC69B",
"/. c #F4D39E",
"(. c #ECCE98",
"). c #CAD5AA",
"_. c #CED9AD",
"`. c #C8CDBC",
"'. c #D3DDB8",
"]. c #CFDAB0",
"[. c #F4CCA2",
"{. c #F8CFA5",
"}. c #FBD4A5",
"|. c #FFD7A9",
" X c #FFD9AB",
".X c #FAD6A3",
"XX c #FFDEB0",
"oX c #CBCCCA",
"OX c #D5D6D4",
"+X c #DADAD8",
"@X c #D2D8C4",
"#X c #DEE5CA",
"$X c #DDE5C6",
"%X c #DFE0DE",
"&X c #E2EACC",
"*X c #EAEEDC",
"=X c #ECF1DE",
"-X c #ECECEC",
";X c #E9EAE6",
":X c #EFF1E9",
">X c #EDF1E1",
",X c #F1F3EC",
"<X c #F8F9F7",
/* pixels */
"        O O X o o o O X O O X o O O X O X O O X O o o o o o o O o O o o O o O o O o O O O @ @ $                 ",
"        $ $ $ $ $ $ $ $ @ $ $ $ $ $ $ $ $ @ $ $ $ $ $ @ $ $ $ $ $ $ $ $ $ $ $ $ $ $ @ $ $ @ $ $ $               ",
"      8 8 9 9 9 9 9 9 9 9 9 9 9 w 9 6 w 9 9 9 w 9 9 9 9 w 9 8 8 5 6 8 8 8 8 8 8 8 8 8 5 7 % $ $ @               ",
"    8 r k l c x l c l b b c l c l l x l l l l l l l b l l k k k k f f j y j f f f k j y w 5 $ $ O +             ",
"o $ 8 k M ^ ) ) ) ) ) ) ) ) ) ) ) ) ) ) ) ) ) ) ) ) ) _ / ^ ! W M m M M M M W W W ! W b j 9 $ O O + +           ",
"o $ 9 l ^ $.-.-.=.=.=.&.&.=.=.=.=.=.=.=.=.=.*.-.=.=.=.=.&.@.O.] } ] ] ] | } ] } } ] ] ! c r 7 @ @ $ % %         ",
"o $ 9 b } -.z.l.;.;.-.;.;.-.-.;.-.;.6.6.6.6.6.6.6.;.;.;.-.=.@.+.| +.+.+.+.+.| +.+.+.| ) n e 5 # # * * * *       ",
"o $ w b | ;.z.l.-.=.=.=.=.=.=.=.-.-.;.6.z.z.z.z.z.;.;.-.&.@.+.[ [ +.+.+.+.+.[ [ +.@.+.) b r 7 = > , 2 2 : - $   ",
"O $ 9 b } -.;.;.&.$.@.#.@.@.@.@.%.@.-.;.6.z.6.6.;.;.=.&.+.+.O.O.] | +.+.+.O.| O.+.+.+./ n e 5 - , K P L < - @ + ",
"O $ 8 l ) $.=.*.%.+.+.+.+.+.+.+.+.@.$.*.-.-.;.;.;.-.$.@.+.#.#.#.%.#.| | | +.#.>.#.#.O.^ x t 7 ; 3 I Y R 2 * $ + ",
"O @ 6 y n ) |  .+.@.@.@.@.@.#.@.#.O.O.) ) O.%.-.;.*.@.+.#.1.s.j.i..._ ( _ 5.s.j.s.2.#.^ b q 8 ; 3 U T I 2 * $ + ",
"@ @ 7 9 r k m ) +.&.=.&.&.&.=.&.&.O.) Q b W ) *.;.=.@.+.3.s.I.I.U.i.S n ` 0.U.I.P.d.>.^ h t % ; J U T I 3 - $ + ",
"@ $ $ % 5 w k !  .-.;.;.-.;.;.;.-.+.W k r k ! +.-.-.@.+.1.P.].#X`.N.C V G N.`.#X].P.3./ h 6 5 ; 3 I Y P 2 * $ + ",
"@ @ $ $ 7 8 k ! +.-.6.6.6.;.6.6.;.+.! k e k ! +.-.:.@.+.2.I.$X>XOXV.V V D B.+X:X$XI.2./ h q 5 - 4 P U L < - $ + ",
"+ $ 5 6 e j n ) @.;.6.z.6.6.6.6.;.%.) b l b / @.-.:.[ @.u.I.&X,XOXM.C 6 C B.+X,X&XR.4./ h q 7 % , 3 J 3 : = $ + ",
"O $ 5 r l W ) +.=.;.6.6.6.6.6.6.;.=.+.) ^ ) O.:.;.:.@.@.u.I.&X,XOXM.V 6 C B.+X:X&XR.4.) Q 6 7 7 * : : : - # $ $ ",
"O @ 8 k ( +.=.;.;.;.6.;.6.;.6.;.;.;.-.&.&.=.-.;.;.*.[ @.2.I.#X,XOXM.C V C B.+X:X&XI.<.^ B t % $ # & & # % $ $ @ ",
"O $ 9 c / -.6.l.6.;.;.6.;.6.6.;.6.;.6.;.;.;.;.;.;.*.[ @.2.I.#X,X+XA.' C ' S.%X-X$XP...! B u 0 & # @ @ $ @ $ $ @ ",
"o $ 9 b } ;.l.l.l.;.;.;.;.6.;.;.;.6.6.6.l.6.z.;.;.*.@.+.2.I.#X,X-XoXC.M.A.oX-X,X@XV.` c d d < , * % @ + + + $ $ ",
"X $ 9 b } -.l.l.6.;.6.6.6.;.;.6.;.6.6.6.;.z.6.;.;.:.[ +.2.I.#X,X<X;XOXoX+X-X<X-X`.0.Z u d R K J , - $ + +       ",
"o $ 9 b ) -.l.l.6.;.;.;.;.;.6.;.;.;.;.6.;.6.6.;.;.:.+.+.u.P.$X:X<X<X-X;X,X<X<X;XS.' a 0 1 L I P 3 ; % +         ",
"o $ 9 l } -.l.l.6.6.6.6.6.6.6.6.z.6.6.;.6.;.;.6.-.:.@.+.3.h.).#X*X;X*X*X>X;X>X@XC.' i & 4 P Y I 3 : % +         ",
"o $ w x } ;.l.z.l.l.l.l.l.l.l.l.l.;.l.;.6.;.6.6.;.:.@.+.#.s.P.I.).)._._.].].).U.q.G 8 * 4 I T U K ; $ +         ",
"o $ w b } -.l.l.z.6.6.l.6.6.l.6.l.l.6.6.;.6.;.6.;.=.@.+.#.3.u.d.h.h.h.h.v.j.j.u.` V 6 - 4 P T U J : % +         ",
"o $ 9 k ( $.-.-.-.-.-.-.-.-.-.-.-.;.-.;.;.;.;.;.;.=.$.+.O.+.#.#.#.#.$.#.>.$.#. .W y 6 - < L U P 3 ; % +         ",
"O $ 6 f m ) | | | } } } } } } } ) | %.=.;.;.;.;.=.&.#.+.O.O.O.) O.) ) { { +.O./ m y 5 % , 3 L J < - % +         ",
"@ $ 7 w j l b n b b n b b b b c x M / @.-.;.-.:.$.@.+.O.O.O.O.) { ) { { { [ { / M r 6 % - , 1 < ; = $ @         ",
"@ $ $ 5 8 9 w w w w w w w w 9 9 w k W O.=.;.-.$.+.+.+.O.+.O.O.O.O.O.{ O.[ @.+./ M y 5 % # & - & = % $ $         ",
"$ @ $ $ $ $ $ $ $ $ $ $ $ % $ 7 8 y Q | -.;.*.$.+.+.O.O.+.+.#.O.#.O.+.O.O.O.) / n r 5 @ @ @ % $ $ $ $ @         ",
"$ $ @ @ O O o O o O o O O $ 7 9 r x ~ +.:.-.*.$.#.@.@.@.@.+.O.O.| +.| O.) / ! n j w 5 @ O + + + + @ $           ",
"                    X X O 7 w k M ^ O.@.-.;.:.*.*.*.$.$.*.@.O.O.O.O.O.| / M x r w 5 $ $ O +                     ",
"                      o $ 5 y W | &.-.;.;.;.;.;.;.-.;.;.-.$.$.O.O.+.+.| ! x r 6 5 $ $ @ @                       ",
"                      o $ 8 l ) 8.c.c.c.x.x.x.x.x.x.x.x.8.8.<.&.%.%.%.| ! k 8 $ O @ @ @                         ",
"                      o @ 9 Z X.f.n.n.n.b.b.b.b.b.b.b.b.b.f.f.p.7.,.%.| W f 8 @ o O @                           ",
"                      . $ i A w.Y.W.Q.Q.W.W.Y.Q.Q.Q.Q.Q.Y.Y.G.g.a.p.>.| Q f 8 @ O X                             ",
"                      . o i F t.!./..X.X/..X.X{./././.[./.^.L.H.k.p.<.| Q f 9 $ O                               ",
"                      . $ i F e.(. XXX X|.|.|.|.|.|. X|.{.[.L.K.k.a.7.| Q f 8 $ o                               ",
"                      . @ i F e.^. XXX X|. X X X|. X X X|.[.~.L.F.a.7.| W f 6 @ X X                             ",
"                      . @ i F e.^. XXX X|.|.|.|.|. X X|.}.[.L.K.F.a.<.| Q f 6 o O O O + @ @ @ $                 ",
"                      . $ i F e.^. X X X|.|.|.|.|.|.|.|.{.[.~.K.F.a.<.+.Q g q 5 $ $ 7 % $ $ $ $                 ",
"                      . @ i F e.^. XXX X X.X X|.|. X X X|.[.~.K.F.a.7.| ^ n g r r r r e 6 7 $ @ @               ",
"                      . $ i F r.[. XXX X X.X X|.|. X X X X{.~.K.F.a.7.+./ ^ Q W M W M b j 9 7 @ O               ",
"                      . @ i F e.^. XXX X|.|..X|.|.|.|.|.|.[.~.K.F.a.,. .] [ +. .+.@.+.^ n s % @ O               ",
"                      . $ i S t.!..X X.X}.}.|.|.}.{.[.[.^.!.K.H.k.p.,.+.+.$.=.-.-.-.$.| m r 5 @ X               ",
"                      . O i A w.Y.(././.[.[.}.{.{.L.K.D.k.g.g.g.a.7.%.+.@.&.-.-.-.@.| ~ l w 7 $ O               ",
"                      o @ 8 v X.f.n.Y.!.^.^.[.^.L.D.y.E E 9.X.7.7.X.%. .@.$.=.$. .~ m k r 5 $ @ O               ",
"                      X @ 8 l } <.v.n.J.K.L.!.L.K.t.E Z a v ( #.%.%.+.+.+.@.+.| ~ c e 8 7 $ $ @ @               ",
"                      X $ 8 k ^ -.8.v.k.G.H.H.D.r.E A a s k ! | @.@.+. .| ] } ~ b r 5 $ @ @ $ $                 ",
"                      o @ 6 g ~ =.8.v.v.k.g.a.w.E E Z l g Q / +.@.$.+.+.} ^ M c y 9 $ O O O @                   ",
"                      X $ 6 g / &.z.c.c.v.7.o.S A A A ! / | [ *.*.*.$. .^ M k r 8 7 $ O O @                     ",
"                      o $ 6 k ^ &.6.z.8.-. .N a s k ! | &.-.-.-.-.=.@.| ! l w 5 $ $ $ @ @                       ",
"                        $ 5 g W } @.$.@.O.! k 9 5 f ! $.6.z.6.;.=.+.} ~ n f 8 $ @ @ @ $                         ",
"                          5 y b m M ! ! Q g w 7 7 f ~ &.z.z.6.-.@./ W b j e 7 @ o O @                           ",
"                            w e y y y y r w 5 $ 7 f ~ &.6.z.;.$.} W k r 9 6                                     ",
"                              7 7 7 7 7 7 $ @ @ 5 f ! +.=.-.$.| ~ b e 5 $                                       ",
"                                @ @ @ @ O @ O @ 5 r n ~ } } / ~ n k 9 $ O                                       ",
"                                  O X O O O O @ % 9 y c n b b k y e 8                                           ",
"                                    @ @ @ @ @ @ $ 7 8 w w w w w 9 8                                             ",
"                                      $ @ $ @ $ $ $ $ $ $ $ $ % $ $                                             ",
"                                        @ @ $ @ $ $ @ O O @ O o @                                               ",
"                                                                                                                ",
"                                                                                                                ",
"                                                                                                                ",
"                                                                                                                "
};
