/* XPM */
static char *__resized[] = {
/* columns rows colors chars-per-pixel */
"56 64 201 2 ",
"   c None",
".  c #252E19",
"X  c #292F1D",
"o  c #2D321F",
"O  c #2E3520",
"+  c #2C3820",
"@  c #313621",
"#  c #3B3621",
"$  c #343A22",
"%  c #3A3A22",
"&  c #4A3623",
"*  c #443923",
"=  c #4B3924",
"-  c #433622",
";  c #533924",
":  c #5A3A25",
">  c #5A3625",
",  c #6D3624",
"<  c #683A27",
"1  c #743B28",
"2  c #7C3A29",
"3  c #703525",
"4  c #3C4325",
"5  c #3C4525",
"6  c #414A27",
"7  c #444D29",
"8  c #464A2D",
"9  c #544728",
"0  c #455627",
"q  c #465329",
"w  c #49542A",
"e  c #4D5A2C",
"r  c #4C5527",
"t  c #515E2D",
"y  c #5A5027",
"u  c #4D4D32",
"i  c #444934",
"p  c #545838",
"a  c #6A4A26",
"s  c #54622E",
"d  c #58682F",
"f  c #5D732E",
"g  c #576430",
"h  c #586631",
"j  c #5C6B32",
"k  c #55653A",
"l  c #5E7231",
"z  c #4F602F",
"x  c #616B37",
"c  c #637435",
"v  c #677836",
"b  c #697B36",
"n  c #6C7E38",
"m  c #647038",
"M  c #707D3B",
"N  c #616A2C",
"B  c #4E5340",
"V  c #655F43",
"C  c #5E6153",
"Z  c #5F6D4D",
"A  c #696944",
"S  c #75744B",
"D  c #666A59",
"F  c #7D7252",
"G  c #727E51",
"H  c #706E52",
"J  c #6E7562",
"K  c #823B2A",
"L  c #8C3C2B",
"P  c #9C3C2C",
"I  c #933C2B",
"U  c #A23D2D",
"Y  c #AB3D2E",
"T  c #B43E2F",
"R  c #BB3E30",
"E  c #854028",
"W  c #8B7B5D",
"Q  c #6F8239",
"!  c #6D8137",
"~  c #72853B",
"^  c #768B3C",
"/  c #798E3D",
"(  c #7C923E",
")  c #798848",
"_  c #7F9440",
"`  c #7B8471",
"'  c #849D3E",
"]  c #88A23F",
"[  c #87A03E",
"{  c #809740",
"}  c #859C42",
"|  c #899B47",
" . c #8C9957",
".. c #9B9B5C",
"X. c #8C8A55",
"o. c #87A042",
"O. c #8BA344",
"+. c #8EA944",
"@. c #8CA349",
"#. c #91AB46",
"$. c #93A54D",
"%. c #94AE48",
"&. c #94AB4A",
"*. c #95B146",
"=. c #96B249",
"-. c #99B54B",
";. c #9EBB4D",
":. c #98B547",
">. c #91A652",
",. c #9BA754",
"<. c #93A954",
"1. c #9EA857",
"2. c #99AE5E",
"3. c #98AA5A",
"4. c #9DB158",
"5. c #A1BE4E",
"6. c #A2AD58",
"7. c #A7B957",
"8. c #938261",
"9. c #8E9475",
"0. c #A49569",
"q. c #AD9872",
"w. c #B79E79",
"e. c #B89F7A",
"r. c #B39C76",
"t. c #A28B6D",
"y. c #95A760",
"u. c #9DB064",
"i. c #97A17A",
"p. c #ACAC64",
"a. c #B5AF6C",
"s. c #A1B469",
"d. c #A4B86B",
"f. c #B7B56B",
"g. c #BAA777",
"h. c #A8B976",
"j. c #C1AD7B",
"k. c #C5B879",
"l. c #A3C14F",
"z. c #A6C450",
"x. c #B2C25F",
"c. c #B5C461",
"v. c #BBC269",
"b. c #CCC977",
"n. c #CBC877",
"m. c #D1CF7A",
"M. c #9B9D97",
"N. c #999E8B",
"B. c #9EA68A",
"V. c #9FA19A",
"C. c #B0BD8C",
"Z. c #A2A79A",
"A. c #B3B6AE",
"S. c #B5B7B2",
"D. c #C6AA83",
"F. c #CAB381",
"G. c #D2B38B",
"H. c #D5B98B",
"J. c #DBBA91",
"K. c #E0BE95",
"L. c #B5C588",
"P. c #BCCA93",
"I. c #B9C499",
"U. c #D7C586",
"Y. c #C1CE9A",
"T. c #C1D094",
"R. c #DFC390",
"E. c #E2CD8D",
"W. c #EBC69C",
"Q. c #EDC99C",
"!. c #E4C395",
"~. c #E6D090",
"^. c #EBD494",
"/. c #F4D39E",
"(. c #F0CB9E",
"). c #C5D2A0",
"_. c #C8D3AA",
"`. c #D4DEB9",
"'. c #C6CEB3",
"]. c #F5CEA2",
"[. c #FAD5A4",
"{. c #FFD7A9",
"}. c #FFDAAC",
"|. c #FBD7A4",
" X c #FFDEB0",
".X c #CED4C3",
"XX c #D5D5D4",
"oX c #DADBD9",
"OX c #CCCFC0",
"+X c #DEE6CA",
"@X c #DAE2C4",
"#X c #E2EACC",
"$X c #E5EBD3",
"%X c #E3E7D8",
"&X c #E9EAE9",
"*X c #EFF1E9",
"=X c #EEF1E6",
"-X c #F1F3ED",
";X c #F3F4F1",
":X c #F9F9F7",
">X c #EEEEF0",
/* pixels */
"                                                                                                                ",
"                                                                                                                ",
"                                                                                                                ",
"                                                                                                                ",
"          o O O O O O O O + o o O O O O O O O O O O O O O O O O O @ O O O O O O O O O @ O O @ $                 ",
"        4 % 4 $ $ 4 $ $ % % $ $ $ $ $ % % $ $ $ $ $ % $ $ $ % $ $ $ $ $ $ 4 $ $ $ $ $ $ $ $ $ $                 ",
"      7 q q w w w w w w w w e w w w w w w w w w e w w w w q q 7 q 7 7 7 7 7 7 7 7 q q 5 5 % $ $ @               ",
"  $ 6 t j c v v v v v v v v v v v v v v v v v v v v v v v c j j j j j j j j j j j j j g e 5 $ O O +             ",
"O $ 6 j Q _ o.} } } } } } } } } } } } } } } } } } } } } { { / ^ ~ ~ ~ ~ ~ ~ ~ ~ ^ ~ ~ b h q $ @ O O + $         ",
"X $ 7 j _ %.;.;.-.-.-.-.-.-.-.-.=.:.-.-.-.-.-.-.-.-.-.-.=.#.o.' } } { } } o.o.} o.o.} ^ l w 4 @ @ % % %         ",
"O $ q c { -.l.l.;.-.-.-.-.-.-.-.;.;.5.l.z.z.5.5.l.5.5.;.-.%.+.O.O.o.+.O.O.o.o.o.O.+.O.( v e % % & ; ; ; ;       ",
"X $ 7 c } ;.l.l.-.=.=.=.=.%.%.=.%.=.;.5.z.z.z.z.5.;.-.*.%.#.O.] ] o.O.+.O.+.o.o.] O.O.( c e 4 * > , 1 1 < = @ + ",
"O $ 7 c { -.;.-.%.+.O.O.+.@.+.O.+.&.%.-.5.5.5.5.;.-.%.#.+.O.o.o.o.o.o.O.o.O.o.o.O.O.o._ l 0 % = , L P L 1 = @ + ",
"o @ 6 h ^ O.%.%.+.@.O.O.O.O.O.O.O.@.+.#.%.=.-.;.;.:.#.+.@.@.>.<.>.@.| { | | <.<.>.&.o.( l 0 4 ; 2 U T P 1 = $ + ",
"O $ 5 t c ~ ( ' O.+.#.#.#.#.#.#.+.O.{ _ _ { +.=.-.:.#.O.@.2.h.h.h.>.) ~ )  .h.h.d.u.@./ l 5 5 ; K Y R U 1 = $ + ",
"O $ % 6 w j v ) o.&.-.=.%.=.=.=.%.O./ v j v ( &.-.*.#.O.<.h.P._.A.i.G x ) N.I.'.T.v.>.) l z 5 9 2 Y R U 1 = $ + ",
"@ $ $ $ 5 7 h Q o.-.;.;.;.-.;.;.-.@.Q h w h Q @.:.:.#.+.3.L.`.%XOXN.D B D B..X%X`.L.<./ f 0 4 ; 2 U T P 1 = $ + ",
"@ @ $ $ 4 7 h ~ +.-.z.;.;.5.;.z.-.+.Q h e h ~ O.-.:.] #.2.P.+X*XXXM.D i D V.XX*X#XP.2.( f 0 % = 3 I U L < = @ + ",
"O $ $ 6 e j n { &.-.5.z.z.;.z.;.;.%._ n l n _ #.;.*.+.O.2.T.#X-XXXM.C 4 C V.oX-X#XT.2.( f 0 % % > 1 2 1 : - @ + ",
"O $ 6 t c ^ } &.-.;.5.5.;.;.;.z.;.-.#.} _ } @.-.;.:.] +.u.P.#X-XXXM.C i D M.oX*X#XT.4.( f 0 4 # - ; : ; * % $ $ ",
"O $ 7 j ) +.-.;.;.;.;.;.;.;.;.5.;.;.-.-.=.-.-.;.;.*.] +.2.P.+X=XXXM.D B C V.oX*X+XP.<./ N r 4 $ # # % % # $ $ @ ",
"O $ 7 j ( :.l.z.z.;.;.;.5.5.;.5.;.;.5.;.5.5.z.;.:.*.] #.2.P.+X-X%XA.N.J N.S.&X&X@XL. .n N y ; = # $ @ @ @ @ @ $ ",
"X $ q l { -.z.l.;.;.;.;.;.5.;.;.5.5.z.;.;.z.;.;.;.*.+.O.2.P.+X;X>XXXA.M.S.oX>X>X.XB.) h a a 1 , ; - @ + + + @   ",
"O $ 7 c { -.l.l.z.;.5.5.;.;.;.;.;.;.5.5.;.;.z.5.;.*.] O.2.P.+X;X:X>XXXXXoX>X:X>X'.9.Z y a E I K < & $ + +       ",
"X $ 7 x _ =.5.5.5.;.;.;.;.;.5.;.5.;.;.;.5.;.z.;.;.*.+.O.2.L.`.&X;X:X-X*X-X:X:X&XS.` B 9 < I Y U 2 ; $ +         ",
"o $ 7 c _ -.z.z.z.;.z.5.;.;.z.;.z.;.z.;.;.5.;.;.-.-.+.O.3.h.Y.@X%X%X$X%X$X$X#X`.B.J i * , P R Y K : # +         ",
"o $ 7 c } -.z.z.z.z.5.z.z.z.5.z.z.5.;.;.5.;.5.5.;.*.+.O.$.u.h.P.I.).).).).).I.C.9.Z 8 & , U R Y K : % +         ",
"X $ q j _ =.z.z.5.5.;.;.5.5.;.5.;.z.5.;.;.5.;.5.;.-.+.+.@.>.2.u.s.s.s.s.d.d.s.y.) k 5 = 3 P T Y 2 : % +         ",
"O $ q j ^ +.%.=.%.%.=.%.%.=.%.%.%.=.-.:.;.5.;.;.:.=.+.O.O.} O.@.@.O.@.O.@.@.@.} ! z 5 * < I Y P 1 ; $ +         ",
"O $ 5 z c ^ _ _ ) _ ( ( / ( ( / _ _ O.=.;.;.-.-.=.%.@.O.o.} ' ' ' ' ' ' ] ] [ ( b z 5 * > 1 K 2 < = $ +         ",
"O $ % 5 e j j j j j j j j j j h h c ) O.-.;.-.=.+.+.O.O.o.o.} ' ' ' ' ' ] ] ] ' n e 5 % * > < : ; - $ $         ",
"@ @ % 4 5 5 6 6 6 6 6 6 6 6 5 5 7 g ! } -.-.-.+.O.O.O.} O.} o.o.o.} o.o.o.O.' ( n p 5 @ # - * * % $ $ @         ",
"$ @ @ $ $ @ @ @ @ @ @ @ + % $ % 5 z ! o.:.;.-.+.+.o.O.O.O.O.O.o.O.} o.} o.} ' ~ c w 5 $ O @ $ @ $ $ $ @         ",
"$ $ @ O O X O O o O X O O $ 5 q d l / O.:.:.:.#.+.+.+.+.+.O.o.o.o.O.o.} { / n m s q $ $ O + + + O + $           ",
"                    X X O 4 w j ~ _ O.*.-.;.-.-.*.*.=.=.*.+.O.o.o.o.o.} / b h e 5 5 % @ O +                     ",
"                      O $ 5 g ~ +.-.;.;.5.5.;.;.;.;.5.;.-.=.&.O.O.O.O.} ~ j w 4 $ $ $ $ $                       ",
"                      X $ 6 x { 7.x.c.c.x.x.x.x.x.c.x.x.7.7.6.,.$.$.O.} ~ g 6 $ O O @ @                         ",
"                      X O 8 A ..v.U.m.m.b.b.n.b.b.b.b.b.n.k.f.p.6.6.$.} Q g 6 @ o o @                           ",
"                      . @ u S 0.U.~.^.^.E.~.E.~.~.~.~.~.E.U.H.F.g.6.,.' Q s 6 @ o o                             ",
"                      . @ u F r.E.|.}.|.[.[.|.[.|.[.|.|./.Q.K.G.j.a.1.} Q s 6 $ O                               ",
"                      . @ u F e.Q.}. X}.{.{.}.}.}.}.}.}.{.].W.J.F.a.6.| ! s 6 @ o                               ",
"                      . $ u F g.Q.}. X}.}.}.{.}.}.}. X X}.].W.J.F.a.6.| ! s 5 @ o                               ",
"                      . @ u F w.Q.}.}.}.{.{.{.{.{.{.}.{.{.].W.J.j.a.,.| ! s 6 @ o                               ",
"                      . @ u F w.W.{. X}.{.{.{.{.{.[.].].W.K.K.J.D.a.6.} Q d r 6 %                               ",
"                      . @ u F w.Q.}. X}.{.}.}.}.{.W.J.D.D.D.G.G.F.a.6.| / b j s e 7                             ",
"                      . @ u F w.Q.}. X}.{.}. X X].K.r.W W t.D.G.F.a.6.| ' ' / Q c e 4 O X o @                   ",
"                      . @ u F g.W.{.}.}.{.{.}.}.(.j.W V V W q.D.F.a.6.| ' O.O.} ~ h 5 $ O + $ $                 ",
"                      . @ u S r.R./.|.[.[.[./.Q.H.q.W p p A 0.j.k.a.6.| O.%.-.%._ c e 5 % $ $ @ @               ",
"                      . @ 8 A 0.k.E.^./.Q.!.J.j.q.8.S x m X...f.f.6.,.O.O.%.-.=.O.^ c g q 4 $ @ O               ",
"                      X $ 8 x | f.n.E.E.K.D.q.W F A M ~ { | 1.6.f.6.$.O.O.#.#.&.+.} _ ~ j q 4 @ o               ",
"                      X @ 6 j { 6.c.n.U.G.w.W V p h ~ } %.5.5.5.;.=.@.O.o.o.O.O.@.#.&.{ v e 4 O o               ",
"                      O $ 6 g ) %.z.f.k.j.0.H u 6 t ~ #.5.l.l.;.-.%.+.O.{ ' / / _ O.} _ v e 4 + o               ",
"                      X @ 6 d / =.7.x.f.p.X.A 8 % e ! #.l.l.l.;.;.*.#.o._ ~ v c v n Q v g q $ O o               ",
"                      o @ 6 d / %.5.z.7.,.X.x 6 4 t ~ #.l.l.l.;.;.*.%.o.^ v s w w e t e 7 5 $ $ @               ",
"                      o @ 6 d / #.:.:.$.{ M h 6 5 s Q +.5.l.5.;.:.%.+.{ Q h q 4 $ $ % 4 % $ $ @                 ",
"                        @ 6 s n ( { { / ~ c 0 5 5 s ^ #.5.l.5.-.%.O.{ ~ v t 5 @ O O O O @ @ @ $                 ",
"                          5 t j v c c j d e 5 4 5 g ^ %.5.z.5.%.O.) n j s w 4 O         o @                     ",
"                            6 w w w q 7 7 5 4 $ 5 s ^ %.;.5.-.+.' n h q 5 5                                     ",
"                              % $ $ $ $ % $ o @ 4 t Q o.%.%.+.{ Q j w 4 $                                       ",
"                                O O @ O o o o $ 4 w x ~ _ / ^ n N e 5 $ o                                       ",
"                                          O O O $ 5 e j j j j s e 5 4 @ O                                       ",
"                                            @ $ $ % 5 7 6 7 7 6 5 4 $ @ @                                       ",
"                                            @ @ $ @ $ $ $ $ $ $ $ $ @ $ $                                       ",
"                                            $ $ O O O O o o o o O O @ $ @                                       "
};
