/* XPM */
static char *__resized[] = {
/* columns rows colors chars-per-pixel */
"56 64 202 2 ",
"   c None",
".  c #262E19",
"X  c #2A2F1E",
"o  c #2D311F",
"O  c #31391F",
"+  c #2E3520",
"@  c #2C3820",
"#  c #313620",
"$  c #3B3621",
"%  c #333921",
"&  c #393B22",
"*  c #423722",
"=  c #4B3723",
"-  c #423923",
";  c #4A3924",
":  c #533924",
">  c #5C3A25",
",  c #5B3625",
"<  c #643926",
"1  c #6B3A26",
"2  c #6C3926",
"3  c #743B28",
"4  c #7B3A29",
"5  c #713625",
"6  c #3B4224",
"7  c #3F4826",
"8  c #364023",
"9  c #414A27",
"0  c #444E28",
"q  c #494529",
"w  c #475229",
"e  c #4A552B",
"r  c #4D5A2C",
"t  c #465627",
"y  c #515E2D",
"u  c #575229",
"i  c #4C4C32",
"p  c #464B36",
"a  c #54593A",
"s  c #674E27",
"d  c #55632F",
"f  c #596A2F",
"g  c #5D722E",
"h  c #566430",
"j  c #586730",
"k  c #5E6D33",
"l  c #57673E",
"z  c #5E7232",
"x  c #616F33",
"c  c #676E3D",
"v  c #637335",
"b  c #697C36",
"n  c #6C7F38",
"m  c #667837",
"M  c #616D2D",
"N  c #5B5F50",
"B  c #5E6153",
"V  c #75704B",
"C  c #646957",
"Z  c #6A7254",
"A  c #7D7153",
"S  c #656E48",
"D  c #757C6B",
"F  c #833B2A",
"G  c #8A3D2B",
"H  c #923C2B",
"J  c #9C3C2C",
"K  c #A33C2D",
"L  c #AB3E2E",
"P  c #B63E2F",
"I  c #BA3E30",
"U  c #804228",
"Y  c #827A53",
"T  c #6C8137",
"R  c #6E8139",
"E  c #71843A",
"W  c #758A3B",
"Q  c #798E3D",
"!  c #7C923E",
"~  c #788845",
"^  c #7E9440",
"/  c #7E9049",
"(  c #788752",
")  c #7E8574",
"_  c #859D3E",
"`  c #88A23F",
"'  c #87A03E",
"]  c #809740",
"[  c #849B42",
"{  c #889D46",
"}  c #8D9F59",
"|  c #8A914F",
" . c #87A041",
".. c #8BA344",
"X. c #8EA844",
"o. c #8DA44B",
"O. c #91AC46",
"+. c #92A54D",
"@. c #93AD49",
"#. c #94B146",
"$. c #96B249",
"%. c #99B54B",
"&. c #9EBB4C",
"*. c #98B547",
"=. c #94A551",
"-. c #9BA655",
";. c #9DAA55",
":. c #96AB5A",
">. c #9AAE5E",
",. c #94A956",
"<. c #9DB256",
"1. c #8FA15B",
"2. c #A1BE4E",
"3. c #A3A85D",
"4. c #A4BA53",
"5. c #ACBD5B",
"6. c #A5B558",
"7. c #929D78",
"8. c #8F9C78",
"9. c #B79F79",
"0. c #B69F78",
"q. c #A49B66",
"w. c #9BAE64",
"e. c #9AA970",
"r. c #AAAB63",
"t. c #B3AD6C",
"y. c #A2B56B",
"u. c #A7BB6F",
"i. c #B5BD65",
"p. c #B9BB6A",
"a. c #B2B367",
"s. c #A9BB75",
"d. c #A7B975",
"f. c #B8A278",
"g. c #C2BC74",
"h. c #C5B77A",
"j. c #A3C14F",
"k. c #A5C450",
"l. c #ADC05A",
"z. c #A9C056",
"x. c #B1C45C",
"c. c #BBC16A",
"v. c #C4C671",
"b. c #C9C974",
"n. c #C1C36F",
"m. c #9B9D95",
"M. c #9A9C94",
"N. c #989E87",
"B. c #9FA19A",
"V. c #9CA28B",
"C. c #A3A89B",
"Z. c #ABB78D",
"A. c #A9ABA5",
"S. c #B4B8AF",
"D. c #C9B381",
"F. c #CEBA82",
"G. c #D5B98A",
"H. c #DCBA91",
"J. c #E1BC96",
"K. c #B6C58A",
"L. c #BCCB93",
"P. c #B7C395",
"I. c #D4C483",
"U. c #DCC98A",
"Y. c #C1CD9E",
"T. c #DFC092",
"R. c #C1D094",
"E. c #E1CF8B",
"W. c #E3D28C",
"Q. c #EAC59C",
"!. c #E7C896",
"~. c #EBD195",
"^. c #F5D39F",
"/. c #F2CF9E",
"(. c #CAD5AA",
"). c #CED9AD",
"_. c #C8CDBC",
"`. c #D3DDB8",
"'. c #CFDAB0",
"]. c #F4CCA2",
"[. c #FBD5A5",
"{. c #FFD7A9",
"}. c #FFD9AB",
"|. c #FAD7A2",
" X c #FFDEB0",
".X c #CBCCCA",
"XX c #D5D6D4",
"oX c #DADAD8",
"OX c #D2D8C4",
"+X c #DEE5CA",
"@X c #DDE5C6",
"#X c #DFE0DE",
"$X c #E2EACC",
"%X c #EAEEDC",
"&X c #ECF1DE",
"*X c #ECECEC",
"=X c #E9EAE6",
"-X c #EFF1E9",
";X c #EDF1E1",
":X c #F1F3EC",
">X c #F9FAF8",
",X c #F7F7F6",
/* pixels */
"        + X + + X o + X X + X + + + X + X X + X + X + X o o o + o o + + + + o o o o + + # # % #                 ",
"        % % # % % % % % % % % % % % % % % % % % % % % % % # % % % % % # # % % % % % % % # # # % %               ",
"      9 0 0 0 0 0 0 0 0 0 0 0 0 0 0 w 7 0 0 0 0 0 0 0 0 0 0 9 0 9 7 9 7 9 9 9 9 9 9 7 7 6 & % # #               ",
"    9 r h k v k k x k v v x k k k z k z k k z k v k k x k k h h d d h d y h h y h d d r 0 7 % % + @             ",
"o % 0 j n Q ^ ] ^ ^ ^ ^ ^ ^ ^ ^ ^ ^ ^ ^ ^ ^ ^ / / ^ ^ ^ ^ W E E b b n n n n n E R E n m d 0 & # + @ @           ",
"o % 0 k ^ O.$.%.$.@.$.$.@.$.@.$.$.$.@.$.@.$.$.$.$.$.$.$.@.X. ._ ] _ _ _ [ ] ] ] [ _ _ E v w 6 % # % $ &         ",
"o % 0 x ^ %.k.2.&.&.&.%.%.&.&.%.&.&.&.&.2.j.j.j.2.&.&.&.%.@.X...{ ............{ ......! v t & % $ = = = =       ",
"o % w v ] &.k.k.&.$.$.$.$.$.$.$.%.%.&.j.k.k.k.j.j.&.&.%.@.O...` _ ....X...` ` ` ......! m r 6 * : 2 3 3 > ; %   ",
"+ % 0 v [ %.4.%.@.X.X.X.X.X.o.X.O.@.$.&.j.j.j.j.2.%.$.X.X.X.X.^ ` ........{  . .......^ v r 7 = 1 G J H 1 ; % @ ",
"X % 0 k ~ X.*.@.X.o.........{ ......O.@.$.%.&.&.&.$.@.X...o.o.o.+.{ [ [ [ ..o.o.+.X.{ Q v t 6 = 4 J P U 3 ; # @ ",
"+ % 7 y b Q [ ....X.o.X.X.X.X.X.X... .^ ^  .O.%.%.$.X...o.:.w.u.w.} / ~ | 1.y.d.y.>...~ v t - : 4 L I K 3 = % @ ",
"+ # 8 0 r z b ^ ..O.$.$.@.@.@.$.#...~ b m R ^ O.%.%.#. .,.y.P.Y.Z.8.( c ( 7.Z.Y.K.u.+.! z t 6 : F L I K 4 = % @ ",
"# # % & 7 w h E ..*.&.&.&.%.&.&.%...E k r j W ..%.%.X.X.>.K.).+X_.V.Z a Z V._.+X'.K.:.! g 7 6 : 4 K P J 3 = & @ ",
"% % % & & 0 h E ..%.2.2.2.&.2.2.&...R h e h E  .&.*.O. .>.L.@X;XXXm.C p C C.XX*X@XL.:.! g t 7 ; 5 J K H 1 = % @ ",
"# % 8 7 w h m ^ X.&.j.j.&.j.4.j.&.O.^ m k z ^ O.%.#.X.X.>.L.$X:XXXm.B p C B.oX:X$XR.<.! g t 7 & , 4 G 4 > - % @ ",
"+ @ 7 e k R ^ ..$.&.2.j.2.&.2.j.&.$...^ ~ ^  .#.&.#.X.X.w.L.$X-XXXM.N 9 B m.oX:X$XR.<.^ g t 8 % = > > > = & # % ",
"+ % 0 j W ..$.%.%.&.j.2.&.&.4.2.&.&.*.$.O.$.%.%.&.#.` X.>.L.$X-XoXB.C p C B.oX-X$XR.-._ M e & # $ $ - - & % % + ",
"+ % 0 k ^ $.4.k.k.&.&.&.&.k.&.&.&.&.&.2.&.&.j.&.&.#.` X.>.L.+X-X#XA.D C ) S.#X-X@XZ.} E M u q * $ $ % % % % % % ",
"X % 0 v [ %.j.k.&.&.&.&.&.&.&.&.2.2.2.2.j.k.j.&.&.#.X.#.>.L.@X:X*X.XA.M.A..X*X-X_.Z.( M s s 1 < : $ + @ + @ % % ",
"X % w x ^ %.j.j.j.j.&.&.&.&.k.&.&.2.2.2.&.j.&.j.&.#.X.^ >.L.+X,X,X=XXX.XXX*X>X-X_.8.S u s U G F < - % + @       ",
"+ % w k ^ *.k.k.&.&.&.&.j.&.&.&.&.&.&.&.&.&.&.j.&.#.^ X.:.P.OX-X,X,X*X*X:X>X>X=XS.) a q < H K K 4 : & @         ",
"X % 0 x ^ %.&.k.j.&.j.j.&.&.j.&.k.&.j.&.&.j.&.&.%.#.#.X.:.c.(.$X=X=X%X%X&X;X&XOXC.D p = 5 J P K 4 > & @         ",
"+ % 0 z ^ %.k.k.k.j.j.j.j.j.j.j.j.j.&.j.&.j.j.&.&.%.O.o.,.w.K.L.(.).).).'.'.(.P.8.C p = 5 K I L F > & @         ",
"X % w z [ %.k.k.j.j.&.j.j.j.4.k.k.&.k.&.&.&.&.j.&.%.O.O.^ ,.>.u.d.s.s.s.s.s.d.w.( l 9 = 5 J I L F : & @         ",
"+ % 9 k ^ X.%.%.%.%.%.%.%.%.$.$.%.%.%.&.&.&.&.&.%.$.O...X. .o.o.o.o.o.+.o.+.+.{ R y 7 ; 2 H L J 4 : & @         ",
"+ % 9 y m ^ [ [ [ / ] ] ] ] [ ^ /  .X.*.&.&.&.&.$.@.X...X.^ ^ ` _ _ _ _ ` `  .! b r 7 & < 4 H F 1 ; % +         ",
"+ % 6 0 h k v m v v v v m v z k v b ^ o.%.&.%.@.@.........` ^ ^ _ _ _ _ ` ` ` ! b y 7 $ = < 2 < : - % +         ",
"+ % & 6 9 0 w w w w w w w w 0 0 w h T ..%.&.%.O.o..... .^ ..X.X.[ { _ ` ` ..X.! b y 7 % $ * = ; - & % %         ",
"% % % % % % % & % & % % % & 8 8 7 h T  .$.%.%.O..... ... ...X.^ [ ..[ .. . .[ Q m r 6 % % % % % % % % %         ",
"+ % + % + + X + + + o o + % 6 7 r k W ..*.&.#.O.X...X.X.X...X.^ .. ...[ ! ! E m h w 6 + + + + @ + % %           ",
"                    X X + & w h b W  .O.*.&.*.#.#.#.O.#.#.X.X.X._  ...[ ! n k y w 7 % % + @                     ",
"                      + # 7 y R [ $.%.&.&.&.&.&.%.&.&.%.$.@.X.^ ......] W v t 7 & % % % +                       ",
"                      o # q x ] 4.x.x.x.l.l.l.l.l.z.l.z.5.6.;.$.+.o...] E j 9 % + + # %                         ",
"                      X # q S | i.b.b.b.v.v.v.v.b.v.b.v.n.p.a.r.3.-.+.[ E h 9 % o + #                           ",
"                      . # i V q.I.W.W.W.U.W.U.W.W.W.W.E.U.I.F.f.t.3.-.[ R d 9 # + X                             ",
"                      . O i V 0.!.|.|.|.^.^.^.|.^.^.^.^.^.!.H.G.h.r.-.[ R d 9 % +                               ",
"                      . # i A 0.!.}. X}.{.{.{.{.{.}.}.{.].].Q.H.h.t.3.{ R d 9 O X                               ",
"                      . % i Y 9.!.}. X X}.}.}.{.}.}.}.{.{.].Q.H.D.t.-.[ T d 9 O X .                             ",
"                      . O i A 9.Q.}.}.}.{.{.{.{.{.}.}.{.{.].J.H.D.t.-.[ T d 9 # @ o + @ # # + %                 ",
"                      . # i A 0.!.}. X}.{.{.{.{.{.{.}.{.].].Q.H.F.t.3._ E f w 8 & % & & & % % %                 ",
"                      . o i A 9.Q.}. X}.{.{.{.}.{.}.}.{.[.].Q.H.D.t.3.[ W v f y r y r w 9 6 % % #               ",
"                  O o . o i A 9.].}. X}.}.{.}.|.{.}.}.{.{.].Q.H.D.t.3.{ _ Q R n n n n v d 0 & + +               ",
"                % # o o # i A f.Q.}.}.}.{.{.{.{.}.}.{.{.[.].Q.H.D.t.-.{ _ { { ......{ _ v r 6 # +               ",
"                O O O O 6 a Y 0.!.|.}.{.[.[.{.|.[.[.[.[.].!.H.G.h.r.-.X.` O.$.$.%.$.X._ m r 6 + X               ",
"              # O % 6 7 r c | t.I.~.^././.].].].].Q.~.W.U.I.F.p.t.q.=.....@.2.$.$.+.[ E k w 6 + +               ",
"              o # & 0 d m ] =.r.n.b.I.!.!.Q.].Q.!.U.I.b.v.p.t.r.3.=.+.{ ..@.@.@.{ Q b j e 9 & # +               ",
"              o # 6 e m ] +.%.4.5.i.g.F.H.H.J.J.H.I.c.i.5.<.<.+.o.+.{ ........[ W x e 9 6 % % # #               ",
"              X # 6 y n ..%.2.&.2.4.p.h.D.G.G.G.F.h.i.5.&.*.X.X.{ _ .._ _ { _ W v y 7 # # # # %                 ",
"              X + 6 y R ..&.&.%.%.<.6.p.g.h.g.g.g.p.5.4.&.*.#.X.X.X...[ ] Q R x y 0 % + o + #                   ",
"              o + 6 r b [ @.#.#.@.$.6.5.i.i.i.i.i.x.5.k.2.%.%.*.O.O.X.[ Q b j r 9 6 % # + #                     ",
"                # & e m !  .........@.%.4.4.4.6.4.4.2.&.&.&.&.%.%.@.X.[ E k w 7 % % % # #                       ",
"                # 6 w z R Q Q Q Q ! ] [ _ ..X... .......X.$.%.&.&.%.O.[ E j 9 % + + # %                         ",
"                  6 w y k k v x v v m b T T T b b b T T W [ +.&.&.&.O.[ E d 7 # o o #                           ",
"                    7 w w w w w w w e r r y r r r r t r k R ..%.2.%.O.[ R h 9 # o +                             ",
"                      6 & 6 6 & 6 8 6 6 6 6 6 6 7 & & 7 w v ^ X.%.%.O.[ E d 0 % +                               ",
"                        + + # + + O o o o o + # o o o o 7 h n ^ [ ....[ E j 9 % o                               ",
"                            o o                         6 w j m R Q [ [ E k 9 % o                               ",
"                                                          7 0 w h n Q ] E k 9 % +                               ",
"                                                            % 6 w k E Q n d 9 % +                               ",
"                                                              # 9 y v m x y 9 % +                               ",
"                                                                7 w r d e 0 6 % #                               ",
"                                                                  7 7 7 6 & % % #                               ",
"                                                                    & % % % % # %                               ",
"                                                                    o o o o # % %                               "
};
