/* XPM */
static char *__resized[] = {
/* columns rows colors chars-per-pixel */
"56 64 200 2 ",
"   c None",
".  c #252E19",
"X  c #2A2F1E",
"o  c #2D321F",
"O  c #2E3520",
"+  c #2C3820",
"@  c #313620",
"#  c #3B3621",
"$  c #343A22",
"%  c #393A22",
"&  c #423722",
"*  c #4B3723",
"=  c #423923",
"-  c #4A3924",
";  c #533924",
":  c #5C3A25",
">  c #5B3625",
",  c #643926",
"<  c #6B3A26",
"1  c #6C3926",
"2  c #743B28",
"3  c #7B3A29",
"4  c #713625",
"5  c #3B4325",
"6  c #3F4826",
"7  c #364023",
"8  c #414A27",
"9  c #444E28",
"0  c #474529",
"q  c #465229",
"w  c #4A552A",
"e  c #4D5A2C",
"r  c #465627",
"t  c #515E2D",
"y  c #575229",
"u  c #4C4D32",
"i  c #464B36",
"p  c #545B3D",
"a  c #674E27",
"s  c #55632F",
"d  c #596A2F",
"f  c #5D722E",
"g  c #566430",
"h  c #586730",
"j  c #5E6D33",
"k  c #57673E",
"l  c #5E7232",
"z  c #616F33",
"x  c #666B3D",
"c  c #637334",
"v  c #697C36",
"b  c #6C7E38",
"n  c #667837",
"m  c #616D2D",
"M  c #5B5F50",
"N  c #5E6153",
"B  c #77704C",
"V  c #646957",
"C  c #6A7254",
"Z  c #7D7253",
"A  c #6A6D47",
"S  c #757C6B",
"D  c #833B2A",
"F  c #8A3D2B",
"G  c #923C2B",
"H  c #9C3C2C",
"J  c #A33C2D",
"K  c #AB3E2E",
"L  c #B63E2F",
"P  c #BA3E30",
"I  c #804228",
"U  c #6D8137",
"Y  c #6E8139",
"T  c #71853A",
"R  c #758A3B",
"E  c #798E3D",
"W  c #7C923E",
"Q  c #758447",
"!  c #7E9440",
"~  c #7E9049",
"^  c #788752",
"/  c #7E8574",
"(  c #859D3E",
")  c #87A03E",
"_  c #88A23F",
"`  c #809641",
"'  c #849B42",
"]  c #889D46",
"[  c #8E9B57",
"{  c #8A934E",
"}  c #86A041",
"|  c #8BA344",
" . c #8EA845",
".. c #8DA44B",
"X. c #91AC46",
"o. c #92A54D",
"O. c #93AE48",
"+. c #94B146",
"@. c #96B249",
"#. c #99B54A",
"$. c #9EBB4C",
"%. c #98B547",
"&. c #94A551",
"*. c #9BA655",
"=. c #9DAA55",
"-. c #96AB5A",
";. c #9AAE5E",
":. c #94A956",
">. c #9DB059",
",. c #8FA15B",
"<. c #A1BE4E",
"1. c #A3A85D",
"2. c #A3BB52",
"3. c #ACBD5A",
"4. c #A4B756",
"5. c #B0BE5E",
"6. c #929D78",
"7. c #8F9C78",
"8. c #B79F79",
"9. c #B89F7A",
"0. c #B19D73",
"q. c #A39A65",
"w. c #9BAE64",
"e. c #9AA970",
"r. c #AAAB63",
"t. c #B3AD6C",
"y. c #A2B56B",
"u. c #A7BB6F",
"i. c #B5BE64",
"p. c #BABD6A",
"a. c #B4B468",
"s. c #A9BB75",
"d. c #A7B975",
"f. c #C6BB79",
"g. c #C3B778",
"h. c #A3C14F",
"j. c #A6C450",
"k. c #ADC05A",
"l. c #A9C056",
"z. c #B1C45C",
"x. c #B8C166",
"c. c #C4C671",
"v. c #C9C974",
"b. c #C1C36F",
"n. c #9B9D95",
"m. c #9A9C94",
"M. c #989E87",
"N. c #9FA19A",
"B. c #9CA28B",
"V. c #A3A89B",
"C. c #ABB78D",
"Z. c #A9ABA5",
"A. c #B4B8AF",
"S. c #C9B381",
"D. c #CEBB82",
"F. c #D5BA8A",
"G. c #DCBA91",
"H. c #E1BC96",
"J. c #B6C58A",
"K. c #BCCB93",
"L. c #B7C395",
"P. c #D3C383",
"I. c #DDC98A",
"U. c #C1CD9E",
"Y. c #DFC092",
"T. c #C1D094",
"R. c #E1CF8B",
"E. c #E3D28C",
"W. c #EAC59C",
"Q. c #E7C896",
"!. c #F4D39E",
"~. c #E7D091",
"^. c #CAD5AA",
"/. c #CED9AD",
"(. c #C8CDBC",
"). c #D3DDB8",
"_. c #CFDAB0",
"`. c #F4CCA2",
"'. c #FBD5A5",
"]. c #FFD7A9",
"[. c #FFD9AB",
"{. c #FAD7A2",
"}. c #FFDEB0",
"|. c #CBCCCA",
" X c #D5D6D4",
".X c #DADAD8",
"XX c #D2D8C4",
"oX c #DEE5CA",
"OX c #DDE5C6",
"+X c #DFE0DE",
"@X c #E2EACC",
"#X c #EAEEDC",
"$X c #ECF1DE",
"%X c #ECECEC",
"&X c #E9EAE6",
"*X c #EFF1E9",
"=X c #EDF1E1",
"-X c #F1F3EC",
";X c #F9FAF8",
":X c #F7F7F6",
/* pixels */
"        o o X O X O o X O X O X O X O O X X O X X O X O O X O O O X O O X O o O o o o O @ @ @ $                 ",
"        $ $ $ $ $ @ $ $ $ $ $ $ $ $ @ $ $ $ $ $ $ $ $ @ $ $ @ $ $ $ $ @ $ $ $ @ $ $ $ $ $ @ @ $ $               ",
"      8 9 9 9 9 9 9 q 9 9 9 9 9 9 9 9 9 9 9 9 9 9 q 9 9 q 9 6 9 6 6 6 8 8 8 8 8 8 8 6 6 5 $ $ $ @               ",
"    8 e h j j c j j j c j c j j l j j j j j j c j j z j j h h h g g s g s g t g s s s t 9 6 $ @ O +             ",
"o $ 9 h b E ! ! ! ! ! ! ! ! ! ! ! ! ! ! ! ! ! ! ! ! ! ! ! T T U b b b b b T b b Y U Y n s 9 % O O + O           ",
"o $ 9 j E X.@.#.@.@.O.@.@.@.@.O.O.@.@.@.@.@.@.@.@.@.@.@.O.X.} ' ` ( ` ( ` ` ( ' ( ' ` R c r 5 O @ $ % %         ",
"o $ 9 c ` #.j.h.$.$.$.#.#.$.$.#.$.$.$.j.$.j.j.$.2.$.$.$.#.O. .| | ] | | | | ] ] |  .| W c e 5 # # * * ; -       ",
"o $ 9 c ' $.j.h.$.@.@.@.@.@.@.@.@.#.$.$.j.j.j.j.j.$.$.#.@. .| _ _ _ _ X.| _ ) ) _ _ | W n w 5 # ; 1 2 1 : - $   ",
"O $ 9 c ` #.2.#.O. . . . . . . . .O.@.$.$.j.j.$.$.$.@.X. .| } } _ | | | | | ) } | | | ! c e 5 * 1 F H G < - $ + ",
"O $ 9 j ! X.@.O. .| | | ] | ..] |  . .@.#.#.$.$.$.@.X.| | ........] ' ' ' ......o.X.' E n r 5 ; 3 H L I 2 - @ + ",
"O O 6 t n E ' | .. . . . . . . ...| | ` ! | X.@.$.@. . ...:.y.d.e.,.~ Q ~ ,.y.u.y.-...E c r 5 ; 3 K P J 2 - @ + ",
"O @ 7 9 e j b ! | X.O.@.O.O.@.O.X.| E b c Y ! O.#.@. .| &.d.J.U.L.e.B n ^ 6.C.U.K.u.&.E m r 5 ; D K P J 3 - $ + ",
"@ $ $ % 6 q h T | #.$.$.$.$.$.$.@.| Y h e h T  .#.%. . .;.J._.oX(.M.V M V M.(.oX_.J.:.W f 6 5 ; 3 J L H 2 - $ + ",
"@ $ $ $ % 9 g Y | #.<.<.<.$.<.<.$. .T h e h Y | $.%. .| ;.K.oX=X XB.M M V N..X=XOXJ.;.W f r 5 - 4 H J G < - $ O ",
"O $ 7 6 9 g c !  .$.h.h.<.<.<.2.$. .W v j c E  .#.%._  .;.K.@X-X Xm.N 6 N N..X-X@XT.>.W U r 7 % > 3 F 3 : = $ O ",
"O $ 5 e j T !  .@.$.<.<.$.<.<.<.$.@.| W Q ! | %.#.%. . .;.K.@X-X Xm.M 6 N N..X-X@XT.>.W f 6 7 7 * : : > * % $ $ ",
"O $ 9 h T | @.#.$.$.$.<.$.$.<.$.$.$.#.@.X.@.#.$.#.+._  .;.K.oX-X XN.N M N N..X*X@XK.*.( m w % $ # # = = % $ @ @ ",
"X $ 9 j ! #.2.j.<.<.$.<.$.<.$.<.<.$.$.$.$.$.$.$.$.+._  .;.K.oX*X.XZ.S N / A.+X-XOXC.[ T m y 0 & # # $ $ $ $ @ $ ",
"O $ 9 c ! $.j.j.h.$.$.$.<.<.$.$.$.<.<.h.h.j.j.$.$.+. . .;.K.oX-X%X|.V.m.Z.|.%X%XXXC.^ m a a < : ; # O O O + $ $ ",
"X $ 9 c ! @.h.h.<.$.<.<.$.$.$.<.<.$.<.<.$.$.j.$.$.+._ | ;.K.oX:X:X&X X|..X%X;X*X(.7.A y a I F D , = $ + +       ",
"O $ 9 j ! @.<.h.<.$.$.$.$.$.<.$.h.$.$.$.$.$.h.$.$.+. .| -.J.OX*X;X:X%X&X-X:X;X&XA./ p - 1 G J H 3 ; % +         ",
"O $ 9 l ` $.h.j.h.<.<.<.<.<.<.$.$.$.h.$.h.$.h.$.$.@._  .-.s.^.oX&X=X=X#X$X=X#XXXV.S i = 4 H L K D ; % +         ",
"X $ q l ! @.j.j.h.h.h.h.h.h.2.h.j.h.j.$.$.$.$.h.$.@. .| :.w.J.K.^./././././.^.L.7.A 9 * 4 H P K D : % +         ",
"o $ q c ` $.h.j.h.<.h.<.<.h.j.2.j.$.$.h.$.h.$.$.<.+. .| ..:.w.u.d.s.s.u.C.x.u.e.^ M 8 - 4 H P K D ; % +         ",
"o $ 9 j ! X.#.$.#.#.#.#.@.#.#.#.#.#.#.$.$.$.<.$.$.@.X.| | | ........X.........} Y t 6 - 1 G K H 3 ; % +         ",
"O @ 8 t n ! ` ' ` ` ' ` ' ' ` ! ! | ..@.$.$.$.#.@.X...| } } ! } } ! _ ! }  .} ! v e 6 = > 3 G F < - % +         ",
"O $ 5 9 t z c c c c c c c c c l l U ! ..#.$.#.@. ...| | } } ! _ ! ! ) ) ) ) } W n s 8 % * > 1 , ; = % O         ",
"@ $ $ 5 9 9 q q q 9 q q q 9 9 9 q h U } #.$.#.X. .| | } } }  .!  .) ) ) _  . .W b t 5 $ # * - - % % @ $         ",
"@ $ $ $ $ $ $ $ $ % $ $ % % 7 7 6 t U } #.$.+.X.| | | | } | } | | ' | ' } } ! E n e 5 @ @ @ $ % % $ $ O         ",
"$ @ @ @ O O O O O O X o + $ 7 6 e l R | @.#.+.X. . .|  . .| |  .} | } | ! W U v g q 5 O O + + + O @ $           ",
"                    X X O % q g b E }  .#.$.%.+.+.+.X.+.X. .| ! } | | ` W b l t q 6 % @ O +                     ",
"                      O O 6 g b ' O.#.$.$.$.$.$.#.$.$.#.+.@. .| ' | | ' T j e 6 7 $ $ @ @                       ",
"                      o @ 8 x ` 2.z.z.z.k.k.k.k.l.l.k.3.4.4.=.&.o. ...` T h 8 $ O O @ @                         ",
"                      . $ 0 x [ x.v.v.v.c.c.c.c.v.v.v.c.b.p.a.r.1.*.o.' T s 8 @ o O @                           ",
"                      o @ u A q.P.E.E.E.I.E.I.E.R.R.E.R.I.P.f.g.t.r.o.' T s 8 @ O X                             ",
"                      . O u Z 0.Q.!.{.{.!.!.{.!.!.!.!.!.!.W.H.F.g.t.*.` U s 8 $ O                               ",
"                      . @ u Z 9.Q.[.}.[.].[.].].].[.[.].].`.H.G.g.t.1.' U s 8 $ O                               ",
"                      . @ u Z 9.W.[.}.[.[.[.[.].[.[.[.[.].`.H.H.S.t.1.' U s 6 @ X X                             ",
"                      . $ u Z 8.Q.[.}.[.].].].].].[.[.[.'.`.H.G.S.t.=.] U s 6 @ O X O + @ @ $ @                 ",
"                      . @ u Z 8.W.[.}.[.].].].].].].].].'.`.W.F.S.t.=.( T d r 7 7 $ % % % $ $ +                 ",
"                      . $ u Z 9.W.[.}.[.].{.].].].].[.].'.`.W.G.S.t.1.] R c d e e e e w 9 5 $ $ @               ",
"                      . @ u Z 9.!.[.}.[.[.[.].[.].[.[.[.'.`.W.G.S.t.1.] ( R T b b Y b c t 9 % O O               ",
"                      . $ u Z 8.W.[.}.[.].].].[.[.[.[.].'.`.W.G.S.t.*.] ( | | ] |  .| W c e 5 @ O               ",
"                      . @ u B 0.Y.{.[.].{.].{.{.'.'.'.'.`.Q.H.F.g.r.*.| _ X.@.#.#.#.O.` n e 5 O X               ",
"                      . o i B q.D.~.~.!.`.`.`.`.!.W.~.~.I.P.D.p.t.q.o.o.| X.#.#.@.X.' R j q 5 O O               ",
"                      . o % x { p.v.I.Q.W.W.W.W.Q.Y.P.v.c.p.t.r.1.*.o.|  .X.@.X.' E n h q 8 % @ O               ",
"                      o $ 0 j ` 4.p.v.F.G.H.H.H.G.D.c.x.3.>.@.&...o.] | ]  .| ] R z e 9 5 $ $ @ @               ",
"                      % 6 e c W @.3.p.g.D.F.F.F.F.p.i.4.$.@.X. .] ( ] ( ( ( ` R c e 5 @ @ @ @ $                 ",
"                    9 e h c T } @.2.z.p.f.f.f.f.g.p.3.2.$.%.+. . .| | ] ` R v z t 8 $ O o O @                   ",
"                O 5 e c T ! } X.#.2.3.3.i.i.i.i.z.3.3.j.<.$.%.%.+.X.| ' E v g w 6 5 $ O O @                     ",
"                @ 5 t b ' @.$.$.$.<.<.2.2.2.4.2.4.$.2.$.$.#.$.#.#.+. .' R j w 6 $ $ $ @ @                       ",
"              X O 5 t T  .$.j.$.#.#.O.X.| | | | | | | | ..O.#.$.$.#.X.' R z t 8 5 $ $ $ @                       ",
"              X O 5 g T O.j.j.h.#. .` R U U v U U b U U T ' X.$.$.#.O.| W T c s w 6 $ $ O                       ",
"              X O 5 g T O.$.h.$.X.' T c s e e e e e e e j Y | $.<.#.X.| ' W R v h w 5 $ O                       ",
"              o O 5 e Y | @.@.O.' E c e 5 7 $ 5 7 % % 5 q l ! o.#.O.| ' ` ' ` R c e 5 $ O                       ",
"              o O 5 e c E ` ! W R v s r $ o o o O o X + 6 h Y ! ` ` E R R R R Y j w 5 @ O                       ",
"              O @ % 6 t j c c l j s w 8 @               5 e j c c c j j j j j h e 9 % + O                       ",
"              @ + $ % 9 q w q q q 9 8                     8 q w w q q q 9 9 9 9 6 5 $ $ @                       ",
"                $ $ $ $ $ % % % $ $ $                       5 $ $ % $ $ $ % $ $ $ $ $ @ $                       ",
"                $ @ O O O O + O O O                           o o O O O O O O O O @ @ $                         ",
"                                                                                                                ",
"                                                                                                                ",
"                                                                                                                ",
"                                                                                                                "
};
