/* XPM */
static char *__resized[] = {
/* columns rows colors chars-per-pixel */
"56 64 203 2 ",
"   c None",
".  c #262E19",
"X  c #2A2F1D",
"o  c #2D321F",
"O  c #2E3520",
"+  c #2C3820",
"@  c #313620",
"#  c #3B3621",
"$  c #343A22",
"%  c #3A3A22",
"&  c #433622",
"*  c #4A3623",
"=  c #443923",
"-  c #4B3924",
";  c #533924",
":  c #5A3A25",
">  c #5A3625",
",  c #6D3624",
"<  c #643A26",
"1  c #6C3A27",
"2  c #743B28",
"3  c #7C3A29",
"4  c #703525",
"5  c #3B4325",
"6  c #3F4826",
"7  c #364023",
"8  c #414A27",
"9  c #444D29",
"0  c #43482B",
"q  c #544728",
"w  c #455627",
"e  c #465229",
"r  c #49542A",
"t  c #4D592C",
"y  c #4C5527",
"u  c #505D2D",
"i  c #5A5027",
"p  c #4C4C32",
"a  c #444934",
"s  c #55583B",
"d  c #6C4625",
"f  c #655427",
"g  c #54622E",
"h  c #5D732E",
"j  c #576430",
"k  c #596631",
"l  c #5C6B32",
"z  c #55653A",
"x  c #5E7231",
"c  c #4F602F",
"v  c #626939",
"b  c #637435",
"n  c #667836",
"m  c #697B36",
"M  c #6C7E38",
"N  c #68733B",
"B  c #667130",
"V  c #4E5340",
"C  c #5E6153",
"Z  c #5F6D4D",
"A  c #696A44",
"S  c #74744D",
"D  c #666A59",
"F  c #7D7252",
"G  c #727E51",
"H  c #6A7057",
"J  c #6E7562",
"K  c #823B2A",
"L  c #8C3C2B",
"P  c #9C3C2C",
"I  c #933C2B",
"U  c #A23D2D",
"Y  c #AB3D2E",
"T  c #B43E2F",
"R  c #BB3E30",
"E  c #854028",
"W  c #847A56",
"Q  c #6E8239",
"!  c #6D8137",
"~  c #72853A",
"^  c #758A3C",
"/  c #798E3D",
"(  c #7C923E",
")  c #7F983F",
"_  c #788848",
"`  c #7E9540",
"'  c #7B8471",
"]  c #849D3E",
"[  c #88A23F",
"{  c #87A03E",
"}  c #809641",
"|  c #859C42",
" . c #879A46",
".. c #8E8C56",
"X. c #8C9957",
"o. c #8E9452",
"O. c #87A042",
"+. c #8AA344",
"@. c #8EA944",
"#. c #8CA349",
"$. c #91AB46",
"%. c #92A54D",
"&. c #94AE49",
"*. c #95B246",
"=. c #96B249",
"-. c #9AB54B",
";. c #9EBB4D",
":. c #98B547",
">. c #92A652",
",. c #9BA654",
"<. c #93A954",
"1. c #9EA857",
"2. c #99AE5E",
"3. c #98A85B",
"4. c #9DB156",
"5. c #A1BE4E",
"6. c #A4AC5C",
"7. c #A1BA51",
"8. c #A8B959",
"9. c #B0BE5F",
"0. c #909272",
"q. c #AC9871",
"w. c #B79F79",
"e. c #B89F7A",
"r. c #B39E75",
"t. c #A5946B",
"y. c #95A760",
"u. c #9DB064",
"i. c #97A17A",
"p. c #ACAC64",
"a. c #B3AD6B",
"s. c #A1B469",
"d. c #A8B666",
"f. c #B7B86A",
"g. c #B8A676",
"h. c #A8B976",
"j. c #BFB673",
"k. c #C4B27C",
"l. c #C4BC75",
"z. c #C0AD7A",
"x. c #A3C14F",
"c. c #A6C450",
"v. c #B2C25F",
"b. c #B5C361",
"n. c #CCC977",
"m. c #C9C676",
"M. c #D1CF7A",
"N. c #9B9D97",
"B. c #999E8B",
"V. c #9EA68A",
"C. c #9FA19A",
"Z. c #B0BD8C",
"A. c #A2A79A",
"S. c #B3B6AE",
"D. c #B5B7B2",
"F. c #C7A984",
"G. c #C9B381",
"H. c #CDB484",
"J. c #D1BB85",
"K. c #D9BA8E",
"L. c #D5BB8A",
"P. c #DDBB92",
"I. c #E2BE96",
"U. c #B5C588",
"Y. c #BCCA93",
"T. c #B9C499",
"R. c #D9C588",
"E. c #C1CE9A",
"W. c #C1D094",
"Q. c #DFC390",
"!. c #E1CD8D",
"~. c #EAC59C",
"^. c #E8C598",
"/. c #E6D090",
"(. c #EBD494",
"). c #F3D09F",
"_. c #C5D2A0",
"`. c #C8D3AA",
"'. c #D4DEB9",
"]. c #C6CEB3",
"[. c #F4CCA2",
"{. c #FAD4A4",
"}. c #FFD7A8",
"|. c #FFD9AB",
" X c #FBD7A4",
".X c #FFDEB0",
"XX c #CED4C3",
"oX c #D5D5D4",
"OX c #DBDCDB",
"+X c #D8D9D6",
"@X c #CCCFC0",
"#X c #DAE2C4",
"$X c #DEE6CA",
"%X c #E2EACC",
"&X c #E5EBD3",
"*X c #E3E7D8",
"=X c #E9EAE9",
"-X c #EFF1E9",
";X c #EEF1E6",
":X c #F1F3ED",
">X c #F3F4F1",
",X c #F9F9F7",
"<X c #EEEEF0",
/* pixels */
"                                                                                                                ",
"                                                                                                                ",
"                                                                                                                ",
"                                                                                                                ",
"          O O O O O O O O @ O O + O O + O O O @ @ O + O O O O O O @ O O O @ O O @ O O @ O O O $                 ",
"        % $ 7 $ $ $ $ % $ $ $ $ % $ $ $ $ % $ $ % $ % $ $ $ $ $ $ $ $ $ $ $ $ $ $ $ $ $ $ $ $ @                 ",
"      9 r r r r r r r r r r r r r r r e r r r r r r r r r e 9 e 9 9 9 9 9 9 e 9 9 e 9 8 6 $ $ $ @               ",
"  $ 8 u l b n m n m n n n n m m n n n n n m n b n n n n n b v l l l l l l l l l l l l j r 6 $ $ O +             ",
"o $ 9 l ~ ` | |  . .| | | | | | | | | | | | | | | | | | } ) / ^ ~ ~ ~ ~ ~ ~ ~ ~ / ~ ~ m j e $ @ O O O $         ",
"o $ 9 l ( &.;.;.-.-.-.-.-.-.-.-.=.-.-.-.-.-.-.-.-.-.-.-.=.@.+.| | | | | ] | | | | O.| / b r 7 @ @ # % %         ",
"o $ 9 b } -.c.x.;.-.-.-.-.-.-.-.-.;.5.5.c.x.x.x.x.5.;.;.-.&.@.+.| +.+.@.+.+.+.+.+.@.+.( n t % # & ; : ; ;       ",
"X $ e b | ;.x.x.-.=.=.=.=.=.&.=.=.=.;.x.c.c.c.x.x.;.-.:.&.@.+.[ [ [ @.+.+.[ [ O.[ +.+.( b t 5 & > 1 2 2 < - @ + ",
"o $ 9 x ` -.;.-.&.@.#.+.+.@.+.+.@.$.*.-.;.x.x.;.;.-.=.@.+.+.+.O.+.] +.O.+. .O.O.+.+.O.( x w 0 - 1 L P L 1 - $ + ",
"o $ 8 l ^ #.&.&.@.+.+.+.+.+.+.+.#.#.@.$.&.=.-.;.-.-.&.+.+.#.>.<.>.#.} `  .#.<.<.<.$.+./ x w % - 3 U T P 2 ; $ + ",
"O $ 6 t b ~ ` | +.@.@.$.#.$.$.$.@.+.| ( ( ` @.=.-.:.@.+.#.u.h.h.h.X._ _ _ X.h.h.h.u.#.( x c 5 ; K Y R U 2 - $ + ",
"@ $ $ 6 r j n / +.&.=.-.=.=.=.-.&.+.^ n l m ( &.-.:.$.#.<.h.Y.`.Z.B.G N _ B.T.].Y.b.<._ x w 5 ; K Y R U 2 - @ + ",
"@ $ $ $ 6 9 j Q O.-.;.;.-.-.;.;.-.+.Q k t j Q #.-.:.*.@.2.U.'.&X@XB.D V H V.XX&X'.U.<.( h w 5 ; 3 U T P 2 - $ + ",
"@ @ $ $ 5 9 k ~ #.;.5.c.5.5.5.c.-.@.Q j t j Q @.-.:.[ @.2.Y.$X;XoXC.C V C C.oX-X%XY.2.( h w 5 * , I P L 1 = $ O ",
"@ $ $ 8 t l M ` $.;.5.c.5.5.c.5.;.$.` M x m ` &.-.:.@.+.2.Y.&X:XoXN.C 6 C C.OX<X%XW.2.( h w 7 & > 2 K 1 : = $ + ",
"O $ 6 u b /  .$.-.;.;.5.5.;.;.5.5.-.$.| ` | @.=.;.:.[ @.2.Y.%X:XoXN.C a C C.OX-X%XW.1.( h w $ # & ; : ; = # $ + ",
"O $ 9 l / $.-.-.-.;.;.5.;.;.;.c.;.;.-.-.4.-.-.;.;.*.[ @.2.Y.$X-XoXC.D V D C.oX-X$XU.2./ B y = @ # # % # % $ $ @ ",
"X $ e v ` -.c.c.c.;.5.;.;.;.;.;.5.;.5.5.;.5.5.;.-.*.[ @.2.Y.$X:XOXD.B.J B.D.=X=X#XU.X.M k f q * # # @ @ @ @ @ $ ",
"O @ e x ` -.c.c.;.;.5.;.5.;.5.;.;.5.5.5.5.c.5.5.;.*.+.@.u.Y.$X>X<XoXA.C.D.oX<X<XXXV._ k f d 2 , ; # @ + + $ @   ",
"O $ 9 b ` =.c.;.c.5.;.;.5.;.;.;.5.;.5.5.5.5.5.5.;.:.[ +.u.U.#X:X,X<XOXoXOX<X,X<X].0.A i d E E K 1 * $ + +       ",
"X $ 9 l ` -.5.5.;.;.;.;.;.;.;.;.;.5.;.;.;.5.5.5.;.*.+.+.2.U.'.=X,X>X:X-X>X,X,X*XD.' V q < I T U 3 ; $ +         ",
"X $ 9 b } -.c.c.c.;.;.c.;.;.c.;.5.5.5.5.;.5.5.;.;.=.@.+.3.h._.#X*X*X&X&X&X&X&XXXV.J a = 4 P T Y K : # +         ",
"O $ e b } -.c.c.x.x.c.7.c.c.c.c.x.5.5.5.;.5.;.5.;.-.@.+.#.u.h.Y.T._._.`._.`.E.U.0.Z a * 4 P R Y K : % +         ",
"X $ 9 l ` =.c.c.x.5.5.5.;.;.;.;.5.5.5.5.;.5.5.5.-.*.*.+.#.>.2.u.s.s.u.s.s.s.u.y._ z 6 - 4 P T Y 3 : % +         ",
"O $ 9 l ^ #.=.=.=.=.=.&.&.=.$.&.=.=.=.-.;.;.;.;.-.-.$.O.#. .+.#.+.#.+.+.$.$.#.` ! c 6 = 1 L Y P 2 ; $ +         ",
"O $ 6 c b ^ ( ( ( / / ` ` ( ` / / ` #.=.;.;.-.-.-.@.$.+.O.O.] ] ] ] ] ] O.[ ] ) m t 5 = : 3 K K < - $ $         ",
"O $ % 9 t k l l l l l l k l l j l n / @.-.;.-.=.@.@.+.O.| O.] | ] ] ] ] { [ +.( M u 5 # & : < : - & $ @         ",
"@ @ $ 7 6 8 8 9 6 6 9 6 6 6 6 6 6 j ! | -.-.-.$.+.+.O.O.O.O.O.O.| | +.| [ +.+.) m u 6 @ # & = = % $ @ $         ",
"@ $ $ @ @ @ $ @ @ $ $ o $ $ $ 7 6 c ! O.-.-.:.@.@.+.+.+.+.+.+.O.+.+.| +.] } ` ^ b t 5 $ O O $ @ $ $ @ $         ",
"$ @ @ @ O O X O o o o o o $ 5 e g x ` +.:.-.:.*.@.@.@.@.@.+.O.| O.| +.| ] ^ M b g 9 % $ O + + + O + $           ",
"                    X o @ % r l ~ ) +.*.-.;.-.:.*.*.=.*.*.@.+.[ O.+.| | / m k t 9 7 $ @ O +                     ",
"                      o $ 6 u ~ #.-.;.;.;.5.;.;.;.;.;.;.-.=.$.+.+.+.+.| ~ l r 7 $ $ $ @ $                       ",
"                      X @ 0 v o.4.b.b.b.v.v.v.v.v.v.b.v.9.8.6.,.%.%.#.] ~ k 8 $ O O @ $                         ",
"                      . @ 9 A ,.b.R.M.M.n.n.n.n.n.n.n.n.m.l.f.p.6.1.%.| ~ g 8 @ X o @                           ",
"                      . @ 9 S t.M.(.(.(.!././.!././././.!.R.J.z.g.6.,.| Q g 8 @ O o                             ",
"                      . $ p F r.^. X.X X{. X X{.{. X X X[.~.I.L.k.a.1.| ! g 8 $ O                               ",
"                      . @ p F e.~.|..X|.|.|.}.}.}.|.|.|.{.[.[.P.k.a.6. .! g 8 $ o                               ",
"                      . $ p F w.~..X.X.X|.}.|.|.|.|.|.|.}.[.I.P.H.a.6. .! g 6 O .                               ",
"                      . @ p F w.~.|..X|.}.}.}.}.}.|.|.}.{.[.I.P.k.a.,.| ! g 8 @ o                               ",
"                      . $ p F w.^.|..X|.}.}.}.}.}.}.|.|.{.[.I.P.k.a.6. .! l r 6 %                               ",
"                      . o p F e.~.|..X|.}.|.}.}.}.|.|.|.}.[.~.P.k.g.,. ./ m l g t 9                             ",
"                      . @ p W g.~.|..X|.|.}.}.|.|.|.|.|.}.[.~.K.k.a.6.+.] ( ^ ~ b t 7 o X O @                   ",
"                      . @ p F r.~..X|.|.}.}. X}.}.}.}.}.{.[.^.K.k.a.,.+.[ @.@.| ~ j 6 $ O @ $ @                 ",
"                      . @ p S r.R. X X{.{.{.}. X{.[.~.^.^.P.K.H.k.a.,. .@.&.=.$.` b t 6 $ $ $ @ @               ",
"                    o . o 9 A t.m.!.(.~.[.[.[.[.~.P.F.g.r.g.j.k.f.6.%.#.@.&.=.=.| ^ b g r 6 $ @ O               ",
"                $ @ o o o 8 v o.d.m.R.!.^.~.~.^.P.F.t.W W ..,.p.8.6.&.#.+.$.&.$.$.+.} ~ k r 7 @ o               ",
"                @ @ O O $ 9 l } 4.f.m.L.L.I.I.I.F.t.W s s N  .-.7.4.$. .| +.+.+.#.&.$.} m t 7 @ o               ",
"              @ $ $ $ 5 8 u n } =.c.f.b.k.L.L.J.z.t.D - 8 g ^ &.:.=.$.| ] ) ( ( ] +. .} b t 7 O o               ",
"              O $ $ 6 r l m ( O.-.7.9.f.j.l.l.m.g...v 0 % u ! @.=.:.$.] ] ~ n N b M Q b j 9 $ $ o               ",
"              o @ 7 r l ~ | @.*.;.7.8.v.v.b.b.f.6. .v 8 5 u ! [ $.&.$.| / b u r r t u t 9 6 $ $ @               ",
"              o O 7 t M O.-.;.;.;.;.;.;.;.-.;.;.%._ k 8 6 u n ( | +. .] ~ k 9 7 $ % 7 7 $ $ $ @                 ",
"              X O 6 j ~ $.;.x.x.-.=.$.+.O.| O.] ] B u 8 5 w l ! ^ ^ ^ Q b t 6 $ O o @ @ @ @ @ $                 ",
"              X @ 7 j ~ &.7.c.5.=.#.] ~ m n n n b g e 7 % 8 t g B l l l t 9 $ @ o X o                           ",
"              X @ 5 g ~ $.5.x.-.$.} Q l t w r r 9 9 7 $ $ 7 6 9 9 9 9 e 6 7 $ $ @ o                             ",
"                @ 5 u M  .&.&.@.} ^ B r 7 $ $ $ $ $ $ $ $ $ $ $ $ $ % $ $ $ $ $ $                               ",
"                O 7 u N ^ ( ( ^ M b t 8 $ o o o o @ @ @ + $ @ O @ o O O o @ @ @                                 ",
"                    r g l l l l g t 9 7 $ o o o                                                                 ",
"                      8 9 9 9 9 6 6 7 $ $ @ o                                                                   ",
"                      $ $ $ $ $ $ $ $ $ @ $                                                                     ",
"                      o X o o o o o o @ @ @                                                                     "
};
