/* XPM */
static char *__resized[] = {
/* columns rows colors chars-per-pixel */
"56 64 202 2 ",
"   c None",
".  c #262E19",
"X  c #292E1D",
"o  c #2C311F",
"O  c #2E3520",
"+  c #2C3820",
"@  c #313620",
"#  c #3B3621",
"$  c #333921",
"%  c #393C23",
"&  c #423722",
"*  c #4B3723",
"=  c #423923",
"-  c #4A3924",
";  c #533924",
":  c #5C3A25",
">  c #5B3625",
",  c #643926",
"<  c #6B3A26",
"1  c #6C3926",
"2  c #743B28",
"3  c #7B3A29",
"4  c #713625",
"5  c #3C4325",
"6  c #3F4826",
"7  c #364023",
"8  c #414A27",
"9  c #444D28",
"0  c #48472B",
"q  c #475229",
"w  c #4A552B",
"e  c #4D5A2C",
"r  c #475627",
"t  c #515E2D",
"y  c #575229",
"u  c #4D4D33",
"i  c #464B36",
"p  c #56573A",
"a  c #504D36",
"s  c #674E27",
"d  c #55632F",
"f  c #59692F",
"g  c #5D722E",
"h  c #556330",
"j  c #596731",
"k  c #5E6D33",
"l  c #5A633C",
"z  c #5E7232",
"x  c #616E33",
"c  c #666C3C",
"v  c #637334",
"b  c #677936",
"n  c #697B36",
"m  c #6C7E38",
"M  c #67733B",
"N  c #616D2D",
"B  c #5B5F50",
"V  c #5E6153",
"C  c #6B6A47",
"Z  c #726C49",
"A  c #77754A",
"S  c #646957",
"D  c #6A7254",
"F  c #7D7253",
"G  c #7F7950",
"H  c #757C6B",
"J  c #833B2A",
"K  c #8A3D2B",
"L  c #923C2B",
"P  c #9C3C2C",
"I  c #A33C2D",
"U  c #AB3E2E",
"Y  c #B63E2F",
"T  c #BA3E30",
"R  c #804228",
"E  c #857858",
"W  c #6D8237",
"Q  c #6E8139",
"!  c #71843A",
"~  c #768B3C",
"^  c #798E3D",
"/  c #7C923E",
"(  c #778745",
")  c #7E9440",
"_  c #7E9049",
"`  c #788752",
"'  c #7E8574",
"]  c #859D3E",
"[  c #88A23F",
"{  c #87A03E",
"}  c #828B49",
"|  c #819641",
" . c #849B42",
".. c #849A48",
"X. c #8E9C56",
"o. c #979759",
"O. c #929F4F",
"+. c #87A041",
"@. c #8AA344",
"#. c #8EA845",
"$. c #8DA44B",
"%. c #91AB46",
"&. c #91A54C",
"*. c #93AE48",
"=. c #94B146",
"-. c #96B249",
";. c #99B54A",
":. c #9EBB4C",
">. c #98B547",
",. c #92A751",
"<. c #96AB5A",
"1. c #9AAE5D",
"2. c #99A855",
"3. c #9DB256",
"4. c #8FA15B",
"5. c #A1BE4E",
"6. c #A2A95B",
"7. c #A7B759",
"8. c #998865",
"9. c #929D78",
"0. c #8F9C78",
"q. c #A59969",
"w. c #B79E79",
"e. c #B89F7A",
"r. c #B19D73",
"t. c #A7926F",
"y. c #9BAE64",
"u. c #9AA970",
"i. c #ACAB65",
"p. c #B3AE6B",
"a. c #A2B56B",
"s. c #A7BB6F",
"d. c #B7B56C",
"f. c #BBA17B",
"g. c #A9BB75",
"h. c #A7B975",
"j. c #C6B67B",
"k. c #C1AE7B",
"l. c #A3C14F",
"z. c #A6C450",
"x. c #ADC05A",
"c. c #A8C154",
"v. c #B1C55B",
"b. c #BAC267",
"n. c #C5C771",
"m. c #C9CA74",
"M. c #C1C36F",
"N. c #9A9C95",
"B. c #989E87",
"V. c #9FA19A",
"C. c #9CA28B",
"Z. c #A3A89B",
"A. c #ABB78D",
"S. c #A9ABA5",
"D. c #B4B8AF",
"F. c #CDB484",
"G. c #CFBF81",
"H. c #D2B48A",
"J. c #DEBC92",
"K. c #C9AC85",
"L. c #E1BF95",
"P. c #B6C58A",
"I. c #BCCB93",
"U. c #B7C395",
"Y. c #D8C686",
"T. c #C1CD9E",
"R. c #C1D094",
"E. c #DFC091",
"W. c #E0CF8A",
"Q. c #E3D28C",
"!. c #EBC69C",
"~. c #E4C495",
"^. c #F0CB9F",
"/. c #F5D49E",
"(. c #E7D091",
"). c #CAD5AA",
"_. c #CED9AD",
"`. c #C8CDBC",
"'. c #D3DDB8",
"]. c #CFDAB0",
"[. c #F3CCA1",
"{. c #FBD5A5",
"}. c #FFD7A9",
"|. c #FFDAAC",
" X c #F8D5A1",
".X c #FFDEB0",
"XX c #CBCCCA",
"oX c #D5D6D4",
"OX c #DADAD8",
"+X c #D2D8C4",
"@X c #DEE5CA",
"#X c #DDE5C6",
"$X c #DFE0DE",
"%X c #E2EACC",
"&X c #EAEEDC",
"*X c #ECF1DE",
"=X c #ECECEC",
"-X c #E9EAE6",
";X c #EFF1E9",
":X c #EDF1E1",
">X c #F1F3EC",
",X c #F8F9F7",
/* pixels */
"        o o o o o o O X O X O X O O o o o o O O X O X O o o o o o O o O o o O o o o o @ @ @ @ $                 ",
"        $ $ $ $ $ $ $ $ $ $ $ $ $ $ $ $ $ $ $ $ $ $ $ @ $ $ $ $ $ $ $ $ $ $ $ $ $ $ $ $ $ @ $ @ $               ",
"      8 9 9 9 9 9 9 q q 9 9 9 9 9 9 6 q 9 9 9 9 9 9 9 9 9 8 8 8 8 8 8 8 8 8 8 8 8 8 8 6 5 % $ $ @               ",
"    8 e j k k v k k k k k v k x k z z k k k k k k z x k k k j h d d d d t d d d d d d t 9 6 $ + O +             ",
"o $ 9 j m ^ ) ) ) ) ) ) ) ) ) ) ) ) ) ) ) ) ) ) _ ) ) ) ) ~ ~ Q m m m m m m ! m Q Q Q v h 9 % @ O + +           ",
"o $ 9 k ) #.;.;.-.-.-.-.-.-.-.-.-.-.-.-.-.-.-.-.-.;.-.-.*.#.+. .| | ] ]  .|  .|  . .| ~ x r 7 @ @ $ $ #         ",
"o $ 9 v ) ;.z.5.:.:.:.;.;.:.;.;.;.:.5.5.5.5.5.5.5.:.:.;.;.*.#.@. .@.@.@.@.+.+.+.#.@.+./ v e 5 # # * * ; -       ",
"o $ q v  .:.z.5.;.-.-.-.-.-.-.-.-.;.:.l.z.z.z.z.z.:.:.;.-.#.@.[ [ @.@.%.@.@.[ [ +.#.@.) v e 5 # ; 1 2 1 , - $   ",
"O $ 9 v ..;.5.:.*.%.#.#.#.#.#.#.%.%.;.:.5.z.z.5.:.;.-.%.#.@.@.+.] @.@.@.@.+.+.+.@.@.@.) v w 5 * 1 K P L 1 - + + ",
"O $ 9 k ^ %.-.*.%.@.#.+.+.$.#...@.#.%.%.-.;.;.:.:.;.%.$.@.@.$.$.&.+. . . ...$.$.&.%.@.~ v r 5 ; 3 P Y R 2 - $ + ",
"O @ 6 t b ^  .+.$.#.#.&.#.#.#.#.#.@.+.) ) +.$.;.:.=.%.@.$.<.a.h.a.4._ ( _ 4.a.h.a.1.$.~ v r 8 ; 3 U T I 2 - $ + ",
"O @ % 9 t k m ^ +.%.*.-.*.*.-.*.%.#.( W b Q ) -.:.;.%.@.,.a.P.T.U.9.A M ` 0.U.T.P.s.,.^ z r % ; J U T I 3 - $ + ",
"@ @ $ % 6 q j ! +.-.:.5.;.;.:.:.>.@.! h e f ! @.;.>.#.@.<.P.].#X`.B.S p D C.`.@X].P.<.^ g 6 5 ; 3 I Y P 2 - $ + ",
"@ $ $ % % 9 h ! $.;.5.5.5.5.5.5.:.$.! h w h ! @.;.>.#.#.1.I.#X:XoXN.B B S V.oX;X#XI.<./ g r 5 - 4 P I L 2 - $ O ",
"+ $ 7 6 9 h v ) %.:.5.5.5.5.5.z.:.%.) b k z ^ %.>.>.#.#.y.I.%X>XoXN.B 6 V V.OX>X%XR.3.) g r 7 = : 3 K 3 : = $ + ",
"O $ 5 w k ! | #.-.:.5.5.5.5.5.5.:.-.@.) ( ) @.>.:.=.#.@.y.I.%X;XoXN.B 6 V V.OX>X%XR.3.) g r 7 7 * > , > - # $ + ",
"O $ 9 j ! @.-.:.;.:.5.5.:.5.5.5.:.:.;.*.%.-.;.;.>.=.#.#.<.I.%X;XOXV.V i V V.OX;X%XR.4.] N r 7 # # # & = % $ @ @ ",
"O $ 9 x ) -.:.z.z.:.:.:.5.:.:.:.:.:.:.:.:.:.5.5.:.=.[ %.<.I.@X;X$XS.' V ' D.$X;X#XA.X.! N y 0 & # $ $ @ $ @ @ $ ",
"X $ 9 v  .;.z.z.:.:.:.5.:.:.5.5.5.5.5.z.5.z.z.:.:.=.#.@.y.I.@X>X=XXXS.N.S.XX=X>X'.C.( x s s < : - # @ + + $ @ $ ",
"o $ 9 v ) ;.5.z.z.5.:.:.:.5.:.:.:.5.5.5.5.5.5.:.:.=.[ #.<.I.@X,X,X-XoXXXOX=X,X;XXX9.C y s R L J , * $ + +       ",
"O $ 9 k ) -.z.5.:.:.:.:.:.:.:.:.:.:.:.5.:.5.:.5.:.=.#.@.<.P.#X>X,X>X>X=X>X,X,X-XD.' B - 1 K I P 3 ; $ +         ",
"X $ q v ) ;.5.z.z.:.5.5.z.:.z.:.5.5.5.:.:.5.:.5.5.=.#.@.<.g.).@X-X-X&X&X*X:X&X+XZ.` i - 4 P T I J ; $ +         ",
"O $ q k  .;.z.z.z.5.5.z.z.:.z.:.z.5.5.5.5.:.5.5.:.=.%.@.,.a.P.I.)._._._._._.).U.0.S i & 4 I T U J : % +         ",
"X $ q k ) ;.z.z.5.z.5.5.:.z.z.:.5.5.5.5.:.5.:.5.:.=.%.@.@.4.y.a.h.g.h.h.A.b.g.y.` l 8 * 4 P T U J : % +         ",
"O $ 9 k ) #.-.;.;.;.;.-.;.;.-.;.;.;.:.:.:.:.5.:.:.-.#.@.#.) %.%.$.$.%.$.,.*.,._ Q t 6 - < L U P 3 ; % +         ",
"O @ 8 t b ) .. . .| )  .)  . .) ) @.$.-.:.:.:.;.;.*.#.@.#.) ) #.) +./ { { +.[ / b e 6 # , 3 L K < - # +         ",
"@ $ 5 9 h k v v v v v v v v v k k n ) #.;.:.;.-.%.%.@.@.) #.[ ) { { ) { [ [ [ / n d 9 # * , < , ; = $ @         ",
"@ $ $ 5 9 9 w q q q q q q q q 9 w h Q @.;.;.;.%.$.@.$.) #.) #.) +.+.[ [ [ #.[ ) m t 5 $ # & * = = % @ $         ",
"@ $ $ $ $ $ $ % $ % $ $ $ % % 7 6 t W ) ;.:.;.%.@.@.) %.#.) #.#.+.+...@.+.+.+.^ M e 5 $ @ @ $ % % $ @ @         ",
"$ @ @ @ O O X O O O o o O $ 7 6 t k ~ @.>.:.=.%.#.#.#.#.%.%.) #.+.+.+.+.) / Q b h q 7 + O O + + + + $           ",
"                    X X O % q j W ^ +.%.>.:.>.=.=.=.=.=.%.#.) ) +.+. . ./ Q z e q 6 % $ O +                     ",
"                      O @ 6 t Q  .%.;.:.:.:.:.:.>.:.;.;.;.=.=.#.+.#.@. .~ k e 6 % $ $ @ @                       ",
"                      o $ 8 k } 5.v.v.v.x.x.x.7.x.x.x.x.7.7.3.*.,.&.@. .! j 9 $ O @ @ @                         ",
"                      X @ q c X.d.m.m.m.n.n.n.m.n.n.n.n.M.d.p.i.6.2.O. .m d 6 # o O @                           ",
"                      X $ 0 Z q.m.(.Q.Q.Q.W.Y.W.Q.Q.Q.W.Y.Y.F.f.p.6.2. .W d 6 @ O X                             ",
"                      . @ u A r.~. X}. X X/./. X/././././.(.L.H.k.p.2. .W d 9 $ O                               ",
"                      . @ u F w.!.}..X|.}.}.}.}.}.|.|.}.}.[.!.J.j.p.6...W d 8 $ O                               ",
"                      . $ u F f.!.|..X|.|.}.|.|.}.|..X.X|.}.!.L.H.d.6. .W d 6 o X X                             ",
"                      . $ u F e.!.|..X|.}.}.}.}.|.|.|.|.}.[.!.L.j.d.6. .W d 6 $ O X + O @ @ $ @                 ",
"                      . o u F e.!.|.|.}.}.}.}.}.}.{.{. X[.!.J.H.k.p.2. .W f r 5 % $ % % % $ $ @                 ",
"                      . $ u F e.!.}..X|.}.}.|.|.{.^.~.H.K.e.w.t.q.o.O. .~ b j t w e e w 9 5 $ $ @               ",
"                      . @ u F f.^.|..X|.}.|.|.|.{.L.f.t.E E F F E } .. .] ^ ! m m ! m v t 9 % O O               ",
"                      . $ u F e.!.}..X|.|..X|.|.^.F.8.Z p a a p l M } ] @.@.$. .@.#...] v e 5 O O               ",
"                      . o u A r.~. X|.}. X X X/.J.r.8.p 0 % 5 0 y x ~  .#.-.-.-.;.-.%.| b e 5 @ X               ",
"                      X @ 0 C q.G.(././.^.!.J.K.f.8.A l t r w t k n ^  .%.-.;.;.-.&. .~ k w 7 O O               ",
"                      X $ 9 c O.d.m.W.~.~.H.w.8.E G ! Q W W W Q ~ ^  .@.#.*.-.*. .^ b j w 6 % @ O               ",
"                      X @ 9 x } 7.d.m.Y.H.w.E Z p x !  .#.#.%.#.#.@. .@.@.#.@. .~ x w 8 % % $ $ @               ",
"                      X @ 8 f ^ -.x.M.j.K.t.E p 9 e Q #.;.5.:.;.-.*.%. . . .] ! v t 6 @ O @ $ +                 ",
"                      o @ 6 f ^ -.5.b.b.d.o.C q 5 e n [ :.5.5.:.;.-.%.+.| ~ m k t 9 % O O O @                   ",
"                      X $ 6 f ^ -.z.v.b.i.X.C 0 7 e n +.*.-.-.-.*.*.%.../ m j w 8 7 $ O O @                     ",
"                      o @ 6 f ~ *.:.c.z.3...v q 5 w b / ..#.#.+.+.@.+. .! k w 5 $ $ $ @ @                       ",
"                        $ 6 j Q  .*.;.:.>.] v q 5 9 j W ~ ) ) ~ ^ ^ ^ ~ b d 9 $ O @ @ $                         ",
"                          6 e k m ( @.=.;. .v 9 % 5 w f v v v k v x x k j r 6 O X O @                           ",
"                            9 w e k ^ #.;.+.n q % % 5 9 r r w q w w w r q 9                                     ",
"                              $ 5 e b  .#. .n w 7 $ $ % % 5 % 5 % 5 % % %                                       ",
"                                $ 9 k ! ) ~ b j q 6 7 $ @ O O O O O @ @ @                                       ",
"                                  6 e k v v v v k e 9 % @ X X O                                                 ",
"                                    9 9 w j v Q Q v w 5 @ O                                                     ",
"                                      $ 5 w k ! ~ v t 5 @ O                                                     ",
"                                        $ 9 j b m k e 5 @ O                                                     ",
"                                          6 e t d e 9 $ @ O                                                     ",
"                                            6 9 6 5 % $ $ @                                                     ",
"                                            $ $ $ $ $ $ $ @                                                     ",
"                                            X O O O O $ $ $                                                     "
};
